<svg width="112" height="33" viewBox="0 0 112 33" fill="none" xmlns="http://www.w3.org/2000/svg">
<path d="M76.4144 3.97155H65.755C66.2162 2.98695 66.5064 2.32882 66.6307 2.01271C66.7373 1.75027 66.7986 1.47168 66.8121 1.18876C66.8103 1.02851 66.7732 0.870623 66.7033 0.726397C66.6334 0.58217 66.5326 0.455163 66.4079 0.354438C66.1461 0.124101 65.8083 -0.00139485 65.4596 0.00204952C65.2373 -0.0106501 65.0155 0.035839 64.817 0.136782C64.6202 0.265743 64.4611 0.444546 64.3558 0.654994C64.2159 0.924464 64.019 1.37531 63.7703 1.99198C63.3582 3.13658 62.8682 4.25162 62.3038 5.32927C61.8013 6.23334 61.2332 7.09935 60.6041 7.92033C60.2051 8.43854 59.9304 8.80129 59.7853 9.02412C59.6589 9.19134 59.5817 9.39058 59.5625 9.59934C59.575 9.94057 59.7222 10.2629 59.9719 10.4958C60.0861 10.626 60.2262 10.7311 60.3832 10.8042C60.5402 10.8774 60.7107 10.9171 60.8839 10.9208C61.3088 10.9208 61.7804 10.6047 62.283 9.97763C63.0726 8.89842 63.781 7.76215 64.4025 6.57816H76.4144C77.4508 6.57816 77.969 6.14805 77.969 5.293C77.969 4.43795 77.4456 3.97155 76.4144 3.97155Z" fill="white"/>
<path d="M77.1317 16.8286C77.49 16.4897 77.7206 16.0377 77.7847 15.5486C77.7764 15.3769 77.7315 15.2089 77.6528 15.0561C77.5741 14.9032 77.4636 14.769 77.3286 14.6625C77.0568 14.4086 76.7004 14.2646 76.3285 14.2583C76.0628 14.266 75.8073 14.3627 75.603 14.5329C75.2521 14.8371 74.9421 15.1855 74.6806 15.5694L72.5457 17.9065L72.0637 18.4247C71.6407 16.3952 71.3653 14.3377 71.2398 12.2683L71.758 12.0714C72.7529 11.6465 73.4992 11.3097 73.9655 11.0661C74.3283 10.898 74.6568 10.6644 74.9346 10.3769C75.1158 10.1649 75.2135 9.894 75.2092 9.6151C75.2173 9.23258 75.0782 8.86156 74.8206 8.57868C74.7118 8.44358 74.5747 8.33407 74.4188 8.25795C74.263 8.18182 74.0923 8.14093 73.9189 8.13819C73.7535 8.13382 73.5887 8.15837 73.4318 8.21074C73.2178 8.29642 73.01 8.39685 72.8099 8.51131C72.1467 8.88442 70.9392 9.47518 69.224 10.2629C67.5088 11.0505 66.063 11.662 64.9333 12.0818C64.3516 12.2695 63.8415 12.6312 63.472 13.1182C63.1679 13.618 63.0199 14.1972 63.0471 14.7817V26.9337L62.1298 27.1928C61.6849 27.3051 61.2672 27.506 60.9017 27.7836C60.7823 27.8928 60.6884 28.027 60.6266 28.1765C60.5648 28.3261 60.5367 28.4874 60.5441 28.649C60.543 28.8135 60.5756 28.9765 60.6397 29.128C60.7039 29.2795 60.7983 29.4163 60.9173 29.53C61.026 29.6468 61.1575 29.7402 61.3036 29.8043C61.4498 29.8685 61.6075 29.9021 61.7671 29.9031C62.0428 29.8822 62.3137 29.8193 62.5703 29.7165C62.9279 29.5973 63.3424 29.4419 63.8088 29.2657C63.9676 29.2141 64.1233 29.1535 64.2752 29.0843C64.482 28.996 64.695 28.9233 64.9126 28.8667C65.9801 28.4417 66.7522 28.1308 67.2186 27.9287C68.6125 27.312 69.4468 26.9286 69.6904 26.7938C69.9104 26.677 70.1044 26.5165 70.2604 26.3223C70.38 26.1413 70.4398 25.9275 70.4314 25.7108C70.4362 25.4077 70.3207 25.1152 70.1101 24.8972C70.0098 24.7858 69.8864 24.6976 69.7486 24.6386C69.6109 24.5795 69.4619 24.5511 69.3121 24.5552C69.1823 24.566 69.0557 24.6011 68.939 24.6588C68.7835 24.7262 68.5348 24.835 68.2031 24.9904C67.545 25.3014 66.7418 25.6227 65.8246 25.9491V15.2792C65.8246 15.0425 65.8872 14.8101 66.006 14.6055C66.1234 14.4026 66.306 14.2455 66.5242 14.1598L69.0064 13.17C69.1548 15.7832 69.5804 18.3733 70.2759 20.8966C70.8691 23.0026 71.7571 25.0142 72.9136 26.8716C73.3727 27.7774 73.9905 28.5935 74.7377 29.2812C75.1748 29.6492 75.7214 29.8624 76.2923 29.8875C76.489 29.8867 76.6833 29.8437 76.8621 29.7614C77.0408 29.6792 77.1999 29.5596 77.3286 29.4108C77.4721 29.2634 77.5849 29.0891 77.6605 28.8979C77.7361 28.7066 77.773 28.5023 77.7691 28.2966C77.7772 28.035 77.7069 27.7769 77.567 27.5556C77.3359 27.2416 77.0775 26.9485 76.7949 26.6798C74.9397 24.8505 73.5924 23.2285 72.7944 20.8603L74.1884 19.5699C75.6963 18.2381 76.6809 17.3157 77.1317 16.8286Z" fill="white"/>
<path d="M57.276 12.0868H53.7212L53.7523 7.98255H59.2452C60.2142 7.98255 60.7013 7.54208 60.7013 6.66112C60.7176 6.48161 60.694 6.30071 60.6322 6.1314C60.5704 5.96208 60.4719 5.80852 60.3438 5.6817C60.0247 5.45434 59.6359 5.34613 59.2452 5.37595H49.0626C48.0521 5.37595 47.5391 5.81125 47.5391 6.66112C47.5391 7.51099 48.0573 7.98255 49.0626 7.98255H51.2183C51.2183 13.4497 51.0058 17.4607 50.5861 19.9014C50.363 21.1995 50.016 22.4733 49.5497 23.7051C49.1047 24.928 48.5351 26.1019 47.85 27.2082C47.7467 27.3712 47.6615 27.5449 47.5961 27.7264C47.5594 27.8703 47.542 28.0184 47.5442 28.1669C47.5435 28.3516 47.5792 28.5346 47.6495 28.7053C47.7197 28.8761 47.8231 29.0313 47.9536 29.1619C48.0781 29.2972 48.2296 29.4049 48.3983 29.4781C48.567 29.5513 48.7491 29.5883 48.933 29.5868C49.4046 29.5868 49.8917 29.2448 50.384 28.5763C50.9863 27.678 51.4591 26.6993 51.7883 25.6691C52.3188 24.1697 52.7159 22.6263 52.975 21.057C53.3 18.9587 53.5179 16.8451 53.6279 14.7245H56.478C56.6116 14.7122 56.7464 14.7274 56.8738 14.7693C57.0013 14.8112 57.1188 14.8789 57.219 14.9681C57.2932 15.0622 57.3471 15.1706 57.3774 15.2865C57.4077 15.4024 57.4138 15.5234 57.3952 15.6417L57.3279 17.3777C57.1983 20.2797 57.0739 22.4459 56.9651 23.8036C56.9249 24.6855 56.8017 25.5617 56.5972 26.4205C56.3536 27.1253 55.7422 27.457 54.7783 27.457C54.3272 27.4169 53.8772 27.5442 53.5139 27.8145C53.3765 27.9534 53.2703 28.12 53.2023 28.3032C53.1344 28.4864 53.1064 28.682 53.1201 28.8769C53.0998 29.0736 53.1196 29.2724 53.1784 29.4612C53.2372 29.6501 53.3337 29.825 53.4621 29.9755C53.8012 30.2284 54.2228 30.3449 54.6436 30.3019C55.2951 30.2899 55.942 30.1888 56.5661 30.0014C57.1238 29.8656 57.6511 29.6265 58.1207 29.2966C58.5805 28.8904 58.8937 28.344 59.012 27.742C59.2682 26.577 59.4311 25.3935 59.4991 24.2026L59.7323 21.2592L59.9655 14.4809C60.0028 14.1723 59.9761 13.8593 59.8869 13.5615C59.7978 13.2636 59.6481 12.9874 59.4473 12.7501C59.149 12.4985 58.8028 12.31 58.4296 12.196C58.0564 12.082 57.664 12.0448 57.276 12.0868Z" fill="white"/>
<path d="M89.6128 7.54688H85.9854C84.4308 7.54688 83.669 8.31901 83.669 9.83737L83.6379 18.7195C83.6536 20.5301 83.5114 22.3386 83.213 24.1245C83.0063 25.4514 82.6482 26.7502 82.1455 27.9955C81.9626 28.3867 81.8536 28.8084 81.8242 29.2392C81.8242 30.0269 82.244 30.4259 83.0731 30.4259C83.6379 30.4259 84.1095 29.8507 84.4826 28.7106C85.2428 26.4242 85.6992 24.0477 85.8403 21.6422H89.6905V27.0679C89.6905 27.752 89.3692 28.1043 88.7059 28.1043H87.8302C87.6688 28.0795 87.5039 28.0931 87.3489 28.144C87.1938 28.1949 87.053 28.2817 86.9378 28.3974C86.8227 28.5131 86.7364 28.6543 86.6862 28.8096C86.636 28.9649 86.6231 29.1299 86.6487 29.2911C86.6487 30.1046 87.0891 30.514 87.9597 30.514H89.2552C90.006 30.5773 90.7512 30.3406 91.328 29.8559C91.8199 29.2467 92.0543 28.4694 91.9809 27.6898V10.0706C91.9913 8.38638 91.1933 7.54688 89.6128 7.54688ZM89.6128 19.3673H85.7107L85.7418 15.6673H89.6128V19.3673ZM89.6128 13.3923H85.7418L85.7781 10.936C85.7781 10.2519 86.0527 9.89956 86.6279 9.89956H88.7318C88.974 9.87902 89.2144 9.95543 89.4003 10.112C89.5572 10.2998 89.6336 10.5419 89.6128 10.7857V13.3923Z" fill="white"/>
<path d="M109.306 27.2187L106.197 25.3168C105.887 25.1157 105.529 24.9995 105.16 24.98C104.993 24.9548 104.822 24.9687 104.661 25.0204C104.5 25.0721 104.353 25.1604 104.232 25.2782C104.11 25.3961 104.018 25.5404 103.961 25.6999C103.905 25.8594 103.886 26.0298 103.906 26.1978C103.905 26.2969 103.927 26.395 103.969 26.4848C104.011 26.5745 104.073 26.6535 104.15 26.716C104.374 26.9081 104.621 27.0717 104.886 27.2031L108.187 29.2086C108.943 29.6543 108.979 29.8771 109.29 29.8771C110.078 29.8771 110.477 29.4262 110.477 28.5246C110.482 28.0115 110.088 27.5762 109.306 27.2187Z" fill="white"/>
<path d="M105.456 24.1505C105.892 23.9683 106.241 23.6249 106.431 23.1918C106.483 23.0631 106.504 22.9242 106.494 22.7858C106.483 22.6474 106.44 22.5134 106.369 22.3943C106.297 22.2752 106.199 22.1744 106.082 22.0996C105.965 22.0249 105.833 21.9783 105.695 21.9636C105.368 21.8703 104.866 22.0414 104.197 22.4818C103.836 22.6498 103.547 22.9423 103.384 23.3058C103.332 23.4349 103.312 23.574 103.323 23.7124C103.335 23.8507 103.378 23.9845 103.45 24.1034C103.522 24.2222 103.62 24.3229 103.737 24.3976C103.854 24.4723 103.987 24.519 104.125 24.534C104.601 24.5761 105.076 24.4394 105.456 24.1505Z" fill="white"/>
<path d="M83.6896 4.97712H90.3225V6.01354C90.3225 6.84787 90.7733 7.26762 91.675 7.26762C91.8471 7.29389 92.0229 7.27985 92.1886 7.22661C92.3544 7.17337 92.5055 7.08238 92.6301 6.96081C92.7546 6.83923 92.8493 6.6904 92.9066 6.52602C92.9639 6.36165 92.9822 6.18622 92.9601 6.01354V4.97712H100.806V6.01354C100.806 6.84787 101.251 7.26762 102.127 7.26762C103.003 7.26762 103.48 6.84787 103.48 6.01354V4.97712H109.807C110.745 4.97712 111.227 4.56773 111.227 3.75932C111.227 2.95091 110.745 2.53634 109.807 2.53634H103.48V1.35482C103.48 0.546406 103.024 0.131836 102.127 0.131836C101.231 0.131836 100.806 0.546406 100.806 1.35482V2.53634H92.9601V1.35482C92.9601 0.546406 92.53 0.131836 91.675 0.131836C90.82 0.131836 90.3225 0.546406 90.3225 1.35482V2.53634H83.6896C82.7672 2.53634 82.3008 2.95091 82.3008 3.75932C82.3008 4.56773 82.7672 4.97712 83.6896 4.97712Z" fill="white"/>
<path d="M101.758 18.7354C100.95 18.7354 100.541 19.1914 100.541 20.0879V27.3429C100.542 27.601 100.454 27.8517 100.292 28.0528C100.106 28.2094 99.8657 28.2858 99.6235 28.2653H98.8203C97.9653 28.2653 97.5352 28.6747 97.5352 29.4831C97.5352 30.2915 98.0534 30.7061 99.0224 30.7061H100.292C100.662 30.7527 101.038 30.7129 101.39 30.5898C101.743 30.4666 102.062 30.2635 102.322 29.9964C102.583 29.7293 102.778 29.4054 102.892 29.0502C103.007 28.695 103.037 28.3181 102.981 27.9492V20.0879C102.981 19.1914 102.567 18.7354 101.758 18.7354Z" fill="white"/>
<path d="M99.6204 26.1873C99.6144 25.8863 99.5004 25.5975 99.2991 25.3737C99.1954 25.2846 99.0735 25.2194 98.9419 25.1827C98.8102 25.146 98.6721 25.1387 98.5373 25.1612L97.1745 25.8245L94.967 26.7988C93.744 27.317 93.1481 27.8352 93.1895 28.3223C93.1969 28.6398 93.3162 28.9445 93.5264 29.1825C93.6125 29.2623 93.7138 29.324 93.8241 29.364C93.9344 29.4041 94.0517 29.4216 94.1689 29.4157H94.3088C94.6023 29.3508 94.8887 29.257 95.1639 29.1359L96.4076 28.6177C98.6306 27.6383 99.6826 26.8454 99.6204 26.1873Z" fill="white"/>
<path d="M104.939 9.73876C104.452 10.5731 104.234 11.0913 104.26 11.3193C104.348 12.0085 104.814 12.3091 105.638 12.2003C106.156 12.1381 106.592 11.7391 107.017 11.0084C107.442 10.2777 107.685 9.64548 107.644 9.33455C107.556 8.64015 107.094 8.34477 106.27 8.44841C105.866 8.50023 105.421 8.93554 104.939 9.73876Z" fill="white"/>
<path d="M97.4942 8.62488C96.6703 8.50569 96.2039 8.78553 96.1055 9.45402C96.1147 9.66665 96.1733 9.87421 96.2765 10.0603C96.406 10.3557 96.4941 10.5785 96.5408 10.677C96.9501 11.5891 97.4062 12.0917 97.8933 12.1591C98.7172 12.2783 99.1888 11.957 99.2976 11.2004C99.305 10.6386 99.1224 10.0908 98.7794 9.64576C98.6532 9.39172 98.4727 9.16857 98.2506 8.99214C98.0285 8.81571 97.7702 8.69032 97.4942 8.62488Z" fill="white"/>
<path d="M98.9614 24.6481C99.7128 24.6481 100.091 24.3061 100.091 23.6117C100.091 23.2749 99.8424 22.9277 99.3501 22.5753C98.984 22.2794 98.5458 22.0863 98.0805 22.0156C97.3706 22.0156 97.0078 22.3369 97.0078 22.9743C97.0078 23.3163 97.3861 23.762 98.1582 24.3372C98.3862 24.5234 98.6675 24.6322 98.9614 24.6481Z" fill="white"/>
<path d="M54.6169 4.56218C54.9129 4.08974 55.0645 3.54108 55.0529 2.98365C55.0413 2.42622 54.867 1.88433 54.5516 1.42462C54.2361 0.964901 53.7932 0.607399 53.2773 0.396068C52.7613 0.184738 52.1949 0.128788 51.6476 0.235108C51.3515 0.707548 51.2 1.25621 51.2116 1.81364C51.2232 2.37107 51.3974 2.91296 51.7129 3.37267C52.0283 3.83239 52.4712 4.18989 52.9872 4.40122C53.5031 4.61255 54.0696 4.6685 54.6169 4.56218Z" fill="white"/>
<path d="M110.445 21.6736C108.305 21.3782 107.123 19.6318 106.056 18.1601H110.165C110.427 18.1587 110.678 18.054 110.863 17.8687C111.049 17.6834 111.154 17.4324 111.155 17.1703V17.0045C111.154 16.7424 111.049 16.4914 110.863 16.3061C110.678 16.1208 110.427 16.0161 110.165 16.0147H101.123C101.5 15.1139 101.828 14.1937 102.107 13.2578H109.217C109.478 13.2578 109.728 13.1541 109.913 12.9694C110.098 12.7848 110.201 12.5344 110.201 12.2732V12.1022C110.201 11.8411 110.098 11.5906 109.913 11.406C109.728 11.2213 109.478 11.1176 109.217 11.1176H102.672C102.838 10.4128 102.967 9.80653 103.081 9.21576C103.113 9.05022 103.11 8.88008 103.075 8.71541C103.039 8.55073 102.971 8.39488 102.874 8.25708C102.781 8.11781 102.659 7.99971 102.517 7.91044C102.375 7.82117 102.216 7.76272 102.05 7.73886C101.737 7.69503 101.419 7.77417 101.163 7.95968C100.907 8.14518 100.733 8.42264 100.677 8.73383C100.521 9.54742 100.345 10.3455 100.159 11.1124H94.36C94.0989 11.1124 93.8485 11.2162 93.6638 11.4008C93.4792 11.5855 93.3754 11.8359 93.3754 12.097V12.268C93.3754 12.5292 93.4792 12.7796 93.6638 12.9643C93.8485 13.1489 94.0989 13.2526 94.36 13.2526H99.542C99.2375 14.195 98.8705 15.116 98.4434 16.0095H93.5102C93.2257 16.0095 92.9528 16.1225 92.7517 16.3237C92.5505 16.5249 92.4375 16.7977 92.4375 17.0822C92.4375 17.3667 92.5505 17.6396 92.7517 17.8407C92.9528 18.0419 93.2257 18.1549 93.5102 18.1549H97.2205C96.2837 19.6442 94.9179 20.8149 93.3029 21.5129C93.0342 21.6266 92.8152 21.8331 92.6859 22.0946C92.5565 22.3562 92.5254 22.6554 92.5981 22.938C92.6381 23.1107 92.7147 23.2728 92.8229 23.4132C92.9311 23.5536 93.0683 23.669 93.2252 23.7516C93.3776 23.8354 93.5464 23.8853 93.7199 23.8978C93.8934 23.9103 94.0676 23.8852 94.2305 23.8242C96.5624 22.881 98.5367 20.974 100.096 18.1238H103.159C103.181 18.1975 103.211 18.2686 103.247 18.3363C104.175 19.9168 106.253 23.6376 110.191 24.1299H110.315C110.567 24.1308 110.81 24.0364 110.994 23.8656C111.101 23.7683 111.186 23.6498 111.244 23.5177C111.302 23.3856 111.331 23.2429 111.331 23.0987V22.6375C111.317 22.3994 111.221 22.1735 111.059 21.9979C110.898 21.8223 110.681 21.7077 110.445 21.6736Z" fill="white"/>
<path d="M40.7642 3.19141C34.4393 3.98619 28.5034 7.45433 25.0131 13.4235C23.8237 15.4577 23.0567 17.5864 22.6454 19.7429C21.7506 17.6253 20.5112 15.6189 18.8882 13.8293C14.2418 8.70486 7.72239 6.53171 1.36414 7.05416C0.21921 13.329 1.74208 20.0319 6.3885 25.1563C11.0294 30.2807 17.6266 32.6428 23.9849 32.1203C30.3098 31.32 36.09 27.9074 39.5804 21.9382C43.0707 15.9635 43.1763 9.09391 40.7642 3.19141ZM25.341 24.5616C25.291 23.5556 24.6907 22.7553 23.9571 22.7553C23.1901 22.7553 22.5676 23.6279 22.5676 24.7005C22.5676 25.7788 23.1901 26.6458 23.9571 26.6458C24.5795 26.6458 25.1076 26.0789 25.2854 25.2841C25.0353 27.0182 24.0404 28.3132 22.8455 28.3132C21.4616 28.3132 20.3444 26.5735 20.3444 24.4226C20.3444 22.2773 21.4616 20.5321 22.8455 20.5321C24.2294 20.5321 25.3465 22.2773 25.3465 24.4226C25.3465 24.4671 25.3465 24.5171 25.341 24.5616ZM31.4547 23.45C31.4047 22.444 30.8044 21.6437 30.0708 21.6437C29.3038 21.6437 28.6813 22.5163 28.6813 23.589C28.6813 24.6672 29.3038 25.5342 30.0708 25.5342C30.6933 25.5342 31.2213 24.9673 31.3991 24.1725C31.149 25.9066 30.1541 27.2016 28.9592 27.2016C27.5753 27.2016 26.4581 25.462 26.4581 23.3111C26.4581 21.1657 27.5753 19.4205 28.9592 19.4205C30.3431 19.4205 31.4602 21.1657 31.4602 23.3111C31.4602 23.3555 31.4602 23.4055 31.4547 23.45Z" fill="white" stroke="white" stroke-width="0.0555791" stroke-miterlimit="10"/>
<path d="M25.3493 24.7006C25.3493 24.8785 25.3326 25.0452 25.2992 25.2064C25.2992 25.2342 25.2937 25.262 25.2881 25.2842C25.1103 26.079 24.5823 26.6459 23.9598 26.6459C23.1928 26.6459 22.5703 25.7789 22.5703 24.7006C22.5703 23.628 23.1928 22.7554 23.9598 22.7554C24.6934 22.7554 25.2937 23.5557 25.3437 24.5617C25.3493 24.6062 25.3493 24.6562 25.3493 24.7006Z" fill="white" stroke="white" stroke-width="0.0555791" stroke-miterlimit="10"/>
<path d="M31.4586 23.5893C31.4586 23.7672 31.442 23.9339 31.4086 24.0951C31.4086 24.1229 31.4031 24.1507 31.3975 24.1729C31.2197 24.9677 30.6917 25.5346 30.0692 25.5346C29.3022 25.5346 28.6797 24.6675 28.6797 23.5893C28.6797 22.5166 29.3022 21.644 30.0692 21.644C30.8028 21.644 31.4031 22.4444 31.4531 23.4504C31.4586 23.4948 31.4586 23.5448 31.4586 23.5893Z" fill="white" stroke="white" stroke-width="0.0555791" stroke-miterlimit="10"/>
</svg>
