<svg width="20" height="20" viewBox="0 0 20 20" fill="none" xmlns="http://www.w3.org/2000/svg">
<rect width="20" height="20" rx="10" fill="#FFDF06"/>
<mask id="mask0_568_17758" style="mask-type:alpha" maskUnits="userSpaceOnUse" x="0" y="0" width="20" height="20">
<rect width="20" height="20" fill="#D9D9D9"/>
</mask>
<g mask="url(#mask0_568_17758)">
<path d="M11.1029 10.8335C10.6584 10.2085 10.0716 9.77447 9.34245 9.53141C8.61328 9.28836 7.85981 9.16683 7.08203 9.16683C6.30425 9.16683 5.55078 9.28836 4.82161 9.53141C4.09245 9.77447 3.50564 10.2085 3.0612 10.8335H11.1029ZM0.832031 12.5002C0.832031 10.9863 1.46398 9.77447 2.72786 8.86475C3.99175 7.95502 5.44314 7.50016 7.08203 7.50016C8.72092 7.50016 10.1723 7.95502 11.4362 8.86475C12.7001 9.77447 13.332 10.9863 13.332 12.5002H0.832031ZM0.832031 15.8335V14.1668H13.332V15.8335H0.832031ZM14.9987 19.1668V17.5002H16.1654L17.332 5.8335H9.3737L9.16537 4.16683H13.332V0.833496H14.9987V4.16683H19.1654L17.7904 17.9585C17.7487 18.3057 17.5959 18.5939 17.332 18.8231C17.0681 19.0522 16.7626 19.1668 16.4154 19.1668H14.9987ZM1.66536 19.1668C1.42925 19.1668 1.23134 19.087 1.07161 18.9272C0.911892 18.7675 0.832031 18.5696 0.832031 18.3335V17.5002H13.332V18.3335C13.332 18.5696 13.2522 18.7675 13.0924 18.9272C12.9327 19.087 12.7348 19.1668 12.4987 19.1668H1.66536Z" fill="#333333"/>
</g>
</svg>
