<svg width="680" height="281" viewBox="0 0 680 281" fill="none" xmlns="http://www.w3.org/2000/svg">
<path d="M51.8823 173.073C47.6977 174.217 43.835 176.314 40.5973 179.201C37.3597 182.088 34.8353 185.687 33.2223 189.713C31.9475 192.932 31.2894 196.362 31.2823 199.823C29.5172 196.967 27.2429 194.459 24.5723 192.423C21.1148 189.802 17.0955 188.021 12.8315 187.219C8.56759 186.417 4.17563 186.617 0.00225433 187.803C-0.0530013 192.145 0.908212 196.439 2.80902 200.342C4.70982 204.245 7.49752 207.65 10.9492 210.283C14.4009 212.917 18.4209 214.706 22.6877 215.508C26.9545 216.311 31.3498 216.103 35.5223 214.903C35.5223 214.803 35.5223 214.693 35.5223 214.593C39.7039 213.456 43.5623 211.357 46.79 208.465C50.0178 205.574 52.5258 201.968 54.1146 197.936C55.7033 193.904 56.3288 189.557 55.9412 185.24C55.5537 180.924 54.1638 176.758 51.8823 173.073Z" fill="#333333"/>
<path d="M35.0627 209.343L37.2627 221.623C37.3398 222.043 37.2503 222.476 37.0132 222.831C36.776 223.186 36.41 223.434 35.9927 223.523L25.4627 225.843C25.1192 225.905 24.7649 225.857 24.4508 225.705C24.1366 225.553 23.8787 225.305 23.7142 224.997C23.5497 224.689 23.4871 224.337 23.5354 223.992C23.5836 223.646 23.7402 223.324 23.9827 223.073L27.5827 219.733C27.7703 219.555 27.914 219.336 28.0025 219.093C28.091 218.85 28.1219 218.59 28.0927 218.333L27.1927 210.263C27.1678 210.045 27.1873 209.823 27.2498 209.612C27.3123 209.401 27.4166 209.205 27.5566 209.035C27.6966 208.865 27.8693 208.725 28.0645 208.624C28.2597 208.522 28.4733 208.461 28.6927 208.443L33.2927 208.043C33.6958 208.005 34.099 208.116 34.4254 208.356C34.7518 208.596 34.9786 208.947 35.0627 209.343Z" fill="#333333"/>
<path d="M36.6318 209.683L38.6318 221.993C38.6986 222.415 38.9272 222.794 39.2689 223.05C39.6106 223.306 40.0385 223.418 40.4619 223.363L51.1619 222.003C51.5204 221.958 51.8541 221.796 52.1116 221.542C52.3691 221.289 52.5362 220.958 52.5873 220.6C52.6385 220.242 52.5707 219.877 52.3945 219.562C52.2182 219.246 51.9433 218.997 51.6119 218.853L47.1019 216.913C46.8562 216.817 46.6371 216.663 46.4631 216.465C46.2891 216.267 46.1653 216.029 46.1019 215.773L44.2419 207.873C44.1915 207.661 44.0996 207.462 43.9716 207.286C43.8435 207.109 43.6819 206.96 43.496 206.847C43.3101 206.733 43.1035 206.658 42.8883 206.625C42.673 206.591 42.4533 206.601 42.2419 206.653L37.7618 207.823C37.3787 207.942 37.0521 208.196 36.8439 208.539C36.6357 208.882 36.5602 209.289 36.6318 209.683Z" fill="#333333"/>
<path d="M513.871 206.873V269.683C513.875 271.832 514.709 273.896 516.201 275.443C517.692 276.991 519.724 277.901 521.871 277.983L576.121 280.063C577.939 280.132 579.729 279.601 581.216 278.553C582.702 277.505 583.804 275.998 584.35 274.263C584.897 272.528 584.858 270.661 584.24 268.951C583.623 267.24 582.46 265.779 580.931 264.793L560.151 251.433C559.061 250.733 558.15 249.786 557.492 248.669C556.833 247.552 556.446 246.297 556.361 245.003L553.641 204.213C553.567 203.112 553.274 202.037 552.779 201.051C552.284 200.065 551.598 199.187 550.76 198.469C549.922 197.751 548.949 197.207 547.898 196.87C546.848 196.532 545.74 196.408 544.641 196.503L521.471 198.613C519.4 198.789 517.47 199.734 516.063 201.264C514.656 202.793 513.874 204.795 513.871 206.873Z" fill="#333333"/>
<path d="M581.14 204.183L630.7 242.783C632.393 244.103 634.532 244.715 636.667 244.491C638.802 244.267 640.767 243.225 642.15 241.583L677.15 200.063C678.329 198.672 679.016 196.93 679.106 195.109C679.197 193.287 678.684 191.486 677.648 189.985C676.613 188.484 675.111 187.366 673.376 186.803C671.641 186.241 669.769 186.265 668.05 186.873L644.75 195.063C643.522 195.488 642.213 195.619 640.926 195.445C639.639 195.271 638.411 194.798 637.34 194.063L603.5 171.153C602.583 170.532 601.552 170.1 600.467 169.883C599.381 169.666 598.263 169.669 597.178 169.891C596.094 170.113 595.064 170.549 594.151 171.175C593.238 171.8 592.458 172.602 591.86 173.533L579.28 193.153C578.159 194.893 577.729 196.988 578.073 199.029C578.417 201.069 579.511 202.908 581.14 204.183Z" fill="#333333"/>
<path d="M651.392 15.4734C611.502 24.4734 575.752 50.1734 557.132 90.4134C551.028 103.594 547.22 117.721 545.871 132.183C538.743 118.89 529.415 106.901 518.282 96.7234C485.522 66.8534 442.572 56.9834 402.342 64.2034C398.872 104.923 412.672 146.773 445.432 176.643C460.972 190.818 479.564 201.227 499.77 207.067C519.977 212.908 541.256 214.022 561.962 210.323C601.852 201.323 636.642 176.063 655.262 135.833C673.882 95.6034 670.382 51.6734 651.392 15.4734Z" fill="#3D9D35"/>
<path d="M552.419 186.697C561.232 185.853 567.311 174.054 565.998 160.342C564.685 146.631 556.477 136.2 547.664 137.044C538.851 137.888 532.771 149.687 534.084 163.399C535.397 177.11 543.606 187.541 552.419 186.697Z" fill="white"/>
<path d="M558.493 175.387C563.391 174.918 566.83 168.98 566.174 162.124C565.517 155.269 561.014 150.091 556.116 150.56C551.217 151.029 547.778 156.967 548.435 163.823C549.091 170.678 553.594 175.856 558.493 175.387Z" fill="#333333"/>
<path d="M590.743 175.872C599.556 175.028 605.636 163.229 604.323 149.518C603.01 135.807 594.801 125.376 585.988 126.22C577.175 127.063 571.096 138.863 572.409 152.574C573.722 166.285 581.93 176.716 590.743 175.872Z" fill="white"/>
<path d="M596.813 164.552C601.712 164.083 605.15 158.145 604.494 151.29C603.837 144.434 599.334 139.257 594.436 139.726C589.537 140.195 586.099 146.133 586.755 152.988C587.412 159.844 591.915 165.021 596.813 164.552Z" fill="#333333"/>
<path d="M330.379 99.0733L320.649 105.833C318.329 107.443 314.709 105.663 315.649 103.393L317.859 98.3933C317.859 98.3933 307.979 98.3933 302.049 90.8933C297.769 85.4733 300.119 75.2434 303.229 73.0834C304.369 72.2934 308.729 77.8833 309.899 78.6433L320.019 85.2233C318.209 86.8733 317.019 88.4333 316.799 89.8533C316.709 90.3159 316.729 90.7933 316.857 91.2468C316.986 91.7002 317.22 92.117 317.539 92.4634C320.923 96.0899 325.462 98.4268 330.379 99.0733Z" fill="#333333"/>
<path d="M349.713 96.2434L337.713 105.653C335.493 107.403 331.773 105.833 332.633 103.513L334.543 98.3634C333.557 98.3956 332.571 98.3487 331.593 98.2234C328.183 97.8434 322.503 96.4834 318.333 91.7934C316.973 90.2634 318.333 88.1134 320.933 85.7934C327.163 80.2434 340.683 73.6934 342.783 72.0434C343.863 71.1934 336.373 82.4334 340.533 85.2034L349.423 92.8034C349.738 92.9538 350.008 93.184 350.206 93.4711C350.405 93.7583 350.525 94.0924 350.554 94.4402C350.583 94.7881 350.521 95.1375 350.374 95.4538C350.226 95.7702 349.998 96.0424 349.713 96.2434Z" fill="#333333"/>
<path d="M350.179 67.2534C342.489 80.7834 329.849 88.3934 316.549 89.8234C316.479 89.6434 315.429 89.3234 315.379 89.1334C305.019 83.5434 298.079 73.8134 295.869 61.2334C294.835 55.192 295.215 48.9932 296.98 43.1235C298.744 37.2538 301.845 31.873 306.039 27.4034C312.912 30.9441 318.625 36.3826 322.499 43.0734C326.038 37.842 330.672 33.4429 336.08 30.181C341.488 26.9191 347.541 24.8726 353.819 24.1833C356.278 31.2143 357.224 38.685 356.597 46.1069C355.97 53.5288 353.783 60.7347 350.179 67.2534Z" fill="#8EB91F"/>
<mask id="mask0_937_34000" style="mask-type:luminance" maskUnits="userSpaceOnUse" x="321" y="57" width="11" height="13">
<path d="M321.35 64.1834C320.67 68.5334 322.63 68.5034 325.43 68.9434C328.23 69.3834 330.8 70.1134 331.48 65.7634C332.16 61.4134 330.48 57.5334 327.65 57.1034C324.82 56.6734 322.03 59.8334 321.35 64.1834Z" fill="white"/>
</mask>
<g mask="url(#mask0_937_34000)">
<path d="M321.35 64.1834C320.67 68.5334 322.63 68.5034 325.43 68.9434C328.23 69.3834 330.8 70.1134 331.48 65.7634C332.16 61.4134 330.48 57.5334 327.65 57.1034C324.82 56.6734 322.03 59.8334 321.35 64.1834Z" fill="white"/>
<path d="M326.846 65.5837C327.186 63.4066 326.202 61.4445 324.647 61.2012C323.092 60.958 321.555 62.5257 321.214 64.7028C320.874 66.88 321.858 68.8421 323.413 69.0853C324.968 69.3286 326.505 67.7608 326.846 65.5837Z" fill="#333333"/>
</g>
<mask id="mask1_937_34000" style="mask-type:luminance" maskUnits="userSpaceOnUse" x="307" y="54" width="11" height="13">
<path d="M307.69 61.9034C307.01 66.2534 308.97 66.2334 311.76 66.6634C314.55 67.0934 317.13 67.8334 317.82 63.4934C318.51 59.1534 316.82 55.2634 313.99 54.8234C311.16 54.3834 308.37 57.5534 307.69 61.9034Z" fill="white"/>
</mask>
<g mask="url(#mask1_937_34000)">
<path d="M307.69 61.9034C307.01 66.2534 308.97 66.2334 311.76 66.6634C314.55 67.0934 317.13 67.8334 317.82 63.4934C318.51 59.1534 316.82 55.2634 313.99 54.8234C311.16 54.3834 308.37 57.5534 307.69 61.9034Z" fill="white"/>
<path d="M313.17 63.3172C313.511 61.14 312.526 59.1779 310.971 58.9347C309.416 58.6914 307.879 60.2592 307.538 62.4363C307.198 64.6134 308.183 66.5755 309.738 66.8188C311.293 67.062 312.829 65.4943 313.17 63.3172Z" fill="#333333"/>
</g>
<path d="M537.761 23.2133C539.631 17.8133 538.961 11.3733 534.311 5.62331C532.34 3.19373 529.641 1.46189 526.611 0.683311C512.501 -2.98669 501.611 8.75333 504.071 20.9233C504.657 23.8826 506.001 26.6391 507.971 28.9233H507.921L518.491 43.0733L522.751 48.7633C523.327 49.5364 524.109 50.1315 525.007 50.4806C525.906 50.8296 526.885 50.9184 527.832 50.7368C528.778 50.5552 529.655 50.1105 530.36 49.4537C531.066 48.7969 531.572 47.9546 531.821 47.0233L533.671 40.1733L537.761 23.2133Z" fill="white"/>
<path d="M520.652 25.1234C525.071 25.1234 528.652 21.5416 528.652 17.1234C528.652 12.7051 525.071 9.12335 520.652 9.12335C516.234 9.12335 512.652 12.7051 512.652 17.1234C512.652 21.5416 516.234 25.1234 520.652 25.1234Z" fill="#F3D400"/>
</svg>
