<svg width="1338" height="800" viewBox="0 0 1338 800" fill="none" xmlns="http://www.w3.org/2000/svg">
<mask id="mask0_937_33931" style="mask-type:luminance" maskUnits="userSpaceOnUse" x="0" y="0" width="1338" height="800">
<path d="M0 0H1338V461.34C1338 551.158 1302.32 637.298 1238.81 700.809C1175.3 764.32 1089.16 800 999.34 800H0V0Z" fill="white"/>
</mask>
<g mask="url(#mask0_937_33931)">
<path d="M-59 1178C216.038 1178 439 995.108 439 769.5C439 543.892 216.038 361 -59 361C-334.038 361 -557 543.892 -557 769.5C-557 995.108 -334.038 1178 -59 1178Z" fill="#006D3B"/>
<path d="M611 1108C808.166 1108 968 984.431 968 832C968 679.569 808.166 556 611 556C413.834 556 254 679.569 254 832C254 984.431 413.834 1108 611 1108Z" fill="#3D9D35"/>
<path d="M736.8 519.17C730.72 519.953 724.905 522.135 719.81 525.544C714.716 528.954 710.482 533.498 707.44 538.82C705.249 542.717 703.747 546.962 703 551.37C699.106 548.447 694.696 546.286 690 545C684.085 543.386 677.877 543.166 671.863 544.356C665.85 545.546 660.194 548.115 655.34 551.86C657.575 557.567 661.102 562.679 665.644 566.794C670.187 570.91 675.621 573.917 681.52 575.58C690.03 577.935 699.087 577.332 707.21 573.87C713.135 572.903 718.76 570.591 723.653 567.111C728.546 563.632 732.576 559.077 735.434 553.797C738.293 548.517 739.903 542.652 740.141 536.653C740.38 530.654 739.24 524.68 736.81 519.19L736.8 519.17Z" fill="#006D3B"/>
<path d="M709.471 564.745C711.741 563.733 712.305 560.051 710.731 556.52C709.156 552.989 706.04 550.947 703.77 551.959C701.5 552.971 700.936 556.654 702.511 560.185C704.085 563.715 707.201 565.757 709.471 564.745Z" fill="white"/>
<path d="M710.075 561.193C711.336 560.631 711.72 558.744 710.933 556.979C710.146 555.213 708.486 554.238 707.225 554.8C705.964 555.362 705.58 557.249 706.367 559.015C707.154 560.78 708.814 561.756 710.075 561.193Z" fill="#333333"/>
<path d="M720.28 560.023C722.55 559.011 723.114 555.328 721.539 551.798C719.965 548.267 716.849 546.225 714.579 547.237C712.309 548.249 711.745 551.932 713.319 555.462C714.894 558.993 718.01 561.035 720.28 560.023Z" fill="white"/>
<path d="M720.892 556.461C722.153 555.899 722.537 554.012 721.75 552.247C720.963 550.481 719.302 549.506 718.041 550.068C716.78 550.63 716.396 552.517 717.183 554.283C717.97 556.048 719.631 557.023 720.892 556.461Z" fill="#333333"/>
<mask id="mask1_937_33931" style="mask-type:luminance" maskUnits="userSpaceOnUse" x="465" y="402" width="1467" height="1313">
<path d="M1198.5 1715C1603.6 1715 1932 1421.07 1932 1058.5C1932 695.925 1603.6 402 1198.5 402C793.399 402 465 695.925 465 1058.5C465 1421.07 793.399 1715 1198.5 1715Z" fill="white"/>
</mask>
<g mask="url(#mask1_937_33931)">
<path d="M1932 1058.5C1932 1421.07 1603.6 1715 1198.5 1715C793.4 1715 465 1421.07 465 1058.5C465 863 560.47 687.5 712 567.2C841.44 464.41 1011.83 402 1198.5 402C1603.6 402 1932 695.93 1932 1058.5Z" fill="#8EB91F"/>
<path d="M684 569C684 569 965 526 1070 757C1175 988 1131 1041 1131 1041L1342 810L1356 628C1356 628 1007 456 729 555L684 569Z" fill="white"/>
</g>
</g>
</svg>
