<svg width="120" height="49" viewBox="0 0 120 49" fill="none" xmlns="http://www.w3.org/2000/svg">
<path d="M79.4149 12.9761H68.7552C69.2164 11.9915 69.5066 11.3333 69.6309 11.012C69.738 10.7497 69.7993 10.4711 69.8123 10.1881C69.8112 10.0284 69.7744 9.87107 69.7044 9.72758C69.6345 9.58409 69.5332 9.45811 69.4081 9.35892C69.1481 9.12497 68.8096 8.99734 68.4598 9.00136C68.2377 8.99127 68.0166 9.03763 67.8172 9.1361C67.6187 9.27423 67.4597 9.46178 67.356 9.68022C67.2161 9.94451 67.0191 10.3954 66.7704 11.0172C66.3573 12.1614 65.8673 13.2764 65.3039 14.3545C64.8028 15.2595 64.2346 16.1256 63.6041 16.9456C63.2051 17.4638 62.9304 17.8266 62.7853 18.0494C62.6594 18.2189 62.5824 18.4196 62.5625 18.6298C62.575 18.971 62.7222 19.2934 62.9719 19.5263C63.0861 19.6565 63.2262 19.7615 63.3832 19.8347C63.5403 19.9078 63.7108 19.9475 63.8839 19.9512C64.3089 19.9512 64.7805 19.6299 65.2831 19.0081C66.0714 17.928 66.7798 16.7918 67.4026 15.6086H79.4149C80.4513 15.6086 80.9695 15.1733 80.9695 14.3182C80.9695 13.4632 80.4461 12.9761 79.4149 12.9761Z" fill="#333333"/>
<path d="M80.1308 25.8432C80.4905 25.5032 80.7212 25.049 80.7837 24.558C80.7758 24.387 80.7309 24.2197 80.6522 24.0676C80.5735 23.9156 80.4628 23.7823 80.3277 23.6771C80.0569 23.4215 79.6999 23.2772 79.3276 23.2729C79.0628 23.281 78.8079 23.3757 78.602 23.5423C78.2537 23.8491 77.9439 24.1972 77.6796 24.5788L75.5446 26.9211L75.0626 27.4393C74.6393 25.4081 74.3639 23.3488 74.2387 21.2777L74.7569 21.0808C75.7519 20.6611 76.4981 20.3242 76.9645 20.0807C77.3272 19.9126 77.6558 19.6789 77.9336 19.3914C78.1148 19.1794 78.2125 18.9085 78.2082 18.6296C78.2174 18.2469 78.0781 17.8755 77.8195 17.5932C77.7108 17.4581 77.5736 17.3486 77.4178 17.2725C77.262 17.1964 77.0913 17.1555 76.9178 17.1527C76.7528 17.1469 76.588 17.1697 76.4307 17.2201C76.2177 17.308 76.0101 17.4084 75.8089 17.5207C75.1456 17.899 73.9381 18.4897 72.2228 19.2774C70.5075 20.0651 69.0617 20.6714 67.932 21.0964C67.3493 21.2822 66.8387 21.6444 66.4706 22.1328C66.1654 22.6321 66.0173 23.2117 66.0457 23.7963V35.9018L65.1025 36.2075C64.6568 36.3176 64.2386 36.5187 63.8744 36.7983C63.755 36.9075 63.6611 37.0416 63.5993 37.1912C63.5375 37.3407 63.5093 37.5021 63.5168 37.6637C63.5157 37.8282 63.5482 37.9912 63.6124 38.1427C63.6765 38.2942 63.771 38.431 63.8899 38.5447C63.9994 38.6605 64.1311 38.7533 64.277 38.8173C64.423 38.8814 64.5804 38.9156 64.7398 38.9178C65.0155 38.8969 65.2864 38.834 65.543 38.7312C65.9006 38.6068 66.3152 38.4566 66.7816 38.2804C66.9163 38.2355 67.0718 38.1733 67.248 38.0938C67.4541 38.0052 67.6673 37.9341 67.8854 37.8814C68.9529 37.4564 69.725 37.1403 70.1914 36.9434C71.5854 36.3215 72.4197 35.938 72.6633 35.8085C72.8834 35.6916 73.0773 35.5312 73.2333 35.3369C73.354 35.1545 73.4138 34.9387 73.4043 34.7202C73.4074 34.4175 73.2921 34.1256 73.0831 33.9066C72.9812 33.7976 72.8574 33.7112 72.7199 33.6532C72.5824 33.5952 72.4342 33.5667 72.285 33.5698C72.1554 33.578 72.0287 33.6114 71.9119 33.6683L71.176 34.0051C70.5179 34.3108 69.7147 34.6373 68.7974 34.9638V24.2886C68.7968 24.0502 68.8594 23.816 68.9788 23.6097C69.0971 23.4088 69.2796 23.2536 69.497 23.1692L71.9792 22.1743C72.1268 24.7876 72.5525 27.3777 73.2489 29.9008C73.8412 32.0088 74.7293 34.0223 75.8866 35.881C76.3471 36.786 76.9647 37.6019 77.7107 38.2907C78.1486 38.6569 78.6951 38.8682 79.2654 38.8919C79.4618 38.892 79.656 38.8499 79.8348 38.7686C80.0136 38.6872 80.1728 38.5684 80.3018 38.4203C80.4452 38.2729 80.5581 38.0986 80.6337 37.9074C80.7093 37.7161 80.7462 37.5117 80.7423 37.3061C80.7505 37.0428 80.6801 36.7831 80.5402 36.5599C80.3086 36.2478 80.0502 35.9565 79.768 35.6893C77.9128 33.8548 76.5655 32.2328 75.7674 29.8697L77.1614 28.5742C78.6953 27.2424 79.6799 26.32 80.1308 25.8432Z" fill="#333333"/>
<path d="M60.2763 21.0912H56.7214L56.7525 16.987H62.2455C63.2146 16.987 63.7017 16.5413 63.7017 15.6655C63.718 15.486 63.6944 15.3051 63.6326 15.1358C63.5707 14.9665 63.4722 14.8129 63.3442 14.6861C63.025 14.4587 62.6362 14.3505 62.2455 14.3803H52.0626C51.0521 14.3803 50.5391 14.8105 50.5391 15.6655C50.5391 16.5206 51.0573 16.987 52.0626 16.987H54.2184C54.2184 22.449 54.0059 26.4651 53.5862 28.9059C53.3631 30.204 53.016 31.4778 52.5497 32.7096C52.1035 33.932 51.534 35.1057 50.85 36.2127C50.7467 36.3757 50.6615 36.5495 50.5961 36.731C50.5594 36.8731 50.5419 37.0195 50.5442 37.1663C50.5431 37.3517 50.5786 37.5356 50.6489 37.7073C50.7191 37.879 50.8227 38.035 50.9536 38.1664C51.0782 38.3017 51.2296 38.4095 51.3983 38.4826C51.567 38.5558 51.7492 38.5929 51.9331 38.5914C52.4046 38.5914 52.8918 38.2493 53.3841 37.5808C53.9853 36.68 54.458 35.6998 54.7884 34.6685C55.3196 33.1692 55.7167 31.6258 55.9752 30.0564C56.2999 27.9597 56.5179 25.8478 56.6281 23.7289H59.4783C59.6119 23.7166 59.7466 23.7319 59.8741 23.7738C60.0016 23.8157 60.1191 23.8833 60.2193 23.9725C60.2935 24.0666 60.3474 24.175 60.3777 24.291C60.408 24.4069 60.4141 24.5278 60.3955 24.6462L60.3282 26.3822C60.1986 29.2842 60.0742 31.4452 59.9654 32.8081C59.9252 33.69 59.802 34.5662 59.5975 35.4251C59.3539 36.1246 58.7424 36.4615 57.7785 36.4615C57.3274 36.4214 56.8774 36.5487 56.5141 36.8191C56.3795 36.9546 56.2749 37.1169 56.207 37.2954C56.1392 37.474 56.1096 37.6648 56.1203 37.8555C56.1003 38.0522 56.1202 38.2509 56.179 38.4397C56.2378 38.6285 56.3341 38.8035 56.4623 38.9541C56.8032 39.2029 57.2238 39.3173 57.6438 39.2754C58.2956 39.2659 58.9428 39.1648 59.5664 38.9748C60.1256 38.8435 60.6537 38.6041 61.121 38.2701C61.5827 37.8653 61.8963 37.3183 62.0124 36.7154C62.2688 35.5487 62.4317 34.3634 62.4995 33.1708L62.7327 30.2325L62.9659 23.4543C63.0035 23.1457 62.9769 22.8325 62.8877 22.5347C62.7986 22.2368 62.6487 21.9606 62.4477 21.7234C62.1469 21.4773 61.7996 21.2945 61.4265 21.1858C61.0534 21.0772 60.6622 21.045 60.2763 21.0912Z" fill="#333333"/>
<path d="M92.613 16.5518H88.9855C87.4308 16.5518 86.6691 17.3187 86.6691 18.8371L86.638 27.7245C86.6536 29.5351 86.5114 31.3436 86.213 33.1295C86.0057 34.4562 85.6475 35.755 85.1455 37.0005C84.9621 37.3915 84.8531 37.8133 84.8242 38.2442C84.8242 39.0319 85.244 39.431 86.0731 39.431C86.638 39.431 87.1095 38.8506 87.4827 37.7157C88.2429 35.4291 88.6994 33.0526 88.8404 30.6472H92.6907V36.0729C92.6907 36.757 92.3694 37.1093 91.7061 37.1093H90.8303C90.669 37.0845 90.5041 37.0981 90.349 37.149C90.194 37.1999 90.0531 37.2868 89.938 37.4024C89.8228 37.5181 89.7366 37.6593 89.6863 37.8146C89.6361 37.9699 89.6232 38.1349 89.6488 38.2961C89.6488 39.1045 90.0893 39.5191 90.9599 39.5191H92.2554C93.0062 39.5823 93.7515 39.3456 94.3283 38.8609C94.8202 38.2517 95.0546 37.4744 94.9812 36.6948V19.0755C94.9916 17.3861 94.1935 16.5518 92.613 16.5518ZM92.613 28.3722H88.7108L88.7419 24.667H92.613V28.3722ZM92.613 22.392H88.7419L88.7782 19.9409C88.7782 19.2568 89.0528 18.9044 89.6281 18.9044H91.732C91.852 18.8928 91.9732 18.9056 92.0881 18.9422C92.203 18.9787 92.3093 19.0381 92.4005 19.1169C92.5571 19.3028 92.6335 19.5432 92.613 19.7854V22.392Z" fill="#333333"/>
<path d="M112.31 36.2074L109.201 34.3056C108.891 34.1029 108.534 33.9866 108.164 33.9688C107.997 33.9436 107.826 33.9574 107.665 34.0092C107.504 34.0609 107.357 34.1491 107.236 34.267C107.114 34.3849 107.022 34.5292 106.965 34.6887C106.909 34.8482 106.89 35.0186 106.91 35.1866C106.91 35.2856 106.932 35.3834 106.974 35.4731C107.016 35.5627 107.077 35.6418 107.154 35.7048C107.378 35.8969 107.625 36.0605 107.89 36.1919L111.191 38.1974C111.947 38.6431 111.984 38.8659 112.294 38.8659C113.082 38.8659 113.481 38.4099 113.481 37.5133C113.486 37.0107 113.093 36.5806 112.31 36.2074Z" fill="#333333"/>
<path d="M108.454 33.1553C108.89 32.9718 109.238 32.6288 109.429 32.1966C109.481 32.0676 109.502 31.9284 109.491 31.7897C109.481 31.651 109.438 31.5168 109.367 31.3973C109.296 31.2779 109.198 31.1766 109.081 31.1013C108.964 31.026 108.831 30.9787 108.693 30.9632C108.366 30.8751 107.864 31.041 107.195 31.4815C106.836 31.6493 106.547 31.9395 106.382 32.3002C106.33 32.4296 106.308 32.5693 106.319 32.7083C106.33 32.8473 106.373 32.9818 106.445 33.1014C106.517 33.2209 106.616 33.3221 106.733 33.3971C106.851 33.4721 106.984 33.5188 107.123 33.5336C107.598 33.5743 108.072 33.4397 108.454 33.1553Z" fill="#333333"/>
<path d="M86.6935 13.981H93.3266V15.0175C93.3266 15.8466 93.7775 16.2716 94.6792 16.2716C94.8513 16.2978 95.0271 16.2838 95.1928 16.2306C95.3586 16.1773 95.5097 16.0863 95.6343 15.9648C95.7588 15.8432 95.8535 15.6943 95.9108 15.53C95.9681 15.3656 95.9864 15.1901 95.9644 15.0175V13.981H103.81V15.0175C103.81 15.8466 104.256 16.2716 105.132 16.2716C106.007 16.2716 106.484 15.8466 106.484 15.0175V13.981H112.812C113.75 13.981 114.231 13.5717 114.231 12.7581C114.231 11.9445 113.75 11.5403 112.812 11.5403H106.484V10.3535C106.484 9.54512 106.028 9.13574 105.132 9.13574C104.235 9.13574 103.81 9.54512 103.81 10.3535V11.5403H95.9644V10.3535C95.9644 9.54512 95.5343 9.13574 94.6792 9.13574C93.8241 9.13574 93.3266 9.54512 93.3266 10.3535V11.5403H86.6935C85.7711 11.5403 85.3047 11.9496 85.3047 12.7581C85.3047 13.5665 85.7711 13.981 86.6935 13.981Z" fill="#333333"/>
<path d="M104.759 27.7397C103.95 27.7397 103.541 28.1906 103.541 29.0923V36.3473C103.542 36.6039 103.454 36.853 103.292 37.0521C103.106 37.2087 102.866 37.2851 102.624 37.2645H101.82C100.965 37.2645 100.535 37.6739 100.535 38.4875C100.535 39.3011 101.053 39.7053 102.022 39.7053H103.292C103.663 39.7531 104.039 39.714 104.392 39.5913C104.745 39.4685 105.064 39.2655 105.325 38.9981C105.586 38.7307 105.781 38.4064 105.895 38.0507C106.009 37.6949 106.038 37.3176 105.982 36.9484V29.0923C105.982 28.1906 105.567 27.7397 104.759 27.7397Z" fill="#333333"/>
<path d="M102.621 35.1712C102.615 34.8702 102.501 34.5814 102.299 34.3576C102.196 34.2685 102.074 34.2033 101.942 34.1666C101.81 34.1299 101.672 34.1226 101.538 34.1451L100.175 34.8084L97.967 35.7827C96.744 36.3009 96.1481 36.8191 96.1895 37.3062C96.1969 37.6237 96.3162 37.9284 96.5264 38.1665C96.6125 38.2462 96.7138 38.3079 96.8241 38.3479C96.9345 38.388 97.0517 38.4056 97.169 38.3997H97.3089C97.6016 38.332 97.8878 38.2384 98.1639 38.1198L99.4076 37.6016C101.631 36.6429 102.683 35.85 102.621 35.1712Z" fill="#333333"/>
<path d="M107.943 18.7386C107.456 19.5729 107.238 20.0859 107.264 20.2932C107.352 20.9876 107.818 21.2882 108.642 21.1794C109.16 21.1172 109.596 20.7182 110.021 19.9875C110.446 19.2568 110.689 18.6246 110.648 18.3136C110.56 17.6192 110.098 17.3187 109.274 17.4275C108.87 17.5052 108.425 17.9353 107.943 18.7386Z" fill="#333333"/>
<path d="M100.498 17.6298C99.6742 17.5106 99.2078 17.7904 99.1094 18.4589C99.1192 18.6714 99.1777 18.8789 99.2804 19.0652C99.4099 19.3606 99.498 19.5575 99.5447 19.6767C99.9541 20.594 100.41 21.0914 100.897 21.164C101.721 21.2832 102.193 20.9619 102.302 20.2001C102.309 19.6382 102.127 19.0903 101.783 18.6455C101.657 18.3924 101.476 18.1703 101.254 17.9948C101.032 17.8192 100.774 17.6946 100.498 17.6298Z" fill="#333333"/>
<path d="M101.961 33.653C102.713 33.653 103.091 33.311 103.091 32.6166C103.091 32.2798 102.842 31.9274 102.35 31.5802C101.986 31.2817 101.547 31.0882 101.081 31.0205C100.371 31.0205 100.008 31.3418 100.008 31.9792C100.008 32.3212 100.386 32.7669 101.158 33.3421C101.386 33.5283 101.668 33.6371 101.961 33.653Z" fill="#333333"/>
<path d="M57.619 13.5669C57.9142 13.094 58.0651 12.5454 58.0532 11.988C58.0413 11.4307 57.8671 10.889 57.5519 10.4292C57.2368 9.96936 56.7943 9.61144 56.2789 9.39927C55.7634 9.1871 55.1972 9.1299 54.6497 9.23464C54.3545 9.70751 54.2036 10.2562 54.2155 10.8135C54.2274 11.3708 54.4016 11.9126 54.7168 12.3724C55.0319 12.8322 55.4744 13.1901 55.9899 13.4023C56.5053 13.6144 57.0715 13.6717 57.619 13.5669Z" fill="#333333"/>
<path d="M113.446 30.6736C111.306 30.3834 110.124 28.637 109.056 27.1601H113.166C113.428 27.1601 113.679 27.0565 113.864 26.872C114.049 26.6875 114.154 26.4371 114.156 26.1755V26.0045C114.154 25.7429 114.049 25.4924 113.864 25.3079C113.679 25.1234 113.428 25.0199 113.166 25.0199H104.123C104.5 24.1191 104.829 23.1988 105.108 22.263H112.218C112.479 22.263 112.729 22.1592 112.914 21.9746C113.098 21.7899 113.202 21.5395 113.202 21.2784V21.1073C113.202 20.8462 113.098 20.5958 112.914 20.4111C112.729 20.2265 112.479 20.1227 112.218 20.1227H105.673C105.838 19.418 105.968 18.8117 106.082 18.2209C106.114 18.0554 106.112 17.8851 106.076 17.7204C106.04 17.5557 105.972 17.3999 105.875 17.2622C105.781 17.1231 105.659 17.0052 105.517 16.916C105.376 16.8267 105.217 16.7681 105.051 16.744C104.737 16.7016 104.419 16.782 104.163 16.9683C103.907 17.1546 103.733 17.4326 103.677 17.7441C103.522 18.5577 103.346 19.3558 103.159 20.1227H97.3604C97.0992 20.1227 96.8488 20.2265 96.6641 20.4111C96.4795 20.5958 96.3758 20.8462 96.3758 21.1073V21.2784C96.3758 21.5395 96.4795 21.7899 96.6641 21.9746C96.8488 22.1592 97.0992 22.263 97.3604 22.263H102.543C102.237 23.205 101.87 24.1259 101.444 25.0199H96.5105C96.3637 25.0096 96.2164 25.0297 96.0777 25.0789C95.939 25.128 95.8119 25.2052 95.7043 25.3056C95.5967 25.4059 95.5109 25.5274 95.4522 25.6623C95.3936 25.7973 95.3633 25.9428 95.3633 26.09C95.3633 26.2371 95.3936 26.3827 95.4522 26.5176C95.5109 26.6526 95.5967 26.774 95.7043 26.8744C95.8119 26.9748 95.939 27.0519 96.0777 27.1011C96.2164 27.1502 96.3637 27.1703 96.5105 27.1601H100.221C99.2827 28.6494 97.9174 29.8214 96.3032 30.5233C96.0349 30.636 95.8161 30.8415 95.6867 31.1022C95.5573 31.3628 95.526 31.6614 95.5984 31.9432V31.9691C95.6384 32.1418 95.715 32.3039 95.8232 32.4443C95.9314 32.5847 96.0686 32.7001 96.2255 32.7827C96.3798 32.865 96.5503 32.9122 96.725 32.9212C96.8996 32.9301 97.0741 32.9006 97.236 32.8345C99.568 31.8966 101.542 29.9896 103.102 27.1601H106.165C106.186 27.2358 106.215 27.3088 106.253 27.3777C107.181 28.9324 109.259 32.6791 113.197 33.1714H113.295C113.546 33.1698 113.787 33.0778 113.974 32.9123C114.081 32.8149 114.166 32.6964 114.224 32.5644C114.282 32.4323 114.312 32.2896 114.311 32.1453V31.6841C114.308 31.4409 114.22 31.2064 114.062 31.0217C113.904 30.8369 113.686 30.7137 113.446 30.6736Z" fill="#333333"/>
<path d="M43.0496 12.0386C39.8698 12.4056 36.8186 13.5056 34.1361 15.252C31.4535 16.9984 29.2129 19.3435 27.5905 22.1028C26.4661 24.0217 25.68 26.1197 25.2667 28.305C23.5758 24.2677 20.6344 20.8793 16.8748 18.6377C13.1152 16.3961 8.73576 15.4195 4.38001 15.8515C3.76997 18.9909 3.89578 22.229 4.74758 25.3115C5.59939 28.3941 7.154 31.2373 9.2894 33.6181C11.4513 36.005 14.1333 37.8624 17.1281 39.0467C20.1228 40.231 23.3499 40.7103 26.5596 40.4476C29.7133 40.0904 32.7398 39.0007 35.3975 37.2655C38.0551 35.5304 40.2702 33.1979 41.8659 30.4543C43.4749 27.6856 44.4192 24.5813 44.6246 21.3857C44.83 18.1901 44.2909 14.9904 43.0496 12.0386Z" fill="#3D9D35"/>
<path d="M25.4625 36.7003C26.8182 36.7003 27.9172 34.9907 27.9172 32.8819C27.9172 30.773 26.8182 29.0635 25.4625 29.0635C24.1068 29.0635 23.0078 30.773 23.0078 32.8819C23.0078 34.9907 24.1068 36.7003 25.4625 36.7003Z" fill="white"/>
<path d="M26.5551 35.0635C27.3083 35.0635 27.9188 34.2088 27.9188 33.1543C27.9188 32.0999 27.3083 31.2451 26.5551 31.2451C25.802 31.2451 25.1914 32.0999 25.1914 33.1543C25.1914 34.2088 25.802 35.0635 26.5551 35.0635Z" fill="#333333"/>
<path d="M31.4625 35.609C32.8182 35.609 33.9172 33.8994 33.9172 31.7906C33.9172 29.6817 32.8182 27.9722 31.4625 27.9722C30.1068 27.9722 29.0078 29.6817 29.0078 31.7906C29.0078 33.8994 30.1068 35.609 31.4625 35.609Z" fill="white"/>
<path d="M32.5551 33.9727C33.3083 33.9727 33.9188 33.1179 33.9188 32.0635C33.9188 31.0091 33.3083 30.1543 32.5551 30.1543C31.802 30.1543 31.1914 31.0091 31.1914 32.0635C31.1914 33.1179 31.802 33.9727 32.5551 33.9727Z" fill="#333333"/>
</svg>
