<svg width="20" height="20" viewBox="0 0 20 20" fill="none" xmlns="http://www.w3.org/2000/svg">
<g clip-path="url(#clip0_315_27015)">
<mask id="mask0_315_27015" style="mask-type:luminance" maskUnits="userSpaceOnUse" x="0" y="4" width="8" height="12">
<path d="M0.628906 4.3335H7.1724V15.6668H0.628906V4.3335Z" fill="white"/>
</mask>
<g mask="url(#mask0_315_27015)">
<mask id="mask1_315_27015" style="mask-type:luminance" maskUnits="userSpaceOnUse" x="0" y="0" width="20" height="20">
<path d="M19.1348 8.25755H10.2084V11.9584H15.3466C14.8676 14.3096 12.8646 15.6593 10.2084 15.6593C7.07333 15.6593 4.54781 13.134 4.54781 9.99911C4.54781 6.86426 7.07333 4.33895 10.2084 4.33895C11.5583 4.33895 12.7775 4.81791 13.7354 5.60161L16.5222 2.8151C14.824 1.33473 12.6469 0.42041 10.2084 0.42041C4.89615 0.42041 0.628906 4.68729 0.628906 9.99911C0.628906 15.311 4.89615 19.5779 10.2084 19.5779C14.9982 19.5779 19.3525 16.0947 19.3525 9.99911C19.3525 9.43312 19.2654 8.82354 19.1348 8.25755Z" fill="white"/>
</mask>
<g mask="url(#mask1_315_27015)">
<path d="M-0.242188 15.6592V4.33887L7.16016 9.99902L-0.242188 15.6592Z" fill="#FBBC05"/>
</g>
</g>
<mask id="mask2_315_27015" style="mask-type:luminance" maskUnits="userSpaceOnUse" x="0" y="0" width="20" height="10">
<path d="M0.628906 0.413086H19.3525V9.99975H0.628906V0.413086Z" fill="white"/>
</mask>
<g mask="url(#mask2_315_27015)">
<mask id="mask3_315_27015" style="mask-type:luminance" maskUnits="userSpaceOnUse" x="0" y="0" width="20" height="20">
<path d="M19.1348 8.25706H10.2084V11.9579H15.3466C14.8676 14.3091 12.8646 15.6588 10.2084 15.6588C7.07333 15.6588 4.54781 13.1335 4.54781 9.99862C4.54781 6.86378 7.07333 4.33846 10.2084 4.33846C11.5583 4.33846 12.7775 4.81742 13.7354 5.60112L16.5222 2.81461C14.824 1.33424 12.6469 0.419922 10.2084 0.419922C4.89615 0.419922 0.628906 4.6868 0.628906 9.99862C0.628906 15.3105 4.89615 19.5774 10.2084 19.5774C14.9982 19.5774 19.3525 16.0942 19.3525 9.99862C19.3525 9.43263 19.2654 8.82305 19.1348 8.25706Z" fill="white"/>
</mask>
<g mask="url(#mask3_315_27015)">
<path d="M-0.242188 4.33869L7.16016 9.99885L10.2082 7.34296L20.6585 5.64489V-0.450684H-0.242188V4.33869Z" fill="#EA4335"/>
</g>
</g>
<mask id="mask4_315_27015" style="mask-type:luminance" maskUnits="userSpaceOnUse" x="0" y="0" width="20" height="20">
<path d="M0.628906 0.413086H19.3525V19.5775H0.628906V0.413086Z" fill="white"/>
</mask>
<g mask="url(#mask4_315_27015)">
<mask id="mask5_315_27015" style="mask-type:luminance" maskUnits="userSpaceOnUse" x="0" y="0" width="20" height="20">
<path d="M19.1348 8.25706H10.2084V11.9579H15.3466C14.8676 14.3091 12.8646 15.6588 10.2084 15.6588C7.07333 15.6588 4.54781 13.1335 4.54781 9.99862C4.54781 6.86378 7.07333 4.33846 10.2084 4.33846C11.5583 4.33846 12.7775 4.81742 13.7354 5.60112L16.5222 2.81461C14.824 1.33424 12.6469 0.419922 10.2084 0.419922C4.89615 0.419922 0.628906 4.6868 0.628906 9.99862C0.628906 15.3105 4.89615 19.5774 10.2084 19.5774C14.9982 19.5774 19.3525 16.0942 19.3525 9.99862C19.3525 9.43263 19.2654 8.82305 19.1348 8.25706Z" fill="white"/>
</mask>
<g mask="url(#mask5_315_27015)">
<path d="M-0.242188 15.6591L12.8208 5.64489L16.2607 6.08031L20.6585 -0.450684V20.4484H-0.242188V15.6591Z" fill="#34A853"/>
</g>
</g>
<mask id="mask6_315_27015" style="mask-type:luminance" maskUnits="userSpaceOnUse" x="5" y="4" width="15" height="16">
<path d="M5.41406 4.3335H19.3542V19.5779H5.41406V4.3335Z" fill="white"/>
</mask>
<g mask="url(#mask6_315_27015)">
<mask id="mask7_315_27015" style="mask-type:luminance" maskUnits="userSpaceOnUse" x="0" y="0" width="20" height="20">
<path d="M19.1348 8.25755H10.2084V11.9584H15.3466C14.8676 14.3096 12.8646 15.6593 10.2084 15.6593C7.07333 15.6593 4.54781 13.134 4.54781 9.99911C4.54781 6.86426 7.07333 4.33895 10.2084 4.33895C11.5583 4.33895 12.7775 4.81791 13.7354 5.60161L16.5222 2.8151C14.824 1.33473 12.6469 0.42041 10.2084 0.42041C4.89615 0.42041 0.628906 4.68729 0.628906 9.99911C0.628906 15.311 4.89615 19.5779 10.2084 19.5779C14.9982 19.5779 19.3525 16.0947 19.3525 9.99911C19.3525 9.43312 19.2654 8.82354 19.1348 8.25755Z" fill="white"/>
</mask>
<g mask="url(#mask7_315_27015)">
<path d="M20.6581 20.4486L7.15969 9.99902L5.41797 8.69288L20.6581 4.33887V20.4486Z" fill="#4285F4"/>
</g>
</g>
</g>
<defs>
<clipPath id="clip0_315_27015">
<rect width="20" height="20" fill="white"/>
</clipPath>
</defs>
</svg>
