<svg width="20" height="20" viewBox="0 0 20 20" fill="none" xmlns="http://www.w3.org/2000/svg">
<mask id="mask0_203_5080" style="mask-type:alpha" maskUnits="userSpaceOnUse" x="0" y="0" width="20" height="20">
<rect width="20" height="20" fill="#D9D9D9"/>
</mask>
<g mask="url(#mask0_203_5080)">
<path d="M5.83203 17.5C5.3737 17.5 4.98134 17.3368 4.65495 17.0104C4.32856 16.684 4.16536 16.2917 4.16536 15.8333V5H3.33203V3.33333H7.4987V2.5H12.4987V3.33333H16.6654V5H15.832V15.8333C15.832 16.2917 15.6688 16.684 15.3424 17.0104C15.0161 17.3368 14.6237 17.5 14.1654 17.5H5.83203ZM14.1654 5H5.83203V15.8333H14.1654V5ZM7.4987 14.1667H9.16536V6.66667H7.4987V14.1667ZM10.832 14.1667H12.4987V6.66667H10.832V14.1667Z" fill="#333333"/>
</g>
</svg>
