<svg width="20" height="20" viewBox="0 0 20 20" fill="none" xmlns="http://www.w3.org/2000/svg">
<mask id="mask0_203_5089" style="mask-type:alpha" maskUnits="userSpaceOnUse" x="0" y="0" width="20" height="20">
<rect width="20" height="20" fill="#D9D9D9"/>
</mask>
<g mask="url(#mask0_203_5089)">
<path d="M7.4987 16.6668C7.04036 16.6668 6.648 16.5036 6.32161 16.1772C5.99523 15.8509 5.83203 15.4585 5.83203 15.0002C5.83203 14.5418 5.99523 14.1495 6.32161 13.8231C6.648 13.4967 7.04036 13.3335 7.4987 13.3335C7.95703 13.3335 8.34939 13.4967 8.67578 13.8231C9.00217 14.1495 9.16536 14.5418 9.16536 15.0002C9.16536 15.4585 9.00217 15.8509 8.67578 16.1772C8.34939 16.5036 7.95703 16.6668 7.4987 16.6668ZM12.4987 16.6668C12.0404 16.6668 11.648 16.5036 11.3216 16.1772C10.9952 15.8509 10.832 15.4585 10.832 15.0002C10.832 14.5418 10.9952 14.1495 11.3216 13.8231C11.648 13.4967 12.0404 13.3335 12.4987 13.3335C12.957 13.3335 13.3494 13.4967 13.6758 13.8231C14.0022 14.1495 14.1654 14.5418 14.1654 15.0002C14.1654 15.4585 14.0022 15.8509 13.6758 16.1772C13.3494 16.5036 12.957 16.6668 12.4987 16.6668ZM7.4987 11.6668C7.04036 11.6668 6.648 11.5036 6.32161 11.1772C5.99523 10.8509 5.83203 10.4585 5.83203 10.0002C5.83203 9.54183 5.99523 9.14947 6.32161 8.82308C6.648 8.49669 7.04036 8.3335 7.4987 8.3335C7.95703 8.3335 8.34939 8.49669 8.67578 8.82308C9.00217 9.14947 9.16536 9.54183 9.16536 10.0002C9.16536 10.4585 9.00217 10.8509 8.67578 11.1772C8.34939 11.5036 7.95703 11.6668 7.4987 11.6668ZM12.4987 11.6668C12.0404 11.6668 11.648 11.5036 11.3216 11.1772C10.9952 10.8509 10.832 10.4585 10.832 10.0002C10.832 9.54183 10.9952 9.14947 11.3216 8.82308C11.648 8.49669 12.0404 8.3335 12.4987 8.3335C12.957 8.3335 13.3494 8.49669 13.6758 8.82308C14.0022 9.14947 14.1654 9.54183 14.1654 10.0002C14.1654 10.4585 14.0022 10.8509 13.6758 11.1772C13.3494 11.5036 12.957 11.6668 12.4987 11.6668ZM7.4987 6.66683C7.04036 6.66683 6.648 6.50363 6.32161 6.17725C5.99523 5.85086 5.83203 5.4585 5.83203 5.00016C5.83203 4.54183 5.99523 4.14947 6.32161 3.82308C6.648 3.49669 7.04036 3.3335 7.4987 3.3335C7.95703 3.3335 8.34939 3.49669 8.67578 3.82308C9.00217 4.14947 9.16536 4.54183 9.16536 5.00016C9.16536 5.4585 9.00217 5.85086 8.67578 6.17725C8.34939 6.50363 7.95703 6.66683 7.4987 6.66683ZM12.4987 6.66683C12.0404 6.66683 11.648 6.50363 11.3216 6.17725C10.9952 5.85086 10.832 5.4585 10.832 5.00016C10.832 4.54183 10.9952 4.14947 11.3216 3.82308C11.648 3.49669 12.0404 3.3335 12.4987 3.3335C12.957 3.3335 13.3494 3.49669 13.6758 3.82308C14.0022 4.14947 14.1654 4.54183 14.1654 5.00016C14.1654 5.4585 14.0022 5.85086 13.6758 6.17725C13.3494 6.50363 12.957 6.66683 12.4987 6.66683Z" fill="#333333"/>
</g>
</svg>
