<svg width="20" height="21" viewBox="0 0 20 21" fill="none" xmlns="http://www.w3.org/2000/svg">
<mask id="mask0_203_5071" style="mask-type:alpha" maskUnits="userSpaceOnUse" x="0" y="0" width="20" height="21">
<rect y="0.705078" width="20" height="20" fill="#D9D9D9"/>
</mask>
<g mask="url(#mask0_203_5071)">
<path d="M10.0013 18.2052L8.79297 17.1219C7.39019 15.858 6.23047 14.7677 5.3138 13.8511C4.39714 12.9344 3.66797 12.1115 3.1263 11.3823C2.58464 10.6532 2.20616 9.98302 1.99089 9.37191C1.77561 8.7608 1.66797 8.1358 1.66797 7.49691C1.66797 6.19135 2.10547 5.10107 2.98047 4.22607C3.85547 3.35107 4.94575 2.91357 6.2513 2.91357C6.97352 2.91357 7.66102 3.06635 8.3138 3.37191C8.96658 3.67746 9.52908 4.10802 10.0013 4.66357C10.4735 4.10802 11.036 3.67746 11.6888 3.37191C12.3416 3.06635 13.0291 2.91357 13.7513 2.91357C15.0569 2.91357 16.1471 3.35107 17.0221 4.22607C17.8971 5.10107 18.3346 6.19135 18.3346 7.49691C18.3346 8.1358 18.227 8.7608 18.0117 9.37191C17.7964 9.98302 17.418 10.6532 16.8763 11.3823C16.3346 12.1115 15.6055 12.9344 14.6888 13.8511C13.7721 14.7677 12.6124 15.858 11.2096 17.1219L10.0013 18.2052Z" fill="#E80000"/>
</g>
</svg>
