<svg width="20" height="20" viewBox="0 0 20 20" fill="none" xmlns="http://www.w3.org/2000/svg">
<mask id="mask0_203_5088" style="mask-type:alpha" maskUnits="userSpaceOnUse" x="0" y="0" width="20" height="20">
<rect width="20" height="20" fill="#D9D9D9"/>
</mask>
<g mask="url(#mask0_203_5088)">
<path d="M9.9987 9.99984C10.457 9.99984 10.8494 9.83664 11.1758 9.51025C11.5022 9.18387 11.6654 8.7915 11.6654 8.33317C11.6654 7.87484 11.5022 7.48248 11.1758 7.15609C10.8494 6.8297 10.457 6.6665 9.9987 6.6665C9.54036 6.6665 9.148 6.8297 8.82161 7.15609C8.49523 7.48248 8.33203 7.87484 8.33203 8.33317C8.33203 8.7915 8.49523 9.18387 8.82161 9.51025C9.148 9.83664 9.54036 9.99984 9.9987 9.99984ZM9.9987 16.1248C11.6931 14.5693 12.9501 13.1561 13.7695 11.8853C14.589 10.6144 14.9987 9.48595 14.9987 8.49984C14.9987 6.98595 14.5161 5.74637 13.5508 4.78109C12.5855 3.81581 11.4015 3.33317 9.9987 3.33317C8.59592 3.33317 7.41189 3.81581 6.44661 4.78109C5.48134 5.74637 4.9987 6.98595 4.9987 8.49984C4.9987 9.48595 5.40842 10.6144 6.22786 11.8853C7.04731 13.1561 8.30425 14.5693 9.9987 16.1248ZM9.9987 18.3332C7.76259 16.4304 6.09245 14.663 4.98828 13.0311C3.88411 11.3991 3.33203 9.88873 3.33203 8.49984C3.33203 6.4165 4.00217 4.75678 5.34245 3.52067C6.68273 2.28456 8.23481 1.6665 9.9987 1.6665C11.7626 1.6665 13.3147 2.28456 14.6549 3.52067C15.9952 4.75678 16.6654 6.4165 16.6654 8.49984C16.6654 9.88873 16.1133 11.3991 15.0091 13.0311C13.9049 14.663 12.2348 16.4304 9.9987 18.3332Z" fill="#333333"/>
</g>
</svg>
