<svg width="20" height="20" viewBox="0 0 20 20" fill="none" xmlns="http://www.w3.org/2000/svg">
<mask id="mask0_203_5070" style="mask-type:alpha" maskUnits="userSpaceOnUse" x="0" y="0" width="20" height="20">
<rect width="20" height="20" fill="#D9D9D9"/>
</mask>
<g mask="url(#mask0_203_5070)">
<path d="M10.0013 16.9377C9.80686 16.9377 9.60894 16.9029 9.40755 16.8335C9.20616 16.7641 9.02908 16.6529 8.8763 16.5002L7.4388 15.1877C5.96658 13.8404 4.63672 12.5036 3.44922 11.1772C2.26172 9.85086 1.66797 8.38905 1.66797 6.79183C1.66797 5.48627 2.10547 4.396 2.98047 3.521C3.85547 2.646 4.94575 2.2085 6.2513 2.2085C6.98741 2.2085 7.68186 2.36475 8.33464 2.67725C8.98741 2.98975 9.54297 3.41683 10.0013 3.9585C10.4596 3.41683 11.0152 2.98975 11.668 2.67725C12.3207 2.36475 13.0152 2.2085 13.7513 2.2085C15.0569 2.2085 16.1471 2.646 17.0221 3.521C17.8971 4.396 18.3346 5.48627 18.3346 6.79183C18.3346 8.38905 17.7444 9.85433 16.5638 11.1877C15.3832 12.521 14.043 13.8613 12.543 15.2085L11.1263 16.5002C10.9735 16.6529 10.7964 16.7641 10.5951 16.8335C10.3937 16.9029 10.1957 16.9377 10.0013 16.9377ZM9.20964 5.62516C8.80686 5.05572 8.3763 4.62169 7.91797 4.32308C7.45964 4.02447 6.90408 3.87516 6.2513 3.87516C5.41797 3.87516 4.72352 4.15294 4.16797 4.7085C3.61241 5.26405 3.33464 5.9585 3.33464 6.79183C3.33464 7.51405 3.59158 8.28141 4.10547 9.09391C4.61936 9.90641 5.23394 10.6946 5.94922 11.4585C6.6645 12.2224 7.40061 12.9377 8.15755 13.6043C8.9145 14.271 9.52908 14.8196 10.0013 15.2502C10.4735 14.8196 11.0881 14.271 11.8451 13.6043C12.602 12.9377 13.3381 12.2224 14.0534 11.4585C14.7687 10.6946 15.3832 9.90641 15.8971 9.09391C16.411 8.28141 16.668 7.51405 16.668 6.79183C16.668 5.9585 16.3902 5.26405 15.8346 4.7085C15.2791 4.15294 14.5846 3.87516 13.7513 3.87516C13.0985 3.87516 12.543 4.02447 12.0846 4.32308C11.6263 4.62169 11.1957 5.05572 10.793 5.62516C10.6957 5.76405 10.5777 5.86822 10.4388 5.93766C10.2999 6.00711 10.1541 6.04183 10.0013 6.04183C9.84852 6.04183 9.70269 6.00711 9.5638 5.93766C9.42491 5.86822 9.30686 5.76405 9.20964 5.62516Z" fill="#333333"/>
</g>
</svg>
