<svg width="20" height="20" viewBox="0 0 20 20" fill="none" xmlns="http://www.w3.org/2000/svg">
<mask id="mask0_203_5086" style="mask-type:alpha" maskUnits="userSpaceOnUse" x="0" y="0" width="20" height="20">
<rect width="20" height="20" fill="#D9D9D9"/>
</mask>
<g mask="url(#mask0_203_5086)">
<path d="M3.33333 15C2.8731 15 2.5 14.6269 2.5 14.1667C2.5 13.7064 2.8731 13.3333 3.33333 13.3333H6.66667C7.1269 13.3333 7.5 13.7064 7.5 14.1667C7.5 14.6269 7.1269 15 6.66667 15H3.33333ZM3.33333 10.8333C2.8731 10.8333 2.5 10.4602 2.5 10C2.5 9.53976 2.8731 9.16667 3.33333 9.16667H11.6667C12.1269 9.16667 12.5 9.53976 12.5 10C12.5 10.4602 12.1269 10.8333 11.6667 10.8333H3.33333ZM3.33333 6.66667C2.8731 6.66667 2.5 6.29357 2.5 5.83333C2.5 5.3731 2.8731 5 3.33333 5H16.6667C17.1269 5 17.5 5.3731 17.5 5.83333C17.5 6.29357 17.1269 6.66667 16.6667 6.66667H3.33333Z" fill="#333333"/>
<path d="M12.2604 14.9063L15.1262 17.7721C15.5168 18.1626 16.1499 18.1626 16.5404 17.7721L19.4062 14.9063C19.7333 14.5792 19.731 14.0482 19.401 13.724C19.0751 13.4039 18.5522 13.4062 18.2291 13.7292L16.6667 15.2917V10.1458C16.6667 9.6856 16.2936 9.3125 15.8333 9.3125C15.3731 9.3125 15 9.6856 15 10.1458V15.2917L13.4375 13.7292C13.1145 13.4062 12.5915 13.4039 12.2657 13.724C11.9357 14.0482 11.9334 14.5792 12.2604 14.9063Z" fill="#333333"/>
</g>
</svg>
