<svg width="164" height="128" viewBox="0 0 164 128" fill="none" xmlns="http://www.w3.org/2000/svg">
<path d="M114.992 107.046L65.0381 127.696C60.1891 129.702 56.2884 126.788 56.3364 121.199L56.9605 41.3451C57.0085 35.7556 60.9693 29.5928 65.8182 27.5863L115.772 6.9481C120.621 4.94161 124.522 7.8558 124.474 13.4453L123.849 93.2989C123.813 98.8884 119.841 105.051 114.992 107.046Z" fill="#006D3B"/>
<path d="M116.882 20.523C118.614 17.4661 118.379 14.0692 116.358 12.9356C114.337 11.8021 111.295 13.3612 109.564 16.418C107.832 19.4748 108.067 22.8718 110.088 24.0054C112.109 25.1389 115.151 23.5798 116.882 20.523Z" fill="white"/>
<mask id="mask0_25_2270" style="mask-type:luminance" maskUnits="userSpaceOnUse" x="32" y="30" width="77" height="86">
<path d="M102.912 88.6413L37.8232 115.55C35.0867 116.684 32.8783 115.036 32.9023 111.883L33.2624 65.2442C33.2864 62.0792 35.5308 58.6036 38.2673 57.469L103.356 30.5605C106.092 29.4259 108.301 31.0741 108.277 34.2272L107.917 80.8661C107.893 84.0192 105.66 87.5067 102.912 88.6413Z" fill="white"/>
</mask>
<g mask="url(#mask0_25_2270)">
<path d="M102.912 88.6413L37.8232 115.55C35.0867 116.684 32.8783 115.036 32.9023 111.883L33.2624 65.2442C33.2864 62.0792 35.5308 58.6036 38.2673 57.469L103.356 30.5605C106.092 29.4259 108.301 31.0741 108.277 34.2272L107.917 80.8661C107.893 84.0192 105.66 87.5067 102.912 88.6413Z" fill="white"/>
</g>
<mask id="mask1_25_2270" style="mask-type:luminance" maskUnits="userSpaceOnUse" x="32" y="30" width="77" height="86">
<path d="M102.912 88.6413L37.8232 115.55C35.0867 116.684 32.8783 115.036 32.9023 111.883L33.2624 65.2442C33.2864 62.0792 35.5308 58.6036 38.2673 57.469L103.356 30.5605C106.092 29.4259 108.301 31.0741 108.277 34.2272L107.917 80.8661C107.893 84.0192 105.66 87.5067 102.912 88.6413Z" fill="white"/>
</mask>
<g mask="url(#mask1_25_2270)">
<mask id="mask2_25_2270" style="mask-type:luminance" maskUnits="userSpaceOnUse" x="50" y="50" width="78" height="80">
<path d="M50.0903 124.208L54.5672 86.2404C54.8792 83.577 56.4395 80.8181 58.5639 79.1579L93.9708 51.4731C95.7231 50.1116 97.6195 49.6697 99.0958 50.2907L124.853 61.0995C128.574 62.6641 127.733 69.6749 123.388 73.3057L57.7478 128.15C53.655 131.566 49.4782 129.416 50.0903 124.208Z" fill="white"/>
</mask>
<g mask="url(#mask2_25_2270)">
<path d="M50.0903 124.208L54.5672 86.2404C54.8792 83.577 56.4395 80.8181 58.5639 79.1579L93.9708 51.4731C95.7231 50.1116 97.6195 49.6697 99.0958 50.2907L124.853 61.0995C128.574 62.6641 127.733 69.6749 123.388 73.3057L57.7478 128.15C53.655 131.566 49.4782 129.416 50.0903 124.208Z" fill="#F3D400"/>
</g>
<mask id="mask3_25_2270" style="mask-type:luminance" maskUnits="userSpaceOnUse" x="50" y="50" width="78" height="80">
<path d="M50.0903 124.208L54.5672 86.2404C54.8792 83.577 56.4395 80.8181 58.5639 79.1579L93.9708 51.4731C95.7231 50.1116 97.6195 49.6697 99.0958 50.2907L124.853 61.0995C128.574 62.6641 127.733 69.6749 123.388 73.3057L57.7478 128.15C53.655 131.566 49.4782 129.416 50.0903 124.208Z" fill="white"/>
</mask>
<g mask="url(#mask3_25_2270)">
<path d="M45.9351 83.8518L100.738 42.7188L115.621 52.584C115.621 52.584 110.16 68.3971 104.83 66.9041C99.5014 65.4112 93.0562 69.3048 93.0562 70.5469C93.0442 71.7771 98.2892 84.4012 90.8118 85.0223C83.3343 85.6553 81.2819 74.1777 78.0533 77.9757C74.8247 81.7737 77.9213 95.2817 72.5682 96.261C67.2152 97.2404 68.3434 89.3816 62.9784 92.8333C57.6133 96.2849 58.6575 99.5455 55.4169 103.355C52.1883 107.153 46.8232 109.375 46.8232 109.375L45.9351 83.8518Z" fill="#8C6239"/>
</g>
<path d="M74.9222 65.7097C74.9222 65.7097 71.7536 60.8607 77.1306 56.1669C82.5077 51.4732 86.7925 49.7056 86.7925 49.7056" stroke="#1A1A1A" stroke-miterlimit="10"/>
<path d="M78.2929 67.713C79.6404 65.3342 79.4595 62.6916 77.8889 61.8107C76.3183 60.9298 73.9527 62.1441 72.6053 64.5229C71.2578 66.9017 71.4388 69.5442 73.0093 70.4251C74.5799 71.3061 76.9455 70.0918 78.2929 67.713Z" fill="#EB5757"/>
</g>
<path d="M109.649 17.673L113.609 20.5872L124.328 1" stroke="#8EB91F" stroke-width="2" stroke-miterlimit="10"/>
<path d="M122.386 101.719V118.403C122.386 119.586 121.45 120.565 120.249 120.613L105.763 121.162C103.506 121.246 102.582 118.32 104.478 117.102L110.023 113.554C110.611 113.172 110.984 112.539 111.032 111.847L111.752 101.014C111.836 99.7837 112.928 98.8521 114.164 98.9596L120.345 99.521C121.51 99.6284 122.386 100.584 122.386 101.719Z" fill="#333333"/>
<path d="M140.534 92.3315L154.168 102.053C155.14 102.746 155.381 104.072 154.732 105.063L146.751 117.102C145.503 118.977 142.574 118.022 142.682 115.776L143.018 109.22C143.054 108.527 142.754 107.846 142.214 107.404L133.788 100.501C132.828 99.7126 132.708 98.2913 133.524 97.3597L137.581 92.6779C138.325 91.818 139.609 91.6747 140.534 92.3315Z" fill="#333333"/>
<path d="M103.181 58.7103L122.385 65.5658L134.387 50.6963C134.387 50.6963 164.393 84.9978 139.188 98.7207C108.81 115.262 95.98 91.8652 95.98 81.57C95.98 72.3616 98.3804 64.4312 103.181 58.7103Z" fill="#8EB91F"/>
<path d="M109.323 86.1474C111.164 85.9721 112.434 83.5196 112.16 80.6698C111.886 77.8199 110.171 75.6518 108.33 75.8272C106.489 76.0026 105.219 78.455 105.493 81.3049C105.767 84.1547 107.482 86.3228 109.323 86.1474Z" fill="white"/>
<path d="M110.273 83.8632C111.54 83.7425 112.43 82.2127 112.26 80.4463C112.09 78.6799 110.925 77.3458 109.658 77.4665C108.391 77.5872 107.502 79.117 107.672 80.8834C107.842 82.6498 109.006 83.9839 110.273 83.8632Z" fill="#333333"/>
<path d="M117.731 86.1467C119.572 85.9713 120.842 83.5189 120.568 80.669C120.294 77.8192 118.579 75.6511 116.738 75.8265C114.897 76.0019 113.627 78.4543 113.901 81.3041C114.175 84.154 115.89 86.3221 117.731 86.1467Z" fill="white"/>
<path d="M118.681 83.8624C119.948 83.7417 120.838 82.212 120.668 80.4456C120.498 78.6792 119.333 77.3451 118.066 77.4658C116.799 77.5865 115.909 79.1163 116.079 80.8826C116.249 82.649 117.414 83.9831 118.681 83.8624Z" fill="#333333"/>
</svg>
