<svg width="113" height="698" viewBox="0 0 113 698" fill="none" xmlns="http://www.w3.org/2000/svg">
<g clip-path="url(#clip0_19_19420)">
<path d="M38 2.81818L61.2727 2.81818L61.2727 10.6818C61.2727 12.5 60.9621 13.9924 60.3409 15.1591C59.7273 16.3258 58.8826 17.1894 57.8068 17.75C56.7311 18.3106 55.5076 18.5909 54.1364 18.5909C52.7652 18.5909 51.5492 18.3106 50.4886 17.75C49.428 17.1894 48.5947 16.3295 47.9886 15.1705C47.3902 14.0114 47.0909 12.5303 47.0909 10.7273L47.0909 4.36364L49.6364 4.36364L49.6364 10.6364C49.6364 11.8788 49.8182 12.8788 50.1818 13.6364C50.5455 14.4015 51.0606 14.9545 51.7273 15.2955C52.4015 15.6439 53.2045 15.8182 54.1364 15.8182C55.0682 15.8182 55.8826 15.6439 56.5795 15.2955C57.2765 14.947 57.8144 14.3902 58.1932 13.625C58.5795 12.8598 58.7727 11.8485 58.7727 10.5909L58.7727 5.63636L38 5.63636L38 2.81818ZM48.4545 13.7727L38 19.5L38 16.2273L48.4545 10.5909L48.4545 13.7727ZM38 23.2869L61.2727 23.2869L61.2727 37.3324L58.7727 37.3324L58.7727 26.1051L50.9091 26.1051L50.9091 36.6051L48.4091 36.6051L48.4091 26.1051L40.5 26.1051L40.5 37.5142L38 37.5142L38 23.2869ZM58.7727 41.1392L61.2727 41.1392L61.2727 58.5937L58.7727 58.5937L58.7727 51.2756L38 51.2756L38 48.4574L58.7727 48.4574L58.7727 41.1392ZM49.6364 81.6108C47.1818 81.6108 45.0606 81.1676 43.2727 80.2812C41.4848 79.3949 40.1061 78.179 39.1364 76.6335C38.1667 75.0881 37.6818 73.3229 37.6818 71.3381C37.6818 69.3532 38.1667 67.5881 39.1364 66.0426C40.1061 64.4972 41.4848 63.2812 43.2727 62.3949C45.0606 61.5085 47.1818 61.0653 49.6364 61.0653C52.0909 61.0653 54.2121 61.5085 56 62.3949C57.7879 63.2812 59.1667 64.4972 60.1364 66.0426C61.1061 67.5881 61.5909 69.3532 61.5909 71.3381C61.5909 73.3229 61.1061 75.0881 60.1364 76.6335C59.1667 78.179 57.7879 79.3949 56 80.2812C54.2121 81.1676 52.0909 81.6108 49.6364 81.6108ZM49.6364 78.8835C51.6515 78.8835 53.3523 78.5464 54.7386 77.8722C56.125 77.2055 57.1742 76.3002 57.8864 75.1562C58.5985 74.0199 58.9545 72.7472 58.9545 71.3381C58.9545 69.929 58.5985 68.6525 57.8864 67.5085C57.1742 66.3722 56.125 65.4669 54.7386 64.7926C53.3523 64.1259 51.6515 63.7926 49.6364 63.7926C47.6212 63.7926 45.9205 64.1259 44.5341 64.7926C43.1477 65.4669 42.0985 66.3722 41.3864 67.5085C40.6742 68.6525 40.3182 69.929 40.3182 71.3381C40.3182 72.7472 40.6742 74.0199 41.3864 75.1562C42.0985 76.3002 43.1477 77.2055 44.5341 77.8722C45.9205 78.5464 47.6212 78.8835 49.6364 78.8835ZM38 95.3494L61.2727 95.3494L61.2727 103.213C61.2727 105.031 60.9621 106.524 60.3409 107.69C59.7273 108.857 58.8826 109.721 57.8068 110.281C56.7311 110.842 55.5076 111.122 54.1364 111.122C52.7651 111.122 51.5492 110.842 50.4886 110.281C49.428 109.721 48.5947 108.861 47.9886 107.702C47.3901 106.543 47.0909 105.062 47.0909 103.259L47.0909 96.8949L49.6364 96.8949L49.6364 103.168C49.6364 104.41 49.8182 105.41 50.1818 106.168C50.5455 106.933 51.0606 107.486 51.7273 107.827C52.4015 108.175 53.2045 108.349 54.1364 108.349C55.0682 108.349 55.8826 108.175 56.5795 107.827C57.2765 107.478 57.8144 106.921 58.1932 106.156C58.5795 105.391 58.7727 104.38 58.7727 103.122L58.7727 98.1676L38 98.1676L38 95.3494ZM48.4545 106.304L38 112.031L38 108.759L48.4545 103.122L48.4545 106.304ZM38 115.818L61.2727 115.818L61.2727 129.864L58.7727 129.864L58.7727 118.636L50.9091 118.636L50.9091 129.136L48.4091 129.136L48.4091 118.636L40.5 118.636L40.5 130.045L38 130.045L38 115.818ZM58.7727 133.67L61.2727 133.67L61.2727 151.125L58.7727 151.125L58.7727 143.807L38 143.807L38 140.989L58.7727 140.989L58.7727 133.67ZM49.6364 174.142C47.1818 174.142 45.0606 173.699 43.2727 172.812C41.4848 171.926 40.1061 170.71 39.1364 169.165C38.1667 167.619 37.6818 165.854 37.6818 163.869C37.6818 161.884 38.1667 160.119 39.1364 158.574C40.1061 157.028 41.4848 155.812 43.2727 154.926C45.0606 154.04 47.1818 153.597 49.6364 153.597C52.0909 153.597 54.2121 154.04 56 154.926C57.7879 155.812 59.1667 157.028 60.1364 158.574C61.1061 160.119 61.5909 161.884 61.5909 163.869C61.5909 165.854 61.1061 167.619 60.1364 169.165C59.1667 170.71 57.7879 171.926 56 172.812C54.2121 173.699 52.0909 174.142 49.6364 174.142ZM49.6364 171.415C51.6515 171.415 53.3523 171.078 54.7386 170.403C56.125 169.737 57.1742 168.831 57.8864 167.687C58.5985 166.551 58.9545 165.278 58.9545 163.869C58.9545 162.46 58.5985 161.184 57.8864 160.04C57.1742 158.903 56.125 157.998 54.7386 157.324C53.3523 156.657 51.6515 156.324 49.6364 156.324C47.6212 156.324 45.9204 156.657 44.5341 157.324C43.1477 157.998 42.0985 158.903 41.3864 160.04C40.6742 161.184 40.3182 162.46 40.3182 163.869C40.3182 165.278 40.6742 166.551 41.3864 167.687C42.0985 168.831 43.1477 169.737 44.5341 170.403C45.9204 171.078 47.6212 171.415 49.6364 171.415ZM38 187.881L61.2727 187.881L61.2727 195.744C61.2727 197.562 60.9621 199.055 60.3409 200.222C59.7273 201.388 58.8826 202.252 57.8068 202.812C56.7311 203.373 55.5076 203.653 54.1364 203.653C52.7651 203.653 51.5492 203.373 50.4886 202.812C49.428 202.252 48.5947 201.392 47.9886 200.233C47.3901 199.074 47.0909 197.593 47.0909 195.79L47.0909 189.426L49.6364 189.426L49.6364 195.699C49.6364 196.941 49.8182 197.941 50.1818 198.699C50.5454 199.464 51.0606 200.017 51.7273 200.358C52.4015 200.706 53.2045 200.881 54.1364 200.881C55.0682 200.881 55.8826 200.706 56.5795 200.358C57.2765 200.009 57.8144 199.453 58.1932 198.687C58.5795 197.922 58.7727 196.911 58.7727 195.653L58.7727 190.699L38 190.699L38 187.881ZM48.4545 198.835L38 204.562L38 201.29L48.4545 195.653L48.4545 198.835ZM38 208.349L61.2727 208.349L61.2727 222.395L58.7727 222.395L58.7727 211.168L50.9091 211.168L50.9091 221.668L48.4091 221.668L48.4091 211.168L40.5 211.168L40.5 222.577L38 222.577L38 208.349ZM58.7727 226.202L61.2727 226.202L61.2727 243.656L58.7727 243.656L58.7727 236.338L38 236.338L38 233.52L58.7727 233.52L58.7727 226.202ZM49.6364 266.673C47.1818 266.673 45.0606 266.23 43.2727 265.344C41.4848 264.457 40.106 263.241 39.1364 261.696C38.1667 260.151 37.6818 258.385 37.6818 256.401C37.6818 254.416 38.1667 252.651 39.1364 251.105C40.106 249.56 41.4848 248.344 43.2727 247.457C45.0606 246.571 47.1818 246.128 49.6364 246.128C52.0909 246.128 54.2121 246.571 56 247.457C57.7879 248.344 59.1667 249.56 60.1364 251.105C61.1061 252.651 61.5909 254.416 61.5909 256.401C61.5909 258.385 61.106 260.151 60.1364 261.696C59.1667 263.241 57.7879 264.457 56 265.344C54.2121 266.23 52.0909 266.673 49.6364 266.673ZM49.6364 263.946C51.6515 263.946 53.3523 263.609 54.7386 262.935C56.125 262.268 57.1742 261.363 57.8864 260.219C58.5985 259.082 58.9545 257.81 58.9545 256.401C58.9545 254.991 58.5985 253.715 57.8864 252.571C57.1742 251.435 56.125 250.529 54.7386 249.855C53.3523 249.188 51.6515 248.855 49.6364 248.855C47.6212 248.855 45.9204 249.188 44.5341 249.855C43.1477 250.529 42.0985 251.435 41.3864 252.571C40.6742 253.715 40.3182 254.991 40.3182 256.401C40.3182 257.81 40.6742 259.082 41.3864 260.219C42.0985 261.363 43.1477 262.268 44.5341 262.935C45.9204 263.609 47.6212 263.946 49.6364 263.946ZM38 280.412L61.2727 280.412L61.2727 288.276C61.2727 290.094 60.9621 291.586 60.3409 292.753C59.7273 293.92 58.8826 294.783 57.8068 295.344C56.731 295.904 55.5076 296.185 54.1364 296.185C52.7651 296.185 51.5492 295.904 50.4886 295.344C49.428 294.783 48.5947 293.923 47.9886 292.764C47.3901 291.605 47.0909 290.124 47.0909 288.321L47.0909 281.957L49.6364 281.957L49.6364 288.23C49.6364 289.473 49.8182 290.473 50.1818 291.23C50.5454 291.995 51.0606 292.548 51.7273 292.889C52.4015 293.238 53.2045 293.412 54.1364 293.412C55.0682 293.412 55.8826 293.238 56.5795 292.889C57.2765 292.541 57.8144 291.984 58.1932 291.219C58.5795 290.454 58.7727 289.442 58.7727 288.185L58.7727 283.23L38 283.23L38 280.412ZM48.4545 291.366L38 297.094L38 293.821L48.4545 288.185L48.4545 291.366ZM38 300.881L61.2727 300.881L61.2727 314.926L58.7727 314.926L58.7727 303.699L50.9091 303.699L50.9091 314.199L48.4091 314.199L48.4091 303.699L40.5 303.699L40.5 315.108L38 315.108L38 300.881ZM58.7727 318.733L61.2727 318.733L61.2727 336.187L58.7727 336.187L58.7727 328.869L38 328.869L38 326.051L58.7727 326.051L58.7727 318.733ZM49.6363 359.205C47.1818 359.205 45.0606 358.761 43.2727 357.875C41.4848 356.989 40.106 355.773 39.1363 354.227C38.1667 352.682 37.6818 350.917 37.6818 348.932C37.6818 346.947 38.1667 345.182 39.1363 343.636C40.106 342.091 41.4848 340.875 43.2727 339.989C45.0606 339.102 47.1818 338.659 49.6363 338.659C52.0909 338.659 54.2121 339.102 56 339.989C57.7879 340.875 59.1667 342.091 60.1363 343.636C61.106 345.182 61.5909 346.947 61.5909 348.932C61.5909 350.917 61.106 352.682 60.1363 354.227C59.1667 355.773 57.7879 356.989 56 357.875C54.2121 358.761 52.0909 359.205 49.6363 359.205ZM49.6363 356.477C51.6515 356.477 53.3523 356.14 54.7386 355.466C56.125 354.799 57.1742 353.894 57.8863 352.75C58.5985 351.614 58.9545 350.341 58.9545 348.932C58.9545 347.523 58.5985 346.246 57.8863 345.102C57.1742 343.966 56.125 343.061 54.7386 342.386C53.3523 341.72 51.6515 341.386 49.6363 341.386C47.6212 341.386 45.9204 341.72 44.5341 342.386C43.1477 343.061 42.0985 343.966 41.3863 345.102C40.6742 346.246 40.3182 347.523 40.3182 348.932C40.3182 350.341 40.6742 351.614 41.3863 352.75C42.0985 353.894 43.1477 354.799 44.5341 355.466C45.9204 356.14 47.6212 356.477 49.6363 356.477ZM38 372.943L61.2727 372.943L61.2727 380.807C61.2727 382.625 60.9621 384.117 60.3409 385.284C59.7273 386.451 58.8826 387.314 57.8068 387.875C56.731 388.436 55.5076 388.716 54.1363 388.716C52.7651 388.716 51.5492 388.436 50.4886 387.875C49.428 387.314 48.5947 386.455 47.9886 385.295C47.3901 384.136 47.0909 382.655 47.0909 380.852L47.0909 374.489L49.6363 374.489L49.6363 380.761C49.6363 382.004 49.8182 383.004 50.1818 383.761C50.5454 384.527 51.0606 385.08 51.7273 385.42C52.4015 385.769 53.2045 385.943 54.1363 385.943C55.0682 385.943 55.8826 385.769 56.5795 385.42C57.2765 385.072 57.8144 384.515 58.1932 383.75C58.5795 382.985 58.7727 381.973 58.7727 380.716L58.7727 375.761L38 375.761L38 372.943ZM48.4545 383.898L38 389.625L38 386.352L48.4545 380.716L48.4545 383.898ZM38 393.412L61.2727 393.412L61.2727 407.457L58.7727 407.457L58.7727 396.23L50.9091 396.23L50.9091 406.73L48.4091 406.73L48.4091 396.23L40.5 396.23L40.5 407.639L38 407.639L38 393.412ZM58.7727 411.264L61.2727 411.264L61.2727 428.719L58.7727 428.719L58.7727 421.401L38 421.401L38 418.582L58.7727 418.582L58.7727 411.264ZM49.6363 451.736C47.1818 451.736 45.0606 451.293 43.2727 450.406C41.4848 449.52 40.106 448.304 39.1363 446.759C38.1666 445.213 37.6818 443.448 37.6818 441.463C37.6818 439.478 38.1666 437.713 39.1363 436.168C40.106 434.622 41.4848 433.406 43.2727 432.52C45.0606 431.634 47.1818 431.19 49.6363 431.19C52.0909 431.19 54.2121 431.634 56 432.52C57.7879 433.406 59.1666 434.622 60.1363 436.168C61.106 437.713 61.5909 439.478 61.5909 441.463C61.5909 443.448 61.106 445.213 60.1363 446.759C59.1666 448.304 57.7879 449.52 56 450.406C54.2121 451.293 52.0909 451.736 49.6363 451.736ZM49.6363 449.009C51.6515 449.009 53.3523 448.671 54.7386 447.997C56.125 447.33 57.1742 446.425 57.8863 445.281C58.5985 444.145 58.9545 442.872 58.9545 441.463C58.9545 440.054 58.5985 438.777 57.8863 437.634C57.1742 436.497 56.125 435.592 54.7386 434.918C53.3523 434.251 51.6515 433.918 49.6363 433.918C47.6212 433.918 45.9204 434.251 44.5341 434.918C43.1477 435.592 42.0985 436.497 41.3863 437.634C40.6742 438.777 40.3182 440.054 40.3182 441.463C40.3182 442.872 40.6742 444.145 41.3863 445.281C42.0985 446.425 43.1477 447.33 44.5341 447.997C45.9204 448.671 47.6212 449.009 49.6363 449.009ZM38 465.474L61.2727 465.474L61.2727 473.338C61.2727 475.156 60.9621 476.649 60.3409 477.815C59.7273 478.982 58.8826 479.846 57.8068 480.406C56.731 480.967 55.5076 481.247 54.1363 481.247C52.7651 481.247 51.5492 480.967 50.4886 480.406C49.428 479.846 48.5947 478.986 47.9886 477.827C47.3901 476.668 47.0909 475.187 47.0909 473.384L47.0909 467.02L49.6363 467.02L49.6363 473.293C49.6363 474.535 49.8182 475.535 50.1818 476.293C50.5454 477.058 51.0606 477.611 51.7273 477.952C52.4015 478.3 53.2045 478.474 54.1363 478.474C55.0682 478.474 55.8826 478.3 56.5795 477.952C57.2765 477.603 57.8144 477.046 58.1932 476.281C58.5795 475.516 58.7727 474.505 58.7727 473.247L58.7727 468.293L38 468.293L38 465.474ZM48.4545 476.429L38 482.156L38 478.884L48.4545 473.247L48.4545 476.429ZM38 485.943L61.2727 485.943L61.2727 499.989L58.7727 499.989L58.7727 488.761L50.9091 488.761L50.9091 499.261L48.4091 499.261L48.4091 488.761L40.5 488.761L40.5 500.17L38 500.17L38 485.943ZM58.7727 503.795L61.2727 503.795L61.2727 521.25L58.7727 521.25L58.7727 513.932L38 513.932L38 511.114L58.7727 511.114L58.7727 503.795ZM49.6363 544.267C47.1818 544.267 45.0606 543.824 43.2727 542.937C41.4848 542.051 40.106 540.835 39.1363 539.29C38.1666 537.744 37.6818 535.979 37.6818 533.994C37.6818 532.009 38.1666 530.244 39.1363 528.699C40.106 527.153 41.4848 525.937 43.2727 525.051C45.0606 524.165 47.1818 523.722 49.6363 523.722C52.0909 523.722 54.2121 524.165 56 525.051C57.7879 525.937 59.1666 527.153 60.1363 528.699C61.106 530.244 61.5909 532.009 61.5909 533.994C61.5909 535.979 61.106 537.744 60.1363 539.29C59.1666 540.835 57.7879 542.051 56 542.937C54.2121 543.824 52.0909 544.267 49.6363 544.267ZM49.6363 541.54C51.6515 541.54 53.3522 541.203 54.7386 540.528C56.125 539.862 57.1742 538.956 57.8863 537.812C58.5985 536.676 58.9545 535.403 58.9545 533.994C58.9545 532.585 58.5985 531.309 57.8863 530.165C57.1742 529.028 56.125 528.123 54.7386 527.449C53.3522 526.782 51.6515 526.449 49.6363 526.449C47.6212 526.449 45.9204 526.782 44.5341 527.449C43.1477 528.123 42.0985 529.028 41.3863 530.165C40.6742 531.309 40.3182 532.585 40.3182 533.994C40.3182 535.403 40.6742 536.676 41.3863 537.812C42.0985 538.956 43.1477 539.862 44.5341 540.528C45.9204 541.203 47.6212 541.54 49.6363 541.54ZM38 558.006L61.2727 558.006L61.2727 565.869C61.2727 567.687 60.9621 569.18 60.3409 570.347C59.7272 571.513 58.8826 572.377 57.8068 572.937C56.731 573.498 55.5076 573.778 54.1363 573.778C52.7651 573.778 51.5492 573.498 50.4886 572.937C49.428 572.377 48.5947 571.517 47.9886 570.358C47.3901 569.199 47.0909 567.718 47.0909 565.915L47.0909 559.551L49.6363 559.551L49.6363 565.824C49.6363 567.066 49.8182 568.066 50.1818 568.824C50.5454 569.589 51.0606 570.142 51.7272 570.483C52.4015 570.831 53.2045 571.006 54.1363 571.006C55.0682 571.006 55.8826 570.831 56.5795 570.483C57.2765 570.134 57.8144 569.578 58.1932 568.812C58.5795 568.047 58.7727 567.036 58.7727 565.778L58.7727 560.824L38 560.824L38 558.006ZM48.4545 568.96L38 574.687L38 571.415L48.4545 565.778L48.4545 568.96ZM38 578.474L61.2727 578.474L61.2727 592.52L58.7727 592.52L58.7727 581.293L50.9091 581.293L50.9091 591.793L48.4091 591.793L48.4091 581.293L40.5 581.293L40.5 592.702L38 592.702L38 578.474ZM58.7727 596.327L61.2727 596.327L61.2727 613.781L58.7727 613.781L58.7727 606.463L38 606.463L38 603.645L58.7727 603.645L58.7727 596.327ZM49.6363 636.798C47.1818 636.798 45.0606 636.355 43.2727 635.469C41.4848 634.582 40.106 633.366 39.1363 631.821C38.1666 630.276 37.6818 628.51 37.6818 626.526C37.6818 624.541 38.1666 622.776 39.1363 621.23C40.106 619.685 41.4848 618.469 43.2727 617.582C45.0606 616.696 47.1818 616.253 49.6363 616.253C52.0909 616.253 54.2121 616.696 56 617.582C57.7879 618.469 59.1666 619.685 60.1363 621.23C61.106 622.776 61.5909 624.541 61.5909 626.526C61.5909 628.51 61.106 630.276 60.1363 631.821C59.1666 633.366 57.7879 634.582 56 635.469C54.2121 636.355 52.0909 636.798 49.6363 636.798ZM49.6363 634.071C51.6515 634.071 53.3522 633.734 54.7386 633.06C56.125 632.393 57.1742 631.488 57.8863 630.344C58.5985 629.207 58.9545 627.935 58.9545 626.526C58.9545 625.116 58.5985 623.84 57.8863 622.696C57.1742 621.56 56.125 620.654 54.7386 619.98C53.3522 619.313 51.6515 618.98 49.6363 618.98C47.6212 618.98 45.9204 619.313 44.5341 619.98C43.1477 620.654 42.0985 621.56 41.3863 622.696C40.6742 623.84 40.3182 625.116 40.3182 626.526C40.3182 627.935 40.6742 629.207 41.3863 630.344C42.0985 631.488 43.1477 632.393 44.5341 633.06C45.9204 633.734 47.6212 634.071 49.6363 634.071ZM38 650.537L61.2727 650.537L61.2727 658.401C61.2727 660.219 60.9621 661.711 60.3409 662.878C59.7272 664.045 58.8825 664.908 57.8068 665.469C56.731 666.029 55.5075 666.31 54.1363 666.31C52.7651 666.31 51.5492 666.029 50.4886 665.469C49.428 664.908 48.5947 664.048 47.9886 662.889C47.3901 661.73 47.0909 660.249 47.0909 658.446L47.0909 652.082L49.6363 652.082L49.6363 658.355C49.6363 659.598 49.8182 660.598 50.1818 661.355C50.5454 662.12 51.0606 662.673 51.7272 663.014C52.4015 663.363 53.2045 663.537 54.1363 663.537C55.0682 663.537 55.8825 663.363 56.5795 663.014C57.2765 662.666 57.8144 662.109 58.1932 661.344C58.5795 660.579 58.7727 659.567 58.7727 658.31L58.7727 653.355L38 653.355L38 650.537ZM48.4545 661.491L38 667.219L38 663.946L48.4545 658.31L48.4545 661.491ZM38 671.006L61.2727 671.006L61.2727 685.051L58.7727 685.051L58.7727 673.824L50.9091 673.824L50.9091 684.324L48.4091 684.324L48.4091 673.824L40.5 673.824L40.5 685.233L38 685.233L38 671.006Z" fill="#333333"/>
</g>
<defs>
<clipPath id="clip0_19_19420">
<rect width="113" height="698" fill="white"/>
</clipPath>
</defs>
</svg>
