<svg width="20" height="21" viewBox="0 0 20 21" fill="none" xmlns="http://www.w3.org/2000/svg">
<mask id="mask0_36_6191" style="mask-type:alpha" maskUnits="userSpaceOnUse" x="0" y="0" width="20" height="21">
<rect y="0.5" width="20" height="20" fill="#D9D9D9"/>
</mask>
<g mask="url(#mask0_36_6191)">
<path d="M3.33333 15.5C2.8731 15.5 2.5 15.1269 2.5 14.6667C2.5 14.2064 2.8731 13.8333 3.33333 13.8333H6.66667C7.1269 13.8333 7.5 14.2064 7.5 14.6667C7.5 15.1269 7.1269 15.5 6.66667 15.5H3.33333ZM3.33333 11.3333C2.8731 11.3333 2.5 10.9602 2.5 10.5C2.5 10.0398 2.8731 9.66667 3.33333 9.66667H11.6667C12.1269 9.66667 12.5 10.0398 12.5 10.5C12.5 10.9602 12.1269 11.3333 11.6667 11.3333H3.33333ZM3.33333 7.16667C2.8731 7.16667 2.5 6.79357 2.5 6.33333C2.5 5.8731 2.8731 5.5 3.33333 5.5H16.6667C17.1269 5.5 17.5 5.8731 17.5 6.33333C17.5 6.79357 17.1269 7.16667 16.6667 7.16667H3.33333Z" fill="#333333"/>
<path d="M12.2604 15.4063L15.1262 18.2721C15.5168 18.6626 16.1499 18.6626 16.5404 18.2721L19.4062 15.4063C19.7333 15.0792 19.731 14.5482 19.401 14.224C19.0751 13.9039 18.5522 13.9062 18.2291 14.2292L16.6667 15.7917V10.6458C16.6667 10.1856 16.2936 9.8125 15.8333 9.8125C15.3731 9.8125 15 10.1856 15 10.6458V15.7917L13.4375 14.2292C13.1145 13.9062 12.5915 13.9039 12.2657 14.224C11.9357 14.5482 11.9334 15.0792 12.2604 15.4063Z" fill="#333333"/>
</g>
</svg>
