<svg width="20" height="21" viewBox="0 0 20 21" fill="none" xmlns="http://www.w3.org/2000/svg">
<mask id="mask0_36_6187" style="mask-type:alpha" maskUnits="userSpaceOnUse" x="0" y="0" width="20" height="21">
<rect y="0.5" width="20" height="20" fill="#D9D9D9"/>
</mask>
<g mask="url(#mask0_36_6187)">
<path d="M16.9167 17.4167C16.5945 17.7388 16.0722 17.7388 15.75 17.4167L11.0833 12.75C10.6667 13.0833 10.1875 13.3472 9.64583 13.5417C9.10417 13.7361 8.52778 13.8333 7.91667 13.8333C6.40278 13.8333 5.12153 13.309 4.07292 12.2604C3.02431 11.2118 2.5 9.93056 2.5 8.41667C2.5 6.90278 3.02431 5.62153 4.07292 4.57292C5.12153 3.52431 6.40278 3 7.91667 3C9.43056 3 10.7118 3.52431 11.7604 4.57292C12.809 5.62153 13.3333 6.90278 13.3333 8.41667C13.3333 9.02778 13.2361 9.60417 13.0417 10.1458C12.8472 10.6875 12.5833 11.1667 12.25 11.5833L16.9167 16.25C17.2388 16.5722 17.2388 17.0945 16.9167 17.4167ZM7.91667 12.1667C8.95833 12.1667 9.84375 11.8021 10.5729 11.0729C11.3021 10.3437 11.6667 9.45833 11.6667 8.41667C11.6667 7.375 11.3021 6.48958 10.5729 5.76042C9.84375 5.03125 8.95833 4.66667 7.91667 4.66667C6.875 4.66667 5.98958 5.03125 5.26042 5.76042C4.53125 6.48958 4.16667 7.375 4.16667 8.41667C4.16667 9.45833 4.53125 10.3437 5.26042 11.0729C5.98958 11.8021 6.875 12.1667 7.91667 12.1667Z" fill="#333333"/>
</g>
</svg>
