<svg width="20" height="13" viewBox="0 0 20 13" fill="none" xmlns="http://www.w3.org/2000/svg">
<path d="M3.276 11.168C2.316 11.168 1.32 10.7 0.684 10.112L1.212 9.368C1.776 9.848 2.46 10.256 3.276 10.256C4.272 10.256 4.776 9.716 4.776 8.876C4.776 6.68 1.032 7.172 1.032 4.556C1.032 3.2 2.016 2.3 3.42 2.3C4.488 2.3 5.124 2.732 5.664 3.32L5.088 3.968C4.596 3.476 4.188 3.212 3.456 3.212C2.628 3.212 2.1 3.728 2.1 4.496C2.1 6.452 5.844 5.912 5.844 8.792C5.844 10.22 4.836 11.168 3.276 11.168ZM2.976 12.476V10.784H3.78V12.476H2.976ZM2.976 2.696V0.98H3.78V2.696H2.976ZM9.93225 11.168C8.97225 11.168 7.97625 10.7 7.34025 10.112L7.86825 9.368C8.43225 9.848 9.11625 10.256 9.93225 10.256C10.9283 10.256 11.4323 9.716 11.4323 8.876C11.4323 6.68 7.68825 7.172 7.68825 4.556C7.68825 3.2 8.67225 2.3 10.0763 2.3C11.1443 2.3 11.7803 2.732 12.3203 3.32L11.7443 3.968C11.2523 3.476 10.8443 3.212 10.1123 3.212C9.28425 3.212 8.75625 3.728 8.75625 4.496C8.75625 6.452 12.5003 5.912 12.5003 8.792C12.5003 10.22 11.4923 11.168 9.93225 11.168ZM9.63225 12.476V10.784H10.4363V12.476H9.63225ZM9.63225 2.696V0.98H10.4363V2.696H9.63225ZM16.5885 11.168C15.6285 11.168 14.6325 10.7 13.9965 10.112L14.5245 9.368C15.0885 9.848 15.7725 10.256 16.5885 10.256C17.5845 10.256 18.0885 9.716 18.0885 8.876C18.0885 6.68 14.3445 7.172 14.3445 4.556C14.3445 3.2 15.3285 2.3 16.7325 2.3C17.8005 2.3 18.4365 2.732 18.9765 3.32L18.4005 3.968C17.9085 3.476 17.5005 3.212 16.7685 3.212C15.9405 3.212 15.4125 3.728 15.4125 4.496C15.4125 6.452 19.1565 5.912 19.1565 8.792C19.1565 10.22 18.1485 11.168 16.5885 11.168ZM16.2885 12.476V10.784H17.0925V12.476H16.2885ZM16.2885 2.696V0.98H17.0925V2.696H16.2885Z" fill="black"/>
</svg>
