<svg width="278" height="265" viewBox="0 0 278 265" fill="none" xmlns="http://www.w3.org/2000/svg">
<path d="M112.59 191.8V254.61C112.593 256.759 113.428 258.823 114.919 260.37C116.411 261.917 118.443 262.827 120.59 262.91L174.84 264.99C176.658 265.058 178.448 264.528 179.934 263.48C181.421 262.432 182.522 260.925 183.069 259.19C183.615 257.455 183.577 255.588 182.959 253.877C182.341 252.166 181.179 250.706 179.65 249.72L158.87 236.36C157.779 235.659 156.869 234.712 156.21 233.596C155.552 232.479 155.165 231.223 155.08 229.93L152.36 189.14C152.286 188.039 151.993 186.964 151.498 185.978C151.003 184.991 150.317 184.113 149.479 183.396C148.64 182.678 147.668 182.134 146.617 181.797C145.567 181.459 144.459 181.334 143.36 181.43L120.19 183.54C118.119 183.715 116.189 184.661 114.782 186.191C113.375 187.72 112.592 189.722 112.59 191.8Z" fill="#333333"/>
<path d="M179.858 189.11L229.419 227.71C231.112 229.03 233.25 229.642 235.385 229.418C237.52 229.194 239.486 228.152 240.869 226.51L275.869 184.99C277.047 183.598 277.735 181.857 277.825 180.035C277.915 178.214 277.403 176.413 276.367 174.912C275.331 173.411 273.83 172.292 272.095 171.73C270.36 171.167 268.488 171.192 266.769 171.8L243.468 179.99C242.241 180.415 240.931 180.545 239.645 180.372C238.358 180.198 237.129 179.725 236.059 178.99L202.218 156.08C201.302 155.459 200.271 155.027 199.185 154.81C198.1 154.593 196.982 154.596 195.897 154.817C194.812 155.039 193.783 155.476 192.87 156.101C191.956 156.727 191.177 157.529 190.578 158.46L177.999 178.08C176.878 179.82 176.447 181.915 176.791 183.955C177.135 185.996 178.229 187.834 179.858 189.11Z" fill="#333333"/>
<path d="M250.11 0.400024C210.22 9.40002 174.47 35.1 155.85 75.34C149.747 88.521 145.939 102.647 144.59 117.11C137.462 103.817 128.133 91.8273 117 81.65C84.2403 51.78 41.2903 41.91 1.06027 49.13C-2.40973 89.85 11.3903 131.7 44.1503 161.57C59.6905 175.744 78.2828 186.154 98.4892 191.994C118.696 197.834 139.975 198.948 160.68 195.25C200.57 186.25 235.36 160.99 253.98 120.76C272.6 80.53 269.1 36.6 250.11 0.400024Z" fill="#3D9D35"/>
<path d="M151.138 171.624C159.95 170.78 166.03 158.98 164.717 145.269C163.404 131.558 155.196 121.127 146.383 121.971C137.57 122.815 131.49 134.614 132.803 148.325C134.116 162.036 142.325 172.467 151.138 171.624Z" fill="white"/>
<path d="M157.212 160.313C162.11 159.844 165.549 153.906 164.892 147.051C164.236 140.195 159.733 135.018 154.834 135.487C149.936 135.956 146.497 141.894 147.154 148.749C147.81 155.605 152.313 160.782 157.212 160.313Z" fill="#333333"/>
<path d="M189.462 160.799C198.275 159.955 204.354 148.156 203.041 134.445C201.728 120.733 193.52 110.302 184.707 111.146C175.894 111.99 169.814 123.789 171.127 137.501C172.44 151.212 180.649 161.643 189.462 160.799Z" fill="white"/>
<path d="M195.532 149.479C200.43 149.01 203.869 143.072 203.213 136.216C202.556 129.361 198.053 124.183 193.154 124.652C188.256 125.121 184.817 131.059 185.474 137.915C186.13 144.771 190.633 149.948 195.532 149.479Z" fill="#333333"/>
</svg>
