<svg width="57" height="53" viewBox="0 0 57 53" fill="none" xmlns="http://www.w3.org/2000/svg">
<path d="M52.601 0C48.4164 1.14316 44.5537 3.24061 41.3161 6.12775C38.0785 9.01488 35.5541 12.6131 33.941 16.64C32.6663 19.8586 32.0082 23.2882 32.001 26.75C30.236 23.8936 27.9616 21.3853 25.291 19.35C21.8335 16.7289 17.8142 14.9473 13.5503 14.1455C9.28634 13.3437 4.89438 13.5438 0.721004 14.73C0.665749 19.0712 1.62696 23.3652 3.52777 27.2686C5.42857 31.1719 8.21627 34.5764 11.668 37.2099C15.1197 39.8434 19.1396 41.6328 23.4064 42.435C27.6733 43.2372 32.0686 43.03 36.241 41.83C36.241 41.73 36.241 41.62 36.241 41.52C40.4227 40.3822 44.281 38.2838 47.5088 35.392C50.7365 32.5001 53.2446 28.8947 54.8333 24.8627C56.422 20.8307 57.0475 16.4835 56.66 12.1671C56.2724 7.85076 54.8825 3.68452 52.601 0Z" fill="#333333"/>
<path d="M35.7815 36.27L37.9814 48.55C38.0585 48.9697 37.969 49.4029 37.7319 49.7576C37.4948 50.1124 37.1287 50.3608 36.7115 50.45L26.1814 52.77C25.838 52.832 25.4837 52.7835 25.1695 52.6315C24.8554 52.4794 24.5974 52.2317 24.433 51.9238C24.2685 51.616 24.2059 51.2639 24.2541 50.9182C24.3024 50.5725 24.459 50.2511 24.7014 50L28.3014 46.66C28.489 46.482 28.6327 46.263 28.7212 46.02C28.8097 45.7771 28.8406 45.5169 28.8114 45.26L27.9114 37.19C27.8866 36.9713 27.906 36.7499 27.9685 36.5389C28.0311 36.3279 28.1354 36.1317 28.2754 35.9619C28.4153 35.792 28.5881 35.6521 28.7832 35.5504C28.9784 35.4487 29.192 35.3874 29.4114 35.37L34.0114 34.97C34.4146 34.9317 34.8177 35.0431 35.1441 35.2828C35.4705 35.5225 35.6974 35.8739 35.7815 36.27Z" fill="#333333"/>
<path d="M37.3506 36.61L39.3506 48.92C39.4173 49.3416 39.6459 49.7206 39.9876 49.9764C40.3293 50.2322 40.7573 50.3447 41.1806 50.29L51.8806 48.93C52.2391 48.8844 52.5728 48.7225 52.8303 48.4689C53.0879 48.2154 53.255 47.8842 53.3061 47.5265C53.3572 47.1687 53.2895 46.8041 53.1132 46.4886C52.937 46.1731 52.6621 45.9241 52.3306 45.78L47.8206 43.84C47.5749 43.7438 47.3559 43.59 47.1819 43.3917C47.0079 43.1933 46.884 42.9561 46.8206 42.7L44.9606 34.8C44.9102 34.5881 44.8183 34.3883 44.6903 34.2121C44.5623 34.036 44.4007 33.8868 44.2147 33.7734C44.0288 33.66 43.8222 33.5845 43.607 33.5513C43.3918 33.5181 43.1721 33.5279 42.9606 33.58L38.4806 34.75C38.0974 34.8682 37.7708 35.1228 37.5626 35.4656C37.3544 35.8083 37.279 36.2154 37.3506 36.61Z" fill="#333333"/>
</svg>
