<svg width="36" height="52" viewBox="0 0 36 52" fill="none" xmlns="http://www.w3.org/2000/svg">
<path fill-rule="evenodd" clip-rule="evenodd" d="M31.3111 6.54995C35.9611 12.2999 36.631 18.74 34.761 24.14L30.671 41.1L28.8211 47.95C28.5722 48.8813 28.0659 49.7235 27.3603 50.3803C26.6546 51.0371 25.7783 51.4818 24.8316 51.6634C23.8849 51.8451 22.906 51.7563 22.0075 51.4072C21.1089 51.0582 20.3269 50.463 19.751 49.69L15.491 44L4.92104 29.85H4.97103C3.00064 27.5657 1.65681 24.8092 1.071 21.85C-1.389 9.67997 9.50098 -2.06005 23.611 1.60995C26.6409 2.38853 29.3404 4.12036 31.3111 6.54995ZM25.6523 18.05C25.6523 22.4683 22.0706 26.05 17.6523 26.05C13.2341 26.05 9.65234 22.4683 9.65234 18.05C9.65234 13.6317 13.2341 10.05 17.6523 10.05C22.0706 10.05 25.6523 13.6317 25.6523 18.05Z" fill="white"/>
</svg>
