<svg width="36" height="52" viewBox="0 0 36 52" fill="none" xmlns="http://www.w3.org/2000/svg">
<path d="M34.4798 24.14C36.3498 18.74 35.6798 12.2999 31.0298 6.54995C29.0591 4.12036 26.3596 2.38853 23.3297 1.60995C9.21973 -2.06005 -1.67025 9.67997 0.789754 21.85C1.37556 24.8092 2.71939 27.5657 4.68978 29.85H4.63979L15.2097 44L19.4697 49.69C20.0456 50.463 20.8277 51.0582 21.7262 51.4072C22.6248 51.7563 23.6036 51.8451 24.5503 51.6634C25.497 51.4818 26.3734 51.0371 27.079 50.3803C27.7846 49.7235 28.2909 48.8813 28.5398 47.95L30.3898 41.1L34.4798 24.14Z" fill="white"/>
<path d="M17.3711 26.05C21.7894 26.05 25.3711 22.4683 25.3711 18.05C25.3711 13.6317 21.7894 10.05 17.3711 10.05C12.9528 10.05 9.37109 13.6317 9.37109 18.05C9.37109 22.4683 12.9528 26.05 17.3711 26.05Z" fill="#F3D400"/>
</svg>
