<svg width="556" height="108" viewBox="0 0 556 108" fill="none" xmlns="http://www.w3.org/2000/svg">
<rect x="0.292969" y="25.4265" width="551.238" height="82.3231" transform="rotate(-2.6392 0.292969 25.4265)" fill="white"/>
<path d="M163.944 53.8217C162.908 56.7041 162.451 59.8023 158.746 60.2055C158.595 59.5913 158.468 59.0223 158.34 58.4304C156.191 59.7366 155.574 61.8548 156.493 65.0136C159.035 63.9045 161.619 63.6179 164.122 64.8428C162.892 67.2492 160.771 68.7606 158.06 69.4846C157.057 69.7587 156.794 70.2907 156.908 71.2946C157.473 76.0168 157.991 80.7629 158.465 85.51C158.585 86.7882 158.592 88.1147 158.506 89.3976C158.422 90.7719 157.752 91.5646 156.88 91.5155C155.663 91.4512 155.345 90.5205 155.208 89.54C154.639 85.6414 154.071 81.7427 153.548 77.843C153.301 76.0415 153.078 74.2395 152.9 72.4365C152.812 71.5921 152.531 71.3239 151.688 71.5715C150.937 71.7942 150.161 71.9488 149.36 72.0125C147.919 72.1363 146.872 71.4506 146.64 70.2893C146.385 69.1513 147.071 68.038 148.413 67.5734C149.368 67.2318 150.371 67.0034 151.374 66.7522C152.127 66.5753 152.392 66.1576 152.33 65.4042C152.262 64.445 152.264 63.4843 152.242 62.5241C152.104 62.5043 151.943 62.4621 151.805 62.4424C151.627 62.6979 151.52 63.0434 151.295 63.2086C150.753 63.5867 150.125 64.1955 149.574 64.1621C149.023 64.1287 148.436 63.4785 147.99 63.0081C147.778 62.7841 147.746 62.3503 147.738 62.0073C147.589 58.4195 147.6 54.8281 147.291 51.2667C147.077 48.8469 148.378 47.5826 150.093 46.4005C150.251 46.2826 150.432 46.1642 150.614 46.1144C152.712 45.6328 152.745 44.0309 152.659 42.2258C152.294 42.3026 151.975 42.3784 151.656 42.477C151.019 42.6743 150.382 42.9173 149.744 43.0688C148.42 43.35 147.425 42.892 147.104 41.8927C146.783 40.8706 147.378 39.8051 148.652 39.342C149.72 38.9521 150.812 38.5845 151.93 38.3536C152.934 38.1482 153.451 37.6563 153.52 36.6483C153.576 36.0752 153.676 35.4554 153.94 34.9462C154.116 34.5992 154.655 34.1068 154.931 34.1692C155.323 34.2519 155.609 34.7716 155.938 35.1302C155.962 35.1526 155.963 35.1983 155.964 35.244C155.332 37.7285 157.126 38.0086 158.808 38.3827C158.877 38.404 158.925 38.4944 158.996 38.5843C158.072 39.2912 157.124 39.9758 156.248 40.7502C155.978 40.985 155.828 41.4687 155.791 41.8584C155.737 42.5 155.798 43.1849 155.817 44.0308C161.102 42.5858 163.005 45.6769 163.837 50.05C164.52 47.7931 165.112 45.5611 165.888 43.3707C166.277 42.3098 166.966 41.3566 167.61 40.4272C167.876 40.0324 168.373 39.7239 168.828 39.5536C169.123 39.4326 169.675 39.5118 169.887 39.7358C170.074 39.9146 170.04 40.4643 169.91 40.7646C168.376 43.9326 167.878 47.2833 167.818 50.7386C167.78 53.164 168.67 55.0197 170.738 56.2772C171.156 56.5195 171.64 56.6459 172.08 56.819C169.037 60.1581 165.304 59.2809 163.944 53.8217ZM155.648 51.8573C156.473 51.8389 157.158 51.7092 157.78 51.8554C158.195 51.9604 158.686 52.4069 158.787 52.8164C158.862 53.0892 158.345 53.5354 158.054 53.8621C157.942 54.0018 157.69 54.0075 157.509 54.0802C155.668 54.8076 155.604 54.992 155.877 56.953C155.988 57.8426 156.652 57.8049 157.179 57.7931C157.637 57.7828 158.388 57.5373 158.473 57.238C158.967 55.7173 159.459 54.1509 159.63 52.5688C159.783 51.2387 159.545 49.8258 159.332 48.4811C159.223 47.7287 158.618 47.3076 157.843 47.5308C157.001 47.7784 155.759 47.6004 155.603 48.839C155.465 49.8257 155.626 50.8514 155.648 51.8573ZM151.179 53.9474C152.196 53.307 152.456 51.5857 151.869 49.9291C150.957 51.2075 151.032 52.4868 151.179 53.9474ZM151.258 55.4324C151.332 56.6659 151.425 57.7618 151.495 58.8581C152.436 57.8535 152.28 56.0042 151.258 55.4324Z" fill="#333333"/>
<path d="M435.244 56.4171C434.645 57.2768 434.18 58.0421 433.6 58.7413C432.417 60.163 431.281 61.6295 429.981 62.9395C429.039 63.8984 427.847 63.8565 427.12 63.1408C426.417 62.4475 426.417 61.441 427.241 60.3476C429.223 57.7413 431.228 55.1575 433.209 52.5513C433.432 52.2489 433.631 51.9242 433.896 51.4837C433.366 51.3355 432.996 51.2294 432.627 51.1233C431.36 50.8085 430.679 50.1147 430.078 48.8472C429.307 47.1947 429.434 45.6822 429.535 44.0331C429.671 41.9485 429.648 39.8675 429.693 37.785C429.785 34.7636 430.962 32.0382 432.024 29.2925C432.154 28.9693 432.514 28.6639 432.831 28.4967C433.647 28.0667 434.534 27.7495 435.349 27.2967C438.381 25.5361 441.356 26.3387 442.916 29.4604C445.316 34.2787 445.105 39.2012 443.336 44.1358C442.732 45.842 442.083 47.5491 441.177 49.0791C440.714 49.8672 439.695 50.4389 438.81 50.8476C437.517 51.4484 437.143 52.143 437.948 53.2915C439.226 55.0928 440.504 56.8941 441.94 58.5546C443.61 60.4843 446.707 60.5751 448.499 58.7279C449.597 57.6054 450.508 56.3041 451.35 54.9815C452.301 53.4734 452.355 51.7795 451.927 50.0736C451.852 49.7779 451.753 49.4599 451.701 49.1637C451.52 48.2757 451.64 47.4724 452.524 47.018C453.453 46.5398 454.219 46.9572 454.808 47.6989C456.294 49.5641 456.64 51.7065 456.14 53.9593C455.371 57.4762 453.419 60.3791 450.578 62.5013C447.332 64.93 442.163 65.4574 438.72 61.1427C437.564 59.6818 436.498 58.1274 435.244 56.4171ZM440.023 35.3808C439.581 34.0869 439.234 32.9052 438.772 31.749C438.675 31.4996 438.164 31.2136 437.867 31.2432C436.22 31.4173 434.579 33.8557 434.891 35.4957C436.471 35.4603 438.075 35.4244 440.023 35.3808ZM439.762 38.0628C438.166 38.4417 436.614 38.7737 435.111 39.1963C434.838 39.271 434.687 39.7318 434.464 40.0113C434.744 40.2109 435.004 40.5482 435.279 40.542C436.173 40.5449 437.088 40.4558 437.98 40.3672C439.787 40.2352 439.943 40.0259 439.762 38.0628ZM433.906 46.8173C436.572 47.1007 437.704 46.5035 437.827 44.831C436.656 44.72 435.461 44.6095 434.175 44.501C434.079 45.3037 434.003 46.0145 433.906 46.8173Z" fill="#333333"/>
<path d="M223.088 57.0953C221.531 57.153 220.675 55.7769 219.141 55.8799C218.203 55.9466 217.7 54.9743 217.633 54.038C217.518 51.9591 217.448 49.8791 217.401 47.7758C217.368 46.2898 217.403 44.7793 217.53 43.2897C217.567 42.9 218.036 42.3177 218.423 42.2404C218.743 42.1646 219.19 42.6807 219.585 42.9463C219.702 43.0352 219.751 43.1942 219.727 43.1261C221.357 42.2205 222.943 41.4072 224.459 40.4812C224.73 40.3151 224.924 39.7617 224.916 39.396C224.889 38.2071 224.748 37.0437 224.676 35.8559C224.639 35.2163 224.646 34.507 225.444 34.3291C226.311 34.1495 226.624 34.8059 226.822 35.4876C227.121 36.556 227.397 37.6249 227.605 38.6953C227.735 39.4014 227.995 39.7616 228.773 39.6756C229.23 39.6196 229.712 39.6545 230.193 39.6438C233.861 39.6532 236.186 42.1172 235.878 45.7839C235.659 48.3049 234.422 50.3912 233.047 52.4577C231.805 54.3154 230.302 55.7672 228.021 56.2758C227.725 56.351 227.413 56.7697 227.307 57.1152C226.706 58.9585 226.151 60.8009 225.666 62.6645C225.581 62.9866 225.847 63.5754 226.126 63.775C231.013 67.0509 236.232 69.7932 241.669 72.0504C243.15 72.6577 244.784 72.9413 246.329 73.3642C247.275 73.6175 248.264 73.8012 249.167 74.1927C250.348 74.7153 250.877 75.8242 250.58 76.8831C250.284 77.9876 249.222 78.6976 247.887 78.453C244.781 77.9278 241.695 77.3107 238.777 75.9579C233.89 73.7113 229.07 71.3717 224.601 68.361C223.391 67.5417 223.369 67.588 222.526 68.8192C222.193 69.307 221.836 69.7724 221.457 70.2384C219.604 72.4529 218.649 72.7945 215.842 72.3312C217.635 70.5069 218.66 68.1509 219.824 65.9061C219.934 65.6978 219.718 65.2451 219.529 65.0206C219.2 64.6391 218.736 64.375 218.361 64.0175C217.682 63.3693 217.343 62.5763 217.827 61.6734C218.311 60.7705 219.156 60.6144 220.076 60.7767C221.917 61.0786 221.917 61.1015 222.494 59.2358C222.664 58.6373 222.855 57.9468 223.088 57.0953ZM230.963 47.4264C231.061 46.6466 231.249 45.8418 231.254 45.0639C231.247 44.7439 230.892 44.2486 230.569 44.1186C229.043 43.558 228.3 44.1465 228.404 45.7453C228.433 45.9963 228.508 46.2691 228.508 46.292C229.388 46.684 230.06 47.0121 230.963 47.4264ZM222.017 48.1528C222.134 48.2646 222.228 48.354 222.345 48.4657C224.861 48.2035 225.596 47.2721 224.699 45.0735C223.715 46.1934 222.866 47.1731 222.017 48.1528ZM221.717 53.1917C224.23 52.7924 224.701 52.3472 224.352 51.0741C223.918 51.1296 223.46 51.1856 223.026 51.241C221.449 51.4593 221.383 51.5523 221.717 53.1917ZM228.459 51.2338C229.768 51.3646 230.146 50.8529 230.082 49.0016C228.285 49.6365 228.197 49.7757 228.459 51.2338Z" fill="#333333"/>
<path d="M361.817 36.6284C362.408 37.4387 362.858 38.0919 363.376 38.675C363.564 38.8767 363.933 39.0057 364.232 39.0219C364.645 39.0583 365.167 38.8179 365.514 38.9703C366.186 39.2983 366.929 39.6934 367.308 40.2796C367.806 41.0233 367.482 41.8998 366.855 42.5314C366.496 42.8826 366.092 43.2804 365.637 43.4279C364.317 43.8691 364.062 44.7441 364.25 45.9979C364.387 47.0013 364.387 48.0306 364.41 49.0594C364.423 49.6081 364.634 49.8321 365.21 49.9793C367.309 50.5499 368.854 51.9792 370.286 53.5025C371.061 54.3315 371.088 55.5432 370.505 56.1052C369.72 56.8548 368.757 56.8535 367.875 56.37C367.272 56.0404 366.755 55.503 366.24 55.0113C365.795 54.5867 365.394 54.0924 364.759 53.3518C364.728 54.0387 364.691 54.4284 364.7 54.817C364.76 57.4919 364.842 60.1663 364.879 62.8416C364.898 63.6647 364.848 64.4893 364.706 65.3159C364.4 67.0382 363.482 67.9738 362.288 67.8861C361.117 67.798 360.361 66.8085 360.277 65.0948C360.158 62.8559 360.131 60.6149 360.057 58.3749C360.042 57.6662 360.026 56.9803 359.755 56.14C359.487 56.4434 359.242 56.7462 358.973 57.0267C357.339 58.7789 355.752 60.5985 354.024 62.2384C353.328 62.8944 352.259 63.2614 351.302 63.5116C350.367 63.7384 349.508 63.2773 349.074 62.3263C348.641 61.3753 348.896 60.4775 349.685 59.888C353.832 56.753 356.461 52.3481 359.488 48.2775C359.866 47.7658 359.778 46.8986 359.961 45.888C358.914 46.186 358.23 46.3843 357.524 46.5602C356.224 46.8638 354.926 47.2588 353.6 47.4029C352.16 47.5724 351.159 46.8857 350.838 45.8636C350.54 44.8409 350.958 44.0539 352.245 43.1787C352.335 43.1081 352.425 43.0375 352.559 42.8972C352.463 42.6935 352.39 42.4893 352.271 42.3089C351.556 41.0898 351.623 39.9903 352.678 39.006C355.372 36.4525 358.089 33.9442 360.806 31.413C360.986 31.2489 361.166 31.1076 361.37 30.9887C362.252 30.4428 363.143 30.3085 363.984 31.0216C364.732 31.6682 364.847 32.7178 364.204 33.7158C363.784 34.3885 363.247 34.9724 362.756 35.5781C362.399 35.9978 362.041 36.3718 361.817 36.6284ZM357.067 41.5154C359.493 41.3695 360.257 40.6662 359.603 39.0797C358.795 39.8755 357.987 40.6256 357.067 41.5154Z" fill="#333333"/>
<path d="M70.1715 79.4811C69.7514 79.1474 69.3782 78.8584 68.8655 78.481C68.7133 78.8504 68.6064 79.1959 68.4303 79.5201C67.2157 81.583 66.0944 83.7125 64.7398 85.6642C64.2959 86.3146 63.2971 86.7487 62.4769 86.9729C62.0441 87.097 61.2096 86.6811 60.925 86.2528C60.7116 85.9374 60.9676 85.0853 61.3031 84.7118C64.8986 80.4683 65.7807 78.9161 67.5641 73.5923C64.2419 72.6374 63.149 69.8942 62.39 66.7088C62.0306 67.0371 61.7842 67.2942 61.4915 67.5295C59.6654 68.8971 57.8622 70.2641 56.0127 71.6093C55.6064 71.8929 55.0825 72.0419 54.5805 72.1446C53.7369 72.3465 52.9763 72.1576 52.546 71.3667C52.0912 70.5077 52.4185 69.7684 53.1154 69.1581C53.3628 68.9467 53.6113 68.781 53.8826 68.6148C56.4195 67.2542 58.6029 65.467 60.574 63.41C61.2908 62.6619 62.0549 61.9815 62.8664 61.3686C64.0612 60.4727 64.7593 60.9374 65.2935 62.275C65.6582 63.2046 65.4027 64.0795 65.6737 64.9198C66.0174 65.9414 66.43 66.9615 67.0003 67.8637C67.6419 68.8786 68.7488 69.1741 69.8388 68.7151C71.5881 68.0126 73.2992 67.654 75.1062 68.5056C74.6942 71.6028 73.8461 72.6282 70.7456 73.3839C69.8338 73.6101 69.5212 73.9831 69.5641 74.8742C69.5988 75.3995 69.4507 75.9518 69.3525 76.686C70.3228 76.0009 71.0885 75.3891 71.9254 74.89C73.2608 74.1281 74.5951 73.3205 76.0038 72.7629C77.7078 72.0843 79.0816 73.0371 79.0533 74.8448C79.0325 75.966 78.7832 77.1153 78.4407 78.198C77.9277 79.8564 77.322 81.4711 76.6705 83.0869C76.4099 83.7332 76.5337 84.1421 77.0912 84.4727C78.2063 85.134 79.2562 85.9568 80.4583 86.4102C82.5163 87.2105 84.5972 88.0102 86.7616 88.4421C88.6963 88.8563 90.712 88.7883 92.2272 88.8916C90.793 89.3354 88.8563 89.8591 86.9691 90.5418C82.9206 91.9591 79.2792 91.08 75.8576 88.7548C75.4151 88.4445 74.9726 88.1342 74.3672 87.7131C72.0643 91.333 69.4035 94.3204 64.7876 93.9434C65.3191 93.108 65.85 92.2498 66.4267 91.3906C67.5573 89.6726 68.665 87.9552 69.8424 86.2819C70.6645 85.1198 70.9627 84.1067 69.9255 82.8261C68.9371 81.6817 69.1478 80.8535 70.1715 79.4811ZM71.1521 79.2533C71.7585 79.72 72.2249 80.0756 72.8313 80.5423C73.2228 79.5958 73.5485 78.7879 73.8513 77.9805C73.7587 77.9369 73.6655 77.8703 73.5728 77.8267C72.8494 78.2775 72.0802 78.7293 71.1521 79.2533Z" fill="#333333"/>
<path d="M281.957 75.5859C282.725 76.0948 283.428 76.7652 284.26 77.0668C285.692 77.5609 286.919 77.0759 287.947 75.8864C290.672 72.7145 292.31 69.0867 292.975 64.9775C293.842 59.6971 294.251 54.4042 293.628 49.0886C293.458 47.6742 292.9 46.2914 292.344 44.9772C291.908 43.9348 290.914 43.5682 289.87 44.049C288.554 44.6503 287.24 45.3202 286.019 46.1023C285.545 46.4103 285.239 47.0805 284.999 47.6348C284.63 48.5352 284.445 49.5229 284.099 50.4456C283.73 51.3688 283.008 51.8881 281.999 51.865C280.921 51.8205 280.151 51.2202 279.968 50.2178C279.812 49.3979 279.791 48.4605 280.049 47.677C281.31 43.623 282.687 39.5893 284.041 35.5561C284.342 34.6573 284.947 34.0491 285.956 34.0722C287.012 34.1172 287.623 34.8126 287.805 35.7692C287.936 36.5211 287.886 37.3228 287.857 38.1012C287.845 38.5589 287.74 39.0187 287.64 39.6614C288.256 39.5104 288.689 39.4092 289.122 39.308C292.018 38.6485 294.33 39.5117 296.058 41.9433C297.194 43.5419 297.944 45.3093 298.194 47.2708C299.144 54.8665 298.67 62.3796 296.704 69.766C295.689 73.6086 293.539 76.882 290.806 79.7337C289.597 80.996 288.125 81.8066 286.34 81.9381C284.052 82.1266 282.369 80.6546 282.226 78.3704C282.135 77.3889 282.044 76.4074 281.957 75.5859Z" fill="#333333"/>
<path d="M110.399 65.1079C111.348 63.4398 112.37 61.9988 113.022 60.4288C113.869 58.3283 114.577 56.1395 115.055 53.9329C115.427 52.1404 115.032 51.8977 113.327 52.5534C112.032 53.0399 110.808 53.6849 109.56 54.2389C108.448 54.7213 107.312 55.2042 106.152 55.5733C105.287 55.8442 104.457 55.6341 104.047 54.7283C103.661 53.8678 104.01 53.1051 104.734 52.6772C107.583 50.9207 110.36 49.0058 113.713 48.2674C116.883 47.556 118.933 48.9969 119.44 52.2107C119.949 55.4702 119.122 58.4852 117.789 61.3971C116.871 63.3848 115.721 65.2862 114.572 67.1647C114.062 67.9766 114.12 68.4786 114.975 68.8254C117.034 69.6714 119.096 70.6088 121.22 71.316C124.199 72.3015 127.395 72.7332 130.029 74.6643C130.984 75.3519 131.961 76.0163 132.94 76.7035C128.209 76.3062 123.465 76.3666 119.004 74.7281C116.808 73.908 114.654 72.9041 112.567 71.83C111.802 71.4354 111.436 71.4893 110.9 72.0961C108.708 74.524 106.516 76.9519 104.23 79.2905C103.513 80.0156 102.518 80.6326 101.561 80.8827C99.898 81.3546 98.8159 80.1207 99.4445 78.5055C99.8782 77.3979 100.658 76.3969 101.44 75.4873C103.384 73.2479 105.399 71.0984 107.413 68.9261C107.973 68.3188 108.031 67.86 107.444 67.2327C106.857 66.6054 106.337 65.8851 105.885 65.1633C105.434 64.4643 105.278 63.6443 105.997 63.0106C106.716 62.3541 107.479 62.6344 108.155 63.1453C108.809 63.6796 109.465 64.3054 110.399 65.1079Z" fill="#333333"/>
<path d="M376.308 56.3183C375.486 56.4282 374.915 56.5325 374.342 56.5453C373.312 56.5912 372.433 56.2678 372.066 55.2238C371.699 54.1799 372.115 53.3242 372.997 52.7784C373.856 52.2331 374.786 51.8005 375.716 51.368C376.352 51.0792 376.756 50.7042 376.785 49.9716C376.8 49.6282 376.882 49.1917 377.107 48.9808C377.555 48.5362 378.094 48.0209 378.665 47.9395C379.077 47.8846 379.572 48.4911 380.037 48.8009C380.016 48.8928 379.973 49.0082 379.952 49.1001C380.588 48.8343 381.223 48.5456 381.882 48.3021C383.247 47.8141 384.33 48.0643 384.877 48.9441C385.424 49.8468 385.152 50.9966 384.027 51.9596C383.24 52.6177 382.334 53.1183 381.546 53.7535C381.208 54.0127 380.782 54.4568 380.767 54.8003C380.772 57.0647 379.83 59.0071 378.818 60.9283C378.753 61.067 378.71 61.2052 378.58 61.5512C379.108 61.5851 379.544 61.5983 380.003 61.6109C387.11 61.6576 394.078 60.6095 401.039 59.2871C401.861 59.1315 402.822 59.0414 403.584 59.3216C404.255 59.5583 405.05 60.2724 405.202 60.9323C405.33 61.5013 404.777 62.4058 404.261 62.8977C403.767 63.3891 402.948 63.659 402.24 63.7892C396.238 64.9529 390.234 66.0709 384.071 66.2089C379.924 66.2788 375.78 66.5088 371.657 66.6469C371.062 66.6602 370.465 66.6507 369.889 66.5264C368.761 66.2772 368.008 65.4019 368.008 64.3955C368.006 63.2747 368.655 62.574 369.678 62.208C370.906 61.7688 372.11 61.2843 373.364 60.9818C374.504 60.7047 375.131 60.0501 375.475 59.0131C375.731 58.1611 375.987 57.3319 376.308 56.3183Z" fill="#333333"/>
<path d="M276.16 60.4591C276.59 63.2858 275.796 65.6824 273.825 67.7394C272.973 68.6048 271.997 69.0384 270.758 68.9975C270.185 68.9874 269.616 69.1603 269.046 69.2874C267.927 69.4955 266.812 69.8635 265.69 69.8887C264.315 69.9423 263.769 69.0853 263.601 67.7396C263.461 66.599 263.001 65.4885 262.678 64.3749C261.583 60.5109 261.267 56.6524 262.44 52.7376C262.74 51.7702 262.716 50.7185 262.9 49.708C263.062 48.7437 263.553 48.1608 264.654 48.1819C265.044 48.1961 265.498 48.0029 265.79 47.7448C267.229 46.5003 268.94 46.1417 270.752 46.1698C272.449 46.2004 273.549 47.228 274.11 48.7251C274.523 49.7909 274.755 50.9294 274.94 52.046C275.393 54.8493 275.754 57.6547 276.16 60.4591ZM266.989 57.2791C268.106 57.0253 269.157 56.8417 270.158 56.5219C270.409 56.4477 270.718 55.9147 270.688 55.618C270.544 54.2946 270.308 52.9732 270.072 51.6518C269.89 50.6723 269.451 50.522 268.71 51.2019C267.408 52.4434 265.876 54.6507 266.989 57.2791ZM267.637 64.7442C268.569 64.3803 269.386 63.996 270.205 63.7261C271.297 63.3585 271.957 61.1021 271.181 60.2274C271.04 60.0705 270.696 60.0553 270.444 60.0838C267.428 60.5173 267.006 61.1215 267.463 64.1077C267.489 64.2672 267.562 64.4257 267.637 64.7442Z" fill="#333333"/>
<path d="M177.742 75.1286C180.282 74.9116 182.752 74.6962 185.223 74.4579C188.837 74.1025 192.397 74.4345 195.942 75.0871C196.655 75.2084 197.418 75.4887 198 75.9102C199.421 76.9306 199.189 78.8343 197.553 79.4885C196.917 79.7315 196.14 79.8632 195.472 79.7181C188.658 78.4067 181.94 79.3806 175.2 80.3321C173.326 80.6028 171.453 80.8734 169.578 81.0984C167.863 81.2969 166.631 80.5239 166.395 79.1797C166.158 77.8354 167.094 76.6479 168.76 76.3132C169.764 76.1078 170.794 76.039 171.825 75.993C172.832 75.9247 173.533 75.4973 173.624 74.466C173.808 72.449 173.9 70.4111 174.057 68.2118C173.419 68.3633 172.988 68.5559 172.552 68.5428C171.36 68.5466 170.123 68.5743 168.949 68.3719C168.097 68.2079 167.576 67.4419 167.601 66.5035C167.625 65.5423 168.256 65.0707 169.073 64.7093C171.572 63.6698 174.069 62.5846 176.567 61.5222C176.998 61.3296 177.428 61.1141 177.861 60.9672C178.77 60.6494 179.709 60.5827 180.325 61.4838C180.988 62.4297 180.595 63.3077 179.924 64.0547C179.544 64.4978 179.002 64.8301 178.668 65.2951C178.246 65.8764 177.664 66.5299 177.656 67.1705C177.553 69.7575 177.681 72.3851 177.742 75.1286Z" fill="#333333"/>
<path d="M336.48 45.4988C337.153 47.9083 337.96 50.1547 338.4 52.4322C339.153 56.3725 339.701 60.3631 339.288 64.421C338.785 69.6017 336.703 73.8799 331.995 76.5472C331.859 76.6188 331.723 76.7134 331.587 76.785C328.256 78.5065 326.055 77.435 325.427 73.9494C325.907 73.8929 326.388 73.905 326.821 73.7581C327.412 73.5618 327.954 73.2066 328.545 72.9875C331.385 71.8488 333.242 69.8173 334.025 66.8948C334.406 65.491 334.672 64.044 334.708 62.6021C334.874 57.7035 334.535 52.839 333.374 48.0615C333.146 47.1059 332.841 46.7925 331.865 47.2261C331.116 47.5631 330.296 47.7873 329.497 47.9196C328.058 48.1348 326.967 47.5188 326.644 46.4052C326.321 45.2916 326.891 44.158 328.254 43.6014C330.548 42.658 332.89 41.7821 335.209 40.9296C336.323 40.5158 337.461 40.1701 338.601 39.893C340.539 39.415 342.087 39.9979 342.437 41.271C342.785 42.4984 341.827 43.7093 339.962 44.3686C338.733 44.7621 337.549 45.1317 336.48 45.4988Z" fill="#333333"/>
<path d="M471.936 30.5261C471.08 30.1793 470.115 30.0865 469.899 29.6339C469.465 28.6829 470.513 28.385 471.121 27.9139C471.482 27.6313 471.819 27.3493 472.157 27.0672C472.085 26.9545 472.014 26.8417 471.942 26.7061C471.442 26.8774 470.917 27.0035 470.441 27.22C469.08 27.8452 467.742 28.5156 466.405 29.186C465.861 29.4727 465.205 29.8533 464.868 29.1518C464.676 28.7672 464.91 27.9614 465.224 27.6342C465.941 26.909 466.776 26.2956 467.658 25.7727C468.79 25.1297 469.993 24.6225 471.172 24.0471C471.489 23.8799 471.807 23.7127 472.123 23.5226C472.075 23.4093 472.049 23.2955 472.001 23.1822C471.705 23.2575 471.384 23.2646 471.134 23.3846C470.023 23.9127 468.96 24.5312 467.823 24.9684C467.391 25.1382 466.836 24.9219 466.331 24.8874C466.481 24.3809 466.463 23.6035 466.825 23.3896C468.157 22.4906 469.559 21.6357 471.036 21.0308C472.012 20.6201 472.392 20.1542 472.277 19.1274C472.216 18.4654 472.246 17.7557 472.439 17.1338C472.566 16.6963 473.063 16.365 473.375 15.9691C473.749 16.3039 474.305 16.5659 474.476 16.9967C474.741 17.5855 474.757 18.2942 474.795 18.9567C474.832 19.6192 475.046 19.9575 475.801 19.8948C476.785 19.8042 477.596 20.1978 477.984 21.1498C478.25 21.7614 478.641 21.8213 479.21 21.6255C479.779 21.4527 480.37 21.2336 480.944 21.2893C481.38 21.3253 482.006 21.6315 482.128 21.9719C482.274 22.3118 481.919 22.8687 481.746 23.3071C481.702 23.3996 481.566 23.4713 481.452 23.5196C479.995 23.9411 479.117 24.6469 479.018 26.3875C478.987 27.0287 477.788 27.7417 476.995 28.1712C474.888 29.2706 474.842 29.2716 475.219 31.7564C475.7 31.7456 476.247 31.5961 476.685 31.7464C477.217 31.9404 477.935 32.2903 478.083 32.7445C478.23 33.1758 477.834 33.8937 477.477 34.3363C477.187 34.7088 476.618 34.8816 476.164 35.0748C474.711 35.702 474.536 36.0719 474.941 37.8012C475.465 37.6294 475.965 37.4352 476.489 37.3091C477.173 37.1337 477.856 36.9125 478.565 36.8738C479.458 36.8309 480.201 37.226 480.451 38.1582C480.7 39.0447 480.302 39.717 479.579 40.1678C479.127 40.4752 478.628 40.7151 478.106 40.9327C474.903 42.2396 471.7 43.5464 468.474 44.831C466.861 45.4847 465.802 45.2796 465.323 44.3297C464.843 43.4026 465.278 42.3407 466.748 41.4386C467.924 40.726 469.171 40.1034 470.442 39.5717C472.373 38.7737 472.44 38.7036 471.772 36.5226C471.017 36.5853 470.239 36.6485 469.484 36.6882C468.591 36.7311 467.762 36.5667 467.533 35.5425C467.305 34.564 467.98 34 468.773 33.6162C469.204 33.4007 469.659 33.2533 470.092 33.1292C472.12 32.6035 472.231 32.4409 471.936 30.5261Z" fill="#333333"/>
<path d="M418.898 40.9775C419.716 40.6618 420.283 40.3975 420.875 40.2013C421.512 40.004 422.191 39.6228 422.789 39.7238C423.48 39.8456 424.268 40.2397 424.738 40.7552C425.326 41.4283 425.187 42.3921 424.606 43.0456C424.092 43.6289 423.438 44.1239 422.758 44.4593C421.238 45.1796 419.599 45.6966 418.081 46.4626C417.401 46.798 416.657 47.3865 416.328 48.0343C414.859 51.0408 413.53 54.1127 412.154 57.1629C412.023 57.4403 411.915 57.7401 411.738 58.0185C411.008 59.2243 409.713 59.7107 408.624 59.209C407.582 58.752 407.077 57.6654 407.55 56.3052C408.369 53.9767 409.35 51.6902 410.284 49.4048C410.436 49.0126 410.634 48.6422 410.875 48.1336C410.297 47.9406 409.835 47.7908 409.373 47.6182C408.263 47.1856 407.649 46.353 407.765 45.4126C407.901 44.3116 408.645 43.7689 409.649 43.5634C410.493 43.3844 411.362 43.2734 412.23 43.1625C413.145 43.0505 413.754 42.6252 413.985 41.6822C414.218 40.8306 414.497 39.9781 414.817 38.9187C413.992 38.9372 413.421 38.9957 412.847 38.9628C411.837 38.894 410.958 38.5248 410.749 37.4086C410.542 36.3382 411.215 35.7056 412.124 35.3421C412.919 35.0041 413.737 34.6884 414.557 34.4642C415.263 34.2654 415.622 33.9143 415.697 33.1578C415.753 32.5847 415.853 31.9191 416.186 31.477C416.497 31.0355 417.105 30.5186 417.609 30.5302C417.999 30.5215 418.472 31.1742 418.803 31.6243C419.016 31.9169 419.025 32.3513 419.151 32.8517C419.834 32.6305 420.448 32.4109 421.086 32.2365C422.02 31.964 422.937 31.9892 423.486 32.9376C424.034 33.886 423.618 34.7417 422.875 35.353C422.155 35.941 421.342 36.4853 420.502 36.8701C419.594 37.2792 419.172 37.8605 419.171 38.8441C419.116 39.4629 418.992 40.0604 418.898 40.9775Z" fill="#333333"/>
<path d="M31.738 92.1442C32.0658 91.4278 32.3931 90.6885 32.7199 89.9263C33.0247 89.2104 33.213 88.4056 33.6111 87.7563C36.533 83.1161 37.7476 77.9881 38.109 72.6276C38.4998 66.5345 37.9981 60.5071 36.3529 54.5968C36.0784 53.5965 35.5299 52.6481 35.0054 51.7449C34.624 51.0901 34.241 50.3667 34.8708 49.8265C35.3203 49.4276 36.1858 49.1795 36.7621 49.3267C38.3985 49.7246 39.3452 51.053 39.8366 52.5288C40.6959 55.0714 41.5321 57.6145 42.0492 60.2334C43.6321 68.4782 43.3561 76.6274 40.4397 84.5841C39.9424 85.9219 39.352 87.1931 38.6928 88.4659C37.1989 91.3586 34.748 92.4656 31.738 92.1442Z" fill="#333333"/>
<path d="M58.3075 56.3013C57.7798 58.3259 57.2969 60.3039 56.7213 62.2382C56.5294 62.8829 56.1318 63.5552 55.6615 64.046C54.5863 65.168 53.1561 64.7655 52.8235 63.2175C52.6956 62.6256 52.7261 61.9388 52.8966 61.3631C53.4752 59.566 54.0997 57.7679 54.794 56.0139C55.3803 54.5598 56.1531 54.268 57.6999 54.7595C58.2521 52.8028 59.9546 52.0556 61.6596 51.4228C66.9324 49.4062 72.383 48.1634 78.015 47.8543C82.4337 47.6181 83.9394 49.3457 83.3264 53.7054C83.2089 54.6001 83.0227 55.4963 82.813 56.3702C82.7087 56.83 82.4893 57.2695 82.246 57.6638C81.6046 58.7075 79.9969 59.5898 79.2525 59.1033C78.3462 58.5517 78.0248 57.5067 78.1153 56.4296C78.1885 55.6046 78.3768 54.7998 78.4958 53.9736C78.6947 52.6197 78.5995 52.4617 77.2732 52.6057C75.6725 52.7788 74.0255 52.93 72.4753 53.3079C69.1248 54.1606 65.8003 55.1499 62.4758 56.1393C61.0645 56.5826 59.6573 57.2089 58.3075 56.3013Z" fill="#333333"/>
<path d="M500.496 44.8918C500.196 48.9243 499.897 52.9796 499.552 57.0131C499.409 58.8233 498.712 60.4629 497.575 61.8837C497.241 62.3029 496.814 62.7013 496.363 63.0088C495.617 63.5058 494.794 63.5928 494.025 63.0382C493.233 62.4612 493.145 61.594 493.54 60.8075C496.613 54.7458 495.963 48.2185 496.002 41.7901C496.024 36.6431 495.565 31.4839 495.381 26.3186C495.338 25.4275 495.478 24.5094 495.688 23.6584C495.773 23.3591 496.27 23.0506 496.635 22.9738C496.795 22.9474 497.219 23.4411 497.295 23.7597C498.849 30.7242 500.129 37.7406 500.175 44.9219C500.289 44.8964 500.404 44.8939 500.496 44.8918Z" fill="#333333"/>
<path d="M520.242 37.1529C518.865 39.128 517.556 41.0787 516.155 42.9857C515.755 43.5436 515.193 44.0366 514.606 44.4386C513.906 44.9346 513.106 44.9982 512.426 44.3501C511.771 43.7472 511.845 42.9678 512.266 42.2951C513.305 40.5792 514.413 38.9075 515.475 37.191C515.962 36.4024 516.402 35.5691 516.996 34.4579C515.626 34.6944 514.576 34.9009 513.525 35.0617C513.022 35.1416 512.477 35.3368 512.015 35.2099C511.438 35.0398 510.721 34.7356 510.458 34.2612C510.076 33.5606 510.683 33.021 511.317 32.6865C512.133 32.2794 512.95 31.8951 513.791 31.579C515.086 31.0925 516.431 30.7421 517.703 30.2105C518.202 29.9934 518.556 29.4365 518.936 28.9934C519.07 28.8303 519.087 28.5554 519.15 28.3253C519.431 27.5642 519.781 26.8015 520.744 26.8257C521.754 26.8488 522 27.621 522.156 28.441C522.181 28.5548 522.252 28.6447 522.349 28.8713C523.056 28.7182 523.762 28.5194 524.493 28.4115C525.384 28.2544 526.298 28.1195 527.191 28.0767C528.038 28.0348 528.801 28.338 529.05 29.2245C529.324 30.179 528.695 30.7649 527.902 31.1944C527.585 31.3616 527.244 31.4836 526.925 31.5823C525.786 31.9051 524.674 32.3646 523.508 32.5051C521.793 32.7265 521.035 33.6584 520.887 35.2628C521.542 35.8429 522.242 36.3991 522.875 37.0254C524.306 38.4572 525.976 39.3577 527.96 39.908C529.229 40.2684 530.391 40.9744 531.642 41.5639C527.82 43.914 523.554 42.7514 520.242 37.1529Z" fill="#333333"/>
<path d="M385.559 28.3199C385.688 32.0454 383.563 35.3868 380.346 38.135C379.649 38.7224 378.718 39.1093 377.829 39.3579C376.144 39.8531 375.189 39.1882 374.58 37.555C374.116 36.3073 373.541 35.1994 373.532 33.7586C373.502 30.3511 375.117 27.7531 377.263 25.349C378.426 24.0421 379.901 23.3686 381.668 23.4663C384.124 23.5943 385.581 25.1857 385.559 28.3199ZM380.533 29.0728C379.342 30.1288 378.729 31.4463 378.651 33.0492C379.587 31.8617 380.616 30.7408 380.533 29.0728Z" fill="#333333"/>
<path d="M209.063 67.4051C207.47 65.8397 207.241 63.8319 207.284 61.658C207.35 58.4313 207.208 55.1864 207.159 51.9624C207.156 51.8252 207.107 51.6662 207.058 51.53C206.918 51.4188 206.801 51.307 206.661 51.2187C206.463 51.5891 206.335 52.0265 206.044 52.3076C205.124 53.2202 204.205 54.1329 203.168 54.9338C202.672 55.3108 201.923 55.6021 201.326 55.5697C200.798 55.5587 200.101 55.1168 199.862 54.6876C199.67 54.303 199.902 53.4057 200.24 53.1466C204.256 50.2661 206.429 45.9629 209.091 42.0148C209.402 41.5504 209.641 40.9732 210.093 40.7115C210.591 40.4258 211.388 40.1793 211.851 40.3748C212.198 40.5271 212.31 41.4167 212.368 41.9872C212.399 42.3296 212.156 42.7468 211.957 43.0715C211.341 44.2289 210.748 45.3859 210.085 46.4987C209.71 47.1247 209.582 47.5621 210.011 48.2845C210.392 48.9164 210.48 49.7836 210.566 50.5594C210.888 53.6859 211.257 56.8342 211.418 59.9642C211.595 62.728 211.496 65.4751 209.063 67.4051Z" fill="#333333"/>
<path d="M319.028 50.2584C321.09 54.3066 321.756 58.4547 321.417 62.7626C321.293 64.3894 320.289 65.6013 319.235 65.6477C318.296 65.6916 317.213 64.3892 317.016 62.7696C316.733 60.3513 316.586 57.9071 316.349 55.4878C316.257 54.4834 316.052 53.4816 315.864 52.2735C314.209 53.0654 312.611 53.3757 311.01 52.4966C311.585 50.5623 312.885 49.2523 314.463 48.0504C316.221 46.7301 317.814 45.1848 319.455 43.7299C319.702 43.5185 319.878 43.1715 320.151 43.0967C320.835 42.9213 321.608 42.6295 322.231 42.7986C323.084 43.0311 323.311 43.9409 323.169 44.7676C323.046 45.4108 322.855 46.1241 322.477 46.6129C321.72 47.6134 320.799 48.4804 319.949 49.3915C319.658 49.7182 319.297 50.0008 319.028 50.2584Z" fill="#333333"/>
<path d="M509.174 20.9089C509.365 20.2413 509.518 18.8655 510.134 17.7309C511.191 15.763 513.536 15.07 516.048 15.6771C518.076 16.1578 519.726 18.2024 519.939 20.5307C520.235 23.5205 518.496 26.716 515.845 28.102C514.123 28.9869 513.129 28.6203 511.59 27.4653C509.515 25.9106 509.467 23.7616 509.174 20.9089ZM514.133 23.314C515.259 22.4196 515.308 21.5036 515.057 20.5714C515.007 20.3438 514.658 20.1228 514.404 20.0599C514.289 20.0396 513.931 20.4136 513.935 20.5965C513.954 21.4424 514.041 22.2639 514.133 23.314Z" fill="#333333"/>
<path d="M532.371 51.5892C532.34 53.2597 532.084 55.141 530.719 56.6126C530.226 57.1497 529.336 57.3298 528.611 57.6663C528.452 57.7384 528.174 57.6303 528.039 57.7248C526.39 58.8139 524.589 58.2595 522.845 58.1613C521.698 58.0955 520.925 57.358 521.012 56.1209C521.162 53.6471 521.382 51.1719 521.74 48.7393C521.981 47.2013 524.785 45.4917 526.688 45.5177C530.311 45.5509 532.258 47.566 532.371 51.5892ZM524.526 53.366C524.763 53.7038 524.982 54.2936 525.304 54.355C527.77 54.9403 527.973 54.7756 528.214 52.2312C528.25 51.7958 528.286 51.3604 528.299 50.9255C528.306 50.1934 528.289 49.4618 527.345 49.2542C526.423 49.0461 525.627 49.3156 525.303 50.2149C524.981 51.1599 524.82 52.1928 524.526 53.366Z" fill="#333333"/>
<path d="M21.9622 51.6022C20.3808 51.6148 19.4745 51.0632 19.316 50.1289C19.1077 49.0128 19.7343 48.3354 20.6645 47.9029C26.0202 45.4956 31.376 43.0884 36.7567 40.772C37.778 40.3146 38.9413 40.0598 40.0614 39.9203C41.2044 39.7804 42.1133 40.4462 42.341 41.4018C42.5946 42.4941 42.0627 43.3066 41.1321 43.7163C35.5029 46.1983 29.8727 48.6346 24.2191 51.0485C23.378 51.3647 22.4636 51.4766 21.9622 51.6022Z" fill="#333333"/>
<path d="M530.679 16.8822C530.626 19.6282 529.121 22.0179 526.71 23.9017C525.404 24.9146 523.947 25.3818 522.322 24.4803C520.628 23.5576 520.226 21.9883 520.257 20.2949C520.276 19.0822 520.362 17.8222 520.726 16.6704C521.434 14.5044 524.047 11.4038 527.243 11.8354C529.312 12.1093 530.659 13.9091 530.679 16.8822ZM524.814 20.0786C525.841 18.8661 526.409 17.6182 526.487 15.9696C524.971 16.8499 524.32 18.4885 524.814 20.0786Z" fill="#333333"/>
<path d="M22.0344 62.1453C22.6705 63.9381 23.3556 65.867 24.1384 68.0682C26.0958 66.4232 27.457 64.7687 27.6563 62.4083C27.672 62.0877 27.2 61.4807 26.9016 61.4645C26.1206 61.3905 25.2989 61.5461 24.4986 61.6327C24.1783 61.6627 23.6789 61.8797 23.5384 61.7456C23.3036 61.4993 23.108 60.9547 23.2399 60.7001C23.5473 60.0985 23.9433 59.3577 24.4881 59.1168C25.5099 58.6822 26.6951 58.3812 27.7958 58.4023C30.065 58.3972 31.5671 59.9647 31.5725 62.252C31.5995 66.5287 29.3531 69.5984 25.8938 71.7344C23.4063 73.254 20.8559 71.9616 20.4244 69.0663C20.2363 67.8353 20.5045 66.5027 20.7976 65.2609C21.0699 64.1111 21.6654 63.0685 22.0344 62.1453Z" fill="#333333"/>
<path d="M474.491 46.3661C475.113 46.4894 476.331 46.6222 477.484 46.9624C479.307 47.4934 480.193 49.1662 480.189 51.042C480.182 53.8098 476.922 57.6798 474.337 57.8978C472.323 58.0573 471.211 57.5103 470.8 55.5524C470.441 53.8678 470.059 52.1608 469.952 50.4477C469.804 47.9349 471.374 46.3901 474.491 46.3661ZM476.13 54.0378C476.314 54.0794 476.498 54.121 476.683 54.1626C476.914 53.2425 477.192 52.3214 477.355 51.4028C477.657 49.5432 477.118 49.0292 475.06 49.2354C475.276 49.688 475.424 50.1651 475.729 50.4785C476.058 50.8142 476.543 51.0092 476.822 51.1631C476.57 52.1752 476.339 53.1182 476.13 54.0378ZM473.472 48.9736C471.742 49.5155 471.236 50.4418 471.592 52.035C473.723 52.0102 472.973 50.2199 473.472 48.9736Z" fill="#333333"/>
<path d="M509.284 55.4913C509.417 53.2238 509.438 51.0961 511.075 49.4812C512.488 48.0771 514.661 47.8912 516.793 48.9186C518.276 49.6402 518.974 51.1113 518.789 53.0826C518.551 55.7642 517.199 57.8302 515.149 59.4543C513.482 60.7497 512.467 60.4751 510.638 59.624C510.174 59.4056 509.814 58.6817 509.664 58.1132C509.437 57.1805 509.393 56.2437 509.284 55.4913ZM512.891 55.868C513.099 55.932 513.33 55.9954 513.538 56.0594C514.02 55.065 514.571 54.092 514.937 53.0545C515.045 52.7318 514.713 52.2361 514.566 51.8048C514.135 52.0431 513.406 52.2196 513.322 52.5646C513.048 53.6457 513.004 54.7675 512.891 55.868Z" fill="#333333"/>
<path d="M483.679 57.46C484.303 57.6748 485.155 57.8387 485.875 58.2572C486.617 58.6751 486.704 59.4509 486.006 60.0155C485.465 60.4393 484.807 60.7514 484.147 60.972C480.94 62.0732 477.732 63.1286 474.524 64.2297C472.545 64.9144 470.59 65.6216 468.61 66.2835C468.133 66.4543 467.564 66.6271 467.125 66.4997C466.572 66.352 465.853 66.0021 465.66 65.5489C465.466 65.0958 465.702 64.3357 465.989 63.8489C466.209 63.4552 466.752 63.1456 467.207 62.9753C471.434 61.3482 475.661 59.721 479.936 58.1843C481.051 57.7933 482.264 57.7433 483.679 57.46Z" fill="#333333"/>
<path d="M269.906 36.0556C269.796 36.264 269.622 36.7024 269.308 37.0297C266.707 39.604 264.083 42.1789 261.411 44.6862C260.805 45.2716 260.013 45.7239 259.217 45.9933C257.897 46.4346 257.145 45.5823 257.528 44.247C257.656 43.8324 257.829 43.3939 258.098 43.0906C260.673 40.3796 263.225 37.6691 265.871 35.0251C266.387 34.5104 267.252 34.2394 267.983 34.1315C269.057 33.9931 269.924 34.8429 269.906 36.0556Z" fill="#333333"/>
<path d="M321.832 37.4093C321.659 37.8706 321.515 38.6058 321.163 39.2542C319.778 41.8928 317.738 43.9513 315.253 45.5624C314.598 45.9888 313.733 46.2597 312.954 46.2772C311.534 46.3318 310.89 45.2483 311.457 43.9547C311.698 43.4232 312.077 42.9572 312.457 42.5141C314.401 40.2976 316.369 38.1034 318.314 35.8869C318.895 35.2106 319.55 34.7613 320.474 35.0837C321.444 35.428 321.737 36.222 321.832 37.4093Z" fill="#333333"/>
<path d="M72.5722 34.206C72.7326 34.2024 72.8925 34.176 73.0528 34.1724C73.8776 34.1539 74.7274 34.2264 74.9775 35.1586C75.2515 36.136 74.553 36.6777 73.7792 36.9238C69.8641 38.1551 65.947 39.295 62.0304 40.4578C61.7799 40.532 61.4373 40.5854 61.2061 40.4991C60.4892 40.2178 59.7703 39.845 59.0753 39.5175C59.4957 38.8447 59.8464 38.1278 60.3367 37.4992C60.582 37.1964 61.0591 37.0027 61.4694 36.902C65.1605 35.9045 68.8292 34.9303 72.5203 33.9327C72.5223 34.0241 72.5473 34.1151 72.5722 34.206Z" fill="#333333"/>
<path d="M232.162 29.3065C231.303 30.8583 229.967 31.5972 228.42 32.1351C225.895 32.9922 223.347 33.8727 220.823 34.7755C220.209 34.9951 219.621 35.3285 219.079 35.7066C218.243 36.2743 217.344 36.02 217.253 35.0384C217.217 34.4445 217.405 33.6169 217.808 33.219C218.774 32.3282 219.831 31.4124 221.011 30.9057C223.281 29.8942 225.624 29.0869 227.991 28.3477C229.516 27.8332 230.986 27.9833 232.162 29.3065Z" fill="#333333"/>
<path d="M185.314 55.1503C182.778 56.5566 181.12 56.2278 179.783 53.8331C179.09 52.5906 178.485 51.1402 178.431 49.7461C178.356 47.4147 178.646 45.0522 178.961 42.7349C179.138 41.4043 179.748 41.0247 180.729 40.7969C180.87 42.9896 180.965 45.2062 181.198 47.4197C181.403 49.428 182.29 51.1465 183.699 52.6475C184.356 53.3419 184.744 54.271 185.314 55.1503Z" fill="#333333"/>
<path d="M423.978 54.9079C421.011 54.4711 418.587 53.7019 416.577 51.9628C415.805 51.2938 415.464 50.3637 415.97 49.4145C416.475 48.4425 417.432 48.1923 418.425 48.4904C420.386 49.0869 422.305 49.8216 424.223 50.5107C424.432 50.5975 424.641 50.73 424.828 50.886C425.737 51.5518 426.597 53.1109 426.126 53.5789C425.475 54.1882 424.543 54.5521 423.978 54.9079Z" fill="#333333"/>
<path d="M332.236 37.222C330.678 37.2569 329.841 36.7266 329.568 35.7949C329.295 34.8632 329.708 33.8704 330.821 33.388C332.705 32.591 334.638 31.8844 336.573 31.2693C337.756 30.8997 338.706 31.3587 339.093 32.2421C339.553 33.3298 339.091 34.1865 338.234 34.8232C336.363 36.2604 334.177 36.8812 332.236 37.222Z" fill="#333333"/>
<path d="M180.171 34.199C179.311 34.7215 178.615 35.3775 177.796 35.6246C174.859 36.5138 171.897 37.3121 168.911 38.088C167.498 38.4627 166.598 38.1855 166.466 37.4108C166.255 36.1803 167.257 35.8605 168.099 35.5901C170.852 34.6821 173.628 33.7736 176.431 33.0247C177.684 32.6993 179.058 32.6456 180.171 34.199Z" fill="#333333"/>
<path d="M176.343 53.7044C174.933 54.2163 173.824 53.8066 173.128 52.4269C172.984 52.1556 172.863 51.8381 172.81 51.5419C172.306 48.4881 172.284 45.4236 173.088 42.432C173.533 40.8209 174.305 40.4834 175.554 41.0044C175.214 45.2665 175.743 49.4405 176.343 53.7044Z" fill="#333333"/>
<path d="M287.657 62.0771C286.249 61.6283 284.774 61.2725 283.432 60.7078C282.205 60.1863 281.719 58.962 282.085 57.8788C282.428 56.8418 283.423 56.2248 284.759 56.4923C286.094 56.7597 287.454 57.1181 288.726 57.6157C289.952 58.0915 290.527 59.2223 290.297 60.211C290.067 61.1997 289.051 61.863 287.657 62.0771Z" fill="#333333"/>
<path d="M76.5669 46.72C76.9031 44.3337 77.1534 42.2008 77.5192 40.1111C77.7827 38.5727 78.6599 37.8211 79.8309 37.9092C80.979 37.9979 81.8966 39.0524 82.0199 40.4678C82.2606 43.0243 80.7742 45.2306 78.2938 46.0409C77.8157 46.1889 77.4079 46.4039 76.5669 46.72Z" fill="#333333"/>
<path d="M529.18 28.7643C529.67 28.1128 530.018 27.2816 530.609 27.0396C531.154 26.8216 532.19 27.0043 532.612 27.4294C534.017 28.7475 534.903 30.4432 535.107 32.3829C535.222 33.4325 534.829 34.3333 533.738 34.7466C532.875 35.0862 531.835 34.6977 531.283 33.5893C530.539 32.1191 529.953 30.5311 529.18 28.7643Z" fill="#333333"/>
<path d="M377.098 46.625C376.747 46.3355 375.96 45.9871 375.672 45.3989C375.24 44.5394 375.914 43.9295 376.685 43.5692C378.047 42.944 379.408 42.3417 380.77 41.7393C380.975 41.6433 381.246 41.4999 381.454 41.5639C382.053 41.7106 382.926 41.7826 383.164 42.1889C383.403 42.5953 383.172 43.5383 382.814 43.9352C381.404 45.4764 379.541 46.2272 377.098 46.625Z" fill="#333333"/>
<path d="M491.398 41.9159C491.438 43.7449 490.8 44.9028 490.045 44.9655C489.313 45.0505 488.491 44.1768 488.302 42.9001C488.086 41.4411 487.961 39.9342 487.882 38.4721C487.841 37.6724 488.123 36.9341 489.037 36.7993C489.973 36.664 490.401 37.3406 490.578 38.0915C490.932 39.5475 491.217 41.005 491.398 41.9159Z" fill="#333333"/>
<path d="M68.5606 61.7214C68.5666 60.9664 68.9142 60.1123 69.849 59.8855C70.3505 59.7599 71.1122 59.9945 71.4869 60.3521C72.1428 60.9779 72.6652 61.7896 73.0502 62.6045C73.3624 63.2379 73.7499 64.1671 73.4858 64.6533C73.0897 65.3941 72.1326 65.6443 71.1861 65.3453C69.7783 64.9193 68.598 63.3903 68.5606 61.7214Z" fill="#333333"/>
<path d="M83.5519 63.9019C82.4417 65.505 81.113 66.5641 79.0565 65.8324C78.6635 65.6811 78.1558 65.5323 77.9654 65.2164C77.6792 64.7196 77.3889 64.0399 77.5151 63.5338C77.6199 63.0969 78.3179 62.5323 78.7537 62.5454C79.8086 62.5675 80.8916 62.8178 81.9292 63.0919C82.5051 63.2162 82.9949 63.5941 83.5519 63.9019Z" fill="#333333"/>
<path d="M70.9341 43.8955C69.2546 44.6422 68.1976 44.5286 67.2581 43.5203C66.5539 42.7813 66.4392 41.7545 67.0196 41.0553C67.6666 40.2631 68.4898 40.1761 69.3702 40.591C70.7597 41.2232 71.1299 42.4043 70.9341 43.8955Z" fill="#333333"/>
<path d="M62.4267 46.7622C60.6586 47.6481 59.5105 47.5594 58.5002 46.4612C57.7008 45.5642 57.6528 44.4445 58.3726 43.8336C59.0701 43.2462 60.1276 43.3826 60.8593 44.3269C61.449 45.0685 61.9042 45.9504 62.4267 46.7622Z" fill="#333333"/>
</svg>
