<svg width="256" height="127" viewBox="0 0 256 127" fill="none" xmlns="http://www.w3.org/2000/svg">
<path d="M239.283 78.1554C238.02 78.1554 236.837 78.1554 235.654 78.1554C235.003 78.1554 234.371 78.2341 233.721 78.2341C230.801 78.2538 229.421 76.5027 229.736 73.6105C229.953 71.6626 229.835 69.6952 229.874 67.7277C229.874 67.2948 229.756 66.8226 229.855 66.4094C229.934 66.075 230.21 65.5831 230.466 65.5241C230.742 65.4847 231.196 65.7995 231.393 66.0946C231.65 66.5078 231.728 67.039 231.926 67.5703C232.083 67.4719 232.222 67.4522 232.3 67.3538C234.391 64.5207 237.468 63.4779 240.742 62.927C242.439 62.6319 244.174 62.4745 245.91 62.3761C248.672 62.2187 250.427 63.3598 251.275 65.9569C251.926 67.9441 252.478 70.01 251.63 72.1152C251.532 72.3513 251.611 72.7251 251.729 72.9415C252.518 74.2597 252.202 75.1845 250.683 75.5976C249.007 76.0502 247.311 76.4437 245.634 76.8372C244.451 77.1126 243.267 77.3881 242.025 77.6832C242.103 78.4505 242.163 79.1391 242.241 80.0245C243.307 79.7687 244.293 79.5326 245.259 79.2768C245.654 79.1785 246.088 78.9424 246.443 79.0014C246.995 79.1194 247.725 79.3359 247.942 79.7294C248.179 80.1425 248.08 81.0279 247.764 81.3624C247.271 81.8936 246.502 82.2281 245.772 82.4642C244.589 82.838 243.366 83.0544 242.163 83.3299C242.163 83.4283 242.163 83.507 242.163 83.6053C242.498 83.684 242.833 83.8021 243.169 83.8611C244.904 84.2349 246.147 85.2777 246.364 87.0091C246.877 90.9834 246.541 94.761 242.991 97.4565C242.458 97.8696 242.182 100.27 242.695 100.624C242.952 100.801 243.405 100.742 243.76 100.742C246.502 100.604 249.263 100.447 252.005 100.349C252.636 100.329 253.307 100.408 253.918 100.565C254.747 100.782 255.279 101.372 255.299 102.257C255.338 103.182 254.806 103.811 253.958 104.067C253.425 104.244 252.833 104.284 252.261 104.323C249.48 104.5 246.699 104.697 243.918 104.815C242.971 104.854 242.715 105.228 242.813 106.153C243.03 108.042 243.169 109.93 243.267 111.839C243.307 112.705 243.267 113.61 243.149 114.475C242.991 115.616 242.301 116.285 241.433 116.305C240.525 116.325 239.855 115.597 239.697 114.377C239.638 113.983 239.638 113.57 239.618 113.157C239.539 110.894 239.441 108.612 239.401 106.35C239.381 105.563 239.165 105.307 238.316 105.366C233.938 105.7 229.578 105.976 225.2 106.271C223.72 106.369 222.931 105.995 222.774 105.13C222.596 104.264 223.168 103.438 224.569 103.182C227.961 102.572 231.393 102.1 234.825 101.608C236.028 101.431 237.251 101.352 238.474 101.293C239.204 101.254 239.52 100.959 239.46 100.211C239.421 99.8371 239.559 99.4436 239.46 99.1092C239.362 98.7944 239.125 98.3812 238.829 98.2631C236.068 97.2204 235.003 95.1939 235.654 92.3213C235.851 91.4556 235.772 90.5112 235.89 89.6259C236.028 88.5634 236.186 87.501 236.482 86.4779C236.679 85.7696 237.232 85.2777 238.099 85.3367C238.316 85.3564 238.592 85.2383 238.731 85.1006C238.948 84.8448 239.066 84.5104 239.204 84.2153C238.888 84.0972 238.573 83.8611 238.257 83.8611C237.074 83.9005 235.89 84.0185 234.707 84.0775C234.332 84.0972 233.918 84.1169 233.602 83.9398C233.227 83.7234 232.754 83.3496 232.734 83.0151C232.715 82.6806 233.129 82.11 233.464 81.992C234.352 81.6575 235.299 81.5198 236.226 81.323C236.817 81.1853 237.409 81.0279 238.02 80.9492C238.77 80.8705 239.105 80.5557 239.105 79.7884C239.066 79.2768 239.204 78.7456 239.283 78.1554ZM242.735 73.6105C244.51 73.2563 246.068 72.9809 247.607 72.607C247.863 72.548 248.198 72.0758 248.179 71.82C248.06 70.2067 247.922 68.613 247.666 67.0194C247.607 66.6455 247.074 66.0946 246.758 66.0946C245.516 66.0356 244.253 66.1733 242.853 66.2324C244.115 68.8098 243.405 71.1118 242.735 73.6105ZM232.853 75.2632C234.49 75.0271 235.871 74.85 237.232 74.6336C239.598 74.2794 239.125 74.7713 239.658 72.4497C239.796 71.8791 239.973 71.3479 240.092 70.7773C240.348 69.4394 240.585 68.0818 240.841 66.7046C238.77 66.9013 238.474 67.1571 238.612 68.5147C238.75 69.8526 238.849 71.2101 238.948 72.548C239.007 73.2957 238.948 74.0827 238.08 74.2794C237.172 74.4762 236.66 73.7679 236.541 73.0005C236.364 71.8988 236.364 70.7773 236.304 69.6755C236.285 69.341 236.304 68.9869 236.304 68.5147C233.859 70.2067 233.622 72.7448 232.853 75.2632ZM240.92 89.075C241.63 88.9766 242.399 89.3898 242.577 88.4454C242.616 88.2289 242.301 87.7174 242.143 87.7174C241.393 87.6977 241.058 88.2093 240.92 89.075ZM240.092 94.5052C240.664 94.033 241.038 93.6986 241.65 93.2067C240.092 93.187 239.973 93.2854 240.092 94.5052Z" fill="white"/>
<path d="M79.6529 47.1286C78.3117 48.191 77.2663 49.0764 76.142 49.8831C75.6883 50.2175 75.0966 50.4536 74.5443 50.5126C74.1301 50.552 73.4398 50.3159 73.3017 50.0011C73.1636 49.6863 73.4003 48.8993 73.7159 48.7419C74.9191 48.073 76.142 47.3253 77.4635 47.0499C80.0277 46.5186 79.4557 46.5383 79.5543 44.5708C79.574 44.2167 79.5543 43.8429 79.4557 43.41C78.5681 44.8266 77.2268 45.2398 75.7475 45.3381C75.3136 45.3775 74.8599 45.3578 74.426 45.2594C73.7356 45.1217 73.1242 44.6889 73.2623 43.9609C73.3609 43.469 73.854 42.7607 74.2879 42.6624C75.9842 42.2885 77.7791 41.4032 79.574 42.9575C79.4754 41.5999 79.3768 40.2423 79.2584 38.8848C79.1993 38.2158 78.9626 37.5272 79.0612 36.8779C79.1401 36.3467 79.436 35.6778 79.8699 35.4417C80.5208 35.0678 81.1914 35.54 81.4084 36.1893C81.8818 37.6256 82.2565 39.1012 82.6313 40.5768C82.7496 41.0687 82.7891 41.5802 82.9272 42.4459C84.584 40.2227 86.083 38.2355 87.6807 36.0909C85.0377 35.0482 82.9272 33.12 81.0928 30.8181C80.4024 32.1559 79.8502 33.4742 79.0612 34.6743C78.3511 35.7761 77.4438 36.7599 76.5562 37.7043C76.1814 38.0978 75.6094 38.3732 75.0769 38.57C74.2879 38.8651 73.4989 38.7864 73.0256 37.9797C72.5719 37.2321 72.9664 36.6025 73.5384 36.0909C75.0572 34.7334 76.0434 33.002 76.931 31.0542C76.3195 31.0542 75.8461 31.0542 75.353 31.0542C74.5838 31.0738 73.8737 30.9558 73.637 30.1098C73.4003 29.2244 73.9526 28.6932 74.6627 28.339C75.5503 27.9062 76.4576 27.5127 77.3846 27.1979C78.2328 26.9027 78.5878 26.3322 78.5681 25.5255C78.5681 25.2697 78.2525 24.8566 78.0355 24.8172C76.9901 24.6401 76.0828 24.3057 75.8461 23.1645C75.5897 22.0234 76.359 21.4331 77.1677 20.9609C76.6943 20.0755 76.1814 19.2492 75.787 18.3638C75.4714 17.6555 75.5108 16.9079 76.2603 16.4947C77.069 16.0422 77.6805 16.4947 78.1933 17.1243C78.5286 17.5572 78.864 18.0097 79.3571 18.6786C79.5149 17.6555 79.5938 16.9472 79.7318 16.2193C79.9488 15.1175 80.3433 14.8814 81.4281 15.1175C81.6254 15.1568 81.8818 14.9994 82.0987 14.9207C82.5524 14.783 83.1639 14.4092 83.4203 14.5862C83.8148 14.842 84.2092 15.511 84.1698 15.9635C84.0909 16.8685 83.7161 17.7539 83.44 18.718C83.9331 18.5803 84.4459 18.4229 84.9588 18.3048C86.2211 18.049 87.1876 18.4622 87.5426 19.3673C87.8977 20.2723 87.4637 21.2757 86.3395 21.866C85.2941 22.4169 84.1895 22.9087 83.1047 23.3613C82.3946 23.6564 82.1185 24.1286 82.3354 25.0533C83.085 24.7582 83.795 24.4434 84.5051 24.2073C85.3335 23.9318 86.1817 23.5974 87.0298 23.4596C87.8385 23.3219 88.6669 23.5383 89.0023 24.3844C89.3573 25.2697 88.8839 26.0174 88.1344 26.4502C86.8128 27.2175 85.4322 27.8668 84.0712 28.5358C83.7753 28.6932 83.4597 28.8112 82.868 29.0867C84.5643 30.1294 86.0042 31.1722 87.5821 31.9592C88.805 32.5691 90.2054 32.8642 91.5072 33.3364C92.237 33.6119 93.0457 33.8283 93.5783 34.3399C93.9925 34.7334 94.2489 35.54 94.17 36.1303C94.1108 36.5041 93.4008 36.8976 92.9077 37.114C92.4935 37.2714 91.9609 37.2321 91.5072 37.1731C90.7972 37.0944 90.1068 36.9173 89.3967 36.7992C89.6532 39.7308 87.7004 41.5802 86.1028 43.7838C86.4578 43.9412 86.7931 44.0789 87.1087 44.2167C88.8839 44.925 90.6788 45.5546 92.4146 46.3416C93.3219 46.7547 94.17 47.3647 94.8998 48.0336C95.531 48.6239 95.7085 49.6076 95.0971 50.2569C94.742 50.6307 93.7755 50.7684 93.2824 50.552C90.3632 49.2928 87.4835 47.9156 84.6235 46.499C84.0712 46.2235 83.7161 45.5546 83.085 44.8659C83.085 45.3972 83.1047 45.7907 83.085 46.1842C82.9469 47.8369 82.8088 49.4699 82.5918 51.1226C82.5327 51.5751 82.2763 52.0276 82.0001 52.4014C81.4478 53.1491 80.6786 53.4639 79.7515 53.1097C78.9428 52.7949 78.6075 52.0276 78.8245 50.9848C79.0612 49.765 79.3373 48.5648 79.6529 47.1286Z" fill="white"/>
<path d="M66.1439 89.0754C66.4594 88.9967 66.8737 88.8984 67.2879 88.8C68.0374 88.6032 68.7869 88.3278 69.5562 88.2097C70.7988 88.0327 71.7258 88.6032 71.9822 89.5673C72.2387 90.5511 71.7258 91.4758 70.5621 91.948C69.497 92.3808 68.3924 92.7547 67.2681 93.0301C66.4003 93.2465 66.2425 93.7187 66.203 94.5451C66.1439 95.9813 66.5581 96.8864 68.0177 97.3192C69.142 97.6537 70.2268 98.1456 71.3313 98.5588C71.4891 98.6178 71.6667 98.6571 71.8047 98.7162C72.7712 99.1097 73.3235 99.936 73.1657 100.743C72.9882 101.569 72.0611 102.12 70.996 102.002C69.6548 101.864 68.5502 101.235 67.6034 100.29C67.2879 99.9753 67.0117 99.6606 66.5186 99.149C66.4792 99.6999 66.4397 100.034 66.4397 100.369C66.4397 102.671 66.5383 104.973 66.42 107.275C66.3608 108.75 66.1044 110.226 65.7296 111.662C65.4141 112.921 64.4476 113.472 63.4811 113.236C62.554 113 62.1398 112.174 62.199 110.875C62.3371 107.944 62.4357 105.012 62.5343 102.061C62.4357 102.022 62.3173 101.982 62.2187 101.943C62.0215 102.179 61.8045 102.395 61.627 102.631C59.8715 104.756 58.1752 106.921 55.7294 108.318C54.8813 108.79 53.9542 109.183 53.0272 109.439C51.9226 109.734 50.9759 109.183 50.6997 108.318C50.4236 107.452 50.8378 106.645 51.9818 106.212C55.3349 104.953 57.5638 102.356 59.7335 99.6999C60.3055 99.0113 60.5816 98.0866 61.0353 97.2996C61.3706 96.729 61.7848 96.1978 62.1398 95.6272C62.2779 95.4108 62.3568 95.155 62.554 94.6631C61.8834 94.8599 61.5086 94.9779 61.1339 95.0566C59.2798 95.4304 57.4257 95.8239 55.5519 96.1584C55.0588 96.2371 54.5262 96.1584 54.0331 96.06C53.2836 95.9026 52.7116 95.4698 52.6327 94.6434C52.5538 93.8171 53.0272 93.2662 53.7373 93.0104C54.8813 92.5973 56.0647 92.3021 57.2482 91.948C58.5894 91.5545 59.911 91.102 61.2522 90.7872C62.1793 90.5511 62.554 90.0789 62.4554 89.1345C62.3962 88.6819 62.4554 88.2294 62.4554 87.5014C61.7256 87.9933 61.2522 88.3868 60.7394 88.6426C60.1674 88.918 59.4968 89.2919 58.9642 89.2132C58.3527 89.1148 57.6624 88.6229 57.3271 88.1114C56.834 87.3441 57.189 86.498 57.8399 85.9078C58.8064 85.0224 59.8912 84.2354 60.838 83.3304C62.0412 82.1892 63.1852 80.9694 64.3095 79.7692C65.1379 78.8838 65.8677 78.6281 66.6172 79.0609C67.4062 79.4938 67.8007 80.5759 67.2879 81.5596C66.7159 82.6614 65.9072 83.6452 65.2365 84.6879C65.0787 84.924 64.842 85.2585 64.9209 85.4749C65.2365 86.6161 65.6902 87.7769 66.1439 89.0754Z" fill="white"/>
<path d="M114.565 107.097C111.666 108.534 108.53 109.537 105.078 109.734C101.35 109.95 97.6617 110.717 93.9338 111.013C88.7463 111.406 83.5589 111.563 78.3714 111.859C76.3003 111.977 74.249 112.134 72.1976 112.37C70.8564 112.528 69.8307 112.134 69.4954 111.15C69.1404 110.127 69.6927 108.907 71.0734 108.612C73.2825 108.16 75.5508 108.022 77.7994 107.786C78.5292 107.707 79.259 107.766 79.7718 107.766C80.1268 105.523 80.4819 103.457 80.8369 101.195C80.1071 101.313 79.6337 101.431 79.1406 101.49C78.6672 101.549 78.1938 101.628 77.7205 101.608C76.9907 101.569 76.3989 101.254 76.2017 100.486C76.0242 99.7192 76.3989 99.1486 77.0696 98.8338C78.0163 98.3813 78.9828 97.9681 79.969 97.6139C80.7185 97.3385 80.975 96.945 80.8172 96.158C80.6594 95.4103 80.6199 94.6233 80.5213 93.7183C80.2057 93.7577 79.8507 93.7773 79.4956 93.8167C78.7264 93.915 77.9571 94.1118 77.1682 94.1118C76.7934 94.1118 76.182 93.797 76.1031 93.4822C76.0044 93.1477 76.32 92.6362 76.5567 92.282C76.6751 92.0853 76.9907 91.9672 77.2471 91.8885C79.4365 91.1802 81.6259 90.4326 83.8547 89.803C84.5451 89.6062 85.3538 89.5866 86.0638 89.7243C86.4978 89.803 87.05 90.2949 87.1487 90.708C87.2276 91.0228 86.7542 91.5737 86.3992 91.8689C86.0836 92.1246 85.5905 92.1837 85.1565 92.3017C84.3873 92.5378 83.5983 92.7542 82.8093 92.9903C83.1841 93.8364 83.4997 94.6233 83.8942 95.3316C83.9928 95.5087 84.4267 95.6071 84.7029 95.5874C85.2354 95.5284 85.7482 95.2923 86.2808 95.2333C87.0895 95.1546 87.7799 95.43 88.1152 96.2367C88.4505 97.0237 88.1941 97.7517 87.5432 98.2239C86.8725 98.7157 86.1033 99.1289 85.334 99.4831C84.7029 99.7782 84.4267 100.152 84.3675 100.86C84.1309 103.162 83.8547 105.464 82.3162 107.53C82.6713 107.569 82.9079 107.648 83.1644 107.648C89.2592 107.648 95.2948 106.881 101.33 106.054C102.987 105.838 104.644 105.523 106.301 105.582C108.076 105.641 109.832 106.035 111.607 106.369C112.652 106.546 113.658 106.861 114.565 107.097Z" fill="white"/>
<path d="M171.63 84.0579C169.737 84.6088 168.08 85.1006 166.423 85.5728C165.634 85.7893 164.845 86.0254 164.056 86.1828C163.425 86.3008 162.774 86.2221 162.517 85.5138C162.241 84.7662 162.656 84.2153 163.287 83.9398C165.101 83.1528 166.877 82.3068 168.77 81.7362C170.92 81.1066 172.34 80.1819 171.985 77.6242C171.867 76.7585 172.143 75.8141 172.34 74.909C172.518 74.1024 172.971 73.4137 173.938 73.5318C174.885 73.6302 175.102 74.3778 175.121 75.1648C175.141 76.4043 175.121 77.6438 175.121 79.0604C175.851 78.844 176.364 78.6866 176.877 78.5489C177.33 78.4308 177.863 78.1751 178.257 78.2931C178.81 78.4702 179.5 78.844 179.678 79.3162C179.835 79.7097 179.5 80.5754 179.106 80.8312C178.218 81.4214 177.173 81.8149 176.167 82.2084C175.457 82.4839 175.161 82.838 175.161 83.625C175.161 85.5925 175.062 87.56 175.003 89.5275C174.983 89.9013 175.003 90.2555 175.003 90.767C175.555 90.708 176.009 90.6686 176.463 90.6096C177.981 90.4325 179.027 91.0425 179.244 92.2033C179.441 93.3051 178.672 94.2101 177.232 94.5643C177.192 94.5643 177.173 94.584 177.133 94.584C174.766 95.1545 174.786 95.1545 174.451 97.5155C174.253 98.9911 174.076 100.486 173.741 101.923C173.484 103.005 173.109 104.087 172.636 105.071C170.151 110.147 163.977 111.19 159.934 107.196C159.283 106.566 158.73 105.799 158.316 104.992C157.488 103.32 158.099 101.824 159.776 101.037C160.229 100.821 160.703 100.644 161.334 100.368C160.328 101.746 160.979 102.729 161.926 103.536C162.715 104.205 163.583 104.894 164.529 105.248C166.344 105.936 167.705 105.405 168.711 103.752C170.19 101.332 170.387 98.578 170.782 95.7448C170.368 95.7448 170.111 95.7448 169.875 95.7448C167.034 95.8431 164.174 95.9809 161.334 96.0596C160.506 96.0793 159.717 95.8235 159.559 94.8791C159.401 93.8953 160.052 93.3051 160.88 93.1083C162.498 92.7542 164.155 92.5181 165.792 92.2426C167.291 92.0065 168.809 91.7901 170.328 91.5147C170.644 91.4556 171.137 91.1605 171.157 90.9441C171.314 88.7405 171.453 86.4779 171.63 84.0579Z" fill="white"/>
<path d="M208.966 81.8347C211.57 82.3462 212.516 83.2316 212.477 85.8483C212.418 89.4685 212.24 93.1084 211.728 96.6695C211.432 98.6961 210.505 100.683 209.676 102.592C208.966 104.225 207.605 105.346 206.007 106.133C202.852 107.688 199.498 108.514 196.007 108.632C194.212 108.691 192.398 108.652 190.603 108.573C183.403 108.219 179.912 104.107 179.498 97.2008C179.261 93.3838 180.011 89.6456 180.583 85.8877C180.741 84.8252 180.879 83.7431 181.115 82.6807C181.273 81.9921 181.49 81.3034 181.825 80.6935C181.983 80.3984 182.496 80.3 182.851 80.1033C183.029 80.4377 183.344 80.7722 183.344 81.1067C183.285 82.7004 183.147 84.2744 183.029 85.868C182.831 88.4651 182.575 91.0622 182.476 93.679C182.378 96.158 182.516 98.5977 183.739 100.9C184.843 102.985 186.559 104.146 188.788 104.402C193.621 104.953 198.414 104.933 203.049 103.103C204.923 102.356 206.007 101.116 206.757 99.2273C207.862 96.3744 208.197 93.4625 208.276 90.472C208.315 88.2684 208.394 86.0844 208.532 83.8809C208.552 83.1922 208.808 82.5233 208.966 81.8347Z" fill="white"/>
<path d="M30.0072 40.0257C29.6522 40.8324 29.3958 41.5997 28.9816 42.2883C27.2064 45.2789 25.372 48.2695 23.5377 51.2404C23.2418 51.7323 22.8276 52.1455 22.4134 52.539C21.5652 53.326 20.5198 53.503 19.6914 53.0505C18.7249 52.4996 18.5277 51.5946 18.6855 50.5911C19.0208 48.4859 19.3956 46.3807 19.7506 44.2755C20.5198 39.7699 21.151 35.225 22.8079 30.9162C23.0643 30.2473 23.2812 29.5193 23.7349 29.0078C24.0308 28.6536 24.7606 28.3978 25.1945 28.5159C25.5298 28.6143 25.8849 29.3422 25.8651 29.7948C25.8454 30.6211 25.5495 31.4475 25.372 32.2738C24.6619 35.835 23.9716 39.3961 23.2812 42.9376C23.2221 43.2131 23.2418 43.5279 23.2221 44.0788C24.9973 41.9342 25.3917 39.1797 27.7192 37.6451C27.3839 37.2319 27.1078 36.8777 26.8119 36.5236C26.1018 35.5989 26.0032 34.7135 26.6147 34.1429C27.3839 33.4149 28.1926 33.7101 28.9224 34.2216C29.6719 34.7528 30.3623 35.3234 31.2696 36.012C32.1375 34.4774 33.0053 33.0411 33.7943 31.5458C34.386 30.444 34.8594 29.2832 35.4117 28.1421C35.7076 27.5321 36.0626 26.9222 36.8516 27.178C37.6603 27.4534 37.7194 28.1814 37.5616 28.87C36.891 31.6836 35.9837 34.438 34.2874 36.8187C33.6562 37.7041 33.7746 38.1369 34.6622 38.5895C37.0488 39.8093 39.4355 41.0291 41.7629 42.3474C43.045 43.0753 44.2482 43.9607 45.4316 44.8657C45.8064 45.1609 46.0825 45.6724 46.2403 46.1249C46.6743 47.4432 45.6881 48.5646 44.3271 48.2892C43.7551 48.1711 43.2028 47.8367 42.6702 47.5612C41.2698 46.8136 39.9088 45.9282 38.469 45.3183C35.6287 44.0984 33.0251 42.5441 30.6976 40.5373C30.5201 40.3602 30.2834 40.2225 30.0072 40.0257Z" fill="white"/>
<path d="M114.111 37.5859C114.17 38.9631 114.229 40.3404 114.288 41.7176C114.308 42.0521 114.387 42.3866 114.367 42.721C114.348 43.6261 113.953 44.3147 113.046 44.5508C112.139 44.7869 111.35 44.4131 110.995 43.6064C110.62 42.7604 110.363 41.7963 110.324 40.8913C110.048 34.8904 109.87 28.9092 109.634 22.9084C109.535 20.1539 109.811 19.6817 112.474 18.9537C114.328 18.4422 116.241 18.4422 118.115 18.9537C121.35 19.8391 122.592 22.3378 121.014 25.2891C119.713 27.7287 118.135 30.0307 116.576 32.3327C116.083 33.0606 116.123 33.4148 116.715 34.0247C118.687 36.0709 120.64 38.1564 122.533 40.2813C123.796 41.6979 123.894 43.0358 122.888 43.8622C121.902 44.6885 120.719 44.354 119.417 42.8784C118.016 41.3044 116.596 39.7501 115.176 38.1958C114.939 37.9203 114.644 37.7039 114.387 37.4678C114.288 37.5072 114.19 37.5465 114.111 37.5859ZM113.638 29.5192C115.275 27.3943 116.636 25.4661 117.602 23.2822C117.681 23.0855 117.326 22.4952 117.089 22.4362C116.36 22.2394 115.571 22.1411 114.801 22.1017C112.77 22.023 112.75 22.0427 112.987 24.0495C113.184 25.7612 113.401 27.4926 113.638 29.5192Z" fill="white"/>
<path d="M153.699 28.2604C153.936 25.4666 154.39 22.8104 155.435 20.2724C156.145 18.5213 157.171 16.967 158.768 15.8652C160.82 14.4683 162.516 14.7044 164.35 16.239C167.171 18.5607 168.157 21.689 168.532 25.0927C168.926 28.6539 168.532 32.156 166.974 35.4221C166.362 36.7009 165.455 37.9404 164.41 38.8848C162.26 40.813 159.518 40.6162 157.427 38.6291C156.125 37.4092 155.277 35.8943 154.843 34.2022C154.35 32.2544 154.074 30.2476 153.699 28.2604ZM157.822 28.0636C158.117 29.6967 158.315 31.3297 158.709 32.943C158.926 33.8087 159.4 34.6351 159.932 35.363C160.642 36.3468 161.53 36.3861 162.338 35.5204C162.97 34.8318 163.522 34.0251 163.897 33.1791C165.12 30.4837 165.475 27.6111 165.06 24.7386C164.824 23.0269 164.153 21.3742 163.581 19.7215C163.344 19.0132 162.733 18.8755 162.003 18.9935C160.899 19.1706 160.287 19.8986 159.774 20.7642C158.453 22.9678 158.039 25.4666 157.822 28.0636Z" fill="white"/>
<path d="M62.8278 22.515C63.1237 22.2592 63.3998 21.9444 63.7352 21.728C65.2934 20.6852 67.0488 20.941 67.9562 22.574C68.6268 23.7545 69.1396 25.1121 69.3763 26.45C70.2245 31.1916 70.5992 35.9923 70.4611 40.8324C70.4217 42.2293 70.0075 43.6262 69.7116 45.0034C69.6327 45.3773 69.3369 45.7314 69.0804 46.0265C68.5873 46.6168 67.9759 46.9906 67.2066 46.6168C66.3979 46.2233 66.3585 45.4756 66.6346 44.7673C67.4631 42.6424 67.3053 40.4585 67.2855 38.373C65.8654 38.8649 64.465 39.3567 62.8278 39.9273C62.7687 40.852 62.7095 42.0916 62.5911 43.3311C62.532 44.0394 62.4334 44.7673 62.1769 45.4166C62.0389 45.7904 61.526 46.243 61.171 46.243C60.7568 46.243 60.2045 45.8888 59.9678 45.5347C59.6719 45.1215 59.5536 44.5312 59.5339 44C59.455 41.7571 59.3564 39.5338 59.4353 37.2909C59.5536 33.2575 59.7903 29.2242 59.9875 25.2105C60.0073 24.6792 60.0862 24.1283 60.1848 23.5971C60.5201 21.8067 61.4274 21.4329 62.8278 22.515ZM63.0251 32.0573C64.3861 31.349 65.4512 30.8178 66.4966 30.2276C66.6741 30.1292 66.8319 29.7751 66.8122 29.5586C66.5755 27.7485 66.3388 25.9581 66.0232 24.1677C65.8851 23.4004 65.4512 22.8101 64.5636 22.9675C63.7352 23.1053 63.0448 23.5381 63.0251 24.4628C62.9856 26.8828 63.0251 29.3029 63.0251 32.0573ZM67.0883 33.5526C65.7865 33.8674 64.6425 34.1429 63.4985 34.438C63.3407 34.4774 63.104 34.6741 63.0843 34.8118C63.0054 35.5595 63.0054 36.3071 62.9659 37.1138C64.2085 36.6219 65.1948 36.0513 66.2599 35.8349C67.0291 35.6775 67.2264 35.4218 67.1475 34.7331C67.1277 34.3593 67.1277 34.0052 67.0883 33.5526Z" fill="white"/>
<path d="M128.077 29.185C130.306 28.9292 132.357 28.6931 134.409 28.4964C136.223 28.3193 137.249 28.9686 137.348 30.2277C137.426 31.4476 136.401 32.392 134.744 32.5297C132.949 32.6871 131.154 32.8248 129.359 32.8839C128.61 32.9035 128.452 33.179 128.551 33.8873C128.925 36.6811 129.576 37.5468 132.89 36.6221C133.777 36.3663 134.606 35.9728 135.474 35.717C136.736 35.3432 137.821 35.7957 138.215 36.7992C138.59 37.7829 138.156 38.8257 136.973 39.3766C134.941 40.321 132.85 41.0686 130.523 41.049C128.117 41.0293 126.618 39.8881 125.769 37.7829C125.474 37.0746 125.217 36.2876 125.197 35.5203C125.119 31.1525 125.138 26.7846 125.099 22.4168C125.099 22.0036 125.02 21.5511 124.823 21.197C124.132 19.9378 124.566 18.7966 125.967 18.4621C126.618 18.3047 127.328 18.3244 127.979 18.1867C129.004 17.9899 130.03 17.7342 131.056 17.4784C131.647 17.3407 132.219 17.1046 132.831 17.0259C134.034 16.8291 134.981 17.3997 135.217 18.4031C135.454 19.3672 134.961 20.3313 133.856 20.7051C132.417 21.1773 130.937 21.5905 129.438 21.8659C127.781 22.161 127.762 22.0823 127.84 23.8137C127.919 25.5648 127.998 27.3552 128.077 29.185Z" fill="white"/>
<path d="M8.76438 30.1689C9.55335 30.0115 10.1648 29.8344 10.796 29.736C12.8079 29.4606 14.3661 30.5033 14.8197 32.4708C15.0367 33.3956 15.1353 34.3399 15.1551 35.2843C15.2734 40.5375 14.4253 45.5547 11.368 49.9815C10.9143 50.6308 10.3423 51.2801 9.6717 51.6932C9.15887 52.008 8.3699 52.1064 7.75844 51.9883C7.34423 51.9096 6.93002 51.3391 6.73278 50.8866C6.51581 50.3947 6.67361 49.9028 7.32451 49.6077C7.69927 49.4503 7.97541 49.0174 8.2121 48.6436C11.2102 44.0397 12.1175 38.9636 11.7428 33.5923C11.6836 32.7463 11.2496 32.4315 10.4212 32.4512C8.66576 32.4905 8.44879 32.766 7.95569 34.4383C7.00892 37.7634 5.94381 41.0491 4.87869 44.3348C4.70118 44.866 4.40531 45.4169 4.03055 45.8104C3.71496 46.1252 3.06406 46.4597 2.72874 46.3416C2.33426 46.1842 1.8806 45.5743 1.86087 45.1415C1.84115 44.2758 2.01867 43.4101 2.23564 42.5641C3.20213 38.9045 4.34614 35.2647 5.19428 31.5855C5.86491 28.7129 6.20022 25.7814 6.71305 22.8695C6.85113 22.0431 6.94975 21.02 8.11348 21.1184C9.23777 21.2168 9.31666 22.2399 9.29694 23.0662C9.21804 25.0534 9.04052 27.0602 8.88273 29.0474C8.84328 29.3622 8.80383 29.6967 8.76438 30.1689Z" fill="white"/>
<path d="M77.6035 14.7237C76.5384 12.4217 77.0117 9.94265 77.5246 7.40458C77.2287 7.36523 77.0315 7.28654 76.8539 7.30621C74.6645 7.62101 72.4949 7.95548 70.3055 8.25061C69.6743 8.32931 69.339 8.58508 69.2798 9.25403C69.0826 11.2412 68.8459 13.2284 68.55 15.1959C68.5303 15.3139 67.8005 15.5107 67.7019 15.4123C67.3863 15.0975 67.0904 14.645 67.0312 14.2121C66.8932 12.9136 66.8734 11.5757 66.8143 10.2574C66.7945 9.8246 66.8537 9.39175 66.8734 8.76215C66.1042 8.89988 65.4533 8.99825 64.8024 9.1163C63.5992 9.31305 62.396 9.54915 61.1731 9.68687C60.0883 9.80492 59.3388 9.31305 59.2007 8.50638C59.0429 7.50296 59.6543 6.93239 60.4828 6.69629C62.3763 6.16507 64.2896 5.65352 66.2225 5.29937C67.2285 5.12229 67.7019 4.74847 67.8399 3.74505C67.9188 3.0761 68.0963 2.38748 68.4119 1.81691C68.6092 1.46276 69.1417 1.26601 69.5362 1.01024C69.7729 1.46276 70.1477 1.89561 70.1871 2.36781C70.2266 3.05643 70.0293 3.74505 69.911 4.61075C71.2325 4.43367 72.3962 4.27627 73.56 4.11887C74.6645 3.96147 75.7691 3.76473 76.8934 3.64668C77.5049 3.56798 77.8007 3.27285 77.8007 2.66293C77.8007 2.15138 77.7218 1.62016 77.8402 1.14796C77.9585 0.715113 78.2741 0.0658411 78.5897 0.0068164C79.0039 -0.0522083 79.5956 0.282265 79.8915 0.616739C80.1874 0.931537 80.3057 1.48244 80.3254 1.93496C80.3649 2.9187 80.8185 3.01708 81.647 2.82033C83.501 2.36781 85.3551 1.91528 87.2092 1.56113C87.8404 1.44309 88.5899 1.42341 89.2014 1.62016C90.4045 2.01366 90.6018 3.3122 89.6156 4.0992C89.1422 4.45335 88.5505 4.7288 87.9785 4.8862C85.8482 5.45677 83.6983 6.00767 81.5483 6.47986C80.8383 6.63726 80.5424 6.89304 80.4635 7.64068C80.2071 10.2771 79.5956 12.8349 77.6035 14.7237Z" fill="white"/>
<path d="M143.048 19.6817C142.536 19.603 142.102 19.5637 141.668 19.485C140.445 19.2685 139.715 18.5406 139.735 17.5962C139.754 16.6715 140.445 16.0419 141.687 15.8648C143.542 15.609 145.396 15.4123 147.25 15.1762C148.098 15.0581 148.926 14.8417 149.755 14.7433C151.195 14.5662 152.181 15.1368 152.417 16.1993C152.674 17.3011 151.944 18.2455 150.504 18.639C149.617 18.875 148.729 19.0915 147.822 19.1898C147.052 19.2882 146.836 19.603 146.875 20.39C147.072 23.7348 147.23 27.0992 147.289 30.4439C147.329 33.1197 147.21 35.7955 147.131 38.4713C147.092 39.7895 146.421 40.6158 145.356 40.6945C144.271 40.7732 143.305 39.9862 143.187 38.7074C143.048 37.1924 143.088 35.6578 143.108 34.1428C143.147 29.7356 143.206 25.3284 143.246 20.9409C143.206 20.5277 143.108 20.1342 143.048 19.6817Z" fill="white"/>
<path d="M191.531 88.9574C192.202 88.013 193.07 87.1473 193.504 86.1045C194.036 84.806 194.253 83.3894 194.49 81.9924C194.648 81.0284 194.194 80.2611 193.129 80.2414C191.472 80.2217 189.835 80.3201 188.178 80.3988C187.705 80.4184 187.231 80.6742 186.778 80.6152C186.363 80.5562 185.791 80.3201 185.673 80.0053C185.555 79.6905 185.851 79.1593 186.048 78.7658C186.166 78.5493 186.462 78.4313 186.699 78.3132C189.46 76.8966 192.3 76.5818 195.279 77.6246C196.462 78.0378 197.232 78.8641 197.508 80.084C198.297 83.4877 197.784 86.7144 195.713 89.5673C193.977 91.9283 191.886 93.9745 189.401 95.5681C188.711 96.0207 187.882 96.3355 187.074 96.5125C185.989 96.7486 185.062 96.2174 184.825 95.4107C184.588 94.6041 185.121 93.7777 186.206 93.3252C186.442 93.2268 186.738 93.1875 186.955 93.0497C187.941 92.4398 188.612 91.7512 188.454 90.374C188.237 88.3868 188.257 86.38 188.257 84.3928C188.257 83.5271 188.336 82.622 188.592 81.7957C188.73 81.3628 189.302 81.048 189.697 80.6939C189.953 81.1071 190.387 81.5006 190.446 81.9531C190.723 83.9993 190.9 86.0652 191.097 88.1113C191.117 88.3671 191.196 88.6032 191.255 88.859C191.334 88.859 191.433 88.918 191.531 88.9574Z" fill="white"/>
<path d="M19.2188 124.313C19.5343 124.254 19.8302 124.273 20.0274 124.155C28.0158 119.63 32.651 113.118 32.2565 103.634C32.1579 101.411 31.9015 99.1879 31.6845 96.9646C31.6253 96.2957 31.5662 95.6071 32.3354 95.3513C33.1047 95.0955 33.5189 95.6464 33.8345 96.2563C34.012 96.6105 34.1895 96.9843 34.2881 97.3778C35.6294 102.71 36.1422 108.081 34.3867 113.413C32.8877 117.958 30.2644 121.775 26.5365 124.805C25.708 125.474 24.7021 126.005 23.6962 126.359C21.8224 127.028 20.1852 126.221 19.2188 124.313Z" fill="white"/>
<path d="M121.035 97.0826C120.424 97.0826 119.812 97.122 119.201 97.063C118.53 97.0039 117.919 96.7482 117.82 95.9612C117.741 95.1742 118.274 94.761 118.945 94.6036C120.503 94.2495 122.061 93.9347 123.639 93.6395C129.537 92.5181 135.414 91.1998 141.43 90.767C142.476 90.6883 143.541 90.6489 144.586 90.7473C145.691 90.8654 146.381 91.7311 146.342 92.6558C146.302 93.5608 145.612 94.2101 144.507 94.3675C137.426 95.2529 130.365 96.1382 123.284 97.0236C122.534 97.122 121.785 97.122 121.055 97.181C121.035 97.1417 121.035 97.122 121.035 97.0826Z" fill="white"/>
<path d="M77.7418 77.8013C79.0633 76.7978 80.3651 75.8141 81.6867 74.85C81.9036 74.6926 82.1798 74.6336 82.4362 74.5352C85.7696 73.3744 87.7815 74.7123 87.8998 78.2144C87.9787 80.1229 87.5645 81.9133 86.4797 83.5267C86.3613 83.7037 86.4008 83.9792 86.3416 84.3727C85.3159 85.1203 84.093 86.1041 82.7912 86.9304C82.1009 87.3633 81.2527 87.619 80.444 87.7764C79.6353 87.9338 78.9055 87.6584 78.3927 86.9501C78.2546 86.773 78.0574 86.5566 77.8602 86.5369C76.6175 86.3008 76.3808 85.3958 76.3414 84.3333C76.2822 82.6216 76.2033 80.8902 76.1836 79.1785C76.1836 78.667 76.1836 77.998 76.4992 77.7226C76.7359 77.4865 77.4262 77.7619 77.7418 77.8013ZM79.517 84.1563C80.5624 83.7824 81.7458 83.6054 82.5545 82.9758C84.093 81.7756 84.527 79.9852 84.4875 78.0767C84.4678 77.4078 84.2114 77.1913 83.5408 77.3487C80.9766 77.9587 78.8858 81.3427 79.517 84.1563Z" fill="white"/>
<path d="M8.29093 113.944C7.99507 112.626 7.58086 111.544 7.56113 110.442C7.52168 107.727 7.65975 105.031 7.73865 102.316C7.73865 101.962 7.73865 101.588 7.50196 101.136C7.24554 101.45 7.00885 101.824 6.71299 102.1C5.72677 103.024 4.78001 104.008 3.71489 104.815C3.02454 105.346 2.07777 105.543 1.38742 104.795C0.677349 104.048 1.07184 103.201 1.48605 102.454C1.62412 102.198 1.82136 101.942 2.0186 101.726C5.35201 98.0663 8.11341 94.033 10.1056 89.4881C10.4212 88.7601 10.8945 88.1502 11.8019 88.3469C12.7092 88.5437 12.9459 89.3307 12.8078 90.098C12.6106 91.2588 12.3936 92.4393 11.9399 93.5214C11.3285 94.9774 10.4409 96.3349 9.77026 97.7712C9.51384 98.3221 9.37577 98.991 9.41522 99.5813C9.57301 102.965 9.82943 106.33 9.9675 109.714C10.0267 111.465 9.71108 112.055 8.29093 113.944Z" fill="white"/>
<path d="M24.0132 13.1891C25.5517 12.4218 27.0113 11.6544 28.4906 10.9265C29.319 10.533 30.1474 10.1395 31.035 9.8837C32.2777 9.4902 33.3033 9.86402 33.5992 10.6707C33.8951 11.4774 33.3231 12.3824 32.1593 12.9333C29.1415 14.3499 26.1237 15.7271 23.1453 17.2224C22.455 17.5569 21.883 18.2062 21.3701 18.7964C20.522 19.7999 19.7725 20.9017 18.9243 21.9247C18.4312 22.515 17.7409 23.0069 16.9716 22.4363C16.2024 21.8657 16.4588 21.0787 16.873 20.4098C17.9776 18.58 19.2399 16.8486 20.2064 14.9402C20.9756 13.4252 21.4293 11.7331 21.9816 10.1001C22.1788 9.52955 22.3169 8.72288 23.0664 8.91963C23.4806 9.03768 23.8751 9.76565 23.954 10.2772C24.1118 11.2019 24.0132 12.1266 24.0132 13.1891Z" fill="white"/>
<path d="M22.9267 94.2103C22.1574 93.9349 21.1318 93.6988 20.2442 93.2069C19.8891 93.0298 19.613 92.2625 19.7116 91.869C19.8102 91.4755 20.4414 90.9443 20.8359 90.9443C24.3271 90.8459 27.4633 89.3309 30.7967 88.544C32.5521 88.1308 34.2879 87.6586 36.0433 87.3438C36.714 87.2257 37.4832 87.3044 38.1341 87.5405C39.4359 87.9931 39.6332 89.4097 38.5286 90.2557C38.0749 90.5901 37.5227 90.8066 36.9704 90.964C33.6961 91.8493 30.4219 92.715 27.1279 93.5217C25.8459 93.7972 24.5243 93.9546 22.9267 94.2103Z" fill="white"/>
<path d="M10.8763 14.2118C11.4088 14.1724 11.8625 14.0937 12.3359 14.1134C13.1446 14.1527 13.7955 14.4872 14.0322 15.3136C14.2688 16.1399 13.9335 16.8089 13.2235 17.222C10.2451 18.9141 7.26672 20.5864 4.26862 22.2588C4.07138 22.3769 3.83469 22.4556 3.598 22.5146C2.76958 22.7507 2.02005 22.672 1.56639 21.8456C1.13246 21.0586 1.46777 20.3503 2.11868 19.8781C3.69662 18.7173 5.31401 17.5959 6.95113 16.5137C8.50935 15.471 8.52908 15.4906 8.05569 13.7592C7.75983 12.5197 7.38507 11.3196 7.03003 10.1194C6.83278 9.43077 6.75389 8.72247 7.54286 8.388C8.31211 8.05352 8.94329 8.50605 9.21943 9.13564C9.81116 10.4932 10.2648 11.8901 10.7579 13.287C10.8565 13.5625 10.8368 13.8773 10.8763 14.2118Z" fill="white"/>
<path d="M25.8263 83.9006C25.1556 83.9006 24.4456 84.0186 23.8144 83.8612C23.3805 83.7432 22.7887 83.2907 22.7098 82.9169C22.6309 82.5234 23.0057 81.8544 23.3805 81.6183C23.9525 81.2445 24.6823 81.0674 25.3726 80.91C28.3313 80.3001 31.2899 79.7295 34.2486 79.1786C34.7811 79.0802 35.3926 78.9819 35.8462 79.1589C36.3591 79.3557 36.9902 79.7885 37.1086 80.2411C37.2269 80.6936 36.8916 81.4609 36.4971 81.7757C35.9843 82.2086 35.2348 82.425 34.5444 82.5627C31.6449 83.1136 28.7455 83.6055 25.846 84.0973C25.846 84.0383 25.846 83.9793 25.8263 83.9006Z" fill="white"/>
<path d="M19.0413 29.696C17.7001 29.7157 17.0294 28.7713 17.4634 27.8269C17.6409 27.4334 17.9368 27.0793 18.2524 26.7842C20.7771 24.4822 23.3215 22.1802 25.8659 19.8979C26.3196 19.4848 26.8127 19.1306 27.3255 18.7961C27.9173 18.4223 28.5682 18.3436 29.1007 18.8748C29.6727 19.4454 29.5938 20.0947 29.1993 20.7243C29.0613 20.9604 28.9035 21.1768 28.7062 21.3539C25.9251 23.8723 23.144 26.4103 20.3431 28.909C19.9289 29.3419 19.3372 29.5386 19.0413 29.696Z" fill="white"/>
<path d="M9.23848 83.1138C9.08069 83.645 9.00179 84.0385 8.844 84.4123C7.52247 87.4619 5.70783 90.1771 3.36064 92.538C2.9267 92.9906 2.3547 93.4431 1.78269 93.5611C1.28959 93.6792 0.500615 93.4824 0.185026 93.1283C-0.0911148 92.8135 0.00750674 92.0855 0.0666797 91.5543C0.086404 91.2985 0.382269 91.0624 0.579512 90.8067C2.4336 88.426 4.28768 86.065 6.16149 83.704C6.53625 83.2318 6.91102 82.7203 7.40412 82.3661C7.69999 82.1497 8.27199 82.1103 8.60731 82.2481C8.88345 82.3661 9.04124 82.8383 9.23848 83.1138Z" fill="white"/>
</svg>
