<svg width="640" height="130" viewBox="0 0 640 130" fill="none" xmlns="http://www.w3.org/2000/svg">
<rect x="1.70703" y="8.69507" width="636.756" height="111.383" transform="rotate(0.0950628 1.70703 8.69507)" fill="white"/>
<path d="M200.669 48.9345C202.405 51.0086 202.134 51.9446 199.61 52.9373C197.834 53.635 196.058 54.4103 194.309 55.1853C193.974 55.3452 193.721 55.7113 193.44 56C193.493 56.1288 193.547 56.2316 193.626 56.36C194.013 56.3029 194.427 56.2714 194.814 56.1884C196.466 55.8551 198.118 55.4958 199.797 55.2139C200.442 55.1015 201.142 55.1437 201.791 55.2903C202.881 55.5344 203.59 56.2498 203.735 57.4133C203.855 58.5512 203.349 59.4387 202.346 59.9186C201.703 60.2122 201.006 60.3513 200.309 60.5162C197.677 61.1219 195.019 61.7021 192.387 62.2819C192.337 62.438 192.313 62.5937 192.264 62.7498C194.902 64.4748 197.463 66.2787 200.151 67.8736C201.743 68.8101 203.538 69.459 205.256 70.1866C207 70.9397 208.078 72.1422 208.182 74.0832C205.198 75.393 202.493 74.4458 199.835 73.1613C196.708 71.6501 193.886 69.7462 191.496 67.2148C191.286 66.9846 191.05 66.7806 190.815 66.6026C190.762 66.5515 190.659 66.5788 190.452 66.5298C190.226 67.0768 190.027 67.6493 189.75 68.1969C188.541 70.6738 187.437 73.227 186.098 75.628C185.087 77.4547 183.672 78.0438 182.551 77.4635C181.482 76.9083 181.127 75.5405 181.851 73.6141C182.824 70.9332 183.953 68.302 185.004 65.646C185.179 65.2033 185.302 64.7354 185.476 64.241C184.049 64.0015 182.726 63.7865 181.247 63.5218C181.227 63.9364 181.182 64.455 181.138 64.9736C180.745 70.3141 180.429 75.6536 179.932 80.9697C179.773 82.6035 179.226 84.1908 178.755 85.7511C178.557 86.4013 178.153 87.1579 177.614 87.5019C177.024 87.8985 176.044 88.1708 175.446 87.9459C174.926 87.7458 174.421 86.8204 174.386 86.1734C174.318 84.983 174.613 83.7876 174.752 82.5943C175.053 80.0004 175.328 77.3808 175.676 74.4754C173.896 74.94 172.426 75.2967 170.957 75.7571C170.699 75.8383 170.577 76.4097 170.479 76.7737C170.135 78.151 169.896 79.5787 169.526 80.9564C169.033 82.7243 168.009 83.5411 166.789 83.2988C165.595 83.0561 164.828 81.8752 164.985 80.112C165.233 77.4151 165.636 74.7161 165.91 71.993C166.485 66.7277 167.034 61.4368 167.557 56.1463C167.694 54.8236 168.121 53.8336 169.593 53.5804C169.98 53.5233 170.337 53.13 170.696 52.8661C174.514 50.0169 178.883 51.5111 180.11 56.0784C180.465 57.3944 180.716 58.7378 180.964 59.8739C182.717 59.3061 184.366 58.7915 185.99 58.2772C186.377 58.1684 186.817 58.1365 187.124 57.9251C187.381 57.7662 187.661 57.3998 187.683 57.1146C187.68 56.9333 187.262 56.6541 186.976 56.5544C186.56 56.3788 186.017 56.4381 185.729 56.183C185.231 55.7495 184.575 55.111 184.62 54.6183C184.665 54.1256 185.407 53.4939 185.973 53.2531C186.874 52.8782 187.882 52.7608 188.837 52.5406C188.808 52.3597 188.806 52.1785 188.777 51.9717C188.156 51.9801 187.56 51.9365 186.94 51.9967C184.536 52.2627 182.94 51.0413 181.775 49.1148C181.272 48.267 181.182 47.3618 182.053 46.7024C182.924 46.0431 183.783 46.3939 184.44 47.1101C185.491 48.2612 186.517 49.4385 187.516 50.6162C187.885 51.0515 188.176 51.5396 188.493 52.0014C188.647 51.8957 188.827 51.7897 188.98 51.684C189.128 51.1381 189.25 50.5926 189.398 50.0467C189.818 48.5388 190.66 47.6985 191.8 47.7348C193.224 47.793 193.78 48.7178 194.082 49.9568C194.11 50.0859 194.189 50.1884 194.269 50.3686C195.073 50.513 195.352 50.0948 195.679 49.3652C196.458 47.6452 197.314 45.9242 198.276 44.3313C198.858 43.365 199.887 42.8848 201.06 43.4904C202.025 43.9693 202.377 45.1558 201.903 46.4313C201.553 47.3167 201.072 48.1261 200.669 48.9345ZM171.623 63.8604C173.014 63.3752 174.172 62.9191 175.359 62.5922C176.08 62.3751 176.386 62.0083 176.298 61.2585C176.123 59.8105 175.973 58.3363 175.798 56.8884C175.684 56.0871 175.284 55.2638 174.382 55.5351C173.402 55.8075 171.779 56.3476 171.683 56.9187C171.377 59.1243 171.589 61.3746 171.623 63.8604ZM171.293 70.0289C172.74 69.8537 174.11 69.7055 175.504 69.4793C175.711 69.4505 176.017 69.1097 176.04 68.8763C176.109 68.2279 176.048 67.5812 176.037 66.8044C174.749 67.2105 173.589 67.6148 172.403 67.9418C171.217 68.2429 170.993 68.9711 171.293 70.0289Z" fill="#333333"/>
<path d="M131.071 79.9018C130.825 80.8376 130.575 81.4625 130.532 82.0847C130.386 84.7025 129.278 86.919 127.595 88.8326C126.423 90.1695 125.146 91.43 123.842 92.6133C122.461 93.8494 120.812 94.4158 119.039 93.4559C117.291 92.4956 117.01 90.816 117.244 89.0517C117.781 84.7192 118.343 80.3865 118.931 76.0533C119.59 71.2789 120.328 66.5294 121.013 61.7546C121.061 61.495 121.032 61.2364 121.052 60.7699C120.615 61.009 120.332 61.1424 120.023 61.302C119.664 61.4882 119.356 61.7255 118.996 61.9117C117.479 62.6576 115.925 62.5752 115.266 61.7036C114.607 60.858 114.818 59.2235 116.045 58.0672C119.801 54.4936 123.61 51.0229 127.446 47.5519C128.059 46.9996 128.883 46.6258 129.682 46.3818C130.842 46.0293 131.932 46.2734 132.569 47.4301C133.154 48.5099 132.7 49.3967 131.908 50.1844C130.017 51.9973 128.127 53.836 126.21 55.6492C125.853 55.9908 125.363 56.1788 124.67 56.6026C127.021 58.1244 126.657 59.9423 126.397 61.7329C125.385 69.102 124.373 76.497 123.36 83.8661C123.288 84.3073 123.268 84.722 123.38 85.3161C125.128 82.5211 128.169 81.5213 131.147 79.7454C130.125 78.8529 129.34 78.2162 128.58 77.5532C127.873 76.9413 127.166 76.3293 126.535 75.6387C125.352 74.334 125.228 72.8336 126.198 71.7844C127.141 70.7355 128.668 70.7147 130.055 71.7835C130.813 72.3688 131.547 73.0321 132.437 73.7711C134.297 69.7054 136.082 65.7962 137.84 61.8615C138.041 61.4185 138.189 60.9244 138.469 60.5321C139.433 59.0945 141.478 59.1183 142.173 60.6887C142.573 61.5897 142.719 62.8049 142.499 63.7662C141.643 67.4037 140.162 70.7908 137.743 73.6986C136.978 74.5896 135.978 75.2766 135.006 76.1446C135.217 76.3748 135.454 76.6823 135.742 76.9374C138.833 79.6404 141.924 82.3176 144.99 85.0469C146.012 85.9653 147.137 86.8564 147.904 87.9855C148.458 88.7808 148.785 89.9935 148.669 90.9534C148.411 92.8993 146.113 93.371 144.463 91.9173C140.69 88.5761 136.942 85.2086 133.195 81.867C132.592 81.3055 131.989 80.7181 131.071 79.9018Z" fill="#333333"/>
<path d="M286.539 66.6937C286.794 68.3219 287.103 70.1047 287.335 71.9144C287.451 72.7934 287.567 73.7242 287.423 74.5808C286.636 79.5123 286.187 84.5169 284.31 89.2044C283.984 90.0376 283.608 90.8715 283.1 91.5777C280.915 94.6118 276.986 95.0539 274.413 92.3697C273.179 91.0916 272.018 89.5017 271.452 87.826C269.053 80.8402 266.782 73.775 264.64 66.7079C263.773 63.845 263.37 60.8721 262.735 57.9542C262.653 57.6187 262.544 57.2835 262.383 56.8195C261.893 56.9557 261.48 57.0649 261.068 57.2C258.724 58.0349 256.38 58.9216 254.01 59.705C253.134 60.0019 252.204 60.1959 251.273 60.2345C250.161 60.2756 249.298 59.6917 248.921 58.6091C248.517 57.4491 248.944 56.4592 249.866 55.7732C250.404 55.3774 251.048 55.1355 251.666 54.894C254.551 53.8445 257.435 52.7692 260.347 51.7711C261.248 51.4739 261.527 51.0039 261.359 50.0739C261.135 48.8856 260.99 47.6962 260.896 46.4803C260.829 45.3934 261.048 44.3545 262.234 44.0016C263.497 43.6477 264.131 44.5455 264.558 45.5238C265.012 46.5535 265.415 47.584 265.688 48.668C265.961 49.6743 266.378 49.8758 267.41 49.6287C271.564 48.6396 275.744 47.676 279.952 46.8416C281.114 46.6185 282.357 46.6533 283.524 46.8187C284.587 46.9596 285.581 47.723 285.518 48.8375C285.477 49.615 284.791 50.5567 284.099 51.0065C283.252 51.5619 282.116 51.7846 281.084 52.0059C277.007 52.9421 272.903 53.8528 268.826 54.7373C267.741 54.9593 267.541 55.4541 267.763 56.5388C269.572 65.8118 272.206 74.8145 275.485 83.6789C275.995 85.0446 276.661 86.3564 277.351 87.6678C277.538 88.0278 278.06 88.3833 278.449 88.4297C278.682 88.4525 279.114 87.8509 279.213 87.4869C279.926 84.7319 280.613 81.9773 281.248 79.1974C281.566 77.8463 281.598 76.4215 282.047 75.1463C282.696 73.3763 283.552 71.6553 284.41 69.9861C285.092 68.7595 285.879 67.6869 286.539 66.6937Z" fill="#333333"/>
<path d="M463.698 63.005C465.351 62.7235 467.004 62.4678 468.631 62.1607C471.368 61.6572 474.11 61.5679 476.862 62.1519C479.822 62.7848 481.582 64.6773 482.526 67.4615C484.603 73.6229 483.415 79.5182 481.192 85.3758C481.041 85.7405 480.865 86.1313 480.585 86.4201C479.692 87.3646 478.926 88.1779 479.336 89.7781C479.637 90.9394 478.431 91.7587 477.323 92.1106C476.086 92.49 474.823 92.8699 473.555 92.939C468.175 93.2456 462.795 93.5262 457.412 93.5997C454.617 93.6379 454.196 93.0998 453.356 90.3919C453.275 90.134 453.013 89.9045 452.752 89.7786C450.849 88.7945 450.162 87.7161 450.495 85.5879C450.852 83.3039 451.391 81.0434 451.955 78.7824C452.665 75.7944 453.53 72.8301 454.214 69.8424C454.531 68.3618 454.613 66.8327 454.696 65.3294C454.823 63.2558 455.708 61.6639 457.426 60.5267C458.991 59.4953 460.529 58.4124 462.095 57.4069C462.659 57.0625 463.301 56.6135 463.896 56.6312C464.699 56.6721 465.66 56.9179 466.262 57.4277C467.048 58.0903 466.985 59.1789 466.401 60.0157C465.919 60.6956 465.227 61.223 464.614 61.8012C464.282 62.1165 463.897 62.3808 463.539 62.6705C463.592 62.7993 463.645 62.9022 463.698 63.005ZM475.523 87.2921C475.938 85.4476 476.229 84.0451 476.598 82.6415C476.869 81.6018 477.218 80.587 477.488 79.5474C478.35 76.2982 478.668 73.0565 477.639 69.7814C477.071 67.9504 476.623 67.3867 474.68 67.232C473.28 67.1216 471.831 67.1155 470.41 67.3162C467.154 67.775 463.901 68.3633 460.648 68.9775C460.235 69.0609 459.751 69.6373 459.628 70.0792C458.642 73.7444 457.709 77.4089 456.827 81.0986C456.362 83.0474 456.053 85.0458 455.665 86.9935C455.471 87.9285 455.838 88.2861 456.796 88.273C460.626 88.2207 464.458 88.2978 468.287 88.142C470.848 88.0293 473.352 87.5548 475.523 87.2921Z" fill="#333333"/>
<path d="M97.8647 85.9235C99.5115 85.2017 100.931 84.9234 102.467 85.5499C103.379 85.9518 103.523 85.1211 103.644 84.5496C104.669 79.9515 105.718 75.3272 106.665 70.7043C107.028 68.8605 107.184 66.9937 107.417 65.1258C107.488 64.6586 107.481 64.1666 107.5 63.6225C105.821 63.8785 104.245 64.0813 102.696 64.4133C102.412 64.469 102.161 65.068 102.037 65.4582C100.915 68.5296 99.8952 71.5996 98.7202 74.6458C97.8455 76.9369 96.9496 77.6743 94.581 78.6131C93.5948 76.5287 93.6183 74.4565 94.3135 72.2974C95.7786 67.7451 97.2177 63.1932 98.553 58.6167C99.22 56.2767 99.6267 53.8367 100.137 51.4211C100.234 50.9536 100.228 50.4616 100.295 49.7096C99.6257 49.9778 99.1627 50.1913 98.6994 50.3789C97.5925 50.8343 96.5073 50.9786 95.6643 49.9024C95.0056 49.0567 94.983 47.3995 95.7995 46.5337C96.437 45.8257 97.2304 45.1674 98.0784 44.7155C100.16 43.5993 102.295 42.6119 104.403 41.5731C103.893 40.2592 103.228 38.9474 102.898 37.5275C102.652 36.5208 102.714 35.4063 102.907 34.3936C103.005 33.952 103.722 33.3983 104.213 33.3398C104.626 33.2824 105.306 33.7911 105.519 34.2026C106.318 35.8492 106.911 37.5763 107.684 39.2233C107.845 39.6096 108.343 40.0689 108.706 40.0899C109.975 40.1761 110.913 40.6036 111.138 41.9214C111.363 43.2132 110.597 43.9748 109.517 44.5334C107.59 45.5439 105.689 46.6058 103.788 47.6677C103.556 47.8004 103.378 47.9841 103.122 48.1948C104.618 49.7283 104.644 51.5926 104.462 53.4857C104.255 55.3792 103.971 57.2737 103.688 59.3236C104.153 59.2395 104.489 59.2349 104.798 59.1271C106.061 58.6955 107.297 58.2124 108.559 57.7549C111.727 56.6239 113.716 58.1765 113.321 61.5229C113.159 62.8977 112.945 64.2733 112.756 65.6226C111.892 72.4976 111.106 79.3715 108.84 85.9549C108.567 86.7615 108.293 87.5681 107.967 88.3495C107.214 90.0432 106.014 91.2769 104.048 91.3555C101.875 91.437 99.9236 90.7385 98.7077 88.8904C98.127 88.0695 98.1111 86.9043 97.8647 85.9235Z" fill="#333333"/>
<path d="M532.634 49.9948C534.443 49.7888 536.094 49.3519 537.7 49.4595C539.539 49.5897 541.409 50.0045 543.127 50.6803C545.104 51.4561 546.061 53.2819 546.581 55.3208C547.346 58.3146 547.207 61.3467 546.808 64.3564C545.988 70.6869 544.572 76.922 542.584 82.9836C541.565 86.0794 539.789 88.7454 537.622 91.1577C536.195 92.757 534.397 93.8434 532.227 94.132C530.47 94.3632 528.936 93.8921 527.88 92.3785C526.85 90.8904 526.518 89.2892 527.427 87.5934C527.578 87.3323 527.678 87.0202 527.828 86.6555C528.949 87.2618 530.045 87.8943 531.14 88.475C532.105 89.0057 532.9 88.4251 533.357 87.7714C534.729 85.9138 536.361 84.1045 537.135 81.9961C539.731 74.9939 541.314 67.6947 541.729 60.2043C541.769 59.3231 541.653 58.4183 541.512 57.5396C541.199 55.4979 540.751 54.9342 538.705 54.8068C536.995 54.7007 535.236 54.8024 533.532 55.0847C532.214 55.3098 531.003 55.6631 529.797 54.54C528.933 55.7172 528.172 56.8672 527.306 57.915C526.721 58.6481 526.109 59.3557 525.366 59.9098C524.52 60.5429 523.511 60.5567 522.622 59.9213C521.656 59.2612 521.357 58.2811 521.679 57.2148C521.877 56.5129 522.308 55.8336 522.713 55.2065C525.627 50.5567 528.54 45.9069 531.453 41.2831C531.681 40.9174 531.909 40.4999 532.189 40.1853C532.903 39.3726 533.752 38.9726 534.82 39.476C535.81 39.9545 536.185 40.8817 535.887 41.8441C535.167 44.0294 534.29 46.1651 533.439 48.3263C533.24 48.8988 532.936 49.395 532.634 49.9948Z" fill="#333333"/>
<path d="M518.655 65.1551C518.934 70.3829 517.474 75.3236 515.884 80.1884C515.188 82.3216 512.436 83.6023 510.282 83.2174C508.959 83.0023 507.539 83.2548 506.194 83.3509C504.953 83.4196 503.714 83.6697 502.47 83.6089C500.813 83.5539 500.205 82.6039 499.769 81.0042C498.567 76.4365 500.166 72.1672 501.013 67.8564C501.909 63.3119 503.272 58.8905 504.453 54.3939C504.723 53.3283 505.255 52.4664 506.444 52.3207C507.581 52.1756 508.237 52.8401 508.742 53.7914C508.901 54.0741 509.473 54.2735 509.861 54.2682C510.379 54.287 510.894 54.0728 511.437 54.0136C514.125 53.7697 516.187 54.9847 517.359 57.4291C518.506 59.8997 518.671 62.5132 518.655 65.1551ZM506.899 68.6048C508.995 68.5762 510.73 68.5784 512.437 68.5033C512.696 68.4998 513.156 68.105 513.153 67.8978C513.042 65.3872 512.929 62.8506 512.688 60.3417C512.599 59.4883 511.765 59.1112 511.073 59.5868C510.175 60.1689 509.124 60.9084 508.774 61.8196C507.949 63.9546 507.54 66.2393 506.899 68.6048ZM511.891 74.0272C509.95 74.0537 508.009 74.0802 506.068 74.1326C505.913 74.1347 505.632 74.3717 505.582 74.5277C505.338 75.6188 505.12 76.7355 504.903 77.8521C505.292 77.9504 505.423 78.0263 505.526 78.0249C506.638 77.932 507.75 77.8391 508.861 77.6944C511.264 77.3508 511.824 76.6698 511.891 74.0272Z" fill="#333333"/>
<path d="M240.65 61.3119C240.37 61.7042 240.117 62.0703 239.837 62.4626C237.448 65.6808 235.085 68.9504 232.591 72.0923C231.548 73.4015 230.191 74.456 228.911 75.5612C228.502 75.9294 227.91 76.1706 227.369 76.3593C226.004 76.8441 224.627 76.5003 224.123 75.5748C223.485 74.3663 224.172 73.4764 224.91 72.5857C227.101 70.0177 229.318 67.4493 231.457 64.8302C236.141 59.0944 239.808 52.725 242.926 46.0264C243.454 44.9056 243.826 43.7091 244.224 42.5124C244.597 41.4195 245.155 40.5572 246.476 40.6169C247.538 40.6542 248.405 41.6006 248.346 42.9999C248.288 44.4511 248.076 45.9561 247.603 47.3093C246.779 49.5737 245.67 51.7126 244.743 53.9526C244.592 54.3172 244.524 55.0174 244.76 55.2214C245.731 56.1664 245.85 57.3561 245.815 58.5738C245.581 64.1453 245.32 69.7171 245.008 75.2637C244.864 78.0109 244.643 80.7851 244.318 83.5348C244.18 84.754 243.808 85.9763 243.332 87.1223C242.756 88.5287 241.522 89.1672 240.379 88.8461C239.262 88.5506 238.548 87.4467 238.683 85.9945C238.886 83.7644 239.218 81.5585 239.421 79.3543C239.94 73.7531 240.458 68.1518 240.951 62.551C240.973 62.214 240.942 61.8518 240.937 61.5152C240.832 61.413 240.728 61.3627 240.65 61.3119Z" fill="#333333"/>
<path d="M61.6839 52.2572C62.3043 52.1969 62.9226 51.9813 63.4423 52.1296C64.0141 52.303 64.8221 52.7064 64.932 53.1711C65.0688 53.7131 64.6954 54.8059 64.309 54.9407C62.1702 55.6433 62.6306 57.1391 62.8851 58.7155C63.2268 60.9899 63.6203 63.2636 63.7035 65.5675C63.7485 66.9654 64.2731 67.4762 65.5172 67.5887C65.9061 67.6352 66.2953 67.7076 67.048 67.8527C64.9357 68.6067 63.8388 69.7872 63.2949 71.6593C62.874 73.0636 61.8406 73.2072 60.6374 72.2913C60.4544 72.1643 60.2183 71.9344 60.0893 71.9621C58.6456 72.3962 57.2024 72.8562 55.7857 73.3676C55.657 73.4211 55.5836 73.7329 55.5347 73.9408C54.3082 78.9042 51.3074 82.83 48.0715 86.6037C46.9498 87.8621 45.3502 88.2466 43.6442 88.4252C43.6418 86.3534 44.3165 84.583 45.433 82.9362C46.9816 80.7136 48.5299 78.4652 50.0781 76.2167C50.3575 75.8244 50.5585 75.3814 50.9634 74.7025C50.2395 74.7642 49.7744 74.8223 49.334 74.8024C48.1428 74.7669 46.9265 74.7835 45.7587 74.5664C44.7207 74.3734 44.0113 73.6061 44.0989 72.4395C44.1613 71.3249 44.9579 70.8997 45.9644 70.6787C47.6679 70.3188 49.3441 69.8556 51.0214 69.4701C51.873 69.2772 52.2027 68.7806 52.0616 67.9279C52.0038 67.4884 51.9716 67.0227 52.0173 66.5818C52.1071 65.5705 51.7384 65.1093 50.6776 65.1497C49.746 65.1624 48.8111 64.9421 48.692 63.8042C48.5733 62.6922 49.4486 62.3435 50.2977 61.9694C50.8121 61.7292 51.5329 61.4345 51.6825 61.0181C52.1048 59.7174 51.606 59.2062 50.2088 59.2512C49.8465 59.2561 49.4079 59.3657 49.1467 59.188C48.5982 58.8329 47.842 58.4289 47.7052 57.8868C47.5695 57.4225 48.0495 56.5613 48.4856 56.2705C49.2553 55.7679 50.1838 55.5221 51.0864 55.2767C52.0922 55.004 52.6814 54.5556 52.4847 53.4188C52.4276 53.0311 52.3691 52.5398 52.5461 52.2266C52.8751 51.6782 53.3558 50.8688 53.8213 50.8365C54.3386 50.8036 55.0455 51.3896 55.3893 51.9288C55.707 52.4424 55.6655 53.194 55.8037 53.8396C58.0294 53.8092 58.5421 53.4396 59.3199 51.642C59.4703 51.2773 59.9035 50.7794 60.1885 50.8014C60.5512 50.8223 60.9454 51.2572 61.2602 51.5637C61.4953 51.7159 61.5509 52 61.6839 52.2572ZM59.4337 63.7611C55.8434 64.3281 55.2581 65.0613 55.9954 67.8742C59.4112 67.8016 60.2266 66.8581 59.4337 63.7611ZM59.0872 57.3429C58.0296 57.6163 57.0504 57.9405 56.0691 58.1093C54.9073 58.3324 55.1764 59.0797 55.2902 59.8293C55.4596 60.8629 56.1275 60.4912 56.6948 60.3281C57.0301 60.2458 57.3648 60.1117 57.6998 60.0035C59.5306 59.4865 59.5561 59.4602 59.0872 57.3429Z" fill="#333333"/>
<path d="M336.08 51.2806C335.124 51.4232 334.478 51.5356 333.832 51.5703C332.435 51.6671 331.365 51.0342 331.066 49.9506C330.738 48.686 331.294 47.7201 332.348 47.136C333.607 46.4713 334.892 45.8322 336.259 45.425C337.831 44.9374 338.465 43.9446 338.494 42.2866C337.64 42.2983 336.838 42.3611 336.009 42.3206C334.895 42.2581 333.779 42.0143 333.631 40.6437C333.51 39.3763 334.487 38.8968 335.518 38.572C336.188 38.3556 336.884 38.113 337.581 37.974C338.897 37.697 339.927 37.2945 340.424 35.7597C340.796 34.5891 341.832 34.6268 342.75 35.5207C343.065 35.8272 343.688 35.9741 344.154 35.9936C344.802 36.0107 345.548 35.6638 346.119 35.8373C346.795 36.0611 347.735 36.5922 347.871 37.1342C348.01 37.7798 347.583 38.7956 347.046 39.2692C346.33 39.8746 345.324 40.1215 344.397 40.4708C343.032 40.9815 342.93 41.1383 343.058 42.9236C343.601 42.8385 344.143 42.7275 344.685 42.6424C345.95 42.4179 347.214 42.0898 348.508 42.0463C350.112 41.9726 351.264 42.941 351.437 44.2336C351.61 45.5262 350.746 46.6775 349.173 47.1134C347.238 47.6319 345.277 48.073 343.342 48.5656C342.878 48.6756 342.31 48.761 341.977 49.0764C341.594 49.4442 341.343 50.0174 341.273 50.5622C341.25 50.7438 341.825 51.1504 342.188 51.249C345.647 52.3931 349.13 53.511 352.614 54.6288C352.796 54.6781 352.953 54.7537 353.109 54.8034C354.852 55.4788 355.698 56.7622 355.328 58.1399C354.959 59.5176 353.545 60.2621 351.728 59.8466C348.066 58.9901 344.48 57.9514 341.369 55.6889C341.029 55.4345 340.638 55.2327 340.115 54.8772C339.644 56.3599 339.274 57.7117 338.8 59.039C338.401 60.1581 337.951 61.3038 337.37 62.3477C336.865 63.2611 336.018 63.8424 334.901 63.4951C333.731 63.1226 333.535 62.0893 333.755 61.0762C334.338 58.323 335.026 55.6201 335.661 52.8662C335.785 52.4242 335.908 51.9563 336.08 51.2806Z" fill="#333333"/>
<path d="M405.372 37.9028C406.173 37.8141 406.819 37.7276 407.465 37.667C408.448 37.5759 409.429 37.433 410.388 37.4717C411.734 37.531 412.678 38.3987 412.849 39.5359C413.02 40.6731 412.361 41.718 411.126 42.2529C410.56 42.4937 409.94 42.6317 409.321 42.7696C408.133 42.993 406.946 43.2423 405.757 43.3363C404.438 43.432 403.617 43.9612 403.324 45.3119C403.154 46.1171 402.699 46.8744 402.373 47.6558C401.496 49.7915 400.042 51.3394 397.799 51.9916C396.474 49.7306 396.986 47.4186 398.012 44.8665C395.765 45.2339 393.801 45.4938 391.865 45.8828C391.581 45.9385 391.306 46.6156 391.26 47.0306C391.145 48.1458 391.212 49.2586 391.124 50.3734C390.99 51.9292 390.2 52.8723 389.089 52.9911C387.978 53.1099 386.957 52.3209 386.549 50.8503C386.277 49.8698 386.107 48.8362 386.068 47.8267C386.028 46.8172 385.637 46.6153 384.734 46.809C382.566 47.3306 380.398 47.8005 378.205 48.2708C377.714 48.3811 377.2 48.5953 376.758 48.4718C376.056 48.2483 375.094 47.9507 374.828 47.4104C374.535 46.8446 374.675 45.6773 375.083 45.2573C375.874 44.4178 376.952 43.7297 378.059 43.3261C380.223 42.5455 382.467 41.945 384.738 41.4219C385.718 41.2014 386.101 40.8076 386.088 39.8237C386.074 38.8138 386.137 37.777 386.305 36.7646C386.497 35.6743 387.055 34.812 388.297 34.7691C389.565 34.7518 390.068 35.6255 390.29 36.7102C390.457 37.5367 390.649 38.3628 390.739 39.2163C390.83 40.1992 391.197 40.5568 392.204 40.3617C394.476 39.9422 396.776 39.6259 399.047 39.1287C399.511 39.0188 400.021 38.4161 400.221 37.9213C400.722 36.6972 401.014 35.3724 401.489 34.1228C401.888 33.0296 402.654 32.268 403.927 32.5356C405.173 32.8034 405.575 33.8339 405.565 34.9736C405.552 35.9061 405.46 36.8138 405.372 37.9028Z" fill="#333333"/>
<path d="M324.988 86.4214C324.045 81.7725 324.941 77.2798 326.383 72.8832C326.731 71.8425 327.292 71.2133 328.482 71.2229C328.922 71.2169 329.384 70.8998 329.822 70.7384C330.981 70.3082 332.112 69.723 333.326 69.5251C335.935 69.1269 338.02 70.2121 339.114 72.6057C341.995 78.8598 342.185 85.1765 339.216 91.4587C338.839 92.2667 337.841 93.0832 336.964 93.3542C334.076 94.1706 331.104 94.5219 328.121 94.0706C325.89 93.7126 325.074 92.7137 325.069 90.4347C325.025 89.0885 325.007 87.7679 324.988 86.4214ZM335.755 82.5191C334.259 82.928 332.971 83.3858 331.629 83.6373C330.26 83.889 329.855 84.542 330.004 85.9386C330.357 89.0416 329.477 89.1054 333.302 88.6129C333.87 88.5274 334.721 88.3345 334.897 87.9436C335.652 86.3535 336.095 84.6381 335.755 82.5191ZM330.246 79.0462C332.103 78.5546 333.676 78.1446 335.353 77.6815C335.136 77.011 334.973 76.4435 334.785 75.9022C334.406 74.7419 333.654 74.6486 332.705 75.2313C331.37 76.0783 330.583 77.2286 330.246 79.0462Z" fill="#333333"/>
<path d="M314.941 61.5405C314.369 63.2835 313.772 65.001 313.226 66.7436C312.63 68.5647 311.991 69.2209 310.927 69.0282C309.838 68.8359 309.099 67.7842 309.205 66.0734C309.312 64.4921 309.705 62.9069 310.02 61.3487C310.117 60.8294 310.317 60.3346 310.54 59.5805C309.739 59.7468 309.146 59.8585 308.578 59.9698C307.493 60.1918 306.457 60.1283 305.899 59.0223C305.287 57.8393 305.895 56.8986 306.792 56.2389C308.074 55.289 309.353 54.2097 310.821 53.6458C312.932 52.84 313.48 51.2268 313.815 49.2021C313.426 49.1815 313.064 49.2123 312.778 49.0868C312.257 48.8349 311.477 48.5866 311.342 48.174C311.205 47.6579 311.453 46.8517 311.861 46.4317C312.397 45.8805 313.168 45.4815 313.89 45.2126C314.817 44.8633 315.223 44.2621 315.313 43.3285C315.381 42.5765 315.5 41.8238 315.619 41.0711C315.812 40.0325 316.24 39.1202 317.456 39.1295C318.673 39.1388 319.074 40.0657 319.269 41.099C319.382 41.7449 319.468 42.3912 319.582 43.1666C320.743 42.8658 321.775 42.5928 322.807 42.3715C323.762 42.1512 324.745 42.1378 325.2 43.2194C325.655 44.3009 324.992 45.061 324.119 45.5391C322.937 46.1768 321.727 46.7113 320.465 47.1688C318.791 47.8133 318.613 47.997 318.745 50.093C319.312 49.9299 319.827 49.7157 320.369 49.6047C321.195 49.4121 322.02 49.1677 322.848 49.1823C323.961 49.1671 324.823 49.751 325.175 50.8599C325.5 51.9173 325.151 52.8803 324.279 53.462C323.406 54.0437 322.403 54.4718 321.425 54.8995C320.087 55.4875 318.722 55.9983 317.1 56.642C317.676 57.1003 318.042 57.4061 318.409 57.686C320.552 59.2106 322.721 60.6831 324.839 62.2599C325.545 62.7683 326.175 63.433 326.651 64.1776C327.232 65.0502 327.326 66.1885 326.507 66.8989C325.918 67.3991 324.887 67.698 324.109 67.5792C323.201 67.4621 322.262 66.931 321.478 66.372C319.335 64.8473 317.268 63.2698 314.941 61.5405Z" fill="#333333"/>
<path d="M174.648 35.382C173.719 35.5501 172.996 35.6895 172.273 35.8289C171.473 35.9693 170.698 36.1353 169.896 36.1462C168.395 36.1667 167.269 35.2497 167.097 33.983C166.925 32.7682 167.633 31.5671 169.051 31.1593C170.624 30.6975 172.25 30.3386 173.877 30.0833C174.936 29.9135 175.63 29.5155 175.718 28.3748C175.741 28.1931 175.791 28.0371 175.866 27.8548C176.214 26.814 176.561 25.6698 177.908 25.7291C179.306 25.7877 179.529 26.9501 179.622 28.0624C179.711 28.89 180.076 29.0922 180.851 28.978C184.08 28.5195 187.284 28.0873 190.514 27.6806C191.315 27.5919 191.699 27.2241 191.792 26.4459C191.86 25.7975 192.032 25.1218 192.205 24.4719C192.501 23.406 193.111 22.569 194.328 22.6041C195.597 22.6386 196.204 23.5109 196.504 24.6204C197.05 26.7367 197.05 26.7367 199.27 26.292C200.458 26.0426 201.619 25.7937 202.834 25.6476C204.72 25.4147 206.078 26.3026 206.305 27.7757C206.506 29.2233 205.539 30.4278 203.758 30.8148C201.72 31.257 199.654 31.6737 197.588 32.0127C196.684 32.1545 196.275 32.5486 196.185 33.4822C196.094 34.4417 195.849 35.4033 195.681 36.3897C195.295 38.4669 193.889 39.781 192.275 40.9685C190.697 39.1513 190.435 37.0053 190.74 34.722C190.951 33.0875 190.898 33.0105 189.244 33.2144C186.582 33.5356 183.948 33.986 181.286 34.2813C180.123 34.4008 179.689 34.8729 179.575 36.014C179.418 37.7773 179.235 39.5409 178.013 41.0338C177.402 41.7932 176.704 41.8546 176.23 41.2654C175.572 40.4456 175.04 39.4428 174.768 38.4365C174.497 37.5596 174.665 36.5732 174.648 35.382Z" fill="#333333"/>
<path d="M400.748 91.7319C401.5 91.7735 402.096 91.8171 402.718 91.8863C404.248 92.0726 405.296 93.0424 405.365 94.2588C405.433 95.4492 404.516 96.5753 402.967 96.8814C400.876 97.2984 398.731 97.509 396.639 97.8484C394.056 98.2721 391.474 98.7477 388.866 99.1977C388.246 99.3097 387.625 99.37 387.004 99.3526C385.787 99.3174 384.848 98.7864 384.469 97.5484C384.116 96.3878 384.517 95.3982 385.518 94.7629C386.288 94.2862 386.409 93.663 386.398 92.8603C386.333 90.0123 386.268 87.1643 386.281 84.3153C386.292 83.2274 386.406 82.0862 386.754 81.0455C387.177 79.7707 388.287 79.5484 389.46 80.1539C389.825 80.3302 390.446 80.3476 390.832 80.187C393.636 78.8796 396.431 78.8415 398.966 80.5939C401.448 82.2952 401.872 84.957 401.471 87.7595C401.332 89.0046 401.039 90.2776 400.748 91.7319ZM391.461 90.253C391.539 90.252 391.617 90.2768 391.695 90.2757C391.701 90.7677 391.656 91.2604 391.74 91.7255C391.824 92.1646 392.042 92.9645 392.171 92.9627C392.792 92.9283 393.672 92.8904 393.977 92.4719C395.375 90.5881 396.33 88.5031 396.271 86.0953C396.221 84.309 394.813 83.5513 393.351 84.5813C392.762 85.0037 392.202 85.7624 392.005 86.4644C391.659 87.6863 391.625 88.9818 391.461 90.253Z" fill="#333333"/>
<path d="M386.688 70.6093C384.126 70.6442 382.107 70.6977 380.114 70.6731C379.415 70.6568 378.637 70.5638 378.037 70.2353C377.489 69.932 376.756 69.2946 376.749 68.7767C376.715 68.1815 377.22 67.2681 377.76 66.9759C378.762 66.4442 379.922 66.0917 381.033 65.9211C383.952 65.5186 386.873 65.2198 389.795 64.9727C391.062 64.8777 391.599 64.43 391.607 63.1091C391.614 61.7364 391.828 60.3608 392.017 58.9856C392.087 58.4149 392.207 57.7657 392.564 57.3724C392.972 56.9006 393.715 56.3207 394.233 56.3913C394.726 56.4623 395.41 57.2299 395.521 57.7982C395.827 59.3738 395.927 60.9782 396 62.5829C396.067 63.6957 396.46 64.027 397.596 63.8302C401.108 63.2124 404.622 62.6983 408.161 62.1837C408.936 62.0696 409.764 62.0324 410.542 62.1512C411.761 62.3418 412.754 63.0016 412.876 64.3467C413.024 65.7173 412.181 66.5834 410.996 66.9363C409.629 67.3435 408.208 67.5442 406.814 67.7704C403.921 68.2502 401.003 68.7303 398.083 69.1069C396.894 69.2526 396.409 69.7254 396.426 70.9683C396.444 72.3407 396.282 73.7156 396.068 75.0911C395.973 75.7658 395.751 76.5717 395.292 77.0441C394.756 77.5953 393.884 78.177 393.21 78.1085C392.536 78.0401 391.697 77.3004 391.404 76.6311C391.03 75.8333 391.094 74.8224 391.081 73.8902C391.044 73.036 391.136 72.206 391.202 71.3505C391.269 70.5467 390.954 70.2143 390.126 70.3033C388.782 70.4512 387.438 70.5472 386.688 70.6093Z" fill="#333333"/>
<path d="M571.858 65.9307C570.779 66.567 570.087 67.0685 569.341 67.4154C568.056 68.0287 566.629 67.7892 566.047 66.8906C565.307 65.7612 565.733 64.7194 566.471 63.8288C567.337 62.8069 568.282 61.8616 569.279 60.9675C572.552 57.9962 575.118 54.4648 577.527 50.8061C577.882 50.2573 577.975 49.4791 578.409 49.007C578.944 48.4299 579.711 47.6684 580.332 47.7117C581.032 47.7798 582.104 48.568 582.216 49.1881C582.439 50.3505 582.328 51.6987 581.903 52.7923C580.629 56.1766 578.468 59.029 576.019 61.6524C575.253 62.4657 575.263 63.1648 575.433 64.2503C576.087 68.5146 576.715 72.8053 576.98 77.1009C577.181 80.3873 576.915 83.6801 576.727 86.9718C576.624 88.8897 575.681 89.9903 574.464 89.981C573.222 89.9721 572.196 88.7689 572.17 86.8527C572.042 81.2862 572.017 75.6924 571.941 70.1252C571.898 68.8567 571.88 67.5361 571.858 65.9307Z" fill="#333333"/>
<path d="M434.735 84.1458C435.654 75.6125 436.573 67.1569 437.493 58.6754C437.859 55.1741 438.226 51.6727 438.618 48.171C438.687 47.5485 438.756 46.926 438.877 46.3287C439.122 45.2635 439.627 44.3501 440.843 44.2817C442.058 44.2133 442.794 44.9802 443.067 46.0384C443.341 47.1483 443.59 48.3362 443.528 49.4507C443.411 52.3012 443.217 55.1527 442.919 57.9797C442.142 65.4751 441.286 72.9716 440.509 80.467C440.349 82.0231 440.318 83.5774 440.184 85.1332C440.118 85.9629 440.052 86.8443 439.856 87.6499C439.561 88.7934 438.768 89.5035 437.552 89.546C436.336 89.5885 435.421 88.9277 435.147 87.7919C434.82 86.6309 434.855 85.3614 434.735 84.1458Z" fill="#333333"/>
<path d="M594.891 50.4393C597.101 49.2437 599.128 47.9988 601.238 47.0376C604.505 45.5426 608.047 45.2612 611.596 45.4199C614.056 45.5158 615.683 47.1511 616.028 49.6586C616.402 52.4246 615.713 54.998 614.243 57.3231C613.103 59.1257 611.711 59.5591 609.427 59.0723C608.731 57.3984 609.202 55.8639 609.879 54.3007C610.305 53.2849 610.367 52.0927 610.611 51.0016C609.575 50.9898 608.512 50.849 607.478 50.9667C603.653 51.3815 600.151 52.7502 596.786 54.6091C596.041 55.0336 595.004 54.9701 593.739 55.2204C593.099 57.6119 591.683 60.0657 588.801 61.2964C588.306 59.2054 588.512 57.1825 589.105 55.1284C589.944 52.1644 590.576 49.1515 591.312 46.1631C591.533 45.3054 591.676 44.3711 592.106 43.6401C592.409 43.118 593.23 42.5629 593.723 42.6338C594.242 42.7044 594.977 43.4714 595.036 43.9885C595.188 45.6699 595.082 47.3548 595.053 49.0645C595.033 49.4791 594.936 49.9725 594.891 50.4393Z" fill="#333333"/>
<path d="M591.032 88.1491C591.19 90.193 592.625 91.0539 593.88 91.995C594.194 92.2238 595.022 92.1866 595.355 91.9231C596.251 91.2375 597.381 90.5228 597.73 89.5598C598.504 87.5032 599.251 85.2916 599.299 83.1413C599.425 77.2346 599.577 71.2758 598.358 65.4135C598.053 63.9155 598.582 62.8982 599.638 62.5212C600.669 62.1704 601.969 62.593 602.453 63.9331C603.314 66.304 604.202 68.7523 604.417 71.2356C604.786 75.5298 604.69 79.8821 604.645 84.1819C604.607 87.0831 603.713 89.8147 602.376 92.3711C600.685 95.5538 597.992 97.3517 594.371 97.6084C592.276 97.7406 590.608 96.9087 589.548 95.0844C588.567 93.3884 588.855 91.7529 589.973 90.2096C590.354 89.6605 590.579 89.0359 591.032 88.1491Z" fill="#333333"/>
<path d="M125.794 36.4639C127.833 36.0217 129.511 35.6879 131.214 35.3021C135.111 34.446 135.111 34.446 139.243 35.6068C138.131 37.6162 136.416 38.9864 134.249 39.534C131.05 40.3546 127.824 40.9944 124.596 41.5564C123.563 41.7518 122.894 42.02 122.362 42.9337C121.578 44.2652 120.69 45.5723 119.697 46.7513C118.601 48.0353 116.668 48.6056 115.884 48.0983C115.048 47.5659 115.021 45.572 115.905 43.9801C117.598 40.9268 119.421 37.9754 121.01 34.8717C121.993 32.9418 122.715 30.86 123.464 28.8038C123.838 27.7627 124.239 26.8249 125.508 26.8852C126.804 26.9711 127.491 27.9977 127.402 29.0867C127.272 30.9272 126.805 32.7465 126.467 34.5641C126.345 35.0837 126.119 35.5789 125.794 36.4639Z" fill="#333333"/>
<path d="M67.7525 85.2471C69.0298 85.9031 70.1267 86.6132 71.2976 87.0634C73.1192 87.7637 75.0414 88.2554 76.888 88.9036C79.2289 89.7263 80.0478 90.9323 80.1314 93.2621C77.7937 94.5631 75.4822 93.999 73.1438 93.3575C68.0773 91.9764 63.6689 89.4985 60.1465 85.5582C59.2004 84.5093 58.3815 83.3032 57.7175 82.0691C57.3456 81.3749 57.1765 80.3672 57.3995 79.639C57.6226 78.9108 58.3611 78.0201 59.0574 77.8293C59.7278 77.6389 60.6669 78.1699 61.3972 78.5743C61.8144 78.8017 62.0555 79.3941 62.3462 79.8304C63.956 82.0875 63.9298 82.062 65.8978 80.2222C66.7412 79.4337 67.6109 78.6708 68.5334 77.9848C69.3531 77.352 70.3539 76.7168 71.3235 77.5841C72.3714 78.5021 71.9474 79.6734 71.3393 80.6399C70.5792 81.8417 69.6361 82.9164 68.7714 84.0419C68.5431 84.3817 68.2368 84.6966 67.7525 85.2471Z" fill="#333333"/>
<path d="M23.9541 85.1977C23.3686 82.1238 23.5357 79.1949 25.833 76.8326C26.5478 76.0977 27.315 75.4139 28.1878 74.884C31.4991 72.8445 34.5427 73.9425 35.8355 77.6284C36.7511 80.2317 36.7613 82.8732 35.7615 85.4767C35.4612 86.2319 35.2906 87.0112 35.0159 87.7401C34.8407 88.1828 34.6663 88.6773 34.3865 89.0437C32.9882 90.9016 28.5276 92.1798 26.3175 91.4589C24.8353 90.9611 24.0454 89.9878 24.0239 88.4082C23.9835 87.3469 23.9686 86.2594 23.9541 85.1977ZM27.7116 87.3996C28.8922 86.6583 30.3366 86.276 30.6362 85.4691C31.2361 83.9069 31.2372 82.094 31.3691 80.3829C31.4138 79.8643 31.0441 79.3255 30.8817 78.8097C30.3418 79.0761 29.7228 79.2399 29.2881 79.6343C27.09 81.6845 27.5146 84.3462 27.7116 87.3996Z" fill="#333333"/>
<path d="M190.315 96.4709C192.377 95.8211 193.03 94.4137 192.899 92.3695C192.514 86.9619 192.233 81.5269 191.849 76.1193C191.719 74.1787 192.015 73.1646 193.15 72.8642C194.362 72.5369 195.409 73.3513 196.081 75.181C197.534 79.2272 197.876 83.4441 198.115 87.6882C198.255 90.3021 198.213 92.9443 197.99 95.5632C197.877 96.7302 197.324 97.9809 196.638 98.9485C195.699 100.256 193.865 100.566 192.382 99.9908C190.82 99.3646 190.183 98.2079 190.315 96.4709Z" fill="#333333"/>
<path d="M43.5552 44.0099C43.5733 43.4399 43.5875 42.585 43.6538 41.7554C43.7425 40.6664 44.1449 39.8062 45.1993 39.2998C45.7906 39.0068 46.2232 38.457 46.7613 38.0612C49.8862 35.6358 53.135 36.6015 54.2736 40.3672C55.303 43.72 55.1664 46.9851 53.1884 49.9905C52.7828 50.6176 52.0422 51.3529 51.3963 51.4394C49.8977 51.6411 48.1924 51.8716 46.8141 51.3984C44.8894 50.7254 44.2407 48.7141 43.7753 46.8558C43.5565 46.0041 43.6225 45.1485 43.5552 44.0099ZM49.4424 42.9453C49.3389 42.9468 49.2091 42.9226 49.1056 42.924C49.123 44.1928 49.1403 45.4617 49.1576 46.7305C49.2611 46.729 49.3905 46.7273 49.4941 46.7259C49.4771 45.483 49.4598 44.2141 49.4424 42.9453Z" fill="#333333"/>
<path d="M581.658 89.8052C579.691 89.8579 578.62 89.1215 578.293 87.9605C577.967 86.7736 578.493 85.5492 579.728 84.9625C584.871 82.5096 588.595 78.4444 592.187 74.2257C593.206 73.0463 594.173 71.8158 595.219 70.662C595.907 69.9015 596.831 69.2674 597.797 69.8757C598.789 70.4838 598.623 71.6515 598.195 72.5379C597.188 74.6235 596.208 76.7347 594.914 78.643C592.149 82.7728 588.492 86.0342 584.256 88.6301C583.306 89.2129 582.198 89.5647 581.658 89.8052Z" fill="#333333"/>
<path d="M69.912 40.5161C70.0062 43.6227 68.7738 46.2553 66.838 48.5609C66.1761 49.3728 65.0976 50.0091 64.0925 50.3336C62.4688 50.8478 61.3142 49.6982 61.4727 48.0385C61.4947 47.7533 61.5156 47.3904 61.3575 47.1854C59.4574 44.5179 59.2603 41.4645 59.3735 38.381C59.4452 36.0491 61.1335 34.5757 63.4344 34.363C67.9333 33.9908 69.7431 35.7272 69.912 40.5161ZM64.0999 43.289C65.4021 41.9763 65.4333 40.4737 65.2313 38.9484C65.2026 38.7416 64.5769 38.4135 64.345 38.4944C64.0355 38.5763 63.5498 39.0232 63.5533 39.2822C63.6752 40.6272 63.9003 41.945 64.0999 43.289Z" fill="#333333"/>
<path d="M56.9933 91.5321C59.0555 90.9082 60.8345 90.3919 62.51 89.8769C62.1119 91.0478 61.6878 92.219 61.2904 93.4417C60.4455 96.0172 58.7111 97.9056 56.5573 99.4113C54.942 100.547 53.1737 99.9496 52.3726 98.1476C52.1049 97.5038 51.888 96.7816 51.8784 96.0824C51.8988 91.8865 51.9712 87.7158 52.0692 83.5189C52.0866 82.8971 52.0767 82.172 52.3809 81.7017C52.7868 81.1005 53.4505 80.4181 54.071 80.3578C54.6137 80.2986 55.4514 80.9864 55.718 81.5525C56.1172 82.3499 56.131 83.3598 56.2472 84.2906C56.5386 86.6693 56.7523 89.0491 56.9933 91.5321Z" fill="#333333"/>
<path d="M500.24 51.24C498.222 51.2935 497.038 49.8852 497.69 48.3224C498.091 47.3587 498.854 46.3641 499.7 45.7569C503.774 42.7228 507.927 39.8172 512.081 36.8857C512.722 36.4367 513.492 35.96 514.242 35.9239C514.992 35.8877 516.006 36.1847 516.427 36.6969C516.821 37.1577 516.784 38.22 516.56 38.8965C516.337 39.5729 515.75 40.2025 515.16 40.6249C510.728 43.9746 506.27 47.3246 501.785 50.5974C501.273 51.0187 500.575 51.1319 500.24 51.24Z" fill="#333333"/>
<path d="M623.915 88.7618C620.898 87.6635 617.937 86.9528 615.381 85.5115C611.494 83.3373 608.806 79.8259 606.733 75.8917C606.202 74.8889 605.251 73.5292 606.507 72.6315C607.738 71.7341 608.56 73.1991 609.372 73.9132C610.919 75.3165 612.414 76.7723 613.935 78.2278C616.269 80.4232 618.98 81.8106 622.121 82.4929C623.342 82.7611 624.541 83.3922 625.535 84.1297C626.398 84.7654 626.724 85.9523 626.09 86.8933C625.66 87.6502 624.761 88.1028 623.915 88.7618Z" fill="#333333"/>
<path d="M463.045 49.4948C461.268 52.0572 458.398 52.3036 455.46 49.443C454.148 48.166 453.609 46.6194 454.076 44.826C455.011 41.2651 456.781 38.159 458.994 35.2799C459.629 34.4425 460.502 33.9385 461.571 34.4677C462.692 35.0222 462.784 36.1087 462.41 37.1498C461.637 39.3358 460.683 41.4467 459.91 43.6327C459.188 45.7404 459.191 45.9216 461.065 46.7248C461.534 46.9256 461.979 47.308 462.296 47.744C462.638 48.1278 462.749 48.7219 463.045 49.4948Z" fill="#333333"/>
<path d="M53.656 29.0319C53.0952 27.7705 52.562 26.6382 52.132 25.4787C51.8906 24.8604 51.7779 24.1886 51.7428 23.5157C51.673 22.1958 52.3842 21.2019 53.4683 20.9799C54.7074 20.7299 55.6217 21.339 56.0506 22.4209C56.6675 23.9923 57.0783 25.6442 57.5664 27.2692C57.6476 27.527 57.677 27.7856 57.7607 28.2248C59.4649 27.9166 61.1169 27.5833 62.7439 27.302C63.3118 27.1907 63.9049 27.0272 64.4498 27.1234C64.8909 27.195 65.5953 27.5998 65.6254 27.9102C65.6573 28.35 65.279 29.0803 64.8926 29.2151C63.2702 29.8329 61.621 30.3734 59.9178 30.7593C56.4088 31.5842 52.8727 32.3317 49.3363 33.0534C48.4844 33.2204 47.5538 33.3108 46.6721 33.1934C46.2052 33.1221 45.7833 32.5581 45.3129 32.2278C45.6954 31.8082 45.9972 31.1566 46.4871 31.0204C48.5749 30.3703 50.717 29.9008 52.8058 29.3284C53.0639 29.2731 53.2954 29.1663 53.656 29.0319Z" fill="#333333"/>
<path d="M290.04 46.4449C285.259 45.0858 283.259 40.788 280.724 37.1191C280.064 36.1699 280.074 35.0302 281.046 34.214C282.045 33.3975 283.161 33.6154 283.949 34.4593C286.207 36.7852 288.465 39.1371 290.544 41.6468C291.859 43.1827 291.469 44.9233 290.04 46.4449Z" fill="#333333"/>
<path d="M465.059 43.3552C465.181 40.9449 465.798 38.7351 466.987 36.6988C467.569 35.7067 468.362 34.9966 469.609 35.368C470.857 35.7395 470.923 36.8263 470.834 37.8894C470.75 39.2632 470.509 40.6391 470.528 42.0115C470.543 43.099 470.74 44.2359 471.116 45.2408C471.545 46.3486 471.505 47.2297 470.688 48.0437C469.897 48.8574 468.787 49.0797 467.874 48.5483C467.039 48.0677 466.251 47.2755 465.8 46.4529C465.322 45.5271 465.28 44.3881 465.059 43.3552Z" fill="#333333"/>
<path d="M434.081 58.9033C433.859 61.6257 433.458 64.48 431.992 67.064C431.563 67.8469 430.874 68.5814 430.104 69.0581C428.795 69.8789 427.623 69.3251 427.292 67.8275C427.153 67.156 427.168 66.3788 427.341 65.729C428.004 63.1301 428.745 60.556 429.487 58.0078C429.982 56.3176 430.852 55.6323 432.045 55.7973C433.264 55.9619 434.03 57.0651 434.081 58.9033Z" fill="#333333"/>
<path d="M34.7582 44.2596C33.7371 47.2001 31.5731 47.9548 29.091 48.17C27.6691 48.293 26.2464 48.3642 24.8215 48.2801C23.3194 48.2229 22.3229 47.2783 22.2286 46.0623C22.1351 44.8982 22.8449 43.8007 24.3165 43.5216C26.5886 43.1021 28.9133 42.7337 31.1918 42.7802C32.3826 42.7899 33.5862 43.7317 34.7582 44.2596Z" fill="#333333"/>
<path d="M538.724 71.6407C535.843 74.8656 532.49 73.8495 529.134 72.6004C528.093 72.2003 527.255 71.5383 527.032 70.35C526.725 68.7485 528.103 67.2793 529.919 67.5653C532.799 68.044 535.755 68.4698 537.86 70.9273C538.097 71.2349 538.462 71.4371 538.724 71.6407Z" fill="#333333"/>
<path d="M479.382 38.3425C479.289 39.0948 479.196 39.8471 479.051 40.6002C478.786 42.0541 478.572 43.4297 479.548 44.8149C479.891 45.3023 479.805 46.5207 479.423 46.9921C478.99 47.5419 477.96 47.9186 477.234 47.8508C474.903 47.7013 473.262 45.1079 474.059 42.818C474.682 41.0224 475.538 39.2755 476.317 37.5297C476.694 36.7217 477.357 35.9615 478.295 36.4149C478.868 36.692 479.19 37.5422 479.612 38.1321C479.562 38.2105 479.485 38.2634 479.382 38.3425Z" fill="#333333"/>
<path d="M32.2414 62.6044C33.8498 62.8674 34.9201 63.5261 35.1686 64.6623C35.4174 65.8243 34.7846 66.8689 33.2895 67.3296C31.3049 67.9524 29.2671 68.4723 27.2293 68.9922C26.7649 69.1021 26.1451 69.2142 25.8055 68.9858C25.1004 68.5292 24.3162 67.9701 24.022 67.2749C23.6218 66.3998 24.1784 65.4598 25.0796 65.1108C27.4489 64.2238 29.8455 63.44 32.2414 62.6044Z" fill="#333333"/>
<path d="M209.836 90.8949C207.038 92.6165 204.407 91.3834 201.779 90.4092C201.155 90.1847 200.398 89.7029 200.131 89.1368C199.785 88.4164 199.537 87.3579 199.813 86.6808C200.064 86.0817 201.166 85.3155 201.737 85.4113C203.969 85.8729 206.204 86.464 208.312 87.3416C209.641 87.9451 209.894 89.4696 209.836 90.8949Z" fill="#333333"/>
<path d="M191.189 88.2229C190.657 89.0848 190.151 89.9205 189.644 90.7303C188.454 92.6372 184.157 94.5606 182 93.9684C181.273 93.7712 180.486 93.0309 180.114 92.3367C179.636 91.4109 180.14 90.3939 181.013 89.9158C183.531 88.5088 186.103 87.3341 189.14 87.966C189.79 88.1125 190.463 88.1292 191.189 88.2229Z" fill="#333333"/>
<path d="M28.4255 60.0925C27.9328 60.0216 27.4407 60.0024 26.9734 59.9052C25.8046 59.6103 24.9155 58.9491 24.8974 57.6285C24.8794 56.3079 25.6973 55.5457 26.8842 55.2705C28.3034 54.9403 29.775 54.6612 31.2222 54.4861C32.6438 54.3372 33.74 54.9956 34.0388 56.0274C34.3377 57.0593 33.8101 58.232 32.4983 58.8456C31.238 59.4325 29.8454 59.8141 28.5057 60.2727C28.4791 60.2213 28.4525 60.1699 28.4255 60.0925Z" fill="#333333"/>
<path d="M450.934 62.8686C451.01 64.6286 449.524 65.7367 447.836 65.3454C446.096 64.9288 443.913 62.4206 443.785 60.6353C443.66 59.0313 444.911 57.7711 446.316 58.2698C448.241 58.9687 449.76 60.2429 450.717 62.0946C450.876 62.3773 450.906 62.7135 450.934 62.8686Z" fill="#333333"/>
<path d="M188.575 86.394C187.433 86.1765 186.266 86.0371 185.2 85.6891C183.952 85.2917 183.341 84.1346 183.638 83.0946C183.983 81.8468 184.934 81.3676 186.101 81.5329C187.424 81.7221 188.723 82.0669 189.996 82.438C190.984 82.7353 191.847 83.371 191.682 84.5387C191.542 85.6802 190.564 86.0561 189.531 86.2256C189.221 86.2816 188.91 86.2859 188.6 86.2901C188.6 86.316 188.601 86.3678 188.575 86.394Z" fill="#333333"/>
<path d="M199.615 83.5497C199.199 81.4834 199.509 79.5886 201.119 78.0645C201.962 77.2501 202.915 76.8745 203.986 77.585C204.9 78.1941 205.046 79.4094 204.389 80.5838C203.353 82.4109 201.762 83.3909 199.615 83.5497Z" fill="#333333"/>
<path d="M32.139 40.1516C31.6392 39.5628 30.9071 39.0289 30.5604 38.2826C30.1339 37.3819 29.7568 36.2993 29.7951 35.3146C29.8132 34.7446 30.6814 33.8781 31.2756 33.7923C31.8698 33.7065 32.8348 34.2372 33.2045 34.776C33.9972 35.9565 33.6522 37.2303 33.0215 38.4302C32.6928 39.0045 32.4159 39.5781 32.139 40.1516Z" fill="#333333"/>
<path d="M466.983 76.324C467.537 75.2028 467.965 74.2905 468.418 73.3779C468.822 72.5954 469.147 71.7363 469.68 71.0297C470.011 70.6108 470.781 70.1341 471.172 70.2842C471.588 70.4339 472.039 71.2565 471.994 71.7492C471.836 73.4089 471.835 75.2477 471.13 76.6818C470.046 78.8203 470.117 80.2438 472.13 81.6925C473.332 82.5566 473.818 84.0003 473.347 85.5348C473.248 85.8728 472.891 86.2662 472.557 86.4003C471.296 86.9614 470.099 86.5374 469.028 85.801C468.505 85.4455 468.008 85.0638 467.588 84.6293C466.932 83.939 466.307 83.6885 465.355 84.1159C464.661 84.4362 463.833 84.4475 462.619 84.6972C464.495 81.7709 463.097 79.8993 461.44 77.9537C460.124 76.3659 460.156 74.8893 461.127 73.9695C462.149 73.0232 463.576 73.2368 465.174 74.6135C465.698 75.0984 466.197 75.6096 466.983 76.324Z" fill="#333333"/>
</svg>
