<svg width="20" height="20" viewBox="0 0 20 20" fill="none" xmlns="http://www.w3.org/2000/svg">
<mask id="mask0_1317_3166" style="mask-type:alpha" maskUnits="userSpaceOnUse" x="0" y="0" width="20" height="20">
<rect width="20" height="20" fill="#D9D9D9"/>
</mask>
<g mask="url(#mask0_1317_3166)">
<path d="M10.0013 17.9377C9.80686 17.9377 9.60894 17.9029 9.40755 17.8335C9.20616 17.7641 9.02908 17.6529 8.8763 17.5002L7.4388 16.1877C5.96658 14.8404 4.63672 13.5036 3.44922 12.1772C2.26172 10.8509 1.66797 9.38905 1.66797 7.79183C1.66797 6.48627 2.10547 5.396 2.98047 4.521C3.85547 3.646 4.94575 3.2085 6.2513 3.2085C6.98741 3.2085 7.68186 3.36475 8.33464 3.67725C8.98741 3.98975 9.54297 4.41683 10.0013 4.9585C10.4596 4.41683 11.0152 3.98975 11.668 3.67725C12.3207 3.36475 13.0152 3.2085 13.7513 3.2085C15.0569 3.2085 16.1471 3.646 17.0221 4.521C17.8971 5.396 18.3346 6.48627 18.3346 7.79183C18.3346 9.38905 17.7444 10.8543 16.5638 12.1877C15.3832 13.521 14.043 14.8613 12.543 16.2085L11.1263 17.5002C10.9735 17.6529 10.7964 17.7641 10.5951 17.8335C10.3937 17.9029 10.1957 17.9377 10.0013 17.9377ZM9.20964 6.62516C8.80686 6.05572 8.3763 5.62169 7.91797 5.32308C7.45964 5.02447 6.90408 4.87516 6.2513 4.87516C5.41797 4.87516 4.72352 5.15294 4.16797 5.7085C3.61241 6.26405 3.33464 6.9585 3.33464 7.79183C3.33464 8.51405 3.59158 9.28141 4.10547 10.0939C4.61936 10.9064 5.23394 11.6946 5.94922 12.4585C6.6645 13.2224 7.40061 13.9377 8.15755 14.6043C8.9145 15.271 9.52908 15.8196 10.0013 16.2502C10.4735 15.8196 11.0881 15.271 11.8451 14.6043C12.602 13.9377 13.3381 13.2224 14.0534 12.4585C14.7687 11.6946 15.3832 10.9064 15.8971 10.0939C16.411 9.28141 16.668 8.51405 16.668 7.79183C16.668 6.9585 16.3902 6.26405 15.8346 5.7085C15.2791 5.15294 14.5846 4.87516 13.7513 4.87516C13.0985 4.87516 12.543 5.02447 12.0846 5.32308C11.6263 5.62169 11.1957 6.05572 10.793 6.62516C10.6957 6.76405 10.5777 6.86822 10.4388 6.93766C10.2999 7.00711 10.1541 7.04183 10.0013 7.04183C9.84852 7.04183 9.70269 7.00711 9.5638 6.93766C9.42491 6.86822 9.30686 6.76405 9.20964 6.62516Z" fill="#333333"/>
</g>
</svg>
