<svg width="14" height="14" viewBox="0 0 14 14" fill="none" xmlns="http://www.w3.org/2000/svg">
<mask id="mask0_99_6240" style="mask-type:alpha" maskUnits="userSpaceOnUse" x="0" y="0" width="14" height="14">
<rect width="14" height="14" fill="#D9D9D9"/>
</mask>
<g mask="url(#mask0_99_6240)">
<path d="M6.99996 12.8334C6.20274 12.8334 5.44926 12.6803 4.73954 12.374C4.02982 12.0678 3.41003 11.6497 2.88017 11.1199C2.35031 10.59 1.93225 9.97022 1.626 9.2605C1.31975 8.55078 1.16663 7.7973 1.16663 7.00008C1.16663 6.19314 1.31975 5.43723 1.626 4.73237C1.93225 4.02751 2.35031 3.41015 2.88017 2.88029C3.41003 2.35043 4.02982 1.93237 4.73954 1.62612C5.44926 1.31987 6.20274 1.16675 6.99996 1.16675C7.8069 1.16675 8.56281 1.31987 9.26767 1.62612C9.97253 1.93237 10.5899 2.35043 11.1198 2.88029C11.6496 3.41015 12.0677 4.02751 12.3739 4.73237C12.6802 5.43723 12.8333 6.19314 12.8333 7.00008C12.8333 7.7973 12.6802 8.55078 12.3739 9.2605C12.0677 9.97022 11.6496 10.59 11.1198 11.1199C10.5899 11.6497 9.97253 12.0678 9.26767 12.374C8.56281 12.6803 7.8069 12.8334 6.99996 12.8334ZM6.99996 11.6376C7.25274 11.2876 7.47149 10.923 7.65621 10.5438C7.84093 10.1647 7.99163 9.76119 8.10829 9.33341H5.89163C6.00829 9.76119 6.15899 10.1647 6.34371 10.5438C6.52843 10.923 6.74718 11.2876 6.99996 11.6376ZM5.48329 11.4042C5.30829 11.0834 5.15517 10.7504 5.02392 10.4053C4.89267 10.0602 4.78329 9.70286 4.69579 9.33341H2.97496C3.2569 9.81953 3.60933 10.2424 4.03225 10.6022C4.45517 10.9619 4.93885 11.2292 5.48329 11.4042ZM8.51663 11.4042C9.06107 11.2292 9.54475 10.9619 9.96767 10.6022C10.3906 10.2424 10.743 9.81953 11.025 9.33341H9.30413C9.21663 9.70286 9.10725 10.0602 8.976 10.4053C8.84475 10.7504 8.69163 11.0834 8.51663 11.4042ZM2.47913 8.16675H4.46246C4.43329 7.9723 4.41142 7.78029 4.39683 7.59071C4.38225 7.40112 4.37496 7.20425 4.37496 7.00008C4.37496 6.79591 4.38225 6.59904 4.39683 6.40946C4.41142 6.21987 4.43329 6.02786 4.46246 5.83341H2.47913C2.43051 6.02786 2.39406 6.21987 2.36975 6.40946C2.34545 6.59904 2.33329 6.79591 2.33329 7.00008C2.33329 7.20425 2.34545 7.40112 2.36975 7.59071C2.39406 7.78029 2.43051 7.9723 2.47913 8.16675ZM5.62913 8.16675H8.37079C8.39996 7.9723 8.42183 7.78029 8.43642 7.59071C8.451 7.40112 8.45829 7.20425 8.45829 7.00008C8.45829 6.79591 8.451 6.59904 8.43642 6.40946C8.42183 6.21987 8.39996 6.02786 8.37079 5.83341H5.62913C5.59996 6.02786 5.57808 6.21987 5.5635 6.40946C5.54892 6.59904 5.54163 6.79591 5.54163 7.00008C5.54163 7.20425 5.54892 7.40112 5.5635 7.59071C5.57808 7.78029 5.59996 7.9723 5.62913 8.16675ZM9.53746 8.16675H11.5208C11.5694 7.9723 11.6059 7.78029 11.6302 7.59071C11.6545 7.40112 11.6666 7.20425 11.6666 7.00008C11.6666 6.79591 11.6545 6.59904 11.6302 6.40946C11.6059 6.21987 11.5694 6.02786 11.5208 5.83341H9.53746C9.56663 6.02786 9.5885 6.21987 9.60308 6.40946C9.61767 6.59904 9.62496 6.79591 9.62496 7.00008C9.62496 7.20425 9.61767 7.40112 9.60308 7.59071C9.5885 7.78029 9.56663 7.9723 9.53746 8.16675ZM9.30413 4.66675H11.025C10.743 4.18064 10.3906 3.75772 9.96767 3.398C9.54475 3.03828 9.06107 2.77091 8.51663 2.59591C8.69163 2.91675 8.84475 3.24973 8.976 3.59487C9.10725 3.94001 9.21663 4.2973 9.30413 4.66675ZM5.89163 4.66675H8.10829C7.99163 4.23897 7.84093 3.8355 7.65621 3.45633C7.47149 3.07716 7.25274 2.71258 6.99996 2.36258C6.74718 2.71258 6.52843 3.07716 6.34371 3.45633C6.15899 3.8355 6.00829 4.23897 5.89163 4.66675ZM2.97496 4.66675H4.69579C4.78329 4.2973 4.89267 3.94001 5.02392 3.59487C5.15517 3.24973 5.30829 2.91675 5.48329 2.59591C4.93885 2.77091 4.45517 3.03828 4.03225 3.398C3.60933 3.75772 3.2569 4.18064 2.97496 4.66675Z" fill="#1C1B1F"/>
</g>
</svg>
