<svg width="64" height="64" viewBox="0 0 64 64" fill="none" xmlns="http://www.w3.org/2000/svg">
<circle cx="32" cy="32" r="32" fill="#FFDF06"/>
<mask id="mask0_390_21704" style="mask-type:alpha" maskUnits="userSpaceOnUse" x="0" y="0" width="64" height="64">
<circle cx="32" cy="32" r="32" fill="url(#paint0_linear_390_21704)"/>
</mask>
<g mask="url(#mask0_390_21704)">
<path d="M34.379 61.459L36.0898 70.4409" stroke="white" stroke-linecap="round"/>
<path fill-rule="evenodd" clip-rule="evenodd" d="M35.8829 53.1913C37.6933 52.7527 41.495 52.4895 42.2192 54.9459C42.9433 57.4023 41.9174 58.6012 41.314 58.8936C44.7838 61.3793 51.2709 68.2806 49.4606 76.0007H31.8115V76.0009H14.1605C12.3502 68.2808 18.8373 61.3795 22.3071 58.8938C21.7037 58.6014 20.6778 57.4025 21.4019 54.9461C22.1261 52.4897 25.9278 52.7529 27.7382 53.1915L31.8103 54.9456L35.8829 53.1913Z" fill="#333333"/>
<path d="M34.3794 63.1697L42.0782 58.4648L42.9336 60.1757L34.3794 63.1697Z" fill="#1D1D1D"/>
<mask id="mask1_390_21704" style="mask-type:alpha" maskUnits="userSpaceOnUse" x="13" y="52" width="37" height="25">
<path fill-rule="evenodd" clip-rule="evenodd" d="M35.8829 53.1913C37.6933 52.7527 41.495 52.4895 42.2192 54.9459C42.9433 57.4023 41.9174 58.6012 41.314 58.8936C44.7838 61.3793 51.2709 68.2806 49.4606 76.0007H31.8115V76.0009H14.1605C12.3502 68.2808 18.8373 61.3795 22.3071 58.8938C21.7037 58.6014 20.6778 57.4025 21.4019 54.9461C22.1261 52.4897 25.9278 52.7529 27.7382 53.1915L31.8103 54.9456L35.8829 53.1913Z" fill="#333333"/>
</mask>
<g mask="url(#mask1_390_21704)">
<path d="M29.2456 63.1692L21.5468 58.4644L20.6914 60.1752L29.2456 63.1692Z" fill="#1D1D1D"/>
</g>
<path d="M29.246 61.8862L27.5352 70.8682" stroke="white" stroke-linecap="round"/>
<path d="M30.0269 45.8004C32.4094 47.1586 34.7302 46.6645 36.2867 44.9667" stroke="#EB5757" stroke-linecap="round"/>
<rect x="25.8242" y="41.7832" width="11.9759" height="17.9639" rx="5.98795" fill="#F5B1B1"/>
<path d="M43.7877 31.5182C43.7877 35.2977 44.5662 38.7893 47.637 38.7893C50.7079 38.7893 53.625 34.4422 53.625 30.6628C53.625 26.8833 52.4187 24.6748 49.3479 24.6748C46.2771 24.6748 43.7877 27.7387 43.7877 31.5182Z" fill="#F5B1B1"/>
<path d="M19.8373 31.5187C19.8373 35.2982 19.0588 38.7898 15.988 38.7898C12.9171 38.7898 10 34.4427 10 30.6632C10 26.8838 11.2063 24.6753 14.2771 24.6753C17.3479 24.6753 19.8373 27.7392 19.8373 31.5187Z" fill="#F5B1B1"/>
<rect x="14.7031" y="10.1328" width="34.2169" height="41.9157" rx="17.1084" fill="#FFD9CB"/>
<rect x="30.957" y="37.5059" width="3.42169" height="5.98795" rx="1.71084" fill="#F5B1B1"/>
<circle cx="24.2578" cy="32.374" r="2" fill="#092C4C"/>
<circle cx="39.2578" cy="32.374" r="2" fill="#092C4C"/>
<path fill-rule="evenodd" clip-rule="evenodd" d="M40.4365 8.28067C40.617 8.2606 40.7999 8.25033 40.9848 8.25033C43.641 8.25033 45.8799 10.3687 46.5658 13.2586C46.6377 13.2528 46.7102 13.2499 46.7833 13.2499C48.5297 13.2499 49.9454 14.9288 49.9454 16.9999C49.9454 17.5853 49.8323 18.1393 49.6306 18.633C50.4472 19.1639 51.0007 20.1928 51.0007 21.3751C51.0007 23.101 49.8209 24.5001 48.3656 24.5001C47.6936 24.5001 47.0803 24.2017 46.6148 23.7106C46.079 24.2053 45.4055 24.4999 44.6739 24.4999C43.282 24.4999 42.1001 23.4334 41.6776 21.9518C41.4505 21.9839 41.2193 22.0004 40.9848 22.0004C40.3828 22.0004 39.8022 21.8916 39.2563 21.6897C38.659 24.7328 36.3577 27 33.6098 27C30.8075 27 28.4695 24.642 27.9298 21.5078C27.4207 21.8222 26.842 22 26.2283 22C25.9404 22 25.6602 21.9609 25.3913 21.8869C24.8198 23.4259 23.5224 24.5003 22.0134 24.5003C20.8242 24.5003 19.7664 23.833 19.0917 22.7969C18.6553 23.808 17.7681 24.5001 16.7445 24.5001C15.2892 24.5001 14.1094 23.101 14.1094 21.3751C14.1094 20.8368 14.2241 20.3303 14.4262 19.8882C14.2232 19.3932 14.1094 18.8374 14.1094 18.2501C14.1094 18.1116 14.1157 17.9748 14.1281 17.8401C12.8709 17.1428 12 15.6295 12 13.875C12 11.4587 13.6517 9.49993 15.6892 9.49993C16.7213 9.49993 17.6544 10.0025 18.324 10.8126C18.7367 10.3132 19.2497 9.93068 19.8242 9.71071C19.5402 9.09077 19.3789 8.38033 19.3789 7.62521C19.3789 5.20895 21.0306 3.25018 23.0681 3.25018C24.6508 3.25018 26.0008 4.43216 26.5245 6.0924C27.0946 5.87018 27.7036 5.74997 28.3364 5.74997C28.7148 5.74997 29.0847 5.79296 29.4429 5.87505C30.3824 3.58122 32.3658 2 34.6606 2C37.6935 2 40.1824 4.76197 40.4365 8.28067Z" fill="#092C4C"/>
</g>
<defs>
<linearGradient id="paint0_linear_390_21704" x1="32" y1="0" x2="32" y2="64" gradientUnits="userSpaceOnUse">
<stop stop-color="#FFC1C2"/>
<stop offset="1" stop-color="#E97C7C"/>
</linearGradient>
</defs>
</svg>
