<svg width="40" height="17" viewBox="0 0 40 17" fill="none" xmlns="http://www.w3.org/2000/svg">
<path d="M26.469 4.45331H22.9158C23.0695 4.1251 23.1663 3.90572 23.2077 3.79862C23.2434 3.71119 23.2638 3.61829 23.2682 3.52396C23.2678 3.47075 23.2555 3.41829 23.2322 3.37046C23.2089 3.32263 23.1751 3.28064 23.1334 3.24757C23.0468 3.16959 22.9339 3.12704 22.8173 3.12838C22.7433 3.12502 22.6696 3.14047 22.6031 3.1733C22.537 3.21934 22.484 3.28186 22.4494 3.35467C22.4028 3.44277 22.3371 3.59306 22.2542 3.80035C22.1165 4.18175 21.9532 4.55341 21.7654 4.91279C21.5983 5.21445 21.4089 5.50316 21.1988 5.7765C21.0658 5.94924 20.9742 6.07016 20.9258 6.14444C20.8839 6.20093 20.8582 6.26784 20.8516 6.33791C20.8557 6.45165 20.9048 6.55912 20.988 6.63675C21.0261 6.68015 21.0728 6.71516 21.1251 6.73955C21.1775 6.76393 21.2343 6.77716 21.292 6.7784C21.4337 6.7784 21.5909 6.6713 21.7584 6.46401C22.0212 6.10398 22.2573 5.72525 22.4649 5.33083H26.469C26.8145 5.33083 26.9872 5.18573 26.9872 4.90071C26.9872 4.61568 26.8128 4.45331 26.469 4.45331Z" fill="#333333"/>
<path d="M26.7103 8.74238C26.8302 8.62904 26.9071 8.47765 26.9279 8.31398C26.9253 8.25696 26.9103 8.20119 26.8841 8.1505C26.8578 8.09981 26.8209 8.0554 26.7759 8.02032C26.6856 7.93512 26.5666 7.88702 26.4425 7.88558C26.3543 7.88831 26.2693 7.91985 26.2007 7.97541C26.0846 8.07768 25.9813 8.19369 25.8932 8.32089L25.1815 9.10168L25.0209 9.27442C24.8798 8.59733 24.788 7.9109 24.7462 7.22053L24.919 7.15489C25.2506 7.01497 25.4994 6.90269 25.6548 6.8215C25.7757 6.76547 25.8853 6.68758 25.9779 6.59175C26.0383 6.52108 26.0708 6.43079 26.0694 6.33782C26.0725 6.21025 26.026 6.08645 25.9398 5.99234C25.9036 5.9473 25.8579 5.91081 25.8059 5.88543C25.754 5.86005 25.6971 5.84643 25.6393 5.84551C25.5843 5.84357 25.5293 5.85116 25.4769 5.86796C25.4059 5.89727 25.3367 5.93073 25.2696 5.96816C25.0485 6.09426 24.646 6.29118 24.0743 6.55375C23.5025 6.81631 23.0206 7.01842 22.644 7.16007C22.4498 7.22202 22.2796 7.34274 22.1569 7.50555C22.0551 7.67199 22.0058 7.86519 22.0152 8.06005V12.0953L21.7008 12.1972C21.5523 12.2339 21.4129 12.3009 21.2915 12.3941C21.2517 12.4305 21.2204 12.4752 21.1998 12.5251C21.1792 12.5749 21.1698 12.6287 21.1723 12.6826C21.1719 12.7374 21.1827 12.7918 21.2041 12.8423C21.2255 12.8928 21.257 12.9384 21.2966 12.9763C21.3331 13.0149 21.377 13.0458 21.4257 13.0672C21.4743 13.0885 21.5268 13.0999 21.5799 13.1006C21.6718 13.0937 21.7621 13.0727 21.8477 13.0384C21.9669 12.997 22.1051 12.9469 22.2605 12.8882C22.3054 12.8732 22.3573 12.8525 22.416 12.826C22.4847 12.7964 22.5558 12.7727 22.6285 12.7552C22.9843 12.6135 23.2417 12.5081 23.3971 12.4425C23.8618 12.2352 24.1399 12.1074 24.2211 12.0642C24.2945 12.0252 24.3591 11.9718 24.4111 11.907C24.4513 11.8462 24.4713 11.7742 24.4681 11.7014C24.4691 11.6005 24.4307 11.5032 24.361 11.4302C24.3271 11.3939 24.2858 11.3651 24.24 11.3457C24.1941 11.3264 24.1447 11.3169 24.095 11.3179C24.0518 11.3207 24.0095 11.3318 23.9706 11.3508L23.7253 11.463C23.506 11.565 23.2382 11.6738 22.9325 11.7826V8.22415C22.9323 8.1447 22.9531 8.06662 22.9929 7.99786C23.0324 7.93088 23.0932 7.87915 23.1657 7.85103L23.9931 7.51937C24.0423 8.39049 24.1842 9.25388 24.4163 10.0949C24.6137 10.7976 24.9098 11.4688 25.2955 12.0884C25.449 12.39 25.6549 12.662 25.9036 12.8916C26.0495 13.0137 26.2317 13.0841 26.4218 13.092C26.4873 13.092 26.552 13.078 26.6116 13.0509C26.6712 13.0238 26.7243 12.9842 26.7673 12.9348C26.8151 12.8857 26.8527 12.8276 26.8779 12.7638C26.9031 12.7001 26.9154 12.6319 26.9141 12.5634C26.9168 12.4756 26.8934 12.389 26.8467 12.3147C26.7695 12.2106 26.6834 12.1135 26.5893 12.0245C25.9709 11.413 25.5218 10.8723 25.2558 10.0846L25.7205 9.65272C26.2318 9.20878 26.56 8.9013 26.7103 8.74238Z" fill="#333333"/>
<path d="M20.0895 7.15804H18.9045L18.9149 5.78994H20.7459C21.0689 5.78994 21.2313 5.64138 21.2313 5.34945C21.2367 5.28961 21.2289 5.22931 21.2082 5.17287C21.1876 5.11643 21.1548 5.06524 21.1121 5.02297C21.0057 4.94718 20.8761 4.91111 20.7459 4.92105H17.3516C17.0148 4.92105 16.8438 5.06442 16.8438 5.34945C16.8438 5.63447 17.0165 5.78994 17.3516 5.78994H18.0702C18.0702 7.61063 17.9994 8.94937 17.8595 9.76298C17.7851 10.1957 17.6694 10.6203 17.514 11.0309C17.3652 11.4384 17.1754 11.8296 16.9474 12.1986C16.913 12.2529 16.8846 12.3109 16.8628 12.3714C16.8505 12.4187 16.8447 12.4676 16.8455 12.5165C16.8451 12.5783 16.8569 12.6396 16.8804 12.6968C16.9038 12.754 16.9383 12.8061 16.9819 12.8499C17.0234 12.895 17.0739 12.9309 17.1302 12.9553C17.1864 12.9797 17.2471 12.992 17.3084 12.9915C17.4656 12.9915 17.628 12.8775 17.7921 12.6547C17.9925 12.3544 18.1501 12.0276 18.2602 11.6839C18.4372 11.1841 18.5696 10.6696 18.6558 10.1465C18.764 9.44756 18.8367 8.74359 18.8734 8.0373H19.8235C19.868 8.03319 19.9129 8.03827 19.9554 8.05224C19.9979 8.06621 20.0371 8.08876 20.0705 8.11849C20.0952 8.14986 20.1132 8.186 20.1233 8.22464C20.1334 8.26328 20.1354 8.30359 20.1292 8.34305L20.1068 8.92173C20.0636 9.88908 20.0221 10.6094 19.9859 11.0637C19.9725 11.3577 19.9314 11.6498 19.8632 11.9361C19.782 12.1693 19.5782 12.2815 19.2569 12.2815C19.1065 12.2682 18.9565 12.3106 18.8354 12.4007C18.7906 12.4459 18.7557 12.5 18.7331 12.5595C18.7104 12.619 18.7006 12.6826 18.7041 12.7462C18.6975 12.8118 18.7041 12.878 18.7237 12.941C18.7433 13.0039 18.7754 13.0622 18.8181 13.1124C18.9318 13.1954 19.072 13.2335 19.212 13.2195C19.4293 13.2164 19.645 13.1826 19.8529 13.1193C20.0393 13.0756 20.2153 12.9958 20.3711 12.8844C20.5249 12.7495 20.6295 12.5672 20.6682 12.3662C20.7537 11.9773 20.808 11.5822 20.8306 11.1846L20.9083 10.2052L20.986 7.94575C20.9986 7.84287 20.9897 7.73849 20.96 7.6392C20.9302 7.53991 20.8803 7.44784 20.8133 7.36879C20.713 7.28675 20.5973 7.2258 20.4729 7.18958C20.3485 7.15337 20.2181 7.14264 20.0895 7.15804Z" fill="#333333"/>
<path d="M30.8697 5.64551H29.6605C29.1423 5.64551 28.8884 5.90117 28.8884 6.4073L28.878 9.3698C28.8832 9.97334 28.8358 10.5762 28.7364 11.1715C28.6672 11.6138 28.5479 12.0467 28.3805 12.4619C28.3194 12.5922 28.2831 12.7328 28.2734 12.8764C28.2734 13.139 28.4134 13.272 28.6897 13.272C28.878 13.272 29.0352 13.0786 29.1596 12.7002C29.413 11.9381 29.5652 11.1459 29.6122 10.3441H30.8956V12.1527C30.8956 12.3807 30.7885 12.4981 30.5674 12.4981H30.2755C30.2217 12.4899 30.1667 12.4944 30.115 12.5114C30.0634 12.5283 30.0164 12.5573 29.978 12.5958C29.9396 12.6344 29.9109 12.6815 29.8941 12.7332C29.8774 12.785 29.8731 12.84 29.8816 12.8937C29.8816 13.1632 30.0285 13.3014 30.3187 13.3014H30.7505C31.0008 13.3225 31.2492 13.2436 31.4415 13.082C31.6054 12.8789 31.6836 12.6198 31.6591 12.3599V6.48676C31.6626 5.92362 31.3965 5.64551 30.8697 5.64551ZM30.8697 9.58573H29.569L29.5793 8.35063H30.8697V9.58573ZM30.8697 7.5923H29.5793L29.5914 6.77523C29.5914 6.54721 29.683 6.42975 29.8747 6.42975H30.576C30.616 6.42587 30.6564 6.43015 30.6947 6.44232C30.733 6.45449 30.7685 6.47431 30.7989 6.50057C30.8511 6.56253 30.8765 6.64268 30.8697 6.72341V7.5923Z" fill="#333333"/>
<path d="M37.4354 12.1976L36.3989 11.5636C36.2959 11.496 36.1766 11.4573 36.0535 11.4513C35.9977 11.443 35.9407 11.4476 35.887 11.4648C35.8333 11.4821 35.7844 11.5115 35.7439 11.5508C35.7034 11.59 35.6726 11.6382 35.6538 11.6913C35.635 11.7445 35.6287 11.8013 35.6354 11.8573C35.6353 11.8903 35.6426 11.9229 35.6566 11.9528C35.6706 11.9827 35.6911 12.009 35.7166 12.03C35.7914 12.0941 35.8738 12.1486 35.9619 12.1924L37.0623 12.8609C37.3145 13.0095 37.3265 13.0837 37.4302 13.0837C37.6928 13.0837 37.8258 12.9317 37.8258 12.6329C37.8275 12.4653 37.6962 12.322 37.4354 12.1976Z" fill="#333333"/>
<path d="M36.1502 11.1797C36.2953 11.1185 36.4115 11.0042 36.4749 10.8601C36.4923 10.8171 36.4994 10.7707 36.4959 10.7245C36.4923 10.6783 36.4781 10.6335 36.4543 10.5937C36.4306 10.5539 36.3979 10.5201 36.3589 10.495C36.32 10.4699 36.2757 10.4542 36.2297 10.449C36.1208 10.4196 35.9533 10.4749 35.7304 10.6218C35.6105 10.6777 35.5144 10.7744 35.4592 10.8947C35.4419 10.9378 35.4348 10.9844 35.4384 11.0307C35.4421 11.077 35.4565 11.1219 35.4804 11.1617C35.5044 11.2016 35.5372 11.2353 35.5764 11.2603C35.6156 11.2853 35.66 11.3009 35.7063 11.3058C35.8647 11.3194 36.0226 11.2745 36.1502 11.1797Z" fill="#333333"/>
<path d="M28.8965 4.78846H31.1076V5.13395C31.1076 5.41033 31.2579 5.55198 31.5584 5.55198C31.6158 5.56074 31.6744 5.55606 31.7296 5.53831C31.7849 5.52057 31.8353 5.49024 31.8768 5.44971C31.9183 5.40919 31.9499 5.35957 31.969 5.30478C31.9881 5.24998 31.9942 5.1915 31.9868 5.13395V4.78846H34.6021V5.13395C34.6021 5.41033 34.7506 5.55198 35.0426 5.55198C35.3345 5.55198 35.4934 5.41033 35.4934 5.13395V4.78846H37.6025C37.9152 4.78846 38.0758 4.652 38.0758 4.3808C38.0758 4.10959 37.9152 3.97486 37.6025 3.97486H35.4934V3.57928C35.4934 3.3098 35.3414 3.17334 35.0426 3.17334C34.7437 3.17334 34.6021 3.3098 34.6021 3.57928V3.97486H31.9868V3.57928C31.9868 3.3098 31.8434 3.17334 31.5584 3.17334C31.2734 3.17334 31.1076 3.3098 31.1076 3.57928V3.97486H28.8965C28.5891 3.97486 28.4336 4.11132 28.4336 4.3808C28.4336 4.65027 28.5891 4.78846 28.8965 4.78846Z" fill="#333333"/>
<path d="M34.9156 9.37451C34.6462 9.37451 34.5097 9.52479 34.5097 9.82536V12.2437C34.5101 12.3293 34.4808 12.4123 34.4268 12.4787C34.3648 12.5309 34.2847 12.5563 34.2039 12.5495H33.9362C33.6512 12.5495 33.5078 12.686 33.5078 12.9572C33.5078 13.2284 33.6806 13.3631 34.0036 13.3631H34.4268C34.5503 13.379 34.6758 13.366 34.7934 13.3251C34.911 13.2842 35.0174 13.2165 35.1044 13.1274C35.1913 13.0382 35.2564 12.9301 35.2944 12.8115C35.3323 12.693 35.3423 12.5672 35.3233 12.4441V9.82536C35.3233 9.52479 35.1851 9.37451 34.9156 9.37451Z" fill="#333333"/>
<path d="M34.2069 11.8517C34.2049 11.7513 34.1669 11.6551 34.0998 11.5805C34.0652 11.5508 34.0246 11.529 33.9807 11.5168C33.9368 11.5046 33.8908 11.5021 33.8458 11.5096L33.3915 11.7307L32.6557 12.0555C32.248 12.2282 32.0494 12.401 32.0632 12.5634C32.0656 12.6692 32.1054 12.7707 32.1755 12.8501C32.2042 12.8767 32.2379 12.8972 32.2747 12.9106C32.3115 12.9239 32.3506 12.9298 32.3897 12.9278H32.4363C32.5339 12.9053 32.6293 12.8741 32.7213 12.8346L33.1359 12.6618C33.8769 12.3422 34.2276 12.078 34.2069 11.8517Z" fill="#333333"/>
<path d="M35.977 6.37397C35.8146 6.65208 35.7421 6.82309 35.7507 6.89219C35.7801 7.12366 35.9355 7.22385 36.2102 7.18758C36.3829 7.16685 36.528 7.03384 36.6697 6.79027C36.8113 6.54671 36.8925 6.33596 36.8787 6.23232C36.8493 6.00084 36.6956 5.90066 36.4209 5.93693C36.2862 5.96284 36.1376 6.10622 35.977 6.37397Z" fill="#333333"/>
<path d="M33.4981 6.00452C33.2234 5.96479 33.068 6.05807 33.0352 6.2809C33.0384 6.35175 33.0579 6.4209 33.0922 6.48301C33.1353 6.58148 33.1647 6.64712 33.1803 6.68685C33.3167 6.9926 33.4687 7.15843 33.6311 7.18261C33.9058 7.22234 34.063 7.11524 34.0992 6.86131C34.1018 6.67402 34.0409 6.49136 33.9265 6.34309C33.8842 6.25873 33.824 6.18469 33.7499 6.12618C33.6759 6.06768 33.5899 6.02614 33.4981 6.00452Z" fill="#333333"/>
<path d="M33.9872 11.3458C34.2376 11.3458 34.3637 11.2318 34.3637 11.0003C34.3637 10.888 34.2808 10.7706 34.1167 10.6548C33.9952 10.5553 33.8489 10.4908 33.6935 10.4683C33.4569 10.4683 33.3359 10.5754 33.3359 10.7878C33.3359 10.9018 33.462 11.0504 33.7194 11.2421C33.7954 11.3042 33.8892 11.3405 33.9872 11.3458Z" fill="#333333"/>
<path d="M19.205 4.65009C19.3034 4.49247 19.3537 4.30957 19.3498 4.12379C19.3458 3.93802 19.2877 3.75743 19.1827 3.60416C19.0776 3.45089 18.9301 3.33158 18.7583 3.26086C18.5865 3.19013 18.3978 3.17107 18.2153 3.20598C18.1168 3.3636 18.0666 3.5465 18.0705 3.73228C18.0745 3.91806 18.1326 4.09864 18.2376 4.25191C18.3427 4.40518 18.4902 4.52449 18.662 4.59521C18.8338 4.66593 19.0225 4.68501 19.205 4.65009Z" fill="#333333"/>
<path d="M37.8166 10.352C37.1032 10.2553 36.7093 9.67317 36.3535 9.18086H37.7233C37.8105 9.18086 37.8941 9.14633 37.956 9.08483C38.0178 9.02333 38.0528 8.93986 38.0532 8.85265V8.79565C38.0528 8.70844 38.0178 8.62496 37.956 8.56346C37.8941 8.50196 37.8105 8.46744 37.7233 8.46744H34.709C34.8347 8.16717 34.9442 7.86041 35.0372 7.54846H37.4072C37.4942 7.54846 37.5777 7.51388 37.6392 7.45233C37.7008 7.39078 37.7354 7.30729 37.7354 7.22025V7.16324C37.7354 7.07619 37.7008 6.99272 37.6392 6.93117C37.5777 6.86962 37.4942 6.83503 37.4072 6.83503H35.2255C35.2808 6.60011 35.3239 6.398 35.3619 6.20108C35.3725 6.1459 35.3718 6.08916 35.3599 6.03426C35.3481 5.97935 35.3252 5.9274 35.2929 5.88151C35.2616 5.83516 35.2211 5.79584 35.1738 5.76609C35.1265 5.73635 35.0735 5.71682 35.0182 5.70876C34.9136 5.69464 34.8077 5.72143 34.7224 5.78354C34.6371 5.84566 34.5791 5.9383 34.5604 6.04215C34.5086 6.31336 34.4499 6.57938 34.3877 6.83503H32.4548C32.3677 6.83503 32.2842 6.86962 32.2227 6.93117C32.1611 6.99272 32.1266 7.07619 32.1266 7.16324V7.22025C32.1266 7.30729 32.1611 7.39078 32.2227 7.45233C32.2842 7.51388 32.3677 7.54846 32.4548 7.54846H34.1821C34.0803 7.86247 33.958 8.16945 33.8159 8.46744H32.1715C32.1225 8.46403 32.0734 8.47073 32.0272 8.48711C31.981 8.5035 31.9386 8.52921 31.9027 8.56267C31.8669 8.59613 31.8383 8.63661 31.8187 8.68159C31.7992 8.72657 31.7891 8.7751 31.7891 8.82415C31.7891 8.8732 31.7992 8.92172 31.8187 8.9667C31.8383 9.01169 31.8669 9.05217 31.9027 9.08563C31.9386 9.11908 31.981 9.1448 32.0272 9.16119C32.0734 9.17757 32.1225 9.18427 32.1715 9.18086H33.4083C33.0955 9.6773 32.6404 10.068 32.1024 10.3019C32.0129 10.3395 31.94 10.408 31.8969 10.4949C31.8537 10.5818 31.8433 10.6813 31.8675 10.7753V10.7839C31.8808 10.8415 31.9063 10.8955 31.9424 10.9423C31.9784 10.9891 32.0242 11.0276 32.0765 11.0551C32.1279 11.0825 32.1847 11.0983 32.243 11.1013C32.3012 11.1042 32.3593 11.0944 32.4133 11.0724C33.1906 10.7597 33.8488 10.124 34.3687 9.18086H35.3896C35.3966 9.20608 35.4064 9.23041 35.419 9.25341C35.7282 9.77163 36.4208 11.0206 37.7336 11.1847H37.7665C37.8498 11.1841 37.9302 11.1534 37.9928 11.0983C38.0282 11.0658 38.0565 11.0263 38.0759 10.9823C38.0952 10.9383 38.1051 10.8907 38.105 10.8426V10.6889C38.1041 10.6078 38.0747 10.5296 38.022 10.4681C37.9692 10.4065 37.8965 10.3654 37.8166 10.352Z" fill="#333333"/>
<path d="M14.3486 4.14062C13.2886 4.26297 12.2716 4.62964 11.3774 5.21177C10.4832 5.7939 9.73633 6.57561 9.19554 7.49538C8.82073 8.13501 8.55871 8.83433 8.42095 9.56278C7.8573 8.21701 6.87683 7.08752 5.62363 6.34032C4.37044 5.59312 2.91062 5.26761 1.4587 5.41162C1.25535 6.45808 1.29729 7.53742 1.58123 8.56495C1.86516 9.59247 2.38336 10.5402 3.09517 11.3338C3.81578 12.1294 4.70981 12.7486 5.70806 13.1433C6.7063 13.5381 7.782 13.6979 8.85188 13.6103C9.90313 13.4912 10.912 13.128 11.7979 12.5496C12.6837 11.9712 13.4221 11.1937 13.954 10.2792C14.4903 9.3563 14.8051 8.32153 14.8736 7.25633C14.942 6.19113 14.7623 5.12457 14.3486 4.14062Z" fill="#3D9D35"/>
<path d="M8.4862 12.361C8.9381 12.361 9.30443 11.7912 9.30443 11.0882C9.30443 10.3853 8.9381 9.81543 8.4862 9.81543C8.0343 9.81543 7.66797 10.3853 7.66797 11.0882C7.66797 11.7912 8.0343 12.361 8.4862 12.361Z" fill="white"/>
<path d="M8.8491 11.8158C9.10016 11.8158 9.30368 11.5308 9.30368 11.1794C9.30368 10.8279 9.10016 10.543 8.8491 10.543C8.59805 10.543 8.39453 10.8279 8.39453 11.1794C8.39453 11.5308 8.59805 11.8158 8.8491 11.8158Z" fill="#333333"/>
<path d="M10.4862 11.9973C10.9381 11.9973 11.3044 11.4274 11.3044 10.7245C11.3044 10.0215 10.9381 9.45166 10.4862 9.45166C10.0343 9.45166 9.66797 10.0215 9.66797 10.7245C9.66797 11.4274 10.0343 11.9973 10.4862 11.9973Z" fill="white"/>
<path d="M10.8491 11.452C11.1002 11.452 11.3037 11.1671 11.3037 10.8156C11.3037 10.4641 11.1002 10.1792 10.8491 10.1792C10.5981 10.1792 10.3945 10.4641 10.3945 10.8156C10.3945 11.1671 10.5981 11.452 10.8491 11.452Z" fill="#333333"/>
</svg>
