<svg width="80" height="33" viewBox="0 0 80 33" fill="none" xmlns="http://www.w3.org/2000/svg">
<path d="M52.9497 8.71423H45.8433C46.1508 8.05782 46.3442 7.61905 46.4271 7.40485C46.4985 7.22999 46.5394 7.0442 46.5481 6.85554C46.5473 6.74911 46.5227 6.6442 46.4761 6.54854C46.4295 6.45287 46.362 6.36889 46.2786 6.30276C46.1052 6.14679 45.8796 6.0617 45.6464 6.06438C45.4983 6.05765 45.3509 6.08856 45.218 6.15421C45.0856 6.2463 44.9797 6.37134 44.9105 6.51696C44.8172 6.69316 44.6859 6.99373 44.5201 7.40831C44.2447 8.17112 43.9181 8.91444 43.5424 9.6332C43.2084 10.2365 42.8296 10.8139 42.4092 11.3606C42.1432 11.7061 41.9601 11.9479 41.8634 12.0965C41.7795 12.2095 41.7281 12.3433 41.7148 12.4834C41.7232 12.7109 41.8213 12.9259 41.9878 13.0811C42.0639 13.1679 42.1573 13.2379 42.262 13.2867C42.3667 13.3355 42.4804 13.3619 42.5958 13.3644C42.8791 13.3644 43.1935 13.1502 43.5286 12.7356C44.0541 12.0156 44.5264 11.2581 44.9416 10.4693H52.9497C53.6407 10.4693 53.9862 10.1791 53.9862 9.60903C53.9862 9.03898 53.6372 8.71423 52.9497 8.71423Z" fill="#333333"/>
<path d="M53.4244 17.2924C53.6642 17.0657 53.8181 16.7629 53.8597 16.4356C53.8544 16.3215 53.8245 16.21 53.772 16.1086C53.7196 16.0072 53.6458 15.9184 53.5557 15.8483C53.3752 15.6779 53.1372 15.5817 52.8889 15.5788C52.7124 15.5842 52.5425 15.6473 52.4053 15.7584C52.173 15.963 51.9665 16.195 51.7903 16.4494L50.367 18.011L50.0457 18.3565C49.7634 17.0023 49.5798 15.6294 49.4964 14.2487L49.8418 14.1174C50.5051 13.8376 51.0026 13.613 51.3136 13.4506C51.5554 13.3386 51.7744 13.1828 51.9596 12.9911C52.0805 12.8498 52.1456 12.6692 52.1427 12.4833C52.1488 12.2281 52.056 11.9805 51.8836 11.7923C51.8111 11.7022 51.7197 11.6292 51.6158 11.5785C51.5119 11.5277 51.3981 11.5005 51.2825 11.4986C51.1724 11.4948 51.0626 11.5099 50.9577 11.5435C50.8157 11.6022 50.6773 11.6691 50.5432 11.7439C50.1009 11.9961 49.296 12.39 48.1524 12.9151C47.0089 13.4402 46.045 13.8445 45.2919 14.1278C44.9035 14.2517 44.563 14.4931 44.3177 14.8187C44.1141 15.1516 44.0154 15.538 44.0344 15.9277V23.9982L43.4056 24.202C43.1084 24.2754 42.8296 24.4095 42.5868 24.5959C42.5072 24.6687 42.4446 24.7581 42.4034 24.8578C42.3622 24.9575 42.3435 25.0651 42.3484 25.1728C42.3477 25.2825 42.3694 25.3912 42.4122 25.4922C42.4549 25.5932 42.5179 25.6844 42.5972 25.7601C42.6702 25.8374 42.758 25.8992 42.8553 25.9419C42.9526 25.9847 43.0575 26.0074 43.1638 26.0089C43.3476 25.995 43.5281 25.953 43.6993 25.8845C43.9376 25.8016 44.214 25.7014 44.5249 25.5839C44.6148 25.554 44.7184 25.5125 44.8359 25.4596C44.9733 25.4005 45.1154 25.3531 45.2608 25.3179C45.9725 25.0346 46.4873 24.8239 46.7982 24.6926C47.7275 24.278 48.2837 24.0224 48.4461 23.936C48.5928 23.8581 48.7221 23.7511 48.8261 23.6216C48.9065 23.5 48.9464 23.3561 48.9401 23.2105C48.9422 23.0087 48.8653 22.814 48.7259 22.6681C48.658 22.5954 48.5755 22.5378 48.4838 22.4991C48.3922 22.4604 48.2934 22.4415 48.1939 22.4435C48.1075 22.4489 48.023 22.4712 47.9452 22.5092L47.4546 22.7337C47.0158 22.9375 46.4803 23.1552 45.8689 23.3729V16.2559C45.8684 16.097 45.9101 15.9409 45.9898 15.8033C46.0686 15.6694 46.1903 15.5659 46.3352 15.5097L47.9901 14.8464C48.0885 16.5886 48.3722 18.3154 48.8365 19.9975C49.2314 21.4028 49.8234 22.7452 50.595 23.9844C50.902 24.5877 51.3137 25.1316 51.811 25.5908C52.103 25.8349 52.4673 25.9758 52.8475 25.9916C52.9784 25.9917 53.1079 25.9636 53.2271 25.9094C53.3463 25.8552 53.4524 25.776 53.5384 25.6772C53.6341 25.579 53.7093 25.4628 53.7597 25.3353C53.8101 25.2078 53.8347 25.0715 53.8321 24.9344C53.8376 24.7589 53.7907 24.5857 53.6974 24.4369C53.543 24.2289 53.3707 24.0347 53.1826 23.8565C51.9458 22.6335 51.0475 21.5522 50.5155 19.9768L51.4448 19.1131C52.4675 18.2252 53.1239 17.6102 53.4244 17.2924Z" fill="#333333"/>
<path d="M40.1907 14.1247H37.8208L37.8415 11.3885H41.5035C42.1496 11.3885 42.4743 11.0914 42.4743 10.5075C42.4852 10.3878 42.4694 10.2672 42.4282 10.1543C42.387 10.0415 42.3213 9.93908 42.2359 9.85453C42.0232 9.70295 41.764 9.63082 41.5035 9.6507H34.7149C34.0412 9.6507 33.6992 9.93744 33.6992 10.5075C33.6992 11.0775 34.0447 11.3885 34.7149 11.3885H36.1521C36.1521 15.0299 36.0105 17.7073 35.7306 19.3346C35.5819 20.2 35.3505 21.0491 35.0397 21.8704C34.7422 22.6853 34.3625 23.4678 33.9065 24.2059C33.8376 24.3145 33.7809 24.4303 33.7372 24.5513C33.7128 24.6461 33.7011 24.7437 33.7027 24.8415C33.7019 24.9652 33.7256 25.0878 33.7724 25.2022C33.8193 25.3167 33.8883 25.4207 33.9756 25.5083C34.0586 25.5985 34.1596 25.6703 34.2721 25.7191C34.3845 25.7679 34.506 25.7926 34.6286 25.7916C34.9429 25.7916 35.2677 25.5636 35.5959 25.1179C35.9967 24.5174 36.3118 23.8639 36.5321 23.1763C36.8862 22.1768 37.151 21.1478 37.3233 20.1015C37.5398 18.7037 37.6851 17.2958 37.7586 15.8832H39.6587C39.7478 15.875 39.8376 15.8851 39.9226 15.9131C40.0076 15.941 40.0859 15.9861 40.1527 16.0456C40.2022 16.1083 40.2381 16.1806 40.2583 16.2579C40.2785 16.3352 40.2826 16.4158 40.2702 16.4947L40.2253 17.6521C40.1389 19.5868 40.056 21.0274 39.9834 21.936C39.9566 22.524 39.8745 23.1081 39.7382 23.6807C39.5758 24.1471 39.1681 24.3717 38.5255 24.3717C38.2248 24.345 37.9248 24.4298 37.6826 24.6101C37.5928 24.7004 37.5231 24.8086 37.4778 24.9276C37.4326 25.0467 37.4129 25.1739 37.42 25.301C37.4067 25.4322 37.42 25.5647 37.4592 25.6905C37.4984 25.8164 37.5626 25.933 37.648 26.0334C37.8753 26.1993 38.1557 26.2756 38.4357 26.2477C38.8702 26.2414 39.3017 26.1739 39.7174 26.0473C40.0902 25.9597 40.4423 25.8001 40.7539 25.5774C41.0616 25.3076 41.2707 24.9429 41.3481 24.541C41.5191 23.7632 41.6277 22.973 41.6728 22.1779L41.8283 20.219L41.9838 15.7001C42.0089 15.4943 41.9911 15.2856 41.9317 15.087C41.8722 14.8884 41.7723 14.7043 41.6383 14.5462C41.4378 14.3821 41.2062 14.2602 40.9575 14.1878C40.7088 14.1153 40.448 14.0939 40.1907 14.1247Z" fill="#333333"/>
<path d="M61.7472 11.0981H59.3289C58.2924 11.0981 57.7846 11.6095 57.7846 12.6217L57.7639 18.5467C57.7743 19.7538 57.6795 20.9595 57.4806 22.1501C57.3423 23.0346 57.1035 23.9005 56.7689 24.7309C56.6466 24.9915 56.574 25.2727 56.5547 25.56C56.5547 26.0851 56.8345 26.3512 57.3873 26.3512C57.7639 26.3512 58.0782 25.9642 58.327 25.2076C58.8338 23.6833 59.1381 22.0989 59.2321 20.4952H61.799V24.1124C61.799 24.5685 61.5848 24.8034 61.1426 24.8034H60.5588C60.4512 24.7868 60.3413 24.7959 60.2379 24.8298C60.1345 24.8638 60.0406 24.9217 59.9639 24.9988C59.8871 25.0759 59.8296 25.1701 59.7961 25.2736C59.7626 25.3771 59.754 25.4871 59.7711 25.5946C59.7711 26.1335 60.0647 26.4099 60.6451 26.4099H61.5088C62.0093 26.4521 62.5062 26.2943 62.8907 25.9711C63.2187 25.565 63.3749 25.0468 63.326 24.527V12.7806C63.3329 11.6544 62.8009 11.0981 61.7472 11.0981ZM61.7472 18.9786H59.1458L59.1665 16.5084H61.7472V18.9786ZM61.7472 14.9917H59.1665L59.1907 13.3576C59.1907 12.9016 59.3738 12.6666 59.7573 12.6666H61.1599C61.2399 12.6589 61.3206 12.6674 61.3972 12.6918C61.4738 12.7161 61.5447 12.7557 61.6056 12.8083C61.71 12.9322 61.7609 13.0925 61.7472 13.2539V14.9917Z" fill="#333333"/>
<path d="M74.8786 24.2023L72.8057 22.9344C72.5995 22.7992 72.361 22.7217 72.1147 22.7098C72.0032 22.693 71.8893 22.7022 71.7819 22.7367C71.6745 22.7712 71.5765 22.8301 71.4956 22.9086C71.4147 22.9872 71.353 23.0834 71.3154 23.1898C71.2778 23.2961 71.2652 23.4097 71.2787 23.5217C71.2785 23.5877 71.2929 23.6529 71.321 23.7127C71.3491 23.7724 71.3901 23.8252 71.4411 23.8672C71.5906 23.9952 71.7554 24.1043 71.9316 24.1919L74.1323 25.5289C74.6367 25.826 74.6609 25.9746 74.8682 25.9746C75.3933 25.9746 75.6593 25.6706 75.6593 25.0729C75.6628 24.7378 75.4002 24.451 74.8786 24.2023Z" fill="#333333"/>
<path d="M72.3082 22.167C72.5984 22.0447 72.8307 21.816 72.9577 21.5279C72.9924 21.4419 73.0067 21.3491 72.9995 21.2566C72.9924 21.1642 72.9639 21.0747 72.9164 20.995C72.8689 20.9154 72.8036 20.8479 72.7257 20.7977C72.6478 20.7475 72.5593 20.716 72.4671 20.7056C72.2495 20.6469 71.9144 20.7575 71.4687 21.0511C71.2289 21.163 71.0367 21.3565 70.9263 21.597C70.8916 21.6832 70.8773 21.7763 70.8847 21.869C70.892 21.9617 70.9208 22.0514 70.9687 22.1311C71.0165 22.2108 71.0822 22.2783 71.1606 22.3283C71.239 22.3783 71.3279 22.4094 71.4203 22.4192C71.7371 22.4464 72.053 22.3567 72.3082 22.167Z" fill="#333333"/>
<path d="M57.8009 9.38455H62.223V10.0755C62.223 10.6283 62.5235 10.9116 63.1247 10.9116C63.2394 10.9291 63.3566 10.9197 63.4671 10.8842C63.5776 10.8487 63.6783 10.7881 63.7614 10.707C63.8444 10.626 63.9076 10.5268 63.9457 10.4172C63.9839 10.3076 63.9961 10.1906 63.9814 10.0755V9.38455H69.212V10.0755C69.212 10.6283 69.5091 10.9116 70.0929 10.9116C70.6768 10.9116 70.9946 10.6283 70.9946 10.0755V9.38455H75.2129C75.8382 9.38455 76.1595 9.11162 76.1595 8.56921C76.1595 8.02681 75.8382 7.75733 75.2129 7.75733H70.9946V6.96617C70.9946 6.42722 70.6906 6.1543 70.0929 6.1543C69.4953 6.1543 69.212 6.42722 69.212 6.96617V7.75733H63.9814V6.96617C63.9814 6.42722 63.6947 6.1543 63.1247 6.1543C62.5546 6.1543 62.223 6.42722 62.223 6.96617V7.75733H57.8009C57.1859 7.75733 56.875 8.03026 56.875 8.56921C56.875 9.10816 57.1859 9.38455 57.8009 9.38455Z" fill="#333333"/>
<path d="M69.8469 18.5566C69.3079 18.5566 69.035 18.8572 69.035 19.4583V24.2951C69.0358 24.4662 68.9772 24.6322 68.8692 24.765C68.7453 24.8694 68.585 24.9203 68.4235 24.9066H67.888C67.318 24.9066 67.0312 25.1795 67.0312 25.7219C67.0312 26.2643 67.3767 26.5338 68.0228 26.5338H68.8692C69.1162 26.5656 69.3672 26.5396 69.6023 26.4578C69.8375 26.376 70.0505 26.2406 70.2244 26.0623C70.3983 25.8841 70.5283 25.6678 70.6043 25.4307C70.6803 25.1935 70.7001 24.942 70.6622 24.6959V19.4583C70.6622 18.8572 70.3858 18.5566 69.8469 18.5566Z" fill="#333333"/>
<path d="M68.4176 23.5114C68.4136 23.3108 68.3376 23.1183 68.2034 22.969C68.1343 22.9096 68.053 22.8662 67.9653 22.8417C67.8775 22.8172 67.7854 22.8123 67.6956 22.8274L66.787 23.2696L65.3152 23.9191C64.4999 24.2646 64.1026 24.6101 64.1303 24.9348C64.1352 25.1465 64.2147 25.3496 64.3548 25.5083C64.4123 25.5615 64.4798 25.6026 64.5533 25.6293C64.6269 25.656 64.705 25.6677 64.7832 25.6638H64.8765C65.0717 25.6187 65.2624 25.5563 65.4465 25.4772L66.2757 25.1317C67.7578 24.4926 68.4591 23.964 68.4176 23.5114Z" fill="#333333"/>
<path d="M71.9696 12.5556C71.6448 13.1118 71.4997 13.4538 71.517 13.592C71.5757 14.0549 71.8867 14.2553 72.436 14.1828C72.7814 14.1413 73.0716 13.8753 73.3549 13.3882C73.6382 12.901 73.8006 12.4795 73.773 12.2723C73.7142 11.8093 73.4068 11.6089 72.8575 11.6815C72.588 11.7333 72.2909 12.0201 71.9696 12.5556Z" fill="#333333"/>
<path d="M67.004 11.8167C66.4547 11.7372 66.1438 11.9238 66.0781 12.3694C66.0847 12.5111 66.1237 12.6494 66.1921 12.7736C66.2785 12.9706 66.3372 13.1018 66.3683 13.1813C66.6413 13.7928 66.9453 14.1245 67.27 14.1728C67.8193 14.2523 68.1337 14.0381 68.2063 13.5302C68.2115 13.1557 68.0897 12.7903 67.8608 12.4938C67.7763 12.3251 67.6557 12.177 67.5077 12.06C67.3596 11.943 67.1877 11.8599 67.004 11.8167Z" fill="#333333"/>
<path d="M67.9821 22.4992C68.4831 22.4992 68.7353 22.2712 68.7353 21.8082C68.7353 21.5837 68.5695 21.3487 68.2412 21.1173C67.9983 20.9183 67.7056 20.7893 67.3948 20.7441C66.9215 20.7441 66.6797 20.9583 66.6797 21.3833C66.6797 21.6113 66.9319 21.9084 67.4466 22.2919C67.5987 22.416 67.7862 22.4886 67.9821 22.4992Z" fill="#333333"/>
<path d="M38.4179 9.10829C38.6147 8.79304 38.7153 8.42724 38.7073 8.05569C38.6994 7.68414 38.5833 7.32298 38.3732 7.01643C38.1631 6.70989 37.8681 6.47127 37.5244 6.32982C37.1808 6.18837 36.8033 6.15024 36.4383 6.22007C36.2415 6.53531 36.1409 6.90111 36.1489 7.27267C36.1568 7.64422 36.273 8.00538 36.4831 8.31193C36.6932 8.61847 36.9881 8.85708 37.3318 8.99853C37.6754 9.13997 38.0529 9.17812 38.4179 9.10829Z" fill="#333333"/>
<path d="M75.6331 20.5127C74.2063 20.3192 73.4186 19.1549 72.7069 18.1703H75.4466C75.621 18.1703 75.7883 18.1013 75.9119 17.9783C76.0356 17.8553 76.1055 17.6883 76.1064 17.5139V17.3999C76.1055 17.2255 76.0356 17.0585 75.9119 16.9355C75.7883 16.8125 75.621 16.7435 75.4466 16.7435H69.418C69.6694 16.1429 69.8885 15.5294 70.0744 14.9055H74.8143C74.9884 14.9055 75.1554 14.8363 75.2785 14.7132C75.4016 14.5901 75.4707 14.4232 75.4707 14.2491V14.1351C75.4707 13.961 75.4016 13.794 75.2785 13.6709C75.1554 13.5478 74.9884 13.4787 74.8143 13.4787H70.451C70.5615 13.0088 70.6479 12.6046 70.7239 12.2107C70.745 12.1004 70.7436 11.9869 70.7199 11.8771C70.6961 11.7673 70.6505 11.6634 70.5857 11.5716C70.5233 11.4789 70.4422 11.4003 70.3476 11.3408C70.253 11.2813 70.147 11.2422 70.0364 11.2261C69.8273 11.1979 69.6153 11.2514 69.4448 11.3757C69.2742 11.4999 69.1582 11.6852 69.1209 11.8929C69.0172 12.4353 68.8998 12.9673 68.7754 13.4787H64.9095C64.7354 13.4787 64.5685 13.5478 64.4454 13.6709C64.3223 13.794 64.2531 13.961 64.2531 14.1351V14.2491C64.2531 14.4232 64.3223 14.5901 64.4454 14.7132C64.5685 14.8363 64.7354 14.9055 64.9095 14.9055H68.3643C68.1606 15.5335 67.916 16.1475 67.6319 16.7435H64.3429C64.2451 16.7367 64.1469 16.7501 64.0544 16.7828C63.9619 16.8156 63.8772 16.867 63.8055 16.9339C63.7337 17.0008 63.6765 17.0818 63.6374 17.1718C63.5983 17.2617 63.5781 17.3588 63.5781 17.4569C63.5781 17.555 63.5983 17.652 63.6374 17.742C63.6765 17.832 63.7337 17.9129 63.8055 17.9798C63.8772 18.0468 63.9619 18.0982 64.0544 18.131C64.1469 18.1637 64.2451 18.1771 64.3429 18.1703H66.8165C66.191 19.1632 65.2809 19.9446 64.2047 20.4125C64.0259 20.4876 63.88 20.6246 63.7937 20.7984C63.7075 20.9722 63.6866 21.1712 63.7349 21.3591V21.3764C63.7615 21.4915 63.8126 21.5996 63.8848 21.6932C63.9569 21.7868 64.0484 21.8637 64.1529 21.9188C64.2558 21.9736 64.3695 22.0051 64.4859 22.0111C64.6023 22.0171 64.7187 21.9973 64.8266 21.9533C66.3813 21.328 67.6975 20.0566 68.7374 18.1703H70.7792C70.7932 18.2207 70.8129 18.2694 70.8379 18.3154C71.4563 19.3519 72.8417 21.8497 75.4673 22.1779H75.5329C75.6997 22.1768 75.8604 22.1155 75.9855 22.0052C76.0565 21.9403 76.1131 21.8612 76.1517 21.7732C76.1904 21.6852 76.2103 21.59 76.2101 21.4938V21.1864C76.2082 21.0242 76.1494 20.8679 76.044 20.7447C75.9385 20.6216 75.7931 20.5394 75.6331 20.5127Z" fill="#333333"/>
<path d="M28.7011 8.08936C26.5812 8.33405 24.547 9.06739 22.7587 10.2317C20.9703 11.3959 19.4766 12.9593 18.395 14.7989C17.6454 16.0781 17.1213 17.4768 16.8458 18.9337C15.7185 16.2421 13.7576 13.9832 11.2512 12.4887C8.74479 10.9943 5.82514 10.3433 2.92131 10.6313C2.51461 12.7243 2.59849 14.8829 3.16636 16.938C3.73423 18.993 4.77063 20.8885 6.19424 22.4757C7.63548 24.067 9.42353 25.3053 11.42 26.0948C13.4165 26.8843 15.5679 27.2039 17.7077 27.0287C19.8102 26.7905 21.8279 26.0641 23.5996 24.9073C25.3714 23.7506 26.8481 22.1956 27.9119 20.3665C28.9845 18.5207 29.6141 16.4512 29.751 14.3208C29.888 12.1904 29.5285 10.0573 28.7011 8.08936Z" fill="#3D9D35"/>
<path d="M16.9763 24.5307C17.8801 24.5307 18.6128 23.391 18.6128 21.9851C18.6128 20.5792 17.8801 19.4395 16.9763 19.4395C16.0725 19.4395 15.3398 20.5792 15.3398 21.9851C15.3398 23.391 16.0725 24.5307 16.9763 24.5307Z" fill="white"/>
<path d="M17.706 23.4392C18.2081 23.4392 18.6152 22.8693 18.6152 22.1664C18.6152 21.4634 18.2081 20.8936 17.706 20.8936C17.2039 20.8936 16.7969 21.4634 16.7969 22.1664C16.7969 22.8693 17.2039 23.4392 17.706 23.4392Z" fill="#333333"/>
<path d="M20.9763 23.8031C21.8801 23.8031 22.6128 22.6634 22.6128 21.2575C22.6128 19.8516 21.8801 18.7119 20.9763 18.7119C20.0725 18.7119 19.3398 19.8516 19.3398 21.2575C19.3398 22.6634 20.0725 23.8031 20.9763 23.8031Z" fill="white"/>
<path d="M21.706 22.7121C22.2081 22.7121 22.6152 22.1423 22.6152 21.4393C22.6152 20.7364 22.2081 20.1665 21.706 20.1665C21.2039 20.1665 20.7969 20.7364 20.7969 21.4393C20.7969 22.1423 21.2039 22.7121 21.706 22.7121Z" fill="#333333"/>
</svg>
