<svg width="1440" height="800" viewBox="0 0 1440 800" fill="none" xmlns="http://www.w3.org/2000/svg">
<g clip-path="url(#clip0_192_5843)">
<mask id="mask0_192_5843" style="mask-type:luminance" maskUnits="userSpaceOnUse" x="0" y="0" width="1338" height="800">
<path d="M0 0H1338V461.34C1338 551.158 1302.32 637.298 1238.81 700.809C1175.3 764.32 1089.16 800 999.34 800H0V0Z" fill="white"/>
</mask>
<g mask="url(#mask0_192_5843)">
<path d="M1342 0H-98V800H1342V0Z" fill="#81E6FD"/>
<path d="M1006 770C1177.21 770 1316 631.208 1316 460C1316 288.792 1177.21 150 1006 150C834.792 150 696 288.792 696 460C696 631.208 834.792 770 1006 770Z" fill="#F3D400"/>
<path d="M-59 1178C216.038 1178 439 995.108 439 769.5C439 543.892 216.038 361 -59 361C-334.038 361 -557 543.892 -557 769.5C-557 995.108 -334.038 1178 -59 1178Z" fill="#006D3B"/>
<path d="M611 1108C808.166 1108 968 984.431 968 832C968 679.569 808.166 556 611 556C413.834 556 254 679.569 254 832C254 984.431 413.834 1108 611 1108Z" fill="#3D9D35"/>
<path d="M736.8 519.17C730.72 519.953 724.905 522.135 719.81 525.544C714.716 528.954 710.482 533.498 707.44 538.82C705.249 542.717 703.747 546.962 703 551.37C699.106 548.447 694.696 546.286 690 545C684.085 543.386 677.877 543.166 671.863 544.356C665.85 545.546 660.194 548.115 655.34 551.86C657.575 557.567 661.102 562.679 665.644 566.794C670.187 570.91 675.621 573.917 681.52 575.58C690.03 577.935 699.087 577.332 707.21 573.87C713.135 572.903 718.76 570.591 723.653 567.111C728.546 563.632 732.576 559.077 735.434 553.797C738.293 548.517 739.903 542.652 740.141 536.653C740.38 530.654 739.24 524.68 736.81 519.19L736.8 519.17Z" fill="#006D3B"/>
<path d="M709.471 564.745C711.741 563.733 712.305 560.051 710.731 556.52C709.156 552.989 706.04 550.947 703.77 551.959C701.5 552.971 700.936 556.654 702.511 560.185C704.085 563.715 707.201 565.757 709.471 564.745Z" fill="white"/>
<path d="M710.075 561.193C711.336 560.631 711.72 558.744 710.933 556.979C710.146 555.213 708.486 554.238 707.225 554.8C705.964 555.362 705.58 557.249 706.367 559.015C707.154 560.78 708.814 561.756 710.075 561.193Z" fill="#333333"/>
<path d="M720.28 560.023C722.55 559.011 723.114 555.328 721.539 551.798C719.965 548.267 716.849 546.225 714.579 547.237C712.309 548.249 711.745 551.932 713.319 555.462C714.894 558.993 718.01 561.035 720.28 560.023Z" fill="white"/>
<path d="M720.892 556.461C722.153 555.899 722.537 554.012 721.75 552.247C720.963 550.481 719.302 549.506 718.041 550.068C716.78 550.63 716.396 552.517 717.183 554.283C717.97 556.048 719.631 557.023 720.892 556.461Z" fill="#333333"/>
<mask id="mask1_192_5843" style="mask-type:luminance" maskUnits="userSpaceOnUse" x="465" y="402" width="1467" height="1313">
<path d="M1198.5 1715C1603.6 1715 1932 1421.07 1932 1058.5C1932 695.925 1603.6 402 1198.5 402C793.399 402 465 695.925 465 1058.5C465 1421.07 793.399 1715 1198.5 1715Z" fill="white"/>
</mask>
<g mask="url(#mask1_192_5843)">
<path d="M1932 1058.5C1932 1421.07 1603.6 1715 1198.5 1715C793.4 1715 465 1421.07 465 1058.5C465 863 560.47 687.5 712 567.2C841.44 464.41 1011.83 402 1198.5 402C1603.6 402 1932 695.93 1932 1058.5Z" fill="#8EB91F"/>
<path d="M684 569C684 569 965 526 1070 757C1175 988 1131 1041 1131 1041L1342 810L1356 628C1356 628 1007 456 729 555L684 569Z" fill="white"/>
</g>
</g>
<path d="M567.601 510C563.416 511.143 559.554 513.241 556.316 516.128C553.078 519.015 550.554 522.613 548.941 526.64C547.666 529.859 547.008 533.288 547.001 536.75C545.236 533.894 542.962 531.385 540.291 529.35C536.834 526.729 532.814 524.947 528.55 524.146C524.286 523.344 519.894 523.544 515.721 524.73C515.666 529.071 516.627 533.365 518.528 537.269C520.429 541.172 523.216 544.576 526.668 547.21C530.12 549.843 534.14 551.633 538.406 552.435C542.673 553.237 547.069 553.03 551.241 551.83C551.241 551.73 551.241 551.62 551.241 551.52C555.423 550.382 559.281 548.284 562.509 545.392C565.737 542.5 568.245 538.895 569.833 534.863C571.422 530.831 572.048 526.483 571.66 522.167C571.272 517.851 569.883 513.685 567.601 510Z" fill="#333333"/>
<path d="M550.781 546.27L552.981 558.55C553.059 558.97 552.969 559.403 552.732 559.758C552.495 560.112 552.129 560.361 551.711 560.45L541.181 562.77C540.838 562.832 540.484 562.784 540.17 562.631C539.855 562.479 539.597 562.232 539.433 561.924C539.268 561.616 539.206 561.264 539.254 560.918C539.302 560.573 539.459 560.251 539.701 560L543.301 556.66C543.489 556.482 543.633 556.263 543.721 556.02C543.81 555.777 543.841 555.517 543.811 555.26L542.911 547.19C542.887 546.971 542.906 546.75 542.969 546.539C543.031 546.328 543.135 546.132 543.275 545.962C543.415 545.792 543.588 545.652 543.783 545.55C543.978 545.449 544.192 545.387 544.411 545.37L549.011 544.97C549.415 544.932 549.818 545.043 550.144 545.283C550.471 545.523 550.697 545.874 550.781 546.27Z" fill="#333333"/>
<path d="M552.351 546.61L554.351 558.92C554.417 559.342 554.646 559.721 554.988 559.976C555.329 560.232 555.757 560.345 556.181 560.29L566.881 558.93C567.239 558.884 567.573 558.722 567.83 558.469C568.088 558.215 568.255 557.884 568.306 557.526C568.357 557.169 568.289 556.804 568.113 556.489C567.937 556.173 567.662 555.924 567.331 555.78L562.821 553.84C562.575 553.744 562.356 553.59 562.182 553.392C562.008 553.193 561.884 552.956 561.821 552.7L559.961 544.8C559.91 544.588 559.818 544.388 559.69 544.212C559.562 544.036 559.401 543.887 559.215 543.773C559.029 543.66 558.822 543.585 558.607 543.551C558.392 543.518 558.172 543.528 557.961 543.58L553.481 544.75C553.097 544.868 552.771 545.123 552.563 545.466C552.354 545.808 552.279 546.215 552.351 546.61Z" fill="#333333"/>
<path d="M1029.59 543.8V606.61C1029.59 608.759 1030.43 610.823 1031.92 612.37C1033.41 613.917 1035.44 614.827 1037.59 614.91L1091.84 616.99C1093.66 617.058 1095.45 616.528 1096.93 615.48C1098.42 614.432 1099.52 612.925 1100.07 611.19C1100.62 609.455 1100.58 607.588 1099.96 605.877C1099.34 604.166 1098.18 602.706 1096.65 601.72L1075.87 588.36C1074.78 587.659 1073.87 586.712 1073.21 585.596C1072.55 584.479 1072.16 583.223 1072.08 581.93L1069.36 541.14C1069.29 540.039 1068.99 538.964 1068.5 537.978C1068 536.991 1067.32 536.113 1066.48 535.396C1065.64 534.678 1064.67 534.134 1063.62 533.797C1062.57 533.459 1061.46 533.334 1060.36 533.43L1037.19 535.54C1035.12 535.715 1033.19 536.661 1031.78 538.191C1030.37 539.72 1029.59 541.722 1029.59 543.8Z" fill="#333333"/>
<path d="M1096.86 541.11L1146.42 579.71C1148.11 581.03 1150.25 581.642 1152.39 581.418C1154.52 581.194 1156.49 580.152 1157.87 578.51L1192.87 536.99C1194.05 535.598 1194.74 533.857 1194.83 532.035C1194.92 530.214 1194.4 528.413 1193.37 526.912C1192.33 525.411 1190.83 524.292 1189.09 523.73C1187.36 523.167 1185.49 523.192 1183.77 523.8L1160.47 531.99C1159.24 532.415 1157.93 532.545 1156.64 532.372C1155.36 532.198 1154.13 531.725 1153.06 530.99L1119.22 508.08C1118.3 507.459 1117.27 507.027 1116.19 506.81C1115.1 506.593 1113.98 506.596 1112.9 506.817C1111.81 507.039 1110.78 507.476 1109.87 508.101C1108.96 508.727 1108.18 509.529 1107.58 510.46L1095 530.08C1093.88 531.82 1093.45 533.915 1093.79 535.955C1094.14 537.996 1095.23 539.834 1096.86 541.11Z" fill="#333333"/>
<path d="M1167.11 352.4C1127.22 361.4 1091.47 387.1 1072.85 427.34C1066.75 440.521 1062.94 454.647 1061.59 469.11C1054.46 455.817 1045.13 443.827 1034 433.65C1001.24 403.78 958.29 393.91 918.06 401.13C914.59 441.85 928.39 483.7 961.15 513.57C976.69 527.744 995.283 538.154 1015.49 543.994C1035.7 549.834 1056.97 550.948 1077.68 547.25C1117.57 538.25 1152.36 512.99 1170.98 472.76C1189.6 432.53 1186.1 388.6 1167.11 352.4Z" fill="#3D9D35"/>
<path d="M1068.14 523.624C1076.95 522.78 1083.03 510.98 1081.72 497.269C1080.4 483.558 1072.2 473.127 1063.38 473.971C1054.57 474.815 1048.49 486.614 1049.8 500.325C1051.12 514.037 1059.32 524.468 1068.14 523.624Z" fill="white"/>
<path d="M1074.21 512.313C1079.11 511.844 1082.55 505.906 1081.89 499.051C1081.24 492.195 1076.73 487.018 1071.83 487.487C1066.94 487.956 1063.5 493.894 1064.15 500.749C1064.81 507.605 1069.31 512.782 1074.21 512.313Z" fill="#333333"/>
<path d="M1106.46 512.799C1115.27 511.955 1121.35 500.156 1120.04 486.445C1118.73 472.733 1110.52 462.302 1101.71 463.146C1092.89 463.99 1086.81 475.789 1088.13 489.501C1089.44 503.212 1097.65 513.643 1106.46 512.799Z" fill="white"/>
<path d="M1112.53 501.479C1117.43 501.01 1120.87 495.072 1120.21 488.216C1119.56 481.361 1115.05 476.183 1110.15 476.652C1105.26 477.121 1101.82 483.059 1102.47 489.915C1103.13 496.771 1107.63 501.948 1112.53 501.479Z" fill="#333333"/>
<path d="M846.098 436L836.368 442.76C834.048 444.37 830.428 442.59 831.368 440.32L833.578 435.32C833.578 435.32 823.698 435.32 817.768 427.82C813.488 422.4 815.838 412.17 818.948 410.01C820.088 409.22 824.448 414.81 825.618 415.57L835.738 422.15C833.928 423.8 832.738 425.36 832.518 426.78C832.428 427.243 832.448 427.72 832.576 428.173C832.705 428.627 832.938 429.044 833.258 429.39C836.641 433.017 841.181 435.353 846.098 436Z" fill="#333333"/>
<path d="M865.431 433.17L853.431 442.58C851.211 444.33 847.491 442.76 848.351 440.44L850.262 435.29C849.276 435.322 848.29 435.275 847.311 435.15C843.901 434.77 838.221 433.41 834.051 428.72C832.691 427.19 834.052 425.04 836.652 422.72C842.882 417.17 856.401 410.62 858.501 408.97C859.581 408.12 852.091 419.36 856.251 422.13L865.142 429.73C865.457 429.88 865.727 430.111 865.925 430.398C866.124 430.685 866.243 431.019 866.273 431.367C866.302 431.715 866.24 432.064 866.092 432.38C865.945 432.697 865.717 432.969 865.431 433.17Z" fill="#333333"/>
<path d="M865.898 404.18C858.208 417.71 845.568 425.32 832.268 426.75C832.198 426.57 831.148 426.25 831.098 426.06C820.738 420.47 813.798 410.74 811.588 398.16C810.554 392.119 810.934 385.92 812.699 380.05C814.463 374.18 817.564 368.8 821.758 364.33C828.631 367.871 834.344 373.309 838.218 380C841.757 374.769 846.391 370.369 851.799 367.108C857.207 363.846 863.26 361.799 869.538 361.11C871.997 368.141 872.943 375.612 872.316 383.034C871.689 390.455 869.502 397.661 865.898 404.18Z" fill="#8EB91F"/>
<mask id="mask2_192_5843" style="mask-type:luminance" maskUnits="userSpaceOnUse" x="836" y="393" width="12" height="14">
<path d="M837.069 401.11C836.389 405.46 838.349 405.43 841.149 405.87C843.949 406.31 846.519 407.04 847.199 402.69C847.879 398.34 846.199 394.46 843.369 394.03C840.539 393.6 837.749 396.76 837.069 401.11Z" fill="white"/>
</mask>
<g mask="url(#mask2_192_5843)">
<path d="M837.069 401.11C836.389 405.46 838.349 405.43 841.149 405.87C843.949 406.31 846.519 407.04 847.199 402.69C847.879 398.34 846.199 394.46 843.369 394.03C840.539 393.6 837.749 396.76 837.069 401.11Z" fill="white"/>
<path d="M842.565 402.51C842.905 400.333 841.92 398.371 840.365 398.128C838.81 397.885 837.274 399.452 836.933 401.629C836.592 403.807 837.577 405.769 839.132 406.012C840.687 406.255 842.224 404.687 842.565 402.51Z" fill="#333333"/>
</g>
<mask id="mask3_192_5843" style="mask-type:luminance" maskUnits="userSpaceOnUse" x="823" y="391" width="11" height="13">
<path d="M823.409 398.83C822.729 403.18 824.689 403.16 827.479 403.59C830.269 404.02 832.849 404.76 833.539 400.42C834.229 396.08 832.539 392.19 829.709 391.75C826.879 391.31 824.089 394.48 823.409 398.83Z" fill="white"/>
</mask>
<g mask="url(#mask3_192_5843)">
<path d="M823.409 398.83C822.729 403.18 824.689 403.16 827.479 403.59C830.269 404.02 832.849 404.76 833.539 400.42C834.229 396.08 832.539 392.19 829.709 391.75C826.879 391.31 824.089 394.48 823.409 398.83Z" fill="white"/>
<path d="M828.889 400.244C829.229 398.067 828.245 396.105 826.69 395.861C825.134 395.618 823.598 397.186 823.257 399.363C822.917 401.54 823.901 403.502 825.456 403.745C827.011 403.989 828.548 402.421 828.889 400.244Z" fill="#333333"/>
</g>
<path d="M1053.48 360.14C1055.35 354.74 1054.68 348.3 1050.03 342.55C1048.06 340.12 1045.36 338.389 1042.33 337.61C1028.22 333.94 1017.33 345.68 1019.79 357.85C1020.38 360.809 1021.72 363.566 1023.69 365.85H1023.64L1034.21 380L1038.47 385.69C1039.05 386.463 1039.83 387.058 1040.73 387.407C1041.62 387.756 1042.6 387.845 1043.55 387.663C1044.5 387.482 1045.37 387.037 1046.08 386.38C1046.78 385.724 1047.29 384.881 1047.54 383.95L1049.39 377.1L1053.48 360.14Z" fill="white"/>
<path d="M1036.37 362.05C1040.79 362.05 1044.37 358.468 1044.37 354.05C1044.37 349.632 1040.79 346.05 1036.37 346.05C1031.95 346.05 1028.37 349.632 1028.37 354.05C1028.37 358.468 1031.95 362.05 1036.37 362.05Z" fill="#F3D400"/>
</g>
<defs>
<clipPath id="clip0_192_5843">
<rect width="1440" height="800" fill="white"/>
</clipPath>
</defs>
</svg>
