<svg width="390" height="760" viewBox="0 0 390 760" fill="none" xmlns="http://www.w3.org/2000/svg">
<g clip-path="url(#clip0_192_5680)">
<mask id="mask0_192_5680" style="mask-type:luminance" maskUnits="userSpaceOnUse" x="0" y="0" width="326" height="759">
<path d="M0 0H326V596.17C326 617.553 321.788 638.727 313.605 658.482C305.422 678.238 293.428 696.188 278.308 711.308C263.188 726.428 245.238 738.422 225.482 746.605C205.727 754.788 184.553 759 163.17 759H0V0Z" fill="white"/>
</mask>
<g mask="url(#mask0_192_5680)">
<path d="M583.381 -60.09H-594.539V831.53H583.381V-60.09Z" fill="#81E6FD"/>
<path d="M308.529 806.99C448.578 806.99 562.109 693.458 562.109 553.41C562.109 413.362 448.578 299.83 308.529 299.83C168.481 299.83 54.9492 413.362 54.9492 553.41C54.9492 693.458 168.481 806.99 308.529 806.99Z" fill="#F3D400"/>
<path d="M-14.5794 1083.48C146.704 1083.48 277.451 982.399 277.451 857.71C277.451 733.021 146.704 631.94 -14.5794 631.94C-175.863 631.94 -306.609 733.021 -306.609 857.71C-306.609 982.399 -175.863 1083.48 -14.5794 1083.48Z" fill="#3D9D35"/>
<path d="M88.3323 601.81C83.362 602.455 78.6087 604.243 74.4449 607.033C70.281 609.823 66.8198 613.539 64.3323 617.89C62.5293 621.073 61.291 624.544 60.6723 628.15C57.477 625.752 53.8566 623.981 50.0023 622.93C45.1655 621.609 40.0883 621.427 35.1693 622.399C30.2504 623.371 25.6236 625.469 21.6523 628.53C23.4855 633.202 26.3763 637.386 30.0979 640.754C33.8195 644.122 38.2707 646.581 43.1023 647.94C50.059 649.864 57.4627 649.37 64.1023 646.54C68.9502 645.75 73.5525 643.859 77.5557 641.013C81.5589 638.167 84.8566 634.441 87.1953 630.122C89.5341 625.803 90.8518 621.005 91.0471 616.097C91.2425 611.189 90.3104 606.302 88.3223 601.81H88.3323Z" fill="#006D3B"/>
<path d="M65.9809 639.102C67.8371 638.275 68.2973 635.261 67.0086 632.37C65.7199 629.48 63.1705 627.808 61.3142 628.635C59.4579 629.463 58.9978 632.477 60.2865 635.367C61.5751 638.258 64.1246 639.93 65.9809 639.102Z" fill="white"/>
<path d="M66.4659 636.181C67.4949 635.722 67.8077 634.181 67.1645 632.738C66.5213 631.296 65.1657 630.498 64.1366 630.957C63.1076 631.416 62.7949 632.957 63.4381 634.4C64.0813 635.842 65.4369 636.64 66.4659 636.181Z" fill="#333333"/>
<path d="M74.8285 635.234C76.6848 634.406 77.1449 631.392 75.8562 628.502C74.5676 625.612 72.0181 623.939 70.1618 624.767C68.3056 625.595 67.8454 628.609 69.1341 631.499C70.4228 634.389 72.9722 636.061 74.8285 635.234Z" fill="white"/>
<path d="M75.3175 632.322C76.3465 631.863 76.6593 630.321 76.0161 628.879C75.3728 627.436 74.0172 626.639 72.9882 627.097C71.9592 627.556 71.6464 629.098 72.2897 630.54C72.9329 631.983 74.2885 632.78 75.3175 632.322Z" fill="#333333"/>
<mask id="mask1_192_5680" style="mask-type:luminance" maskUnits="userSpaceOnUse" x="-134" y="505" width="1200" height="1075">
<path d="M466 1580C797.371 1580 1066 1339.57 1066 1042.98C1066 746.392 797.371 505.96 466 505.96C134.629 505.96 -134 746.392 -134 1042.98C-134 1339.57 134.629 1580 466 1580Z" fill="white"/>
</mask>
<g mask="url(#mask1_192_5680)">
<path d="M1066 1043C1066 1339.59 797.37 1580 466 1580C134.63 1580 -134 1339.57 -134 1043C-134 883.09 -55.91 739.5 68 641.12C173.92 557 313.3 506 466 506C797.37 506 1066 746.4 1066 1043Z" fill="#8EB91F"/>
<path d="M45.1406 642.57C45.1406 642.57 275.001 607.4 360.881 796.36C446.761 985.32 410.781 1028.67 410.781 1028.67L583.381 839.67L594.831 690.79C594.831 690.79 309.351 550.14 82.0006 631.12L45.1406 642.57Z" fill="white"/>
</g>
</g>
<path d="M91.7508 579L84.6108 584C82.9108 585.18 80.2508 583.87 80.9808 582.21L82.6008 578.52C82.6008 578.52 75.3508 578.52 71.0008 573.02C67.8608 569.02 69.5908 561.54 71.8708 559.95C72.7008 559.38 75.8708 563.48 76.7608 564.03L84.1908 568.86C83.0658 569.719 82.2372 570.907 81.8208 572.26C81.757 572.599 81.7735 572.949 81.869 573.28C81.9645 573.612 82.1364 573.917 82.3708 574.17C84.8442 576.817 88.1594 578.524 91.7508 579Z" fill="#333333"/>
<path d="M105.932 576.89L97.1316 583.8C95.5016 585.08 92.7816 583.93 93.4116 582.23L94.8116 578.45C94.0865 578.472 93.3608 578.435 92.6416 578.34C88.9332 578.017 85.4735 576.34 82.9216 573.63C81.9216 572.51 82.9216 570.93 84.8216 569.22C89.3916 565.15 99.3116 560.34 100.822 559.13C101.622 558.51 96.1216 566.75 99.1716 568.79L105.692 574.36C105.932 574.461 106.142 574.625 106.296 574.835C106.451 575.045 106.546 575.293 106.571 575.553C106.595 575.813 106.549 576.075 106.436 576.31C106.324 576.546 106.149 576.746 105.932 576.89Z" fill="#333333"/>
<path d="M106.271 555.63C103.79 560.167 100.252 564.039 95.9584 566.92C91.6643 569.801 86.7396 571.605 81.6008 572.18C81.6008 572.05 80.7808 571.82 80.7408 571.68C73.1508 567.58 68.0508 560.44 66.4308 551.21C65.6744 546.778 65.9543 542.231 67.2485 537.925C68.5427 533.619 70.8161 529.671 73.8908 526.39C78.9376 528.977 83.1394 532.953 86.0008 537.85C88.6025 534.013 92.0068 530.788 95.978 528.396C99.9493 526.005 104.393 524.505 109.001 524C110.802 529.167 111.489 534.656 111.019 540.107C110.548 545.558 108.93 550.848 106.271 555.63Z" fill="#8EB91F"/>
<mask id="mask2_192_5680" style="mask-type:luminance" maskUnits="userSpaceOnUse" x="85" y="548" width="8" height="10">
<path d="M85.1309 553.37C84.6309 556.56 86.0709 556.54 88.1309 556.86C90.1909 557.18 92.0709 557.72 92.5709 554.53C93.0709 551.34 91.8109 548.53 89.7609 548.18C87.7109 547.83 85.6309 550.18 85.1309 553.37Z" fill="white"/>
</mask>
<g mask="url(#mask2_192_5680)">
<path d="M85.1309 553.37C84.6309 556.56 86.0709 556.54 88.1309 556.86C90.1909 557.18 92.0709 557.72 92.5709 554.53C93.0709 551.34 91.8109 548.53 89.7609 548.18C87.7109 547.83 85.6309 550.18 85.1309 553.37Z" fill="white"/>
<path d="M89.1943 554.391C89.4435 552.797 88.7211 551.361 87.5806 551.183C86.4402 551.004 85.3138 552.151 85.0645 553.745C84.8153 555.338 85.5377 556.774 86.6781 556.953C87.8185 557.131 88.9451 555.984 89.1943 554.391Z" fill="#333333"/>
</g>
<mask id="mask3_192_5680" style="mask-type:luminance" maskUnits="userSpaceOnUse" x="75" y="546" width="8" height="10">
<path d="M75.0997 551.7C74.5997 554.89 76.0397 554.87 78.0997 555.19C80.1597 555.51 82.0397 556.05 82.5397 552.86C83.0397 549.67 81.7797 546.86 79.7297 546.51C77.6797 546.16 75.5997 548.51 75.0997 551.7Z" fill="white"/>
</mask>
<g mask="url(#mask3_192_5680)">
<path d="M75.0997 551.7C74.5997 554.89 76.0397 554.87 78.0997 555.19C80.1597 555.51 82.0397 556.05 82.5397 552.86C83.0397 549.67 81.7797 546.86 79.7297 546.51C77.6797 546.16 75.5997 548.51 75.0997 551.7Z" fill="white"/>
<path d="M79.1748 552.722C79.4241 551.129 78.7016 549.693 77.5612 549.514C76.4208 549.336 75.2942 550.483 75.045 552.076C74.7958 553.669 75.5183 555.106 76.6587 555.284C77.7991 555.462 78.9256 554.315 79.1748 552.722Z" fill="#333333"/>
</g>
<path d="M193.57 593.33V636C193.569 637.457 194.134 638.859 195.144 639.909C196.155 640.959 197.534 641.576 198.99 641.63L235.8 643C237.037 643.05 238.255 642.692 239.267 641.98C240.28 641.269 241.029 640.244 241.4 639.063C241.772 637.883 241.743 636.613 241.32 635.45C240.897 634.287 240.103 633.296 239.06 632.63L225 623.57C224.259 623.094 223.639 622.45 223.191 621.692C222.743 620.933 222.479 620.079 222.42 619.2L220.58 591.53C220.531 590.78 220.333 590.048 219.996 589.377C219.659 588.705 219.191 588.108 218.62 587.62C218.048 587.133 217.385 586.765 216.669 586.538C215.953 586.311 215.198 586.23 214.45 586.3L198.72 587.73C197.316 587.848 196.007 588.489 195.054 589.526C194.1 590.563 193.57 591.921 193.57 593.33Z" fill="#333333"/>
<path d="M239.218 591.51L272.838 617.7C273.988 618.595 275.44 619.01 276.889 618.857C278.338 618.704 279.671 617.996 280.608 616.88L304.338 588.71C305.134 587.766 305.597 586.586 305.656 585.353C305.716 584.119 305.368 582.901 304.667 581.884C303.965 580.868 302.949 580.111 301.775 579.729C300.601 579.346 299.333 579.361 298.168 579.77L282.358 585.32C281.532 585.606 280.65 585.696 279.782 585.584C278.914 585.471 278.085 585.158 277.358 584.67L254.358 569.12C253.736 568.699 253.036 568.407 252.299 568.261C251.562 568.115 250.803 568.117 250.068 568.268C249.332 568.419 248.633 568.715 248.014 569.14C247.394 569.564 246.865 570.108 246.458 570.74L237.938 584C237.172 585.185 236.878 586.614 237.115 588.004C237.352 589.395 238.103 590.646 239.218 591.51Z" fill="#333333"/>
<path d="M286.881 463.47C259.821 469.54 235.561 487.01 222.881 514.31C218.743 523.258 216.159 532.845 215.241 542.66C210.412 533.638 204.085 525.502 196.531 518.6C174.301 498.33 145.161 491.6 117.861 496.53C115.511 524.16 124.861 552.53 147.101 572.82C157.643 582.441 170.259 589.506 183.97 593.468C197.682 597.431 212.121 598.184 226.171 595.67C253.231 589.6 276.831 572.43 289.471 545.13C302.111 517.83 299.771 488 286.881 463.47Z" fill="#3D9D35"/>
<path d="M219.744 579.67C225.725 579.097 229.852 571.092 228.961 561.79C228.071 552.488 222.499 545.411 216.518 545.984C210.536 546.557 206.41 554.562 207.3 563.864C208.191 573.166 213.762 580.242 219.744 579.67Z" fill="white"/>
<path d="M223.852 571.986C227.173 571.668 229.503 567.64 229.058 562.989C228.613 558.337 225.56 554.825 222.239 555.143C218.918 555.461 216.588 559.489 217.033 564.14C217.478 568.791 220.531 572.304 223.852 571.986Z" fill="#333333"/>
<path d="M245.732 572.315C251.714 571.742 255.84 563.737 254.95 554.435C254.059 545.132 248.488 538.056 242.506 538.629C236.525 539.202 232.398 547.207 233.289 556.509C234.179 565.811 239.751 572.887 245.732 572.315Z" fill="white"/>
<path d="M249.864 564.64C253.184 564.322 255.515 560.294 255.07 555.643C254.624 550.992 251.571 547.479 248.251 547.797C244.93 548.115 242.599 552.143 243.045 556.794C243.49 561.445 246.543 564.958 249.864 564.64Z" fill="#333333"/>
<path d="M209.702 435.75C210.385 433.729 210.528 431.565 210.116 429.472C209.703 427.379 208.75 425.43 207.352 423.82C206.012 422.175 204.184 420.998 202.132 420.46C192.552 417.97 185.192 425.94 186.842 434.2C187.236 436.207 188.15 438.076 189.492 439.62L196.662 449.21L199.552 453.07C199.942 453.594 200.473 453.997 201.082 454.233C201.691 454.469 202.354 454.529 202.996 454.406C203.638 454.283 204.232 453.982 204.71 453.537C205.189 453.092 205.532 452.521 205.702 451.89L206.962 447.24L209.702 435.75Z" fill="white"/>
<path d="M198.078 437.05C201.077 437.05 203.508 434.619 203.508 431.62C203.508 428.621 201.077 426.19 198.078 426.19C195.08 426.19 192.648 428.621 192.648 431.62C192.648 434.619 195.08 437.05 198.078 437.05Z" fill="#F3D400"/>
</g>
<defs>
<clipPath id="clip0_192_5680">
<rect width="390" height="760" fill="white"/>
</clipPath>
</defs>
</svg>
