<svg width="40" height="40" viewBox="0 0 40 40" fill="none" xmlns="http://www.w3.org/2000/svg">
<rect width="40" height="40" rx="20" fill="#F5F5F5"/>
<mask id="mask0_1317_3165" style="mask-type:alpha" maskUnits="userSpaceOnUse" x="10" y="10" width="20" height="20">
<rect x="10" y="10" width="20" height="20" fill="#D9D9D9"/>
</mask>
<g mask="url(#mask0_1317_3165)">
<path d="M20.0013 27.9377C19.8069 27.9377 19.6089 27.9029 19.4076 27.8335C19.2062 27.7641 19.0291 27.6529 18.8763 27.5002L17.4388 26.1877C15.9666 24.8404 14.6367 23.5036 13.4492 22.1772C12.2617 20.8509 11.668 19.3891 11.668 17.7918C11.668 16.4863 12.1055 15.396 12.9805 14.521C13.8555 13.646 14.9457 13.2085 16.2513 13.2085C16.9874 13.2085 17.6819 13.3647 18.3346 13.6772C18.9874 13.9897 19.543 14.4168 20.0013 14.9585C20.4596 14.4168 21.0152 13.9897 21.668 13.6772C22.3207 13.3647 23.0152 13.2085 23.7513 13.2085C25.0569 13.2085 26.1471 13.646 27.0221 14.521C27.8971 15.396 28.3346 16.4863 28.3346 17.7918C28.3346 19.3891 27.7444 20.8543 26.5638 22.1877C25.3832 23.521 24.043 24.8613 22.543 26.2085L21.1263 27.5002C20.9735 27.6529 20.7964 27.7641 20.5951 27.8335C20.3937 27.9029 20.1957 27.9377 20.0013 27.9377ZM19.2096 16.6252C18.8069 16.0557 18.3763 15.6217 17.918 15.3231C17.4596 15.0245 16.9041 14.8752 16.2513 14.8752C15.418 14.8752 14.7235 15.1529 14.168 15.7085C13.6124 16.2641 13.3346 16.9585 13.3346 17.7918C13.3346 18.5141 13.5916 19.2814 14.1055 20.0939C14.6194 20.9064 15.2339 21.6946 15.9492 22.4585C16.6645 23.2224 17.4006 23.9377 18.1576 24.6043C18.9145 25.271 19.5291 25.8196 20.0013 26.2502C20.4735 25.8196 21.0881 25.271 21.8451 24.6043C22.602 23.9377 23.3381 23.2224 24.0534 22.4585C24.7687 21.6946 25.3832 20.9064 25.8971 20.0939C26.411 19.2814 26.668 18.5141 26.668 17.7918C26.668 16.9585 26.3902 16.2641 25.8346 15.7085C25.2791 15.1529 24.5846 14.8752 23.7513 14.8752C23.0985 14.8752 22.543 15.0245 22.0846 15.3231C21.6263 15.6217 21.1957 16.0557 20.793 16.6252C20.6957 16.7641 20.5777 16.8682 20.4388 16.9377C20.2999 17.0071 20.1541 17.0418 20.0013 17.0418C19.8485 17.0418 19.7027 17.0071 19.5638 16.9377C19.4249 16.8682 19.3069 16.7641 19.2096 16.6252Z" fill="#333333"/>
</g>
</svg>
