<svg width="18" height="18" viewBox="0 0 18 18" fill="none" xmlns="http://www.w3.org/2000/svg">
<g clip-path="url(#clip0_2209_9408)">
<mask id="mask0_2209_9408" style="mask-type:alpha" maskUnits="userSpaceOnUse" x="-1" y="-1" width="20" height="20">
<rect x="-1" y="-1" width="20" height="20" fill="#D9D9D9"/>
</mask>
<g mask="url(#mask0_2209_9408)">
<path d="M9.0013 16.9377C8.80686 16.9377 8.60894 16.9029 8.40755 16.8335C8.20616 16.7641 8.02908 16.6529 7.8763 16.5002L6.4388 15.1877C4.96658 13.8404 3.63672 12.5036 2.44922 11.1772C1.26172 9.85086 0.667969 8.38905 0.667969 6.79183C0.667969 5.48627 1.10547 4.396 1.98047 3.521C2.85547 2.646 3.94575 2.2085 5.2513 2.2085C5.98741 2.2085 6.68186 2.36475 7.33464 2.67725C7.98741 2.98975 8.54297 3.41683 9.0013 3.9585C9.45964 3.41683 10.0152 2.98975 10.668 2.67725C11.3207 2.36475 12.0152 2.2085 12.7513 2.2085C14.0569 2.2085 15.1471 2.646 16.0221 3.521C16.8971 4.396 17.3346 5.48627 17.3346 6.79183C17.3346 8.38905 16.7444 9.85433 15.5638 11.1877C14.3832 12.521 13.043 13.8613 11.543 15.2085L10.1263 16.5002C9.97352 16.6529 9.79644 16.7641 9.59505 16.8335C9.39366 16.9029 9.19575 16.9377 9.0013 16.9377ZM8.20964 5.62516C7.80686 5.05572 7.3763 4.62169 6.91797 4.32308C6.45964 4.02447 5.90408 3.87516 5.2513 3.87516C4.41797 3.87516 3.72352 4.15294 3.16797 4.7085C2.61241 5.26405 2.33464 5.9585 2.33464 6.79183C2.33464 7.51405 2.59158 8.28141 3.10547 9.09391C3.61936 9.90641 4.23394 10.6946 4.94922 11.4585C5.6645 12.2224 6.40061 12.9377 7.15755 13.6043C7.9145 14.271 8.52908 14.8196 9.0013 15.2502C9.47352 14.8196 10.0881 14.271 10.8451 13.6043C11.602 12.9377 12.3381 12.2224 13.0534 11.4585C13.7687 10.6946 14.3832 9.90641 14.8971 9.09391C15.411 8.28141 15.668 7.51405 15.668 6.79183C15.668 5.9585 15.3902 5.26405 14.8346 4.7085C14.2791 4.15294 13.5846 3.87516 12.7513 3.87516C12.0985 3.87516 11.543 4.02447 11.0846 4.32308C10.6263 4.62169 10.1957 5.05572 9.79297 5.62516C9.69575 5.76405 9.57769 5.86822 9.4388 5.93766C9.29991 6.00711 9.15408 6.04183 9.0013 6.04183C8.84852 6.04183 8.70269 6.00711 8.5638 5.93766C8.42491 5.86822 8.30686 5.76405 8.20964 5.62516Z" fill="#EB5757"/>
<path d="M9.0013 16.9377C8.80686 16.9377 8.60894 16.9029 8.40755 16.8335C8.20616 16.7641 8.02908 16.6529 7.8763 16.5002L6.4388 15.1877C4.96658 13.8404 3.63672 12.5036 2.44922 11.1772C1.26172 9.85086 0.667969 8.38905 0.667969 6.79183C0.667969 5.48627 1.10547 4.396 1.98047 3.521C2.85547 2.646 3.94575 2.2085 5.2513 2.2085C5.98741 2.2085 6.68186 2.36475 7.33464 2.67725C7.98741 2.98975 8.54297 3.41683 9.0013 3.9585C9.45964 3.41683 10.0152 2.98975 10.668 2.67725C11.3207 2.36475 12.0152 2.2085 12.7513 2.2085C14.0569 2.2085 15.1471 2.646 16.0221 3.521C16.8971 4.396 17.3346 5.48627 17.3346 6.79183C17.3346 8.38905 16.7444 9.85433 15.5638 11.1877C14.3832 12.521 13.043 13.8613 11.543 15.2085L10.1263 16.5002C9.97352 16.6529 9.79644 16.7641 9.59505 16.8335C9.39366 16.9029 9.19575 16.9377 9.0013 16.9377ZM8.20964 5.62516C7.80686 5.05572 7.3763 4.62169 6.91797 4.32308C6.45964 4.02447 5.90408 3.87516 5.2513 3.87516C4.41797 3.87516 3.72352 4.15294 3.16797 4.7085C2.61241 5.26405 2.33464 5.9585 2.33464 6.79183C2.33464 7.51405 2.59158 8.28141 3.10547 9.09391C3.61936 9.90641 4.23394 10.6946 4.94922 11.4585C5.6645 12.2224 6.40061 12.9377 7.15755 13.6043C7.9145 14.271 8.52908 14.8196 9.0013 15.2502C9.47352 14.8196 10.0881 14.271 10.8451 13.6043C11.602 12.9377 12.3381 12.2224 13.0534 11.4585C13.7687 10.6946 14.3832 9.90641 14.8971 9.09391C15.411 8.28141 15.668 7.51405 15.668 6.79183C15.668 5.9585 15.3902 5.26405 14.8346 4.7085C14.2791 4.15294 13.5846 3.87516 12.7513 3.87516C12.0985 3.87516 11.543 4.02447 11.0846 4.32308C10.6263 4.62169 10.1957 5.05572 9.79297 5.62516C9.69575 5.76405 9.57769 5.86822 9.4388 5.93766C9.29991 6.00711 9.15408 6.04183 9.0013 6.04183C8.84852 6.04183 8.70269 6.00711 8.5638 5.93766C8.42491 5.86822 8.30686 5.76405 8.20964 5.62516Z" fill="#EB5757"/>
</g>
<circle cx="13" cy="7" r="4" fill="#EB5757"/>
<circle cx="6" cy="7" r="4" fill="#EB5757"/>
<circle cx="6" cy="9" r="4" fill="#EB5757"/>
<circle cx="8" cy="10" r="4" fill="#EB5757"/>
<circle cx="9" cy="11" r="4" fill="#EB5757"/>
<circle cx="10" cy="10" r="4" fill="#EB5757"/>
<circle cx="9.4994" cy="10.4983" r="3.49883" transform="rotate(0.0666385 9.4994 10.4983)" fill="#EB5757"/>
<circle cx="9.00061" cy="14.0006" r="1.9983" transform="rotate(0.0666385 9.00061 14.0006)" fill="#EB5757"/>
</g>
<defs>
<clipPath id="clip0_2209_9408">
<rect width="18" height="18" fill="white"/>
</clipPath>
</defs>
</svg>
