<svg width="14" height="14" viewBox="0 0 14 14" fill="none" xmlns="http://www.w3.org/2000/svg">
<mask id="mask0_99_6234" style="mask-type:alpha" maskUnits="userSpaceOnUse" x="0" y="0" width="14" height="14">
<rect width="14" height="14" fill="#D9D9D9"/>
</mask>
<g mask="url(#mask0_99_6234)">
<path d="M6.99906 6.99984C7.3199 6.99984 7.59455 6.8856 7.82302 6.65713C8.0515 6.42866 8.16573 6.154 8.16573 5.83317C8.16573 5.51234 8.0515 5.23768 7.82302 5.00921C7.59455 4.78074 7.3199 4.6665 6.99906 4.6665C6.67823 4.6665 6.40358 4.78074 6.17511 5.00921C5.94663 5.23768 5.8324 5.51234 5.8324 5.83317C5.8324 6.154 5.94663 6.42866 6.17511 6.65713C6.40358 6.8856 6.67823 6.99984 6.99906 6.99984ZM6.99906 11.2873C8.18518 10.1984 9.06504 9.20921 9.63865 8.31963C10.2123 7.43005 10.4991 6.64011 10.4991 5.94984C10.4991 4.89011 10.1612 4.02241 9.48552 3.34671C8.80983 2.67102 7.98101 2.33317 6.99906 2.33317C6.01712 2.33317 5.1883 2.67102 4.51261 3.34671C3.83691 4.02241 3.49906 4.89011 3.49906 5.94984C3.49906 6.64011 3.78587 7.43005 4.35948 8.31963C4.93309 9.20921 5.81295 10.1984 6.99906 11.2873ZM6.99906 12.8332C5.43379 11.5012 4.26469 10.2641 3.49177 9.12171C2.71886 7.97935 2.3324 6.92206 2.3324 5.94984C2.3324 4.4915 2.80149 3.3297 3.73969 2.46442C4.67788 1.59914 5.76434 1.1665 6.99906 1.1665C8.23379 1.1665 9.32025 1.59914 10.2584 2.46442C11.1966 3.3297 11.6657 4.4915 11.6657 5.94984C11.6657 6.92206 11.2793 7.97935 10.5064 9.12171C9.73344 10.2641 8.56434 11.5012 6.99906 12.8332Z" fill="#333333"/>
</g>
</svg>
