<svg width="1920" height="800" viewBox="0 0 1920 800" fill="none" xmlns="http://www.w3.org/2000/svg">
<g clip-path="url(#clip0_192_5464)">
<mask id="mask0_192_5464" style="mask-type:luminance" maskUnits="userSpaceOnUse" x="0" y="3" width="1765" height="799">
<path d="M0 3H1765V413.28C1765 464.327 1754.95 514.875 1735.41 562.037C1715.88 609.198 1687.24 652.051 1651.15 688.147C1615.05 724.243 1572.2 752.875 1525.04 772.41C1477.88 791.945 1427.33 802 1376.28 802H0V3Z" fill="white"/>
</mask>
<g mask="url(#mask0_192_5464)">
<path d="M1828 -4H-1.73047V846.74H1828V-4Z" fill="#81E6FD"/>
<path d="M1344.7 812.09C1542.49 812.09 1702.84 651.745 1702.84 453.95C1702.84 256.155 1542.49 95.8101 1344.7 95.8101C1146.9 95.8101 986.559 256.155 986.559 453.95C986.559 651.745 1146.9 812.09 1344.7 812.09Z" fill="#F3D400"/>
<path d="M43.33 1283.44C361.076 1283.44 618.66 1072.15 618.66 811.51C618.66 550.87 361.076 339.58 43.33 339.58C-274.416 339.58 -532 550.87 -532 811.51C-532 1072.15 -274.416 1283.44 43.33 1283.44Z" fill="#006D3B"/>
<path d="M817.36 1202.57C1045.14 1202.57 1229.79 1059.81 1229.79 883.71C1229.79 707.609 1045.14 564.85 817.36 564.85C589.581 564.85 404.93 707.609 404.93 883.71C404.93 1059.81 589.581 1202.57 817.36 1202.57Z" fill="#3D9D35"/>
<path d="M1019.7 530.31C1012.68 531.212 1005.96 533.73 1000.07 537.667C994.186 541.604 989.294 546.853 985.779 553C983.235 557.496 981.486 562.398 980.609 567.49C976.116 564.114 971.028 561.613 965.609 560.12C958.783 558.259 951.619 558.005 944.679 559.379C937.738 560.754 931.211 563.718 925.609 568.04C928.191 574.635 932.266 580.541 937.514 585.295C942.763 590.049 949.042 593.522 955.859 595.44C965.69 598.155 976.152 597.45 985.529 593.44C992.375 592.324 998.874 589.653 1004.53 585.633C1010.18 581.614 1014.84 576.352 1018.14 570.252C1021.44 564.152 1023.3 557.377 1023.58 550.446C1023.85 543.515 1022.54 536.613 1019.73 530.27L1019.7 530.31Z" fill="#006D3B"/>
<path d="M988.127 582.957C990.75 581.788 991.402 577.532 989.582 573.451C987.763 569.37 984.161 567.01 981.538 568.179C978.915 569.349 978.264 573.605 980.083 577.686C981.903 581.767 985.504 584.127 988.127 582.957Z" fill="white"/>
<path d="M988.813 578.842C990.27 578.192 990.716 576.013 989.807 573.975C988.898 571.937 986.98 570.812 985.522 571.462C984.065 572.112 983.619 574.291 984.528 576.329C985.437 578.367 987.355 579.492 988.813 578.842Z" fill="#333333"/>
<path d="M1000.62 577.504C1003.24 576.335 1003.89 572.079 1002.07 567.998C1000.25 563.917 996.654 561.557 994.031 562.727C991.408 563.896 990.756 568.152 992.576 572.233C994.395 576.314 997.996 578.674 1000.62 577.504Z" fill="white"/>
<path d="M1001.32 573.385C1002.77 572.735 1003.22 570.556 1002.31 568.518C1001.4 566.48 999.484 565.355 998.026 566.005C996.568 566.655 996.123 568.834 997.032 570.872C997.94 572.91 999.859 574.035 1001.32 573.385Z" fill="#333333"/>
<mask id="mask1_192_5464" style="mask-type:luminance" maskUnits="userSpaceOnUse" x="719" y="386" width="1696" height="1518">
<path d="M1567.09 1903.82C2035.1 1903.82 2414.49 1564.25 2414.49 1145.38C2414.49 726.505 2035.1 386.94 1567.09 386.94C1099.09 386.94 719.691 726.505 719.691 1145.38C719.691 1564.25 1099.09 1903.82 1567.09 1903.82Z" fill="white"/>
</mask>
<g mask="url(#mask1_192_5464)">
<path d="M2414.49 1145.38C2414.49 1564.26 2035.09 1903.82 1567.09 1903.82C1099.09 1903.82 719.691 1564.26 719.691 1145.38C719.691 919.53 829.991 716.73 1005.01 577.79C1154.59 459.05 1351.43 386.94 1567.09 386.94C2035.09 386.94 2414.49 726.51 2414.49 1145.38Z" fill="#8EB91F"/>
<path d="M972.703 579.88C972.703 579.88 1297.33 530.2 1418.64 797.07C1539.95 1063.94 1489.11 1125.17 1489.11 1125.17L1732.87 858.3L1749.05 648C1749.05 648 1345.85 449.29 1024.69 563.66L972.703 579.88Z" fill="white"/>
</g>
</g>
<path d="M769.578 515.53C765.147 516.74 761.057 518.961 757.628 522.018C754.199 525.075 751.526 528.886 749.818 533.15C748.465 536.555 747.77 540.186 747.768 543.85C745.894 540.829 743.485 538.176 740.658 536.02C736.997 533.252 732.744 531.37 728.233 530.519C723.723 529.669 719.076 529.875 714.658 531.12C714.604 535.716 715.624 540.26 717.638 544.392C719.651 548.523 722.603 552.126 726.256 554.914C729.91 557.702 734.165 559.598 738.681 560.45C743.197 561.301 747.85 561.086 752.268 559.82V559.49C756.702 558.288 760.793 556.066 764.216 553.001C767.638 549.937 770.297 546.115 771.981 541.841C773.664 537.567 774.326 532.958 773.912 528.383C773.498 523.808 772.021 519.393 769.598 515.49L769.578 515.53Z" fill="#333333"/>
<path d="M751.772 553.93L754.102 566.93C754.179 567.372 754.083 567.827 753.834 568.199C753.584 568.572 753.2 568.834 752.762 568.93L741.602 571.4C741.226 571.484 740.832 571.44 740.483 571.278C740.134 571.115 739.848 570.841 739.67 570.499C739.492 570.157 739.432 569.766 739.499 569.386C739.567 569.007 739.757 568.66 740.042 568.4L743.842 564.87C744.042 564.683 744.197 564.452 744.292 564.195C744.388 563.938 744.422 563.663 744.392 563.39L743.442 554.85C743.414 554.619 743.434 554.384 743.499 554.161C743.564 553.937 743.673 553.729 743.821 553.549C743.968 553.368 744.151 553.22 744.357 553.112C744.564 553.004 744.79 552.939 745.022 552.92L749.902 552.49C750.338 552.451 750.772 552.578 751.118 552.844C751.465 553.111 751.698 553.499 751.772 553.93Z" fill="#333333"/>
<path d="M753.431 554.3L755.601 567.3C755.675 567.744 755.919 568.143 756.281 568.412C756.643 568.68 757.094 568.798 757.541 568.74L768.871 567.31C769.251 567.26 769.603 567.087 769.875 566.818C770.147 566.549 770.323 566.198 770.376 565.819C770.43 565.44 770.357 565.054 770.171 564.72C769.984 564.386 769.692 564.123 769.341 563.97L764.571 561.97C764.322 561.859 764.102 561.693 763.929 561.483C763.755 561.273 763.633 561.025 763.571 560.76L761.571 552.39C761.518 552.164 761.419 551.95 761.282 551.762C761.145 551.574 760.971 551.416 760.772 551.296C760.573 551.176 760.352 551.096 760.121 551.063C759.891 551.029 759.657 551.042 759.431 551.1L754.701 552.34C754.285 552.453 753.926 552.715 753.692 553.077C753.457 553.439 753.365 553.874 753.431 554.3Z" fill="#333333"/>
<path d="M1326.57 557.32V623.82C1326.57 626.094 1327.45 628.279 1329.02 629.918C1330.6 631.557 1332.75 632.522 1335.02 632.61L1392.47 634.82C1401.41 635.16 1405.09 623.48 1397.56 618.64L1375.56 604.5C1374.41 603.754 1373.45 602.75 1372.76 601.568C1372.06 600.386 1371.65 599.058 1371.56 597.69L1368.68 554.5C1368.6 553.331 1368.29 552.19 1367.77 551.143C1367.24 550.097 1366.51 549.166 1365.62 548.405C1364.73 547.645 1363.7 547.071 1362.58 546.716C1361.46 546.361 1360.29 546.233 1359.12 546.34L1334.58 548.57C1332.39 548.763 1330.36 549.768 1328.87 551.388C1327.39 553.007 1326.57 555.124 1326.57 557.32Z" fill="#333333"/>
<path d="M1397.8 554.47L1450.27 595.34C1452.06 596.736 1454.32 597.383 1456.58 597.146C1458.84 596.909 1460.92 595.807 1462.39 594.07L1499.39 550.07C1505.16 543.23 1498.2 533.15 1489.76 536.07L1465.08 544.73C1463.78 545.189 1462.4 545.337 1461.04 545.163C1459.68 544.99 1458.38 544.499 1457.24 543.73L1421.4 519.46C1420.43 518.805 1419.34 518.35 1418.19 518.123C1417.04 517.895 1415.85 517.899 1414.71 518.135C1413.56 518.371 1412.47 518.833 1411.5 519.495C1410.54 520.157 1409.71 521.005 1409.08 521.99L1395.76 542.72C1394.56 544.576 1394.1 546.816 1394.48 548.994C1394.86 551.171 1396.04 553.127 1397.8 554.47Z" fill="#333333"/>
<path d="M1472.17 354.66C1429.94 364.13 1392.09 391.4 1372.37 434.01C1365.91 447.969 1361.88 462.926 1360.44 478.24C1352.91 464.161 1343.04 451.464 1331.25 440.69C1296.55 409.06 1251.09 398.61 1208.49 406.25C1204.81 449.37 1219.42 493.68 1254.11 525.25C1270.56 540.275 1290.24 551.314 1311.64 557.513C1333.03 563.713 1355.57 564.906 1377.5 561C1419.73 551.53 1456.56 524.73 1476.28 482.12C1496 439.51 1492.29 393 1472.17 354.66Z" fill="#3D9D35"/>
<path d="M1367.37 535.956C1376.7 535.062 1383.14 522.568 1381.75 508.048C1380.36 493.529 1371.67 482.483 1362.34 483.376C1353.01 484.27 1346.57 496.764 1347.96 511.284C1349.35 525.803 1358.04 536.849 1367.37 535.956Z" fill="white"/>
<path d="M1373.81 523.958C1378.99 523.461 1382.63 517.176 1381.93 509.919C1381.24 502.662 1376.47 497.181 1371.29 497.678C1366.11 498.174 1362.47 504.46 1363.16 511.717C1363.86 518.974 1368.62 524.454 1373.81 523.958Z" fill="#333333"/>
<path d="M1407.96 524.479C1417.29 523.585 1423.73 511.091 1422.34 496.571C1420.95 482.052 1412.26 471.006 1402.93 471.899C1393.6 472.793 1387.16 485.287 1388.55 499.807C1389.94 514.326 1398.63 525.372 1407.96 524.479Z" fill="white"/>
<path d="M1414.39 512.491C1419.58 511.994 1423.22 505.709 1422.52 498.452C1421.83 491.195 1417.06 485.714 1411.88 486.211C1406.69 486.707 1403.05 492.993 1403.75 500.25C1404.44 507.507 1409.21 512.987 1414.39 512.491Z" fill="#333333"/>
<path d="M1126.34 432.19L1116.04 439.34C1113.58 441.05 1109.75 439.16 1110.8 436.76L1113.14 431.45C1113.14 431.45 1102.68 431.45 1096.4 423.5C1091.87 417.77 1094.35 406.93 1097.65 404.65C1098.85 403.81 1103.47 409.73 1104.71 410.53L1115.42 417.53C1113.51 419.28 1112.27 420.93 1112.02 422.43C1111.92 422.921 1111.95 423.426 1112.08 423.907C1112.22 424.388 1112.46 424.831 1112.8 425.2C1116.37 429.022 1121.15 431.492 1126.34 432.19Z" fill="#333333"/>
<path d="M1146.81 429.18L1134.11 439.18C1131.76 441.04 1127.82 439.37 1128.73 436.92L1130.73 431.46C1129.68 431.498 1128.64 431.452 1127.6 431.32C1123.99 430.91 1117.98 429.47 1113.6 424.51C1112.16 422.89 1113.6 420.61 1116.36 418.14C1122.95 412.27 1137.27 405.33 1139.49 403.59C1140.63 402.69 1132.7 414.59 1137.11 417.52L1146.52 425.52C1146.86 425.673 1147.16 425.916 1147.37 426.223C1147.59 426.529 1147.72 426.889 1147.75 427.264C1147.78 427.638 1147.71 428.014 1147.54 428.351C1147.38 428.689 1147.12 428.975 1146.81 429.18Z" fill="#333333"/>
<path d="M1147.3 398.49C1139.17 412.81 1125.78 420.86 1111.69 422.38C1111.62 422.19 1110.52 421.86 1110.46 421.66C1099.46 415.73 1092.14 405.43 1089.8 392.11C1088.71 385.713 1089.11 379.15 1090.98 372.935C1092.85 366.72 1096.13 361.023 1100.57 356.29C1107.84 360.03 1113.89 365.769 1118 372.83C1121.75 367.291 1126.65 362.634 1132.38 359.18C1138.11 355.727 1144.51 353.56 1151.16 352.83C1156.12 367.41 1155.43 384.16 1147.3 398.49Z" fill="#8EB91F"/>
<mask id="mask2_192_5464" style="mask-type:luminance" maskUnits="userSpaceOnUse" x="1116" y="387" width="12" height="14">
<path d="M1116.78 395.23C1116.06 399.84 1118.14 399.81 1121.1 400.23C1124.06 400.65 1126.78 401.47 1127.5 396.87C1128.22 392.27 1126.41 388.16 1123.5 387.69C1120.59 387.22 1117.51 390.63 1116.78 395.23Z" fill="white"/>
</mask>
<g mask="url(#mask2_192_5464)">
<path d="M1116.78 395.23C1116.06 399.84 1118.14 399.81 1121.1 400.23C1124.06 400.65 1126.78 401.47 1127.5 396.87C1128.22 392.27 1126.41 388.16 1123.5 387.69C1120.59 387.22 1117.51 390.63 1116.78 395.23Z" fill="white"/>
<path d="M1122.56 396.718C1122.92 394.415 1121.89 392.34 1120.24 392.083C1118.6 391.826 1116.98 393.485 1116.62 395.787C1116.26 398.09 1117.3 400.165 1118.94 400.422C1120.58 400.679 1122.2 399.02 1122.56 396.718Z" fill="#333333"/>
</g>
<mask id="mask3_192_5464" style="mask-type:luminance" maskUnits="userSpaceOnUse" x="1102" y="385" width="12" height="14">
<path d="M1102.32 392.82C1101.6 397.43 1103.67 397.4 1106.63 397.82C1109.59 398.24 1112.32 399.06 1113.04 394.46C1113.76 389.86 1111.94 385.75 1108.98 385.28C1106.02 384.81 1103 388.22 1102.32 392.82Z" fill="white"/>
</mask>
<g mask="url(#mask3_192_5464)">
<path d="M1102.32 392.82C1101.6 397.43 1103.67 397.4 1106.63 397.82C1109.59 398.24 1112.32 399.06 1113.04 394.46C1113.76 389.86 1111.94 385.75 1108.98 385.28C1106.02 384.81 1103 388.22 1102.32 392.82Z" fill="white"/>
<path d="M1108.1 394.312C1108.46 392.009 1107.42 389.934 1105.77 389.677C1104.13 389.42 1102.51 391.079 1102.15 393.381C1101.79 395.684 1102.83 397.759 1104.47 398.016C1106.11 398.273 1107.74 396.614 1108.1 394.312Z" fill="#333333"/>
</g>
<path d="M1336.86 319.86C1338.86 314.13 1338.13 307.32 1333.21 301.23C1331.12 298.663 1328.27 296.83 1325.06 296C1310.06 292.11 1298.63 304.54 1301.19 317.43C1301.82 320.559 1303.24 323.473 1305.32 325.89L1316.51 340.89L1321.02 346.89C1321.63 347.708 1322.46 348.339 1323.41 348.709C1324.36 349.079 1325.39 349.174 1326.4 348.983C1327.4 348.792 1328.32 348.323 1329.07 347.629C1329.82 346.935 1330.36 346.045 1330.62 345.06L1332.62 337.8L1336.86 319.86Z" fill="white"/>
<path d="M1318.74 321.87C1323.42 321.87 1327.21 318.078 1327.21 313.4C1327.21 308.722 1323.42 304.93 1318.74 304.93C1314.06 304.93 1310.27 308.722 1310.27 313.4C1310.27 318.078 1314.06 321.87 1318.74 321.87Z" fill="#F3D400"/>
</g>
<defs>
<clipPath id="clip0_192_5464">
<rect width="1920" height="800" fill="white"/>
</clipPath>
</defs>
</svg>
