<svg width="820" height="1080" viewBox="0 0 820 1080" fill="none" xmlns="http://www.w3.org/2000/svg">
<g clip-path="url(#clip0_192_5760)">
<mask id="mask0_192_5760" style="mask-type:luminance" maskUnits="userSpaceOnUse" x="1" y="0" width="738" height="1080">
<path d="M1 0H739V787.76C739 865.267 708.211 939.599 653.405 994.405C598.599 1049.21 524.267 1080 446.76 1080H1V0Z" fill="white"/>
</mask>
<g mask="url(#mask0_192_5760)">
<path d="M761 0H-679V1090H761V0Z" fill="#81E6FD"/>
<path d="M425 1060C596.208 1060 735 921.208 735 750C735 578.792 596.208 440 425 440C253.792 440 115 578.792 115 750C115 921.208 253.792 1060 425 1060Z" fill="#F3D400"/>
<path d="M30 1398C227.166 1398 387 1274.43 387 1122C387 969.569 227.166 846 30 846C-167.166 846 -327 969.569 -327 1122C-327 1274.43 -167.166 1398 30 1398Z" fill="#3D9D35"/>
<path d="M155.8 809.17C149.72 809.953 143.905 812.135 138.81 815.544C133.716 818.954 129.482 823.498 126.44 828.82C124.249 832.717 122.747 836.962 122 841.37C118.106 838.447 113.696 836.286 109 835C103.085 833.386 96.8774 833.166 90.8635 834.356C84.8495 835.546 79.1935 838.115 74.3398 841.86C76.5752 847.567 80.1023 852.679 84.6445 856.794C89.1867 860.91 94.6205 863.917 100.52 865.58C109.03 867.935 118.087 867.332 126.21 863.87C132.135 862.903 137.76 860.591 142.653 857.111C147.546 853.632 151.576 849.077 154.434 843.797C157.293 838.517 158.903 832.652 159.141 826.653C159.38 820.654 158.24 814.68 155.81 809.19L155.8 809.17Z" fill="#006D3B"/>
<path d="M128.479 854.744C130.749 853.732 131.313 850.049 129.738 846.518C128.164 842.987 125.048 840.945 122.778 841.957C120.508 842.969 119.944 846.652 121.518 850.183C123.093 853.714 126.209 855.756 128.479 854.744Z" fill="white"/>
<path d="M129.079 851.192C130.34 850.629 130.724 848.742 129.937 846.977C129.15 845.211 127.49 844.236 126.229 844.798C124.968 845.36 124.583 847.247 125.371 849.013C126.158 850.778 127.818 851.754 129.079 851.192Z" fill="#333333"/>
<path d="M139.284 850.022C141.554 849.01 142.117 845.327 140.543 841.796C138.969 838.265 135.853 836.223 133.583 837.235C131.313 838.247 130.749 841.93 132.323 845.461C133.897 848.992 137.014 851.034 139.284 850.022Z" fill="white"/>
<path d="M139.888 846.469C141.149 845.907 141.533 844.02 140.746 842.255C139.959 840.489 138.298 839.514 137.037 840.076C135.776 840.638 135.392 842.525 136.179 844.291C136.966 846.056 138.627 847.032 139.888 846.469Z" fill="#333333"/>
<mask id="mask1_192_5760" style="mask-type:luminance" maskUnits="userSpaceOnUse" x="-116" y="692" width="1467" height="1313">
<path d="M617.5 2005C1022.6 2005 1351 1711.07 1351 1348.5C1351 985.925 1022.6 692 617.5 692C212.399 692 -116 985.925 -116 1348.5C-116 1711.07 212.399 2005 617.5 2005Z" fill="white"/>
</mask>
<g mask="url(#mask1_192_5760)">
<path d="M1351 1348.5C1351 1711.07 1022.6 2005 617.5 2005C212.4 2005 -116 1711.07 -116 1348.5C-116 1153 -20.53 977.5 131 857.2C260.44 754.41 430.83 692 617.5 692C1022.6 692 1351 985.93 1351 1348.5Z" fill="#8EB91F"/>
<path d="M103 859C103 859 384 816 489 1047C594 1278 550 1331 550 1331L761 1100L775 918C775 918 426 746 148 845L103 859Z" fill="white"/>
</g>
</g>
<path d="M422.59 865.8V928.61C422.593 930.759 423.428 932.823 424.919 934.37C426.411 935.917 428.443 936.827 430.59 936.91L484.83 939C486.648 939.068 488.437 938.538 489.924 937.49C491.411 936.442 492.512 934.935 493.059 933.2C493.605 931.465 493.567 929.598 492.949 927.887C492.331 926.176 491.169 924.716 489.64 923.73L468.86 910.37C467.769 909.669 466.858 908.722 466.2 907.606C465.542 906.489 465.155 905.233 465.07 903.94L462.35 863.15C462.276 862.049 461.982 860.974 461.488 859.988C460.993 859.001 460.307 858.123 459.469 857.406C458.63 856.688 457.658 856.144 456.607 855.807C455.557 855.469 454.449 855.344 453.35 855.44L430.18 857.55C428.112 857.727 426.186 858.673 424.782 860.2C423.377 861.727 422.595 863.725 422.59 865.8Z" fill="#333333"/>
<path d="M489.858 863.11L539.418 901.71C541.112 903.029 543.25 903.642 545.385 903.418C547.52 903.194 549.486 902.152 550.868 900.51L585.868 858.99C587.047 857.598 587.735 855.857 587.825 854.035C587.915 852.214 587.403 850.413 586.367 848.912C585.331 847.411 583.83 846.292 582.095 845.73C580.36 845.167 578.488 845.192 576.769 845.8L553.448 854C552.221 854.425 550.911 854.555 549.625 854.382C548.338 854.208 547.109 853.735 546.038 853L512.198 830.12C511.282 829.499 510.251 829.067 509.165 828.85C508.08 828.633 506.962 828.636 505.877 828.857C504.792 829.079 503.763 829.516 502.85 830.141C501.936 830.767 501.157 831.569 500.558 832.5L487.998 852.08C486.878 853.82 486.447 855.915 486.791 857.955C487.135 859.996 488.229 861.834 489.858 863.11Z" fill="#333333"/>
<path d="M560.11 674.4C520.22 683.4 484.47 709.1 465.85 749.34C459.747 762.521 455.939 776.647 454.59 791.11C447.462 777.817 438.133 765.827 427 755.65C394.24 725.78 351.29 715.91 311.06 723.13C307.59 763.85 321.39 805.7 354.15 835.57C369.69 849.744 388.283 860.154 408.489 865.994C428.696 871.834 449.975 872.948 470.68 869.25C510.57 860.25 545.36 834.99 563.98 794.76C582.6 754.53 579.1 710.6 560.11 674.4Z" fill="#3D9D35"/>
<path d="M461.157 845.649C469.97 844.805 476.05 833.006 474.737 819.295C473.424 805.584 465.215 795.153 456.402 795.996C447.59 796.84 441.51 808.64 442.823 822.351C444.136 836.062 452.344 846.493 461.157 845.649Z" fill="white"/>
<path d="M467.227 834.339C472.126 833.87 475.565 827.932 474.908 821.077C474.252 814.221 469.748 809.044 464.85 809.513C459.951 809.982 456.513 815.92 457.169 822.775C457.826 829.631 462.329 834.808 467.227 834.339Z" fill="#333333"/>
<path d="M499.481 834.825C508.294 833.981 514.374 822.182 513.061 808.47C511.748 794.759 503.539 784.328 494.727 785.172C485.914 786.016 479.834 797.815 481.147 811.526C482.46 825.238 490.669 835.669 499.481 834.825Z" fill="white"/>
<path d="M505.551 823.505C510.45 823.035 513.889 817.098 513.232 810.242C512.576 803.386 508.073 798.209 503.174 798.678C498.276 799.147 494.837 805.085 495.493 811.941C496.15 818.796 500.653 823.974 505.551 823.505Z" fill="#333333"/>
<path d="M239.102 710L229.372 716.76C227.052 718.37 223.432 716.59 224.372 714.32L226.582 709.32C226.582 709.32 216.702 709.32 210.772 701.82C206.492 696.4 208.842 686.17 211.952 684.01C213.092 683.22 217.452 688.81 218.622 689.57L228.742 696.15C226.932 697.8 225.742 699.36 225.522 700.78C225.432 701.243 225.451 701.72 225.58 702.173C225.709 702.627 225.942 703.044 226.262 703.39C229.645 707.017 234.185 709.353 239.102 710Z" fill="#333333"/>
<path d="M258.431 707.17L246.431 716.58C244.211 718.33 240.491 716.76 241.351 714.44L243.261 709.29C242.259 709.325 241.255 709.278 240.261 709.15C236.851 708.77 231.171 707.41 227.001 702.72C225.641 701.19 227.001 699.04 229.601 696.72C235.831 691.17 249.351 684.62 251.451 682.97C252.531 682.12 245.041 693.36 249.201 696.13L258.091 703.73C258.409 703.875 258.683 704.102 258.887 704.386C259.09 704.671 259.215 705.004 259.25 705.352C259.284 705.7 259.226 706.051 259.083 706.37C258.939 706.689 258.714 706.965 258.431 707.17Z" fill="#333333"/>
<path d="M258.898 678.18C251.208 691.71 238.568 699.32 225.268 700.75C225.198 700.57 224.148 700.25 224.098 700.06C213.738 694.47 206.798 684.74 204.588 672.16C203.554 666.119 203.934 659.92 205.699 654.05C207.463 648.18 210.564 642.8 214.758 638.33C221.631 641.871 227.344 647.309 231.218 654C234.757 648.769 239.391 644.369 244.799 641.108C250.207 637.846 256.26 635.799 262.538 635.11C264.997 642.141 265.943 649.612 265.316 657.034C264.689 664.455 262.502 671.661 258.898 678.18Z" fill="#8EB91F"/>
<mask id="mask2_192_5760" style="mask-type:luminance" maskUnits="userSpaceOnUse" x="229" y="667" width="12" height="14">
<path d="M230.069 675.11C229.389 679.46 231.349 679.43 234.149 679.87C236.949 680.31 239.519 681.04 240.149 676.69C240.779 672.34 239.149 668.46 236.319 668.03C233.489 667.6 230.749 670.76 230.069 675.11Z" fill="white"/>
</mask>
<g mask="url(#mask2_192_5760)">
<path d="M230.069 675.11C229.389 679.46 231.349 679.43 234.149 679.87C236.949 680.31 239.519 681.04 240.149 676.69C240.779 672.34 239.149 668.46 236.319 668.03C233.489 667.6 230.749 670.76 230.069 675.11Z" fill="white"/>
<path d="M235.608 676.502C235.948 674.325 234.963 672.362 233.408 672.119C231.853 671.876 230.317 673.444 229.976 675.621C229.635 677.798 230.62 679.76 232.175 680.003C233.73 680.247 235.267 678.679 235.608 676.502Z" fill="#333333"/>
</g>
<mask id="mask3_192_5760" style="mask-type:luminance" maskUnits="userSpaceOnUse" x="216" y="665" width="11" height="13">
<path d="M216.409 672.83C215.729 677.18 217.689 677.16 220.479 677.59C223.269 678.02 225.849 678.76 226.539 674.42C227.229 670.08 225.539 666.19 222.709 665.75C219.879 665.31 217.089 668.48 216.409 672.83Z" fill="white"/>
</mask>
<g mask="url(#mask3_192_5760)">
<path d="M216.409 672.83C215.729 677.18 217.689 677.16 220.479 677.59C223.269 678.02 225.849 678.76 226.539 674.42C227.229 670.08 225.539 666.19 222.709 665.75C219.879 665.31 217.089 668.48 216.409 672.83Z" fill="white"/>
<path d="M221.936 674.235C222.276 672.058 221.292 670.096 219.737 669.853C218.181 669.609 216.645 671.177 216.304 673.354C215.964 675.531 216.948 677.494 218.503 677.737C220.058 677.98 221.595 676.412 221.936 674.235Z" fill="#333333"/>
</g>
<path d="M446.359 633.55C448.229 628.15 447.559 621.72 442.899 615.96C440.929 613.534 438.234 611.803 435.209 611.02C421.089 607.35 410.209 619.09 412.669 631.27C413.253 634.23 414.597 636.987 416.569 639.27H416.519L427.089 653.4L431.339 659.09C431.915 659.863 432.697 660.458 433.595 660.807C434.494 661.156 435.473 661.245 436.419 661.063C437.366 660.882 438.242 660.437 438.948 659.78C439.654 659.124 440.16 658.281 440.409 657.35L442.259 650.5L446.359 633.55Z" fill="white"/>
<path d="M429.238 635.46C433.657 635.46 437.238 631.878 437.238 627.46C437.238 623.042 433.657 619.46 429.238 619.46C424.82 619.46 421.238 623.042 421.238 627.46C421.238 631.878 424.82 635.46 429.238 635.46Z" fill="#F3D400"/>
</g>
<defs>
<clipPath id="clip0_192_5760">
<rect width="820" height="1080" fill="white"/>
</clipPath>
</defs>
</svg>
