<svg width="20" height="20" viewBox="0 0 20 20" fill="none" xmlns="http://www.w3.org/2000/svg">
<mask id="mask0_203_5084" style="mask-type:alpha" maskUnits="userSpaceOnUse" x="0" y="0" width="20" height="20">
<rect width="20" height="20" fill="#D9D9D9"/>
</mask>
<g mask="url(#mask0_203_5084)">
<path d="M3.33333 15C2.8731 15 2.5 14.6269 2.5 14.1667C2.5 13.7064 2.8731 13.3333 3.33333 13.3333H16.6667C17.1269 13.3333 17.5 13.7064 17.5 14.1667C17.5 14.6269 17.1269 15 16.6667 15H3.33333ZM3.33333 10.8333C2.8731 10.8333 2.5 10.4602 2.5 10C2.5 9.53976 2.8731 9.16667 3.33333 9.16667H16.6667C17.1269 9.16667 17.5 9.53976 17.5 10C17.5 10.4602 17.1269 10.8333 16.6667 10.8333H3.33333ZM3.33333 6.66667C2.8731 6.66667 2.5 6.29357 2.5 5.83333C2.5 5.3731 2.8731 5 3.33333 5H16.6667C17.1269 5 17.5 5.3731 17.5 5.83333C17.5 6.29357 17.1269 6.66667 16.6667 6.66667H3.33333Z" fill="#333333"/>
</g>
</svg>
