<svg width="20" height="20" viewBox="0 0 20 20" fill="none" xmlns="http://www.w3.org/2000/svg">
<mask id="mask0_1027_30242" style="mask-type:alpha" maskUnits="userSpaceOnUse" x="0" y="0" width="20" height="20">
<rect width="20" height="20" fill="#D9D9D9"/>
</mask>
<g mask="url(#mask0_1027_30242)">
<path d="M13.4779 10.8335H4.16536C3.70513 10.8335 3.33203 10.4604 3.33203 10.0002V10.0002C3.33203 9.53993 3.70513 9.16683 4.16537 9.16683H13.4779L9.40497 5.09394C9.07789 4.76686 9.08024 4.23584 9.4102 3.91167V3.91167C9.73606 3.59153 10.259 3.59384 10.5821 3.91685L15.2512 8.58595C16.0322 9.367 16.0322 10.6333 15.2512 11.4144L10.5821 16.0835C10.259 16.4065 9.73606 16.4088 9.4102 16.0887V16.0887C9.08024 15.7645 9.07789 15.2335 9.40497 14.9064L13.4779 10.8335Z" fill="white"/>
</g>
</svg>
