<svg width="20" height="20" viewBox="0 0 20 20" fill="none" xmlns="http://www.w3.org/2000/svg">
<mask id="mask0_1027_30227" style="mask-type:alpha" maskUnits="userSpaceOnUse" x="0" y="0" width="20" height="20">
<rect width="20" height="20" fill="#D9D9D9"/>
</mask>
<g mask="url(#mask0_1027_30227)">
<path d="M5.04297 16.125V16.875C5.04297 17.1347 4.94922 17.3524 4.76172 17.5281C4.57422 17.7038 4.34646 17.7917 4.07845 17.7917H3.13249C2.86448 17.7917 2.63672 17.7038 2.44922 17.5281C2.26172 17.3524 2.16797 17.1347 2.16797 16.875V9.95833L4.0013 4.79167C4.09357 4.51667 4.25887 4.29514 4.49722 4.12708C4.73555 3.95903 5.0008 3.875 5.29297 3.875H14.7096C15.0018 3.875 15.2671 3.95903 15.5054 4.12708C15.7437 4.29514 15.909 4.51667 16.0013 4.79167L17.8346 9.95833V16.875C17.8346 17.1347 17.7409 17.3524 17.5534 17.5281C17.3659 17.7038 17.1381 17.7917 16.8701 17.7917H15.9242C15.6561 17.7917 15.4284 17.7038 15.2409 17.5281C15.0534 17.3524 14.9596 17.1347 14.9596 16.875V16.125H5.04297ZM4.79297 8.08333H15.2096L14.3763 5.75H5.6263L4.79297 8.08333ZM6.20964 13.4167C6.57075 13.4167 6.88325 13.2847 7.14714 13.0208C7.41102 12.7569 7.54297 12.4444 7.54297 12.0833C7.54297 11.7222 7.41102 11.4097 7.14714 11.1458C6.88325 10.8819 6.57075 10.75 6.20964 10.75C5.84852 10.75 5.53602 10.8819 5.27214 11.1458C5.00825 11.4097 4.8763 11.7222 4.8763 12.0833C4.8763 12.4444 5.00825 12.7569 5.27214 13.0208C5.53602 13.2847 5.84852 13.4167 6.20964 13.4167ZM13.793 13.4167C14.1541 13.4167 14.4666 13.2847 14.7305 13.0208C14.9944 12.7569 15.1263 12.4444 15.1263 12.0833C15.1263 11.7222 14.9944 11.4097 14.7305 11.1458C14.4666 10.8819 14.1541 10.75 13.793 10.75C13.4319 10.75 13.1194 10.8819 12.8555 11.1458C12.5916 11.4097 12.4596 11.7222 12.4596 12.0833C12.4596 12.4444 12.5916 12.7569 12.8555 13.0208C13.1194 13.2847 13.4319 13.4167 13.793 13.4167ZM4.04297 14.25H15.9596V9.95833H4.04297V14.25Z" fill="white"/>
</g>
</svg>
