<svg width="20" height="20" viewBox="0 0 20 20" fill="none" xmlns="http://www.w3.org/2000/svg">
<mask id="mask0_1027_30233" style="mask-type:alpha" maskUnits="userSpaceOnUse" x="0" y="0" width="20" height="20">
<rect width="20" height="20" fill="#D9D9D9"/>
</mask>
<g mask="url(#mask0_1027_30233)">
<path d="M5.91797 15.2498C5.5958 15.572 5.07347 15.572 4.7513 15.2498V15.2498C4.42914 14.9277 4.42914 14.4053 4.7513 14.0832L8.83464 9.99984L4.7513 5.9165C4.42914 5.59434 4.42914 5.072 4.7513 4.74984V4.74984C5.07347 4.42767 5.5958 4.42767 5.91797 4.74984L10.0013 8.83317L14.0846 4.74984C14.4068 4.42767 14.9291 4.42767 15.2513 4.74984V4.74984C15.5735 5.072 15.5735 5.59434 15.2513 5.9165L11.168 9.99984L15.2513 14.0832C15.5735 14.4053 15.5735 14.9277 15.2513 15.2498V15.2498C14.9291 15.572 14.4068 15.572 14.0846 15.2498L10.0013 11.1665L5.91797 15.2498Z" fill="white"/>
</g>
</svg>
