<svg width="20" height="20" viewBox="0 0 20 20" fill="none" xmlns="http://www.w3.org/2000/svg">
<mask id="mask0_1027_30248" style="mask-type:alpha" maskUnits="userSpaceOnUse" x="0" y="0" width="20" height="20">
<rect width="20" height="20" fill="#D9D9D9"/>
</mask>
<g mask="url(#mask0_1027_30248)">
<path d="M10.0013 18.3332C8.84852 18.3332 7.76519 18.1144 6.7513 17.6769C5.73741 17.2394 4.85547 16.6457 4.10547 15.8957C3.35547 15.1457 2.76172 14.2637 2.32422 13.2498C1.88672 12.2359 1.66797 11.1526 1.66797 9.99984C1.66797 8.84706 1.88672 7.76373 2.32422 6.74984C2.76172 5.73595 3.35547 4.854 4.10547 4.104C4.85547 3.354 5.73741 2.76025 6.7513 2.32275C7.76519 1.88525 8.84852 1.6665 10.0013 1.6665C11.1541 1.6665 12.2374 1.88525 13.2513 2.32275C14.2652 2.76025 15.1471 3.354 15.8971 4.104C16.6471 4.854 17.2409 5.73595 17.6784 6.74984C18.1159 7.76373 18.3346 8.84706 18.3346 9.99984C18.3346 11.1526 18.1159 12.2359 17.6784 13.2498C17.2409 14.2637 16.6471 15.1457 15.8971 15.8957C15.1471 16.6457 14.2652 17.2394 13.2513 17.6769C12.2374 18.1144 11.1541 18.3332 10.0013 18.3332ZM10.0013 16.6665C11.8624 16.6665 13.4388 16.0207 14.7305 14.729C16.0221 13.4373 16.668 11.8609 16.668 9.99984C16.668 9.90261 16.6645 9.80192 16.6576 9.69775C16.6506 9.59359 16.6471 9.50678 16.6471 9.43734C16.5777 9.84011 16.3902 10.1734 16.0846 10.4373C15.7791 10.7012 15.418 10.8332 15.0013 10.8332H13.3346C12.8763 10.8332 12.4839 10.67 12.1576 10.3436C11.8312 10.0172 11.668 9.62484 11.668 9.1665V8.33317H8.33464V6.6665C8.33464 6.20817 8.49783 5.81581 8.82422 5.48942C9.15061 5.16303 9.54297 4.99984 10.0013 4.99984H10.8346C10.8346 4.68039 10.9214 4.39914 11.0951 4.15609C11.2687 3.91303 11.4805 3.71512 11.7305 3.56234C11.4527 3.49289 11.1714 3.43734 10.8867 3.39567C10.602 3.354 10.3069 3.33317 10.0013 3.33317C8.14019 3.33317 6.5638 3.979 5.27214 5.27067C3.98047 6.56234 3.33464 8.13873 3.33464 9.99984H7.5013C8.41797 9.99984 9.20269 10.3262 9.85547 10.979C10.5082 11.6318 10.8346 12.4165 10.8346 13.3332V14.1665H8.33464V16.4582C8.61241 16.5276 8.88672 16.5797 9.15755 16.6144C9.42839 16.6491 9.70964 16.6665 10.0013 16.6665Z" fill="white"/>
</g>
</svg>
