<svg width="62" height="83" viewBox="0 0 62 83" fill="none" xmlns="http://www.w3.org/2000/svg">
<path d="M35.098 75L25.368 81.76C23.048 83.37 19.428 81.59 20.368 79.32L22.578 74.32C22.578 74.32 12.698 74.32 6.76804 66.82C2.48804 61.4 4.83803 51.17 7.94803 49.01C9.08803 48.22 13.448 53.81 14.618 54.57L24.738 61.15C22.928 62.8 21.738 64.36 21.518 65.78C21.4277 66.2426 21.4476 66.7199 21.5761 67.1734C21.7047 67.6269 21.9383 68.0437 22.258 68.39C25.6413 72.0166 30.1806 74.3534 35.098 75Z" fill="#333333"/>
<path d="M54.4315 72.17L42.4315 81.58C40.2115 83.33 36.4915 81.76 37.3515 79.44L39.2615 74.29C38.276 74.3222 37.2895 74.2754 36.3115 74.15C32.9015 73.77 27.2215 72.41 23.0515 67.72C21.6915 66.19 23.0515 64.04 25.6515 61.72C31.8815 56.17 45.4015 49.62 47.5015 47.97C48.5815 47.12 41.0915 58.36 45.2515 61.13L54.1415 68.73C54.4565 68.8804 54.7267 69.1106 54.9251 69.3978C55.1236 69.6849 55.2434 70.019 55.2727 70.3669C55.3021 70.7147 55.2398 71.0641 55.0923 71.3805C54.9447 71.6968 54.7169 71.969 54.4315 72.17Z" fill="#333333"/>
<path d="M54.8982 43.18C47.2082 56.71 34.5682 64.32 21.2682 65.75C21.1982 65.57 20.1482 65.25 20.0982 65.06C9.73815 59.47 2.7982 49.74 0.588204 37.16C-0.446001 31.1187 -0.0659391 24.9199 1.69862 19.0502C3.46317 13.1805 6.56418 7.7996 10.7582 3.32999C17.6312 6.87072 23.3439 12.3093 27.2181 19C30.7567 13.7686 35.3907 9.36949 40.799 6.10764C46.2072 2.84578 52.2601 0.799253 58.5382 0.109985C60.9966 7.14093 61.9432 14.6117 61.3159 22.0336C60.6887 29.4555 58.5018 36.6614 54.8982 43.18Z" fill="#8EB91F"/>
<mask id="mask0_937_33928" style="mask-type:luminance" maskUnits="userSpaceOnUse" x="25" y="32" width="12" height="14">
<path d="M26.0691 40.11C25.3891 44.46 27.3491 44.43 30.1491 44.87C32.9491 45.31 35.5191 46.04 36.1991 41.69C36.8791 37.34 35.1991 33.46 32.3691 33.03C29.5391 32.6 26.7491 35.76 26.0691 40.11Z" fill="white"/>
</mask>
<g mask="url(#mask0_937_33928)">
<path d="M26.0691 40.11C25.3891 44.46 27.3491 44.43 30.1491 44.87C32.9491 45.31 35.5191 46.04 36.1991 41.69C36.8791 37.34 35.1991 33.46 32.3691 33.03C29.5391 32.6 26.7491 35.76 26.0691 40.11Z" fill="white"/>
<path d="M31.5645 41.5103C31.9051 39.3332 30.9205 37.3711 29.3654 37.1278C27.8103 36.8846 26.2736 38.4523 25.933 40.6295C25.5925 42.8066 26.577 44.7687 28.1321 45.012C29.6872 45.2552 31.224 43.6875 31.5645 41.5103Z" fill="#333333"/>
</g>
<mask id="mask1_937_33928" style="mask-type:luminance" maskUnits="userSpaceOnUse" x="12" y="30" width="11" height="13">
<path d="M12.4089 37.83C11.7289 42.18 13.689 42.16 16.479 42.59C19.269 43.02 21.849 43.76 22.539 39.42C23.229 35.08 21.539 31.19 18.709 30.75C15.879 30.31 13.0889 33.48 12.4089 37.83Z" fill="white"/>
</mask>
<g mask="url(#mask1_937_33928)">
<path d="M12.4089 37.83C11.7289 42.18 13.689 42.16 16.479 42.59C19.269 43.02 21.849 43.76 22.539 39.42C23.229 35.08 21.539 31.19 18.709 30.75C15.879 30.31 13.0889 33.48 12.4089 37.83Z" fill="white"/>
<path d="M17.8887 39.2438C18.2293 37.0667 17.2447 35.1046 15.6896 34.8613C14.1345 34.6181 12.5978 36.1858 12.2572 38.3629C11.9167 40.5401 12.9013 42.5022 14.4564 42.7454C16.0115 42.9887 17.5482 41.4209 17.8887 39.2438Z" fill="#333333"/>
</g>
</svg>
