<svg width="16" height="17" viewBox="0 0 16 17" fill="none" xmlns="http://www.w3.org/2000/svg">
<path d="M14.3486 3.52441C13.2886 3.64676 12.2716 4.01343 11.3774 4.59556C10.4832 5.17769 9.73633 5.9594 9.19554 6.87917C8.82073 7.5188 8.55871 8.21812 8.42095 8.94657C7.8573 7.6008 6.87683 6.47131 5.62363 5.72411C4.37044 4.97691 2.91062 4.6514 1.4587 4.7954C1.25535 5.84186 1.29729 6.92121 1.58123 7.94873C1.86516 8.97626 2.38336 9.924 3.09517 10.7176C3.81578 11.5132 4.70981 12.1324 5.70806 12.5271C6.7063 12.9219 7.782 13.0817 8.85188 12.9941C9.90313 12.875 10.912 12.5118 11.7979 11.9334C12.6837 11.355 13.4221 10.5775 13.954 9.66297C14.4903 8.74009 14.8051 7.70532 14.8736 6.64012C14.942 5.57492 14.7623 4.50836 14.3486 3.52441Z" fill="#3D9D35"/>
<path d="M8.4862 11.7448C8.9381 11.7448 9.30443 11.175 9.30443 10.472C9.30443 9.76907 8.9381 9.19922 8.4862 9.19922C8.0343 9.19922 7.66797 9.76907 7.66797 10.472C7.66797 11.175 8.0343 11.7448 8.4862 11.7448Z" fill="white"/>
<path d="M8.8491 11.1996C9.10016 11.1996 9.30368 10.9146 9.30368 10.5632C9.30368 10.2117 9.10016 9.92676 8.8491 9.92676C8.59805 9.92676 8.39453 10.2117 8.39453 10.5632C8.39453 10.9146 8.59805 11.1996 8.8491 11.1996Z" fill="#333333"/>
<path d="M10.4862 11.3811C10.9381 11.3811 11.3044 10.8112 11.3044 10.1083C11.3044 9.4053 10.9381 8.83545 10.4862 8.83545C10.0343 8.83545 9.66797 9.4053 9.66797 10.1083C9.66797 10.8112 10.0343 11.3811 10.4862 11.3811Z" fill="white"/>
<path d="M10.8491 10.8358C11.1002 10.8358 11.3037 10.5509 11.3037 10.1994C11.3037 9.84792 11.1002 9.56299 10.8491 9.56299C10.5981 9.56299 10.3945 9.84792 10.3945 10.1994C10.3945 10.5509 10.5981 10.8358 10.8491 10.8358Z" fill="#333333"/>
</svg>
