<svg width="32" height="33" viewBox="0 0 32 33" fill="none" xmlns="http://www.w3.org/2000/svg">
<path d="M28.7011 6.8584C26.5812 7.1031 24.547 7.83644 22.7587 9.0007C20.9703 10.165 19.4766 11.7284 18.395 13.5679C17.6454 14.8472 17.1213 16.2458 16.8458 17.7027C15.7185 15.0112 13.7576 12.7522 11.2512 11.2578C8.74479 9.76339 5.82514 9.11236 2.92131 9.40038C2.51461 11.4933 2.59849 13.652 3.16636 15.707C3.73423 17.7621 4.77063 19.6576 6.19424 21.2447C7.63548 22.836 9.42353 24.0743 11.42 24.8638C13.4165 25.6533 15.5679 25.9729 17.7077 25.7977C19.8102 25.5596 21.8279 24.8331 23.5996 23.6764C25.3714 22.5196 26.8481 20.9646 27.9119 19.1355C28.9845 17.2898 29.6141 15.2202 29.751 13.0898C29.888 10.9594 29.5285 8.8263 28.7011 6.8584Z" fill="#3D9D35"/>
<path d="M16.9763 23.2997C17.8801 23.2997 18.6128 22.16 18.6128 20.7541C18.6128 19.3482 17.8801 18.2085 16.9763 18.2085C16.0725 18.2085 15.3398 19.3482 15.3398 20.7541C15.3398 22.16 16.0725 23.2997 16.9763 23.2997Z" fill="white"/>
<path d="M17.706 22.2087C18.2081 22.2087 18.6152 21.6388 18.6152 20.9359C18.6152 20.2329 18.2081 19.6631 17.706 19.6631C17.2039 19.6631 16.7969 20.2329 16.7969 20.9359C16.7969 21.6388 17.2039 22.2087 17.706 22.2087Z" fill="#333333"/>
<path d="M20.9763 22.5722C21.8801 22.5722 22.6128 21.4325 22.6128 20.0266C22.6128 18.6207 21.8801 17.481 20.9763 17.481C20.0725 17.481 19.3398 18.6207 19.3398 20.0266C19.3398 21.4325 20.0725 22.5722 20.9763 22.5722Z" fill="white"/>
<path d="M21.706 21.4812C22.2081 21.4812 22.6152 20.9113 22.6152 20.2084C22.6152 19.5054 22.2081 18.9355 21.706 18.9355C21.2039 18.9355 20.7969 19.5054 20.7969 20.2084C20.7969 20.9113 21.2039 21.4812 21.706 21.4812Z" fill="#333333"/>
</svg>
