<svg width="48" height="49" viewBox="0 0 48 49" fill="none" xmlns="http://www.w3.org/2000/svg">
<path d="M43.0496 10.1914C39.8698 10.5585 36.8186 11.6585 34.1361 13.4049C31.4535 15.1512 29.2129 17.4964 27.5905 20.2557C26.4661 22.1746 25.68 24.2725 25.2667 26.4579C23.5758 22.4206 20.6344 19.0321 16.8748 16.7905C13.1152 14.5489 8.73576 13.5724 4.38001 14.0044C3.76997 17.1438 3.89578 20.3818 4.74758 23.4644C5.59939 26.5469 7.154 29.3902 9.2894 31.7709C11.4513 34.1578 14.1333 36.0153 17.1281 37.1996C20.1228 38.3838 23.3499 38.8632 26.5596 38.6004C29.7133 38.2432 32.7398 37.1535 35.3975 35.4184C38.0551 33.6832 40.2702 31.3507 41.8659 28.6071C43.4749 25.8384 44.4192 22.7341 44.6246 19.5385C44.83 16.3429 44.2909 13.1433 43.0496 10.1914Z" fill="#3D9D35"/>
<path d="M25.4625 34.8531C26.8182 34.8531 27.9172 33.1436 27.9172 31.0347C27.9172 28.9259 26.8182 27.2163 25.4625 27.2163C24.1068 27.2163 23.0078 28.9259 23.0078 31.0347C23.0078 33.1436 24.1068 34.8531 25.4625 34.8531Z" fill="white"/>
<path d="M26.5551 33.2164C27.3083 33.2164 27.9188 32.3616 27.9188 31.3072C27.9188 30.2527 27.3083 29.3979 26.5551 29.3979C25.802 29.3979 25.1914 30.2527 25.1914 31.3072C25.1914 32.3616 25.802 33.2164 26.5551 33.2164Z" fill="#333333"/>
<path d="M31.4625 33.7618C32.8182 33.7618 33.9172 32.0523 33.9172 29.9434C33.9172 27.8346 32.8182 26.125 31.4625 26.125C30.1068 26.125 29.0078 27.8346 29.0078 29.9434C29.0078 32.0523 30.1068 33.7618 31.4625 33.7618Z" fill="white"/>
<path d="M32.5551 32.1255C33.3083 32.1255 33.9188 31.2708 33.9188 30.2163C33.9188 29.1619 33.3083 28.3071 32.5551 28.3071C31.802 28.3071 31.1914 29.1619 31.1914 30.2163C31.1914 31.2708 31.802 32.1255 32.5551 32.1255Z" fill="#333333"/>
</svg>
