<svg width="43" height="30" viewBox="0 0 43 30" fill="none" xmlns="http://www.w3.org/2000/svg">
<path d="M40.7642 0.191406C34.4393 0.986188 28.5034 4.45433 25.0131 10.4235C23.8237 12.4577 23.0567 14.5864 22.6454 16.7429C21.7506 14.6253 20.5112 12.6189 18.8882 10.8293C14.2418 5.70486 7.72239 3.53171 1.36414 4.05416C0.21921 10.329 1.74208 17.0319 6.3885 22.1563C11.0294 27.2807 17.6266 29.6428 23.9849 29.1203C30.3098 28.32 36.09 24.9074 39.5804 18.9382C43.0707 12.9635 43.1763 6.09391 40.7642 0.191406ZM25.341 21.5616C25.291 20.5556 24.6907 19.7553 23.9571 19.7553C23.1901 19.7553 22.5676 20.6279 22.5676 21.7005C22.5676 22.7788 23.1901 23.6458 23.9571 23.6458C24.5795 23.6458 25.1076 23.0789 25.2854 22.2841C25.0353 24.0182 24.0404 25.3132 22.8455 25.3132C21.4616 25.3132 20.3444 23.5735 20.3444 21.4226C20.3444 19.2773 21.4616 17.5321 22.8455 17.5321C24.2294 17.5321 25.3465 19.2773 25.3465 21.4226C25.3465 21.4671 25.3465 21.5171 25.341 21.5616ZM31.4547 20.45C31.4047 19.444 30.8044 18.6437 30.0708 18.6437C29.3038 18.6437 28.6813 19.5163 28.6813 20.589C28.6813 21.6672 29.3038 22.5342 30.0708 22.5342C30.6933 22.5342 31.2213 21.9673 31.3991 21.1725C31.149 22.9066 30.1541 24.2016 28.9592 24.2016C27.5753 24.2016 26.4581 22.462 26.4581 20.3111C26.4581 18.1657 27.5753 16.4205 28.9592 16.4205C30.3431 16.4205 31.4602 18.1657 31.4602 20.3111C31.4602 20.3555 31.4602 20.4055 31.4547 20.45Z" fill="white" stroke="white" stroke-width="0.0555791" stroke-miterlimit="10"/>
<path d="M25.3493 21.7006C25.3493 21.8785 25.3326 22.0452 25.2992 22.2064C25.2992 22.2342 25.2937 22.262 25.2881 22.2842C25.1103 23.079 24.5823 23.6459 23.9598 23.6459C23.1928 23.6459 22.5703 22.7789 22.5703 21.7006C22.5703 20.628 23.1928 19.7554 23.9598 19.7554C24.6934 19.7554 25.2937 20.5557 25.3437 21.5617C25.3493 21.6062 25.3493 21.6562 25.3493 21.7006Z" fill="white" stroke="white" stroke-width="0.0555791" stroke-miterlimit="10"/>
<path d="M31.4586 20.5893C31.4586 20.7672 31.442 20.9339 31.4086 21.0951C31.4086 21.1229 31.4031 21.1507 31.3975 21.1729C31.2197 21.9677 30.6917 22.5346 30.0692 22.5346C29.3022 22.5346 28.6797 21.6675 28.6797 20.5893C28.6797 19.5166 29.3022 18.644 30.0692 18.644C30.8028 18.644 31.4031 19.4444 31.4531 20.4504C31.4586 20.4948 31.4586 20.5448 31.4586 20.5893Z" fill="white" stroke="white" stroke-width="0.0555791" stroke-miterlimit="10"/>
</svg>
