<svg width="680" height="281" viewBox="0 0 680 281" fill="none" xmlns="http://www.w3.org/2000/svg">
<path d="M51.8823 174C47.6977 175.143 43.835 177.241 40.5973 180.128C37.3597 183.015 34.8353 186.613 33.2223 190.64C31.9475 193.859 31.2894 197.288 31.2823 200.75C29.5172 197.894 27.2429 195.385 24.5723 193.35C21.1148 190.729 17.0955 188.947 12.8315 188.146C8.56759 187.344 4.17563 187.544 0.00225433 188.73C-0.0530013 193.071 0.908212 197.365 2.80902 201.269C4.70982 205.172 7.49752 208.576 10.9492 211.21C14.4009 213.843 18.4209 215.633 22.6877 216.435C26.9545 217.237 31.3498 217.03 35.5223 215.83C35.5223 215.73 35.5223 215.62 35.5223 215.52C39.7039 214.382 43.5623 212.284 46.79 209.392C50.0178 206.5 52.5258 202.895 54.1146 198.863C55.7033 194.831 56.3288 190.483 55.9412 186.167C55.5537 181.851 54.1638 177.685 51.8823 174Z" fill="#333333"/>
<path d="M35.0627 210.27L37.2627 222.55C37.3398 222.97 37.2503 223.403 37.0132 223.758C36.776 224.112 36.41 224.361 35.9927 224.45L25.4627 226.77C25.1192 226.832 24.7649 226.784 24.4508 226.631C24.1366 226.479 23.8787 226.232 23.7142 225.924C23.5497 225.616 23.4871 225.264 23.5354 224.918C23.5836 224.573 23.7402 224.251 23.9827 224L27.5827 220.66C27.7703 220.482 27.914 220.263 28.0025 220.02C28.091 219.777 28.1219 219.517 28.0927 219.26L27.1927 211.19C27.1678 210.971 27.1873 210.75 27.2498 210.539C27.3123 210.328 27.4166 210.132 27.5566 209.962C27.6966 209.792 27.8693 209.652 28.0645 209.55C28.2597 209.449 28.4733 209.387 28.6927 209.37L33.2927 208.97C33.6958 208.932 34.099 209.043 34.4254 209.283C34.7518 209.523 34.9786 209.874 35.0627 210.27Z" fill="#333333"/>
<path d="M36.6318 210.61L38.6318 222.92C38.6986 223.342 38.9272 223.721 39.2689 223.976C39.6106 224.232 40.0385 224.345 40.4619 224.29L51.1619 222.93C51.5204 222.884 51.8541 222.722 52.1116 222.469C52.3691 222.215 52.5362 221.884 52.5873 221.526C52.6385 221.169 52.5707 220.804 52.3945 220.489C52.2182 220.173 51.9433 219.924 51.6119 219.78L47.1019 217.84C46.8562 217.744 46.6371 217.59 46.4631 217.392C46.2891 217.193 46.1653 216.956 46.1019 216.7L44.2419 208.8C44.1915 208.588 44.0996 208.388 43.9716 208.212C43.8435 208.036 43.6819 207.887 43.496 207.773C43.3101 207.66 43.1035 207.585 42.8883 207.551C42.673 207.518 42.4533 207.528 42.2419 207.58L37.7618 208.75C37.3787 208.868 37.0521 209.123 36.8439 209.466C36.6357 209.808 36.5602 210.215 36.6318 210.61Z" fill="#333333"/>
<path d="M513.871 207.8V270.61C513.875 272.759 514.709 274.823 516.201 276.37C517.692 277.917 519.724 278.827 521.871 278.91L576.121 280.99C577.939 281.058 579.729 280.528 581.216 279.48C582.702 278.432 583.804 276.925 584.35 275.19C584.897 273.455 584.858 271.588 584.24 269.877C583.623 268.166 582.46 266.706 580.931 265.72L560.151 252.36C559.061 251.659 558.15 250.712 557.492 249.596C556.833 248.479 556.446 247.223 556.361 245.93L553.641 205.14C553.567 204.039 553.274 202.964 552.779 201.978C552.284 200.991 551.598 200.113 550.76 199.396C549.922 198.678 548.949 198.134 547.898 197.797C546.848 197.459 545.74 197.334 544.641 197.43L521.471 199.54C519.4 199.715 517.47 200.661 516.063 202.191C514.656 203.72 513.874 205.722 513.871 207.8Z" fill="#333333"/>
<path d="M581.14 205.11L630.7 243.71C632.393 245.03 634.532 245.642 636.667 245.418C638.802 245.194 640.767 244.152 642.15 242.51L677.15 200.99C678.329 199.598 679.016 197.857 679.106 196.035C679.197 194.214 678.684 192.413 677.648 190.912C676.613 189.411 675.111 188.292 673.376 187.73C671.641 187.167 669.769 187.192 668.05 187.8L644.75 195.99C643.522 196.415 642.213 196.545 640.926 196.372C639.639 196.198 638.411 195.725 637.34 194.99L603.5 172.08C602.583 171.459 601.552 171.027 600.467 170.81C599.381 170.593 598.263 170.596 597.178 170.817C596.094 171.039 595.064 171.476 594.151 172.101C593.238 172.727 592.458 173.529 591.86 174.46L579.28 194.08C578.159 195.82 577.729 197.915 578.073 199.955C578.417 201.996 579.511 203.834 581.14 205.11Z" fill="#333333"/>
<path d="M651.392 16.4C611.502 25.4 575.751 51.1 557.132 91.34C551.028 104.521 547.22 118.647 545.871 133.11C538.743 119.817 529.415 107.827 518.282 97.65C485.522 67.78 442.572 57.91 402.342 65.13C398.872 105.85 412.672 147.7 445.432 177.57C460.972 191.744 479.564 202.154 499.77 207.994C519.977 213.834 541.256 214.948 561.962 211.25C601.852 202.25 636.642 176.99 655.262 136.76C673.882 96.53 670.382 52.6 651.392 16.4Z" fill="#3D9D35"/>
<path d="M552.419 187.624C561.232 186.78 567.311 174.98 565.998 161.269C564.685 147.558 556.477 137.127 547.664 137.971C538.851 138.815 532.771 150.614 534.084 164.325C535.397 178.036 543.606 188.467 552.419 187.624Z" fill="white"/>
<path d="M558.493 176.313C563.391 175.844 566.83 169.906 566.174 163.051C565.517 156.195 561.014 151.018 556.116 151.487C551.217 151.956 547.778 157.894 548.435 164.749C549.091 171.605 553.594 176.782 558.493 176.313Z" fill="#333333"/>
<path d="M590.743 176.799C599.556 175.955 605.636 164.156 604.323 150.445C603.01 136.733 594.801 126.302 585.988 127.146C577.175 127.99 571.096 139.789 572.409 153.501C573.722 167.212 581.93 177.643 590.743 176.799Z" fill="white"/>
<path d="M596.813 165.479C601.712 165.01 605.15 159.072 604.494 152.216C603.837 145.361 599.334 140.183 594.436 140.652C589.537 141.121 586.099 147.059 586.755 153.915C587.412 160.771 591.915 165.948 596.813 165.479Z" fill="#333333"/>
<path d="M330.379 100L320.649 106.76C318.329 108.37 314.709 106.59 315.649 104.32L317.859 99.32C317.859 99.32 307.979 99.32 302.049 91.82C297.769 86.4 300.119 76.17 303.229 74.01C304.369 73.22 308.729 78.81 309.899 79.57L320.019 86.15C318.209 87.8 317.019 89.36 316.799 90.78C316.709 91.2426 316.729 91.7199 316.857 92.1734C316.986 92.6269 317.22 93.0437 317.539 93.39C320.923 97.0166 325.462 99.3534 330.379 100Z" fill="#333333"/>
<path d="M349.713 97.17L337.713 106.58C335.493 108.33 331.773 106.76 332.633 104.44L334.543 99.29C333.557 99.3222 332.571 99.2754 331.593 99.15C328.183 98.77 322.503 97.41 318.333 92.72C316.973 91.19 318.333 89.04 320.933 86.72C327.163 81.17 340.683 74.62 342.783 72.97C343.863 72.12 336.373 83.36 340.533 86.13L349.423 93.73C349.738 93.8804 350.008 94.1106 350.206 94.3978C350.405 94.6849 350.525 95.019 350.554 95.3669C350.583 95.7147 350.521 96.0641 350.374 96.3805C350.226 96.6968 349.998 96.969 349.713 97.17Z" fill="#333333"/>
<path d="M350.179 68.18C342.489 81.71 329.849 89.32 316.549 90.75C316.479 90.57 315.429 90.25 315.379 90.06C305.019 84.47 298.079 74.74 295.869 62.16C294.835 56.1187 295.215 49.9199 296.98 44.0502C298.744 38.1805 301.845 32.7996 306.039 28.33C312.912 31.8707 318.625 37.3093 322.499 44C326.038 38.7686 330.672 34.3695 336.08 31.1076C341.488 27.8458 347.541 25.7993 353.819 25.11C356.278 32.1409 357.224 39.6117 356.597 47.0336C355.97 54.4555 353.783 61.6614 350.179 68.18Z" fill="#8EB91F"/>
<mask id="mask0_1996_21314" style="mask-type:luminance" maskUnits="userSpaceOnUse" x="321" y="57" width="11" height="14">
<path d="M321.35 65.11C320.67 69.46 322.63 69.43 325.43 69.87C328.23 70.31 330.8 71.04 331.48 66.69C332.16 62.34 330.48 58.46 327.65 58.03C324.82 57.6 322.03 60.76 321.35 65.11Z" fill="white"/>
</mask>
<g mask="url(#mask0_1996_21314)">
<path d="M321.35 65.11C320.67 69.46 322.63 69.43 325.43 69.87C328.23 70.31 330.8 71.04 331.48 66.69C332.16 62.34 330.48 58.46 327.65 58.03C324.82 57.6 322.03 60.76 321.35 65.11Z" fill="white"/>
<path d="M326.846 66.5103C327.186 64.3332 326.202 62.3711 324.647 62.1278C323.092 61.8846 321.555 63.4523 321.214 65.6295C320.874 67.8066 321.858 69.7687 323.413 70.012C324.968 70.2552 326.505 68.6875 326.846 66.5103Z" fill="#333333"/>
</g>
<mask id="mask1_1996_21314" style="mask-type:luminance" maskUnits="userSpaceOnUse" x="307" y="55" width="11" height="13">
<path d="M307.69 62.83C307.01 67.18 308.97 67.16 311.76 67.59C314.55 68.02 317.13 68.76 317.82 64.42C318.51 60.08 316.82 56.19 313.99 55.75C311.16 55.31 308.37 58.48 307.69 62.83Z" fill="white"/>
</mask>
<g mask="url(#mask1_1996_21314)">
<path d="M307.69 62.83C307.01 67.18 308.97 67.16 311.76 67.59C314.55 68.02 317.13 68.76 317.82 64.42C318.51 60.08 316.82 56.19 313.99 55.75C311.16 55.31 308.37 58.48 307.69 62.83Z" fill="white"/>
<path d="M313.17 64.2438C313.511 62.0667 312.526 60.1046 310.971 59.8613C309.416 59.6181 307.879 61.1858 307.538 63.3629C307.198 65.5401 308.183 67.5022 309.738 67.7454C311.293 67.9887 312.829 66.4209 313.17 64.2438Z" fill="#333333"/>
</g>
<path fill-rule="evenodd" clip-rule="evenodd" d="M534.311 6.54995C538.961 12.2999 539.631 18.74 537.761 24.14L533.671 41.1L531.821 47.95C531.572 48.8813 531.066 49.7235 530.36 50.3803C529.655 51.0371 528.778 51.4818 527.832 51.6634C526.885 51.8451 525.906 51.7563 525.007 51.4072C524.109 51.0582 523.327 50.463 522.751 49.69L518.491 44L507.921 29.85H507.971C506.001 27.5657 504.657 24.8092 504.071 21.85C501.611 9.67997 512.501 -2.06005 526.611 1.60995C529.641 2.38853 532.34 4.12036 534.311 6.54995ZM528.652 18.05C528.652 22.4683 525.071 26.05 520.652 26.05C516.234 26.05 512.652 22.4683 512.652 18.05C512.652 13.6317 516.234 10.05 520.652 10.05C525.071 10.05 528.652 13.6317 528.652 18.05Z" fill="white"/>
</svg>
