<svg width="116" height="104" viewBox="0 0 116 104" fill="none" xmlns="http://www.w3.org/2000/svg">
<g clip-path="url(#clip0_603_23967)">
<path d="M61.7392 103.826C60.6131 103.826 59.6992 102.912 59.6992 101.786V25.0833C59.6992 23.9572 60.6131 23.0433 61.7392 23.0433C62.8652 23.0433 63.7791 23.9572 63.7791 25.0833V101.786C63.7791 102.92 62.8652 103.826 61.7392 103.826Z" fill="#006D3B"/>
<path d="M116.003 45.0748H72.5849C67.2729 45.0748 62.9727 40.7664 62.9727 35.4625V23.8593H105.812C111.442 23.8593 116.011 28.4288 116.011 34.059V45.0748H116.003Z" fill="#006D3B"/>
<path d="M0.128906 70.3703H50.0833C55.3954 70.3703 59.6956 66.0619 59.6956 60.758V49.1548H10.3287C4.69841 49.1548 0.128906 53.7243 0.128906 59.3546V70.3703Z" fill="#006D3B"/>
<path d="M29.5078 85.7352H50.0869C55.3989 85.7352 59.6991 90.0436 59.6991 95.3475V96.4899H39.7076C34.0773 96.4899 29.5078 91.9204 29.5078 86.2901V85.7352Z" fill="#006D3B"/>
<path d="M3.06798 0C14.1653 1.53405 24.5201 7.74367 30.5258 18.3106C32.5657 21.901 33.8713 25.6626 34.5567 29.4651C36.1642 25.7605 38.3918 22.26 41.2804 19.1511C49.5382 10.2406 61.0435 6.56049 72.198 7.61311C74.0747 18.6533 71.2677 30.4035 63.0019 39.3058C54.736 48.2082 43.1001 52.2228 31.9456 51.1702C20.8482 49.6362 10.7708 43.5245 4.76522 32.9575C-1.24857 22.3987 -1.28937 10.3222 3.06798 0Z" fill="#8EB91F"/>
<path d="M41.0701 35.2503C41.7522 31.5357 40.3718 28.1695 37.9871 27.7316C35.6023 27.2938 33.1162 29.95 32.4341 33.6646C31.7521 37.3791 33.1324 40.7453 35.5172 41.1832C37.902 41.6211 40.3881 38.9648 41.0701 35.2503Z" fill="white"/>
<path d="M37.1436 35.0248C37.4846 33.1675 36.6866 31.4647 35.3613 31.2213C34.0359 30.978 32.685 32.2863 32.344 34.1436C32.003 36.0008 32.801 37.7037 34.1263 37.9471C35.4517 38.1904 36.8026 36.8821 37.1436 35.0248Z" fill="#333333"/>
<path d="M29.7186 33.2505C30.4006 29.536 29.0203 26.1698 26.6355 25.7319C24.2507 25.294 21.7646 27.9503 21.0826 31.6648C20.4006 35.3794 21.7809 38.7456 24.1656 39.1835C26.5504 39.6213 29.0365 36.965 29.7186 33.2505Z" fill="white"/>
<path d="M25.792 33.033C26.133 31.1757 25.3351 29.4728 24.0097 29.2295C22.6843 28.9861 21.3335 30.2945 20.9925 32.1518C20.6514 34.009 21.4494 35.7119 22.7748 35.9553C24.1001 36.1986 25.451 34.8903 25.792 33.033Z" fill="#333333"/>
<path d="M18.8982 43.4429C18.8982 43.4429 9.10646 41.8109 9.10646 56.4986C9.10646 71.1863 9.10646 76.0821 9.10646 76.0821L5.47535 77.5346C4.51249 77.9181 4.78992 79.3461 5.82622 79.3461H19.0533C20.3262 79.3461 21.3544 78.3261 21.3625 77.0613C21.4278 70.5416 22.6028 50.6398 24.6101 49.9707C27.0581 49.1547 22.9782 43.4429 18.8982 43.4429Z" fill="#333333"/>
<path d="M38.8025 44.7566C38.8025 44.7566 28.8883 44.2833 30.61 58.8731C32.3317 73.4629 32.9111 78.318 32.9111 78.318L29.4758 80.1866C28.5701 80.6843 29.0107 82.0633 30.0307 81.9409L43.168 80.3905C44.4246 80.2437 45.3303 79.1095 45.1998 77.8528C44.498 71.374 43.3312 51.4721 45.2487 50.5664C47.5824 49.473 42.8579 44.2833 38.8025 44.7566Z" fill="#333333"/>
<path d="M100.936 56.5149L95.0859 56.8576L94.8085 52.1331C94.6942 50.24 93.0786 48.8039 91.1855 48.9181L81.7364 49.4811C79.8434 49.5954 78.4072 51.211 78.5215 53.1041L78.7989 57.8286L72.5403 58.1958C68.9092 58.408 66.143 61.525 66.3552 65.1562L68.0361 93.5523C68.2483 97.1834 71.3653 99.9496 74.9964 99.7375L78.2196 99.5498C78.2114 99.6804 78.2114 99.8191 78.2196 99.9578C78.342 101.99 80.0718 103.524 82.1036 103.409C84.1354 103.287 85.6695 101.557 85.5552 99.5253C85.5471 99.3866 85.5308 99.2479 85.5063 99.1173L93.6987 98.6359C93.6906 98.7664 93.6906 98.9052 93.6987 99.0439C93.8211 101.076 95.551 102.61 97.5828 102.495C99.6146 102.373 101.149 100.643 101.034 98.6114C101.026 98.4727 101.01 98.334 100.985 98.2034L103.393 98.0647C107.024 97.8526 109.79 94.7355 109.578 91.1044L107.897 62.7082C107.685 59.0608 104.576 56.2946 100.936 56.5149ZM82.3076 54.9645C82.2342 53.7161 83.1726 52.6553 84.421 52.5819L88.8844 52.3208C90.1329 52.2473 91.1937 53.1857 91.2671 54.4341L91.4221 57.0698L82.4627 57.6002L82.3076 54.9645ZM85.645 85.9963C85.7266 87.3672 84.674 88.5422 83.3031 88.6156C81.9323 88.6972 80.7573 87.6528 80.6838 86.2819L79.8189 71.684C79.7373 70.3132 80.7817 69.1463 82.1526 69.0647C82.838 69.0239 83.4745 69.2605 83.9559 69.6849C84.4292 70.1092 84.7474 70.713 84.7882 71.3903L85.645 85.9963ZM96.979 85.3191C97.0606 86.6899 96.0161 87.8649 94.6453 87.9384C93.2744 88.02 92.0994 86.9755 92.0178 85.6128L91.1529 71.0149C91.0713 69.6441 92.1239 68.469 93.4947 68.3956C94.1802 68.3548 94.8166 68.5914 95.2899 69.0157C95.7632 69.4401 96.0814 70.0439 96.1222 70.7211L96.979 85.3191Z" fill="#F3D400"/>
</g>
<defs>
<clipPath id="clip0_603_23967">
<rect width="116" height="103.826" fill="white"/>
</clipPath>
</defs>
</svg>
