<svg width="20" height="20" viewBox="0 0 20 20" fill="none" xmlns="http://www.w3.org/2000/svg">
<mask id="mask0_1027_30257" style="mask-type:alpha" maskUnits="userSpaceOnUse" x="0" y="0" width="20" height="20">
<rect width="20" height="20" fill="#D9D9D9"/>
</mask>
<g mask="url(#mask0_1027_30257)">
<path d="M9.16797 10.8332H5.0013C4.54107 10.8332 4.16797 10.4601 4.16797 9.99984V9.99984C4.16797 9.5396 4.54107 9.1665 5.0013 9.1665H9.16797V4.99984C9.16797 4.5396 9.54106 4.1665 10.0013 4.1665V4.1665C10.4615 4.1665 10.8346 4.5396 10.8346 4.99984V9.1665H15.0013C15.4615 9.1665 15.8346 9.5396 15.8346 9.99984V9.99984C15.8346 10.4601 15.4615 10.8332 15.0013 10.8332H10.8346V14.9998C10.8346 15.4601 10.4615 15.8332 10.0013 15.8332V15.8332C9.54106 15.8332 9.16797 15.4601 9.16797 14.9998V10.8332Z" fill="white"/>
</g>
</svg>
