<svg width="20" height="20" viewBox="0 0 20 20" fill="none" xmlns="http://www.w3.org/2000/svg">
<mask id="mask0_1027_30245" style="mask-type:alpha" maskUnits="userSpaceOnUse" x="0" y="0" width="20" height="20">
<rect width="20" height="20" fill="#D9D9D9"/>
</mask>
<g mask="url(#mask0_1027_30245)">
<path d="M6.51953 10.8335L10.5924 14.9064C10.9195 15.2335 10.9172 15.7645 10.5872 16.0887V16.0887C10.2613 16.4088 9.73835 16.4065 9.41534 16.0835L4.74624 11.4144C3.9652 10.6333 3.9652 9.367 4.74624 8.58595L9.41534 3.91685C9.73835 3.59384 10.2613 3.59153 10.5872 3.91167V3.91167C10.9172 4.23584 10.9195 4.76686 10.5924 5.09394L6.51953 9.16683H15.832C16.2923 9.16683 16.6654 9.53993 16.6654 10.0002V10.0002C16.6654 10.4604 16.2923 10.8335 15.832 10.8335H6.51953Z" fill="white"/>
</g>
</svg>
