<svg width="20" height="20" viewBox="0 0 20 20" fill="none" xmlns="http://www.w3.org/2000/svg">
<mask id="mask0_1027_30274" style="mask-type:alpha" maskUnits="userSpaceOnUse" x="0" y="0" width="20" height="20">
<rect width="20" height="20" fill="#D9D9D9"/>
</mask>
<g mask="url(#mask0_1027_30274)">
<path d="M6.42313 16.9218C6.09727 17.242 5.57429 17.2397 5.25128 16.9166L3.08218 14.7475C2.30113 13.9665 2.30113 12.7002 3.08218 11.9191L5.25128 9.75002C5.57429 9.42701 6.09727 9.4247 6.42313 9.74484V9.74484C6.75309 10.069 6.75544 10.6 6.42836 10.9271L4.85547 12.5H16.668C17.1282 12.5 17.5013 12.8731 17.5013 13.3333V13.3333C17.5013 13.7936 17.1282 14.1667 16.668 14.1667H4.85547L6.42836 15.7396C6.75544 16.0666 6.75309 16.5977 6.42313 16.9218V16.9218ZM14.7513 10.25C14.4283 10.573 13.9053 10.5753 13.5795 10.2552V10.2552C13.2495 9.93099 13.2472 9.39997 13.5742 9.07289L15.1471 7.5H3.33464C2.8744 7.5 2.5013 7.1269 2.5013 6.66667V6.66667C2.5013 6.20643 2.8744 5.83333 3.33464 5.83333H15.1471L13.5742 4.26044C13.2472 3.93336 13.2495 3.40234 13.5795 3.07817V3.07817C13.9053 2.75803 14.4283 2.76035 14.7513 3.08336L16.9204 5.25245C17.7015 6.0335 17.7015 7.29983 16.9204 8.08088L14.7513 10.25Z" fill="white"/>
</g>
</svg>
