<svg width="20" height="20" viewBox="0 0 20 20" fill="none" xmlns="http://www.w3.org/2000/svg">
<mask id="mask0_1027_30271" style="mask-type:alpha" maskUnits="userSpaceOnUse" x="0" y="0" width="20" height="20">
<rect width="20" height="20" fill="#D9D9D9"/>
</mask>
<g mask="url(#mask0_1027_30271)">
<path d="M6.00132 19.0833C5.49715 19.0833 5.06555 18.9038 4.70652 18.5448C4.34748 18.1857 4.16797 17.7541 4.16797 17.25V7.16655C4.16797 6.66238 4.34748 6.23078 4.70652 5.87175C5.06555 5.51272 5.49715 5.3332 6.00132 5.3332H7.83467V3.04152C7.83467 2.65957 7.96835 2.33491 8.23571 2.06755C8.50308 1.80019 8.82773 1.6665 9.20968 1.6665H11.9597C12.3417 1.6665 12.6663 1.80019 12.9337 2.06755C13.201 2.33491 13.3347 2.65957 13.3347 3.04152V5.3332H15.1681C15.6722 5.3332 16.1038 5.51272 16.4629 5.87175C16.8219 6.23078 17.0014 6.66238 17.0014 7.16655V17.25C17.0014 17.7541 16.8219 18.1857 16.4629 18.5448C16.1038 18.9038 15.6722 19.0833 15.1681 19.0833C15.1681 19.343 15.0802 19.5608 14.9045 19.7365C14.7288 19.9122 14.5111 20 14.2514 20C13.9917 20 13.774 19.9122 13.5983 19.7365C13.4226 19.5608 13.3347 19.343 13.3347 19.0833H7.83467C7.83467 19.343 7.74682 19.5608 7.57112 19.7365C7.39543 19.9122 7.17772 20 6.91799 20C6.65827 20 6.44056 19.9122 6.26486 19.7365C6.08917 19.5608 6.00132 19.343 6.00132 19.0833ZM6.00132 17.25H15.1681V7.16655H6.00132V17.25ZM6.91799 16.3333H8.29301V8.08323H6.91799V16.3333ZM9.89719 16.3333H11.2722V8.08323H9.89719V16.3333ZM12.8764 16.3333H14.2514V8.08323H12.8764V16.3333ZM9.20968 5.3332H11.9597V3.04152H9.20968V5.3332Z" fill="white"/>
</g>
</svg>
