<svg width="20" height="20" viewBox="0 0 20 20" fill="none" xmlns="http://www.w3.org/2000/svg">
<mask id="mask0_315_27014" style="mask-type:luminance" maskUnits="userSpaceOnUse" x="7" y="4" width="10" height="16">
<path d="M7.14844 4.22656H16.5325V19.5507H7.14844V4.22656Z" fill="white"/>
</mask>
<g mask="url(#mask0_315_27014)">
<path d="M15.4813 10.8672H15.4859C15.4859 10.8672 13.7296 13.4433 12.2529 15.358C10.9764 17.0118 10.6036 18.428 10.4965 19.1128C10.4546 19.3643 10.2496 19.5507 10.0027 19.5507C9.75578 19.5507 9.55083 19.3643 9.50891 19.1128C9.40172 18.428 9.02906 17.0118 7.75255 15.358C7.55688 15.1018 7.35656 14.8363 7.15625 14.5661L11.978 8.83606L15.8586 4.2334C16.2872 5.13251 16.5248 6.13876 16.5248 7.20559C16.5248 8.55652 16.1382 9.8097 15.4813 10.8672Z" fill="#48B564"/>
</g>
<path d="M11.975 8.83618L7.15328 14.5662C5.83953 12.8052 4.51646 10.8673 4.51646 10.8673H4.52115C4.38135 10.6437 4.25557 10.4155 4.14844 10.1779L8.02448 5.5752C7.65641 6.0178 7.43745 6.58613 7.43745 7.20572C7.43745 8.62191 8.58349 9.7679 9.99974 9.7679C10.7964 9.7679 11.5092 9.40452 11.975 8.83618Z" fill="#FCC60E"/>
<mask id="mask1_315_27014" style="mask-type:luminance" maskUnits="userSpaceOnUse" x="5" y="0" width="8" height="6">
<path d="M5 0.450684H12.0533V5.54657H5V0.450684Z" fill="white"/>
</mask>
<g mask="url(#mask1_315_27014)">
<path d="M12.0524 0.795423L8.06 5.53782L5.00391 2.87313C6.19651 1.39173 7.99474 0.450684 10.0027 0.450684C10.7201 0.450684 11.4096 0.571829 12.0524 0.795423Z" fill="#2C85EB"/>
</g>
<mask id="mask2_315_27014" style="mask-type:luminance" maskUnits="userSpaceOnUse" x="3" y="2" width="6" height="9">
<path d="M3.46875 2.8667H8.06469V10.1867H3.46875V2.8667Z" fill="white"/>
</mask>
<g mask="url(#mask2_315_27014)">
<path d="M8.05604 5.53773L8.02344 5.57497L4.1474 10.1776C3.7188 9.27852 3.47656 8.27227 3.47656 7.20549C3.47656 5.55638 4.04958 4.04232 4.99995 2.87305L8.05604 5.53773Z" fill="#ED5748"/>
</g>
<path d="M11.9779 8.83604C12.3459 8.39348 12.5648 7.82515 12.5648 7.20557C12.5648 5.78937 11.4189 4.64338 10.0026 4.64338C9.20599 4.64338 8.49318 5.00671 8.02734 5.57505L12.0524 0.79541C13.7249 1.36374 15.0945 2.61687 15.8585 4.23338L11.9779 8.83604Z" fill="#5695F6"/>
</svg>
