<svg width="102" height="109" viewBox="0 0 102 109" fill="none" xmlns="http://www.w3.org/2000/svg">
<g clip-path="url(#clip0_603_23984)">
<path d="M68.3899 89.27L26.7699 106.56C22.7299 108.24 19.4799 105.8 19.5199 101.12L20.0399 34.26C20.0799 29.58 23.3799 24.42 27.4199 22.74L69.0399 5.46002C73.0799 3.78002 76.3299 6.22002 76.2899 10.9L75.7699 77.76C75.7399 82.44 72.4299 87.6 68.3899 89.27Z" fill="#006D3B"/>
<path d="M69.9676 16.8263C71.4103 14.2669 71.2147 11.4227 69.5309 10.4736C67.8471 9.52445 65.3126 10.8299 63.8699 13.3893C62.4273 15.9487 62.6228 18.793 64.3067 19.7421C65.9905 20.6912 68.525 19.3857 69.9676 16.8263Z" fill="white"/>
<mask id="mask0_603_23984" style="mask-type:luminance" maskUnits="userSpaceOnUse" x="0" y="24" width="63" height="73">
<path d="M58.3302 73.86L4.10016 96.39C1.82016 97.34 -0.0198385 95.96 0.000161512 93.32L0.300162 54.27C0.320162 51.62 2.19016 48.71 4.47016 47.76L58.7002 25.23C60.9802 24.28 62.8202 25.66 62.8002 28.3L62.5002 67.35C62.4802 69.99 60.6202 72.91 58.3302 73.86Z" fill="white"/>
</mask>
<g mask="url(#mask0_603_23984)">
<path d="M58.3302 73.86L4.10016 96.39C1.82016 97.34 -0.0198385 95.96 0.000161512 93.32L0.300162 54.27C0.320162 51.62 2.19016 48.71 4.47016 47.76L58.7002 25.23C60.9802 24.28 62.8202 25.66 62.8002 28.3L62.5002 67.35C62.4802 69.99 60.6202 72.91 58.3302 73.86Z" fill="white"/>
</g>
<mask id="mask1_603_23984" style="mask-type:luminance" maskUnits="userSpaceOnUse" x="0" y="24" width="63" height="73">
<path d="M58.3302 73.86L4.10016 96.39C1.82016 97.34 -0.0198385 95.96 0.000161512 93.32L0.300162 54.27C0.320162 51.62 2.19016 48.71 4.47016 47.76L58.7002 25.23C60.9802 24.28 62.8202 25.66 62.8002 28.3L62.5002 67.35C62.4802 69.99 60.6202 72.91 58.3302 73.86Z" fill="white"/>
</mask>
<g mask="url(#mask1_603_23984)">
<mask id="mask2_603_23984" style="mask-type:luminance" maskUnits="userSpaceOnUse" x="14" y="41" width="65" height="68">
<path d="M14.3195 103.64L18.0495 71.85C18.3095 69.62 19.6095 67.31 21.3795 65.92L50.8795 42.74C52.3395 41.6 53.9195 41.23 55.1495 41.75L76.6095 50.8C79.7095 52.11 79.0095 57.98 75.3895 61.02L20.6995 106.94C17.2895 109.8 13.8095 108 14.3195 103.64Z" fill="white"/>
</mask>
<g mask="url(#mask2_603_23984)">
<path d="M14.3195 103.64L18.0495 71.85C18.3095 69.62 19.6095 67.31 21.3795 65.92L50.8795 42.74C52.3395 41.6 53.9195 41.23 55.1495 41.75L76.6095 50.8C79.7095 52.11 79.0095 57.98 75.3895 61.02L20.6995 106.94C17.2895 109.8 13.8095 108 14.3195 103.64Z" fill="#F3D400"/>
</g>
<mask id="mask3_603_23984" style="mask-type:luminance" maskUnits="userSpaceOnUse" x="14" y="41" width="65" height="68">
<path d="M14.3195 103.64L18.0495 71.85C18.3095 69.62 19.6095 67.31 21.3795 65.92L50.8795 42.74C52.3395 41.6 53.9195 41.23 55.1495 41.75L76.6095 50.8C79.7095 52.11 79.0095 57.98 75.3895 61.02L20.6995 106.94C17.2895 109.8 13.8095 108 14.3195 103.64Z" fill="white"/>
</mask>
<g mask="url(#mask3_603_23984)">
<path d="M10.8594 69.85L56.5194 35.41L68.9194 43.67C68.9194 43.67 64.3694 56.91 59.9294 55.66C55.4894 54.41 50.1194 57.67 50.1194 58.71C50.1094 59.74 54.4794 70.31 48.2494 70.83C42.0194 71.36 40.3094 61.75 37.6194 64.93C34.9294 68.11 37.5094 79.42 33.0494 80.24C28.5894 81.06 29.5294 74.48 25.0594 77.37C20.5894 80.26 21.4594 82.99 18.7594 86.18C16.0694 89.36 11.5994 91.22 11.5994 91.22L10.8594 69.85Z" fill="#8C6239"/>
</g>
<path d="M35.0109 54.66C35.0109 54.66 32.3709 50.6 36.8509 46.67C41.3309 42.74 44.9009 41.26 44.9009 41.26" stroke="#1A1A1A" stroke-miterlimit="10"/>
<path d="M37.8223 56.3374C38.945 54.3457 38.7942 52.1331 37.4857 51.3955C36.1771 50.6579 34.2062 51.6746 33.0835 53.6663C31.9609 55.6581 32.1116 57.8706 33.4202 58.6082C34.7288 59.3458 36.6997 58.3291 37.8223 56.3374Z" fill="#EB5757"/>
</g>
<path d="M63.9414 14.44L67.2414 16.88L76.1714 0.47998" stroke="#8EB91F" stroke-width="2" stroke-miterlimit="10"/>
<path d="M74.5489 84.81V98.78C74.5489 99.77 73.7689 100.59 72.7689 100.63L60.6989 101.09C58.8189 101.16 58.0489 98.71 59.6289 97.69L64.2489 94.72C64.7389 94.4 65.0488 93.87 65.0888 93.29L65.6889 84.22C65.7589 83.19 66.6689 82.41 67.6989 82.5L72.8489 82.97C73.8189 83.06 74.5489 83.86 74.5489 84.81Z" fill="#333333"/>
<path d="M89.6704 76.9499L101.03 85.0899C101.84 85.6699 102.04 86.7799 101.5 87.6099L94.8504 97.69C93.8104 99.26 91.3704 98.4599 91.4604 96.58L91.7404 91.0899C91.7704 90.5099 91.5204 89.9399 91.0704 89.5699L84.0504 83.7899C83.2504 83.1299 83.1504 81.94 83.8304 81.16L87.2104 77.2399C87.8304 76.5199 88.9004 76.3999 89.6704 76.9499Z" fill="#333333"/>
<path d="M58.5508 48.8L74.5508 54.54L84.5508 42.09C84.5508 42.09 109.551 70.81 88.5508 82.3C63.2408 96.15 52.5508 76.56 52.5508 67.94C52.5508 60.23 54.5508 53.59 58.5508 48.8Z" fill="#8EB91F"/>
<path d="M63.6711 71.7723C65.205 71.6254 66.2633 69.572 66.0349 67.1859C65.8065 64.7998 64.3778 62.9845 62.8439 63.1313C61.3099 63.2782 60.2516 65.3316 60.48 67.7177C60.7084 70.1038 62.1371 71.9191 63.6711 71.7723Z" fill="white"/>
<path d="M64.4631 69.8596C65.5188 69.7585 66.2597 68.4777 66.1181 66.9987C65.9766 65.5198 65.006 64.4027 63.9504 64.5038C62.8948 64.6048 62.1538 65.8857 62.2954 67.3647C62.437 68.8436 63.4075 69.9606 64.4631 69.8596Z" fill="#333333"/>
<path d="M70.6711 71.7721C72.205 71.6253 73.2633 69.5719 73.0349 67.1858C72.8065 64.7997 71.3778 62.9844 69.8439 63.1312C68.3099 63.2781 67.2516 65.3314 67.48 67.7176C67.7084 70.1037 69.1371 71.919 70.6711 71.7721Z" fill="white"/>
<path d="M71.4631 69.8593C72.5188 69.7583 73.2597 68.4774 73.1181 66.9985C72.9766 65.5195 72.006 64.4025 70.9504 64.5035C69.8948 64.6046 69.1538 65.8855 69.2954 67.3644C69.437 68.8434 70.4075 69.9604 71.4631 69.8593Z" fill="#333333"/>
</g>
<defs>
<clipPath id="clip0_603_23984">
<rect width="101.8" height="108.32" fill="white"/>
</clipPath>
</defs>
</svg>
