<svg width="164" height="127" viewBox="0 0 164 127" fill="none" xmlns="http://www.w3.org/2000/svg">
<path d="M103.553 126.806C102.299 126.806 101.281 125.788 101.281 124.533V39.0841C101.281 37.8296 102.299 36.8115 103.553 36.8115C104.808 36.8115 105.826 37.8296 105.826 39.0841V124.533C105.826 125.797 104.808 126.806 103.553 126.806Z" fill="#006D3B"/>
<path d="M164.005 61.3551H115.636C109.718 61.3551 104.927 56.5554 104.927 50.6467V37.7202H152.651C158.924 37.7202 164.014 42.8108 164.014 49.0831V61.3551H164.005Z" fill="#006D3B"/>
<path d="M34.917 89.5352H90.568C96.4858 89.5352 101.276 84.7355 101.276 78.8268V65.9004H46.2799C40.0076 65.9004 34.917 70.991 34.917 77.2633V89.5352Z" fill="#006D3B"/>
<path d="M67.6462 106.652H90.572C96.4898 106.652 101.28 111.452 101.28 117.361V118.633H79.0091C72.7368 118.633 67.6462 113.543 67.6462 107.27V106.652Z" fill="#006D3B"/>
<path d="M38.1913 11.1401C50.5541 12.8491 62.0897 19.7669 68.7802 31.5388C71.0528 35.5386 72.5073 39.7292 73.2708 43.9653C75.0616 39.8383 77.5433 35.9385 80.7613 32.4751C89.9607 22.5485 102.778 18.4488 115.205 19.6214C117.295 31.9206 114.168 45.0107 104.96 54.9282C95.7512 64.8458 82.7884 69.3182 70.3619 68.1456C57.9991 66.4366 46.7725 59.6279 40.0821 47.856C33.3825 36.0931 33.337 22.6394 38.1913 11.1401Z" fill="#8EB91F"/>
<path d="M80.5271 50.4102C81.2869 46.2721 79.7491 42.522 77.0924 42.0342C74.4357 41.5464 71.6661 44.5056 70.9063 48.6437C70.1465 52.7818 71.6842 56.5319 74.3409 57.0197C76.9976 57.5075 79.7672 54.5483 80.5271 50.4102Z" fill="white"/>
<path d="M76.1527 50.1587C76.5326 48.0896 75.6436 46.1925 74.1671 45.9214C72.6906 45.6503 71.1857 47.1079 70.8058 49.177C70.4259 51.246 71.3149 53.1431 72.7914 53.4142C74.2678 53.6853 75.7728 52.2278 76.1527 50.1587Z" fill="#333333"/>
<path d="M67.8811 48.1822C68.6409 44.044 67.1031 40.294 64.4464 39.8062C61.7897 39.3184 59.0201 42.2775 58.2603 46.4157C57.5005 50.5538 59.0382 54.3039 61.6949 54.7917C64.3516 55.2795 67.1212 52.3203 67.8811 48.1822Z" fill="white"/>
<path d="M63.5067 47.94C63.8866 45.8709 62.9976 43.9738 61.5211 43.7027C60.0446 43.4316 58.5397 44.8891 58.1598 46.9582C57.7799 49.0273 58.6689 50.9244 60.1454 51.1955C61.6219 51.4666 63.1268 50.009 63.5067 47.94Z" fill="#333333"/>
<path d="M55.8268 59.5374C55.8268 59.5374 44.9184 57.7193 44.9184 74.0819C44.9184 90.4445 44.9184 95.8987 44.9184 95.8987L40.8732 97.5168C39.8006 97.944 40.1096 99.5348 41.2641 99.5348H55.9995C57.4176 99.5348 58.563 98.3985 58.5721 96.9895C58.6448 89.7264 59.9538 67.5551 62.19 66.8097C64.9171 65.9006 60.372 59.5374 55.8268 59.5374Z" fill="#333333"/>
<path d="M78.0007 61.0004C78.0007 61.0004 66.9559 60.4732 68.874 76.7267C70.7921 92.9802 71.4375 98.389 71.4375 98.389L67.6104 100.471C66.6014 101.025 67.0923 102.561 68.2286 102.425L82.864 100.698C84.2639 100.534 85.2729 99.2707 85.1275 97.8708C84.3457 90.6531 83.0458 68.4818 85.182 67.4728C87.7819 66.2547 82.5186 60.4732 78.0007 61.0004Z" fill="#333333"/>
<path d="M147.22 74.0996L140.702 74.4814L140.393 69.2181C140.266 67.1091 138.466 65.5092 136.357 65.6365L125.831 66.2637C123.722 66.391 122.122 68.1909 122.249 70.2998L122.558 75.5631L115.586 75.9722C111.541 76.2085 108.459 79.681 108.695 83.7262L110.568 115.361C110.804 119.406 114.277 122.487 118.322 122.251L121.913 122.042C121.904 122.187 121.904 122.342 121.913 122.496C122.049 124.76 123.976 126.469 126.24 126.342C128.503 126.205 130.212 124.278 130.085 122.015C130.076 121.86 130.058 121.706 130.03 121.56L139.157 121.024C139.148 121.169 139.148 121.324 139.157 121.478C139.293 123.742 141.221 125.451 143.484 125.324C145.748 125.187 147.457 123.26 147.329 120.997C147.32 120.842 147.302 120.688 147.275 120.542L149.956 120.388C154.002 120.151 157.083 116.679 156.847 112.633L154.974 80.9991C154.738 76.9358 151.274 73.8541 147.22 74.0996ZM126.467 72.3724C126.385 70.9816 127.431 69.7999 128.821 69.718L133.794 69.4272C135.185 69.3453 136.366 70.3907 136.448 71.7815L136.621 74.7177L126.64 75.3086L126.467 72.3724ZM130.185 106.943C130.276 108.47 129.103 109.779 127.576 109.861C126.049 109.952 124.74 108.788 124.658 107.261L123.694 90.9985C123.603 89.4713 124.767 88.1714 126.294 88.0805C127.058 88.0351 127.767 88.2987 128.303 88.7714C128.83 89.2441 129.185 89.9167 129.23 90.6712L130.185 106.943ZM142.811 106.188C142.902 107.716 141.739 109.025 140.212 109.106C138.684 109.197 137.375 108.034 137.284 106.516L136.321 90.2531C136.23 88.7259 137.403 87.4169 138.93 87.3351C139.693 87.2896 140.402 87.5533 140.93 88.026C141.457 88.4987 141.811 89.1713 141.857 89.9258L142.811 106.188Z" fill="white"/>
</svg>
