<svg width="20" height="20" viewBox="0 0 20 20" fill="none" xmlns="http://www.w3.org/2000/svg">
<rect width="20" height="20" rx="10" fill="#B8EB35"/>
<mask id="mask0_568_17760" style="mask-type:alpha" maskUnits="userSpaceOnUse" x="0" y="0" width="20" height="20">
<rect width="20" height="20" fill="#D9D9D9"/>
</mask>
<g mask="url(#mask0_568_17760)">
<path d="M16.3333 17.5003L11.0417 12.2087L12.2083 11.042L17.5 16.3337L16.3333 17.5003ZM4.95833 16.917C4.125 16.0837 3.50694 15.1462 3.10417 14.1045C2.70139 13.0628 2.5 12.0003 2.5 10.917C2.5 9.83366 2.70139 8.7781 3.10417 7.75033C3.50694 6.72255 4.125 5.79199 4.95833 4.95866C5.79167 4.12533 6.72569 3.5038 7.76042 3.09408C8.79514 2.68435 9.85417 2.47949 10.9375 2.47949C12.0208 2.47949 13.0799 2.68435 14.1146 3.09408C15.1493 3.5038 16.0833 4.12533 16.9167 4.95866L4.95833 16.917ZM5.125 14.3753L6.25 13.2503C6.02778 12.9587 5.81597 12.66 5.61458 12.3545C5.41319 12.0489 5.22917 11.7434 5.0625 11.4378C4.89583 11.1323 4.75 10.8267 4.625 10.5212C4.5 10.2156 4.38889 9.91699 4.29167 9.62533C4.13889 10.4448 4.12847 11.2642 4.26042 12.0837C4.39236 12.9031 4.68056 13.667 5.125 14.3753ZM7.45833 12.0837L12.0833 7.41699C11.4861 6.95866 10.8854 6.58713 10.2813 6.30241C9.67708 6.01769 9.11111 5.82324 8.58333 5.71908C8.05556 5.61491 7.57986 5.59755 7.15625 5.66699C6.73264 5.73644 6.40278 5.88921 6.16667 6.12533C5.93056 6.37533 5.77778 6.71213 5.70833 7.13574C5.63889 7.55935 5.65625 8.03852 5.76042 8.57324C5.86458 9.10796 6.05903 9.67394 6.34375 10.2712C6.62847 10.8684 7 11.4725 7.45833 12.0837ZM13.25 6.25033L14.4167 5.12533C13.6806 4.68088 12.9028 4.38921 12.0833 4.25033C11.2639 4.11144 10.4444 4.12533 9.625 4.29199C9.93056 4.38921 10.2361 4.50033 10.5417 4.62533C10.8472 4.75033 11.1528 4.89269 11.4583 5.05241C11.7639 5.21213 12.066 5.39269 12.3646 5.59408C12.6632 5.79546 12.9583 6.01421 13.25 6.25033Z" fill="#333333"/>
</g>
</svg>
