<svg width="20" height="20" viewBox="0 0 20 20" fill="none" xmlns="http://www.w3.org/2000/svg">
<rect width="20" height="20" rx="10" fill="#81E6FD"/>
<mask id="mask0_568_17759" style="mask-type:alpha" maskUnits="userSpaceOnUse" x="0" y="0" width="20" height="20">
<rect width="20" height="20" fill="#D9D9D9"/>
</mask>
<g mask="url(#mask0_568_17759)">
<path d="M0.832031 15.8335V3.3335H2.4987V11.6668H9.16537V5.00016H15.832C16.7487 5.00016 17.5334 5.32655 18.1862 5.97933C18.839 6.63211 19.1654 7.41683 19.1654 8.3335V15.8335H17.4987V13.3335H2.4987V15.8335H0.832031ZM5.83203 10.8335C5.13759 10.8335 4.54731 10.5904 4.0612 10.1043C3.57509 9.61822 3.33203 9.02794 3.33203 8.3335C3.33203 7.63905 3.57509 7.04877 4.0612 6.56266C4.54731 6.07655 5.13759 5.8335 5.83203 5.8335C6.52648 5.8335 7.11675 6.07655 7.60286 6.56266C8.08898 7.04877 8.33203 7.63905 8.33203 8.3335C8.33203 9.02794 8.08898 9.61822 7.60286 10.1043C7.11675 10.5904 6.52648 10.8335 5.83203 10.8335ZM10.832 11.6668H17.4987V8.3335C17.4987 7.87516 17.3355 7.4828 17.0091 7.15641C16.6827 6.83002 16.2904 6.66683 15.832 6.66683H10.832V11.6668ZM5.83203 9.16683C6.06814 9.16683 6.26606 9.08697 6.42578 8.92725C6.5855 8.76752 6.66536 8.56961 6.66536 8.3335C6.66536 8.09738 6.5855 7.89947 6.42578 7.73975C6.26606 7.58002 6.06814 7.50016 5.83203 7.50016C5.59592 7.50016 5.398 7.58002 5.23828 7.73975C5.07856 7.89947 4.9987 8.09738 4.9987 8.3335C4.9987 8.56961 5.07856 8.76752 5.23828 8.92725C5.398 9.08697 5.59592 9.16683 5.83203 9.16683Z" fill="#333333"/>
</g>
</svg>
