<?xml version="1.0" standalone="no"?>
<!DOCTYPE svg PUBLIC "-//W3C//DTD SVG 1.1//EN" "http://www.w3.org/Graphics/SVG/1.1/DTD/svg11.dtd" >
<svg xmlns="http://www.w3.org/2000/svg">
<metadata>Generated by IcoMoon</metadata>
<defs>
<font id="icomoon" horiz-adv-x="1024">
<font-face units-per-em="1024" ascent="960" descent="-64" />
<missing-glyph horiz-adv-x="1024" />
<glyph unicode="&#x20;" horiz-adv-x="512" d="" />
<glyph unicode="&#xe900;" d="M512 960c282.77 0 512-229.23 512-512s-229.23-512-512-512c-282.77 0-512 229.23-512 512s229.23 512 512 512z" />
<glyph unicode="&#xe901;" d="M568.468 405.325c-22.758 32-52.803 54.222-90.135 66.667-37.334 12.444-75.911 18.666-115.734 18.666s-78.4-6.222-115.734-18.666c-37.333-12.445-67.378-34.667-90.133-66.667h411.735zM42.6 319.99c0 77.512 32.356 139.557 97.066 186.135s139.022 69.867 222.934 69.867c83.911 0 158.222-23.289 222.934-69.867s97.065-108.623 97.065-186.135h-639.998zM42.6 149.325v85.335h639.998v-85.335h-639.998zM767.933-21.34v85.33h59.735l59.73 597.335h-407.465l-10.666 85.334h213.331v170.667h85.335v-170.667h213.335l-70.4-706.134c-2.135-17.777-9.958-32.532-23.47-44.268-13.512-11.73-29.153-17.597-46.93-17.597h-72.535zM85.266-21.34c-12.089 0-22.222 4.086-30.4 12.268-8.178 8.177-12.266 18.309-12.266 30.397v42.665h639.998v-42.665c0-12.088-4.086-22.221-12.268-30.397-8.177-8.182-18.309-12.268-30.397-12.268h-554.667z" />
<glyph unicode="&#xe902;" d="M512 960c282.77 0 512-229.23 512-512s-229.23-512-512-512c-282.77 0-512 229.23-512 512s229.23 512 512 512z" />
<glyph unicode="&#xe903;" d="M836.265 63.985l-270.93 270.93 59.73 59.735 270.935-270.935-59.735-59.73zM253.866 93.85c-42.666 42.665-74.311 90.665-94.933 144s-30.934 107.735-30.934 163.2c0 55.467 10.311 109.512 30.934 162.134s52.266 100.267 94.933 142.934c42.667 42.666 90.489 74.489 143.467 95.466s107.2 31.467 162.666 31.467c55.465 0 109.691-10.489 162.668-31.467s100.797-52.8 143.468-95.466l-612.269-612.267zM262.4 223.985l57.6 57.6c-11.378 14.93-22.222 30.223-32.534 45.865-10.311 15.647-19.733 31.288-28.266 46.935-8.534 15.642-16 31.288-22.4 46.93-6.4 15.647-12.089 30.936-17.066 45.869-7.822-41.957-8.356-83.91-1.6-125.869 6.755-41.953 21.511-81.065 44.266-117.33zM381.866 341.315l236.798 238.936c-30.577 23.466-61.332 42.489-92.262 57.066-30.936 14.578-59.914 24.534-86.936 29.866s-51.378 6.222-73.066 2.667c-21.689-3.556-38.578-11.378-50.666-23.467-12.089-12.8-19.911-30.044-23.467-51.733s-2.666-46.222 2.667-73.6c5.333-27.378 15.289-56.356 29.866-86.936 14.578-30.577 33.6-61.507 57.066-92.8zM678.4 639.983l59.735 57.6c-37.688 22.756-77.512 37.689-119.47 44.8-41.953 7.111-83.912 6.4-125.865-2.133 15.645-4.978 31.288-10.667 46.935-17.067 15.642-6.4 31.288-13.689 46.93-21.866 15.647-8.178 31.114-17.422 46.403-27.734s30.397-21.511 45.332-33.6z" />
<glyph unicode="&#xe904;" d="M512 960c282.77 0 512-229.23 512-512s-229.23-512-512-512c-282.77 0-512 229.23-512 512s229.23 512 512 512z" />
<glyph unicode="&#xe905;" d="M42.6 149.325v640h85.333v-426.665h341.334v341.332h341.331c46.935 0 87.112-16.711 120.535-50.134s50.135-73.6 50.135-120.534v-384h-85.335v128h-768v-128h-85.333zM298.6 405.325c-35.555 0-65.778 12.447-90.666 37.335-24.889 24.887-37.334 55.11-37.334 90.665s12.445 65.778 37.334 90.667c24.889 24.889 55.111 37.333 90.666 37.333s65.778-12.444 90.666-37.333c24.889-24.889 37.334-55.111 37.334-90.667s-12.444-65.778-37.334-90.665c-24.889-24.888-55.111-37.335-90.666-37.335zM554.598 362.66h341.335v170.665c0 23.467-8.356 43.556-25.068 60.267s-36.797 25.066-60.268 25.066h-256v-255.998zM298.6 490.658c12.089 0 22.222 4.089 30.4 12.266s12.266 18.311 12.266 30.4c0 12.089-4.089 22.222-12.266 30.4s-18.311 12.267-30.4 12.267c-12.089 0-22.222-4.089-30.4-12.267s-12.266-18.311-12.266-30.4c0-12.089 4.089-22.222 12.266-30.4s18.311-12.266 30.4-12.266z" />
<glyph unicode="&#xe906;" glyph-name="less" d="M298.666 405.34c-23.564 0-42.666 19.103-42.666 42.668 0 23.564 19.103 42.667 42.666 42.667h426.669c23.562 0 42.665-19.103 42.665-42.667 0-23.565-19.103-42.668-42.665-42.668h-426.669z" />
<glyph unicode="&#xe907;" glyph-name="add" d="M469.4 405.34h-213.334c-23.564 0-42.666 19.103-42.666 42.668 0 23.564 19.103 42.667 42.666 42.667h213.334v213.333c0 23.564 19.102 42.667 42.666 42.667 23.562 0 42.665-19.103 42.665-42.667v-213.333h213.335c23.562 0 42.665-19.103 42.665-42.667 0-23.565-19.103-42.668-42.665-42.668h-213.335v-213.33c0-23.567-19.103-42.67-42.665-42.67-23.564 0-42.666 19.103-42.666 42.67v213.33z" />
<glyph unicode="&#xe908;" glyph-name="arrow_left" d="M333.8 405.325l208.531-208.532c16.748-16.748 16.63-43.935-0.266-60.534-16.686-16.389-43.461-16.271-59.999 0.266l-239.058 239.058c-39.989 39.992-39.989 104.827 0 144.817l239.058 239.058c16.538 16.538 43.313 16.656 59.999 0.265 16.896-16.598 17.014-43.786 0.266-60.532l-208.531-208.532h476.798c23.567 0 42.67-19.103 42.67-42.669 0-23.562-19.103-42.665-42.67-42.665h-476.798z" />
<glyph unicode="&#xe909;" glyph-name="arrow_right" d="M690.068 405.325h-476.802c-23.564 0-42.666 19.103-42.666 42.665 0 23.566 19.103 42.669 42.667 42.669h476.802l-208.534 208.532c-16.746 16.746-16.626 43.935 0.268 60.532 16.684 16.391 43.459 16.273 60.001-0.265l239.058-239.058c39.987-39.99 39.987-104.824 0-144.817l-239.058-239.058c-16.543-16.538-43.317-16.655-60.001-0.266-16.894 16.599-17.014 43.786-0.268 60.534l208.534 208.532z" />
<glyph unicode="&#xe90b;" glyph-name="car" d="M258.2 134.4v-38.4c0-13.297-4.8-24.443-14.4-33.439s-21.261-13.496-34.983-13.496h-48.433c-13.722 0-25.383 4.5-34.983 13.496s-14.4 20.142-14.4 33.439v354.134l93.866 264.533c4.724 14.080 13.188 25.422 25.391 34.027 12.202 8.604 25.783 12.906 40.742 12.906h482.131c14.961 0 28.544-4.302 40.745-12.906s20.664-19.947 25.39-34.027l93.865-264.533v-354.134c0-13.297-4.797-24.443-14.397-33.439s-21.263-13.496-34.985-13.496h-48.43c-13.727 0-25.385 4.5-34.985 13.496s-14.403 20.142-14.403 33.439v38.4h-507.731zM245.4 546.134h533.331l-42.665 119.466h-448l-42.666-119.466zM317.934 273.065c18.489 0 34.489 6.758 48 20.27s20.266 29.512 20.266 48c0 18.488-6.755 34.488-20.266 48s-29.511 20.265-48 20.265c-18.489 0-34.489-6.753-48-20.265s-20.267-29.512-20.267-48c0-18.488 6.756-34.488 20.267-48s29.511-20.27 48-20.27zM706.202 273.065c18.488 0 34.488 6.758 48 20.27s20.265 29.512 20.265 48c0 18.488-6.753 34.488-20.265 48s-29.512 20.265-48 20.265c-18.488 0-34.488-6.753-48-20.265s-20.27-29.512-20.27-48c0-18.488 6.758-34.488 20.27-48s29.512-20.27 48-20.27zM207 230.4h610.131v219.734h-610.131v-219.734z" />
<glyph unicode="&#xe90c;" glyph-name="close" d="M303 179.21c-16.495-16.497-43.238-16.497-59.734 0-16.495 16.492-16.495 43.238 0 59.73l209.067 209.068-209.067 209.067c-16.495 16.495-16.495 43.238 0 59.733s43.238 16.495 59.734 0l209.066-209.066 209.065 209.066c16.497 16.495 43.238 16.495 59.735 0s16.497-43.238 0-59.733l-209.065-209.067 209.065-209.068c16.497-16.492 16.497-43.238 0-59.73-16.497-16.497-43.238-16.497-59.735 0l-209.065 209.065-209.066-209.065z" />
<glyph unicode="&#xe90d;" glyph-name="content_copy" d="M384 192.010c-23.466 0-43.555 8.356-60.266 25.062-16.711 16.712-25.067 36.803-25.067 60.268v512.002c0 23.466 8.356 43.555 25.067 60.266s36.8 25.067 60.266 25.067h384c23.465 0 43.556-8.356 60.268-25.067s25.068-36.8 25.068-60.266v-512.002c0-23.465-8.356-43.556-25.068-60.268-16.712-16.707-36.803-25.062-60.268-25.062h-384zM384 277.34h384v512.002h-384v-512.002zM213.334 21.34c-23.467 0-43.556 8.356-60.267 25.068s-25.066 36.803-25.066 60.268v554.666c0 23.564 19.103 42.666 42.666 42.666s42.667-19.102 42.667-42.666v-554.666h426.666c23.562 0 42.665-19.103 42.665-42.665 0-23.567-19.103-42.67-42.665-42.67h-426.666z" />
<glyph unicode="&#xe90e;" glyph-name="delete" d="M298.6 64c-23.466 0-43.555 8.356-60.266 25.068s-25.067 36.797-25.067 60.268v554.665h-42.666v85.334h213.334v42.666h256v-42.666h213.335v-85.334h-42.67v-554.665c0-23.47-8.356-43.556-25.068-60.268-16.707-16.712-36.797-25.068-60.262-25.068h-426.669zM725.268 704h-426.669v-554.665h426.669v554.665zM383.933 234.665h85.333v384.002h-85.333v-384.002zM554.598 234.665h85.335v384.002h-85.335v-384.002z" />
<glyph unicode="&#xe90f;" glyph-name="drag_indicator" d="M383.933 106.66c-23.467 0-43.556 8.356-60.267 25.068-16.711 16.707-25.066 36.797-25.066 60.262 0 23.47 8.356 43.556 25.066 60.268s36.8 25.068 60.267 25.068c23.466 0 43.555-8.356 60.266-25.068s25.066-36.797 25.066-60.268c0-23.465-8.355-43.556-25.066-60.262-16.711-16.712-36.8-25.068-60.266-25.068zM639.933 106.66c-23.465 0-43.556 8.356-60.268 25.068-16.712 16.707-25.068 36.797-25.068 60.262 0 23.47 8.356 43.556 25.068 60.268s36.803 25.068 60.268 25.068c23.465 0 43.556-8.356 60.268-25.068s25.068-36.797 25.068-60.268c0-23.465-8.356-43.556-25.068-60.262-16.712-16.712-36.803-25.068-60.268-25.068zM383.933 362.66c-23.467 0-43.556 8.356-60.267 25.068-16.711 16.707-25.066 36.797-25.066 60.262 0 23.469 8.356 43.557 25.066 60.269s36.8 25.066 60.267 25.066c23.466 0 43.555-8.355 60.266-25.066s25.066-36.8 25.066-60.269c0-23.465-8.355-43.556-25.066-60.262-16.711-16.712-36.8-25.068-60.266-25.068zM639.933 362.66c-23.465 0-43.556 8.356-60.268 25.068-16.712 16.707-25.068 36.797-25.068 60.262 0 23.469 8.356 43.557 25.068 60.269s36.803 25.066 60.268 25.066c23.465 0 43.556-8.355 60.268-25.066s25.068-36.8 25.068-60.269c0-23.465-8.356-43.556-25.068-60.262-16.712-16.712-36.803-25.068-60.268-25.068zM383.933 618.658c-23.467 0-43.556 8.356-60.267 25.066s-25.066 36.8-25.066 60.267c0 23.466 8.356 43.555 25.066 60.266s36.8 25.066 60.267 25.066c23.466 0 43.555-8.355 60.266-25.066s25.066-36.8 25.066-60.266c0-23.467-8.355-43.556-25.066-60.267s-36.8-25.066-60.266-25.066zM639.933 618.658c-23.465 0-43.556 8.356-60.268 25.066s-25.068 36.8-25.068 60.267c0 23.466 8.356 43.555 25.068 60.266s36.803 25.066 60.268 25.066c23.465 0 43.556-8.355 60.268-25.066s25.068-36.8 25.068-60.266c0-23.467-8.356-43.556-25.068-60.267s-36.803-25.066-60.268-25.066z" />
<glyph unicode="&#xe910;" glyph-name="exchange" d="M328.864 93.604c-16.684-16.394-43.461-16.276-59.999 0.266l-111.058 111.058c-39.99 39.987-39.99 104.822 0 144.814l111.058 111.057c16.538 16.538 43.315 16.656 59.999 0.265 16.894-16.597 17.014-43.784 0.268-60.532l-80.532-80.532h604.802c23.562 0 42.665-19.103 42.665-42.665 0-23.567-19.103-42.67-42.665-42.67h-604.802l80.532-80.532c16.746-16.742 16.626-43.935-0.268-60.529zM755.267 435.2c-16.538-16.538-43.315-16.655-59.996-0.266-16.896 16.6-17.014 43.788-0.271 60.534l80.532 80.532h-604.798c-23.564 0-42.667 19.103-42.667 42.666s19.103 42.667 42.667 42.667h604.798l-80.532 80.532c-16.742 16.746-16.625 43.935 0.271 60.532 16.681 16.391 43.459 16.272 59.996-0.266l111.058-111.057c39.992-39.99 39.992-104.826 0-144.816l-111.058-111.059z" />
<glyph unicode="&#xe911;" glyph-name="grade" d="M248.6 21.335l69.334 299.73-232.534 201.602 307.2 26.667 119.466 282.666 119.465-282.666 307.2-26.667-232.53-201.602 69.33-299.73-263.465 158.93-263.466-158.93z" />
<glyph unicode="&#xe912;" glyph-name="love_hover" d="M512.063 72.28l-58.92 52.824c-68.402 61.63-124.952 114.795-169.651 159.49-44.698 44.7-80.254 84.826-106.667 120.383-26.412 35.552-44.868 68.232-55.365 98.030s-15.746 60.275-15.746 91.429c0 63.662 21.333 116.826 64 159.492s95.831 64 159.492 64c35.217 0 68.741-7.45 100.571-22.35s59.259-35.894 82.286-62.984c23.025 27.090 50.454 48.085 82.286 62.984s65.356 22.35 100.571 22.35c63.664 0 116.824-21.333 159.49-64s64-95.831 64-159.492c0-31.153-5.247-61.63-15.745-91.429s-28.95-62.478-55.364-98.030c-26.414-35.557-61.967-75.683-106.667-120.383-44.7-44.695-101.249-97.86-169.652-159.49l-58.919-52.824z" />
<glyph unicode="&#xe913;" glyph-name="location_on" d="M511.933 448.008c23.465 0 43.556 8.356 60.268 25.067s25.068 36.8 25.068 60.266c0 23.466-8.356 43.555-25.068 60.266s-36.803 25.067-60.268 25.067c-23.467 0-43.556-8.356-60.267-25.067s-25.066-36.8-25.066-60.266c0-23.466 8.356-43.556 25.066-60.266s36.8-25.067 60.267-25.067zM511.933 134.41c86.753 79.642 151.112 151.997 193.065 217.062 41.958 65.070 62.935 122.847 62.935 173.336 0 77.511-24.709 140.978-74.132 190.4s-110.044 74.134-181.868 74.134c-71.822 0-132.445-24.711-181.867-74.134s-74.133-112.889-74.133-190.4c0-50.489 20.978-108.265 62.933-173.336 41.956-65.065 106.311-137.421 193.067-217.062zM511.933 21.34c-114.489 97.423-200 187.914-256.534 271.468-56.534 83.558-84.8 160.889-84.8 232.001 0 106.667 34.311 191.645 102.934 254.934s148.089 94.934 238.4 94.934c90.312 0 169.779-31.645 238.397-94.934 68.623-63.289 102.938-148.266 102.938-254.934 0-71.111-28.268-148.442-84.803-232.001-56.535-83.553-142.044-174.044-256.532-271.468z" />
<glyph unicode="&#xe914;" glyph-name="log-out" d="M213.334 64c-23.467 0-43.556 8.356-60.267 25.068s-25.066 36.797-25.066 60.268v597.331c0 23.467 8.355 43.556 25.066 60.267s36.8 25.066 60.267 25.066h256c23.564 0 42.666-19.103 42.666-42.666s-19.103-42.667-42.666-42.667h-256v-597.331h256c23.564 0 42.666-19.103 42.666-42.67 0-23.562-19.103-42.665-42.666-42.665h-256zM713.61 265.61c-16.957-16.957-44.554-16.589-61.056 0.809-15.892 16.758-15.539 43.126 0.788 59.459l79.457 79.457h-306.134c-23.564 0-42.666 19.103-42.666 42.665 0 23.564 19.103 42.666 42.666 42.666h306.134l-79.457 79.456c-16.328 16.331-16.681 42.698-0.788 59.457 16.502 17.399 44.099 17.765 61.056 0.81l109.983-109.982c39.987-39.99 39.987-104.827 0-144.815l-109.983-109.983z" />
<glyph unicode="&#xe915;" glyph-name="love" d="M512.067 92.79c-9.955 0-20.089 1.782-30.4 5.335s-19.378 9.247-27.2 17.065l-73.6 67.2c-75.378 68.982-143.466 137.426-204.266 205.338-60.8 67.909-91.2 142.753-91.2 224.531 0 66.845 22.4 122.666 67.2 167.466s100.622 67.2 167.466 67.2c37.689 0 73.245-8 106.667-24s61.866-37.866 85.333-65.6c23.465 27.734 51.912 49.6 85.335 65.6 33.418 16 68.977 24 106.665 24 66.847 0 122.665-22.4 167.465-67.2s67.2-100.622 67.2-167.466c0-81.778-30.218-156.8-90.665-225.069-60.447-68.265-129.065-136.888-205.865-205.865l-72.535-66.135c-7.823-7.818-16.891-13.512-27.197-17.065-10.312-3.553-20.449-5.335-30.403-5.335zM471.534 671.992c-20.622 29.155-42.667 51.378-66.134 66.666s-51.911 22.934-85.334 22.934c-42.666 0-78.222-14.222-106.666-42.667s-42.666-64-42.666-106.666c0-36.978 13.155-76.266 39.466-117.866s57.778-81.955 94.4-121.067c36.622-39.112 74.311-75.735 113.066-109.865 38.756-34.135 70.222-62.223 94.4-84.27 24.177 22.047 55.644 50.135 94.403 84.27 38.753 34.13 76.442 70.753 113.065 109.865s68.086 79.467 94.397 121.067c26.312 41.6 39.47 80.889 39.47 117.866 0 42.666-14.223 78.222-42.67 106.666-28.442 28.445-64 42.667-106.665 42.667-33.423 0-61.865-7.645-85.335-22.934-23.465-15.289-45.512-37.511-66.13-66.666-4.982-7.111-11.023-12.445-18.135-16s-14.577-5.334-22.4-5.334c-7.822 0-15.289 1.778-22.4 5.334s-13.155 8.889-18.133 16z" />
<glyph unicode="&#xe916;" glyph-name="luggage" d="M307.268-17.065c-25.814 0-47.911 9.19-66.294 27.571-18.383 18.386-27.574 40.484-27.574 66.294v516.273c0 25.814 9.191 47.911 27.574 66.294s40.48 27.574 66.294 27.574h93.868v117.334c0 19.556 6.844 36.178 20.533 49.867s30.311 20.534 49.867 20.534h140.801c19.558 0 36.178-6.845 49.869-20.534 13.686-13.689 20.531-30.311 20.531-49.867v-117.334h93.87c25.81 0 47.908-9.191 66.294-27.574 18.381-18.382 27.571-40.48 27.571-66.294v-516.273c0-25.81-9.19-47.908-27.571-66.294-18.386-18.381-40.484-27.571-66.294-27.571 0-13.302-4.5-24.448-13.496-33.444s-20.142-13.491-33.439-13.491c-13.297 0-24.443 4.495-33.439 13.491s-13.496 20.142-13.496 33.444h-281.602c0-13.302-4.498-24.448-13.494-33.444s-20.142-13.491-33.44-13.491c-13.298 0-24.444 4.495-33.44 13.491s-13.493 20.142-13.493 33.444zM307.268 76.8h469.339v516.273h-469.339v-516.273zM354.201 123.735h70.401v422.404h-70.401v-422.404zM506.736 123.735h70.401v422.404h-70.401v-422.404zM659.272 123.735h70.4v422.404h-70.4v-422.404zM471.536 686.94h140.801v117.334h-140.801v-117.334z" />
<glyph unicode="&#xe917;" glyph-name="map" d="M640 64l-256 89.6-198.4-76.8c-14.222-5.688-27.378-4.091-39.466 4.803-12.089 8.888-18.134 20.797-18.134 35.732v597.331c0 9.245 2.666 17.422 8 24.534s12.622 12.445 21.866 16l226.134 76.8 256-89.6 198.4 76.8c14.223 5.689 27.377 4.089 39.465-4.8s18.135-20.8 18.135-35.734v-597.331c0-9.247-2.668-17.423-7.997-24.535-5.335-7.112-12.626-12.447-21.868-16l-226.135-76.8zM597.335 168.535v499.198l-170.669 59.733v-499.202l170.669-59.73zM682.665 168.535l128 42.665v505.6l-128-49.066v-499.198zM213.334 179.2l128 49.065v499.202l-128-42.666v-505.6z" />
<glyph unicode="&#xe918;" glyph-name="menu" d="M170.666 192c-23.564 0-42.666 19.103-42.666 42.665 0 23.567 19.103 42.67 42.666 42.67h682.669c23.562 0 42.665-19.103 42.665-42.67 0-23.562-19.103-42.665-42.665-42.665h-682.669zM170.666 405.335c-23.564 0-42.666 19.103-42.666 42.665 0 23.564 19.103 42.666 42.666 42.666h682.669c23.562 0 42.665-19.102 42.665-42.666 0-23.562-19.103-42.665-42.665-42.665h-682.669zM170.666 618.666c-23.564 0-42.666 19.103-42.666 42.667s19.103 42.666 42.666 42.666h682.669c23.562 0 42.665-19.103 42.665-42.666s-19.103-42.667-42.665-42.667h-682.669z" />
<glyph unicode="&#xe919;" glyph-name="more_horiz" d="M255.933 362.66c-23.467 0-43.556 8.356-60.267 25.068-16.711 16.707-25.066 36.797-25.066 60.262 0 23.469 8.356 43.557 25.066 60.269s36.8 25.066 60.267 25.066c23.466 0 43.555-8.355 60.266-25.066s25.066-36.8 25.066-60.269c0-23.465-8.355-43.556-25.066-60.262-16.711-16.712-36.8-25.068-60.266-25.068zM511.933 362.66c-23.467 0-43.556 8.356-60.267 25.068-16.711 16.707-25.066 36.797-25.066 60.262 0 23.469 8.356 43.557 25.066 60.269s36.8 25.066 60.267 25.066c23.465 0 43.556-8.355 60.268-25.066s25.068-36.8 25.068-60.269c0-23.465-8.356-43.556-25.068-60.262-16.712-16.712-36.803-25.068-60.268-25.068zM767.933 362.66c-23.465 0-43.556 8.356-60.268 25.068-16.712 16.707-25.068 36.797-25.068 60.262 0 23.469 8.356 43.557 25.068 60.269s36.803 25.066 60.268 25.066c23.465 0 43.556-8.355 60.268-25.066s25.068-36.8 25.068-60.269c0-23.465-8.356-43.556-25.068-60.262-16.712-16.712-36.803-25.068-60.268-25.068z" />
<glyph unicode="&#xe91a;" glyph-name="pin" d="M681.103 356.961l31.237-116.567-42.67-73.902-184.751 106.67-128-221.701-58.284-15.621-15.617 58.286 128 221.701-184.752 106.665 42.666 73.903 116.568 31.235 149.335 258.653-36.952 21.334 42.665 73.901 369.505-213.333-42.665-73.901-36.951 21.334-149.335-258.655zM374.242 435.594l232.785-134.4-17.956 67.026 167.465 290.062-147.799 85.334-167.469-290.061-67.026-17.961z" />
<glyph unicode="&#xe91b;" glyph-name="search" d="M866.135 93.865c-16.497-16.492-43.238-16.492-59.735 0l-238.935 238.935c-21.33-17.065-45.865-30.577-73.598-40.535-27.733-9.953-57.244-14.93-88.533-14.93-77.511 0-143.111 26.844-196.8 80.532s-80.534 119.288-80.534 196.799c0 77.511 26.845 143.111 80.534 196.8s119.289 80.534 196.8 80.534c77.511 0 143.111-26.845 196.799-80.534s80.532-119.289 80.532-196.8c0-31.289-4.977-60.8-14.93-88.533-9.958-27.734-23.47-52.269-40.535-73.598l238.935-238.935c16.492-16.497 16.492-43.238 0-59.735zM405.334 362.665c53.333 0 98.666 18.668 135.999 56.003 37.335 37.332 56.003 82.666 56.003 135.999s-18.668 98.667-56.003 136c-37.332 37.334-82.666 56-135.999 56s-98.667-18.666-136-56c-37.334-37.333-56-82.666-56-136s18.666-98.666 56-135.999c37.333-37.335 82.666-56.003 136-56.003z" />
<glyph unicode="&#xe91c;" glyph-name="sort" d="M170.666 192c-23.564 0-42.666 19.103-42.666 42.665 0 23.567 19.103 42.67 42.666 42.67h170.667c23.564 0 42.666-19.103 42.666-42.67 0-23.562-19.103-42.665-42.666-42.665h-170.667zM170.666 405.335c-23.564 0-42.666 19.103-42.666 42.665 0 23.564 19.103 42.666 42.666 42.666h426.669c23.562 0 42.665-19.102 42.665-42.666 0-23.562-19.103-42.665-42.665-42.665h-426.669zM170.666 618.666c-23.564 0-42.666 19.103-42.666 42.667s19.103 42.666 42.666 42.666h682.669c23.562 0 42.665-19.103 42.665-42.666s-19.103-42.667-42.665-42.667h-682.669zM627.732 196.797l146.729-146.729c19.999-19.994 52.413-19.994 72.407 0l146.729 146.729c16.748 16.748 16.63 43.935-0.266 60.534-16.686 16.389-43.459 16.271-60.001-0.266l-79.995-80v263.47c0 23.562-19.103 42.665-42.67 42.665-23.562 0-42.665-19.103-42.665-42.665v-263.47l-80 80c-16.538 16.538-43.315 16.655-59.996 0.266-16.896-16.599-17.014-43.786-0.271-60.534z" />
<glyph unicode="&#xe91d;" glyph-name="website" d="M512.067 21.34c-59.022 0-114.489 11.203-166.4 33.603s-97.066 52.797-135.466 91.197c-38.4 38.4-68.8 83.558-91.2 135.47s-33.6 107.377-33.6 166.398c0 59.022 11.2 114.489 33.6 166.4s52.8 97.067 91.2 135.467c38.4 38.4 83.555 68.8 135.466 91.2s107.378 33.6 166.4 33.6c59.023 0 114.488-11.2 166.4-33.6s97.065-52.8 135.465-91.2c38.4-38.4 68.803-83.556 91.203-135.467s33.597-107.378 33.597-166.4c0-59.021-11.197-114.486-33.597-166.398s-52.803-97.070-91.203-135.47c-38.4-38.4-83.553-68.797-135.465-91.197s-107.377-33.603-166.4-33.603zM512.067 106.675c95.288 0 176 33.065 242.135 99.2 66.13 66.135 99.2 146.847 99.2 242.133 0 4.978-0.179 10.134-0.532 15.467-0.358 5.333-0.538 9.778-0.538 13.333-3.553-20.622-13.153-37.686-28.8-51.198-15.642-13.512-34.13-20.27-55.465-20.27h-85.335c-23.465 0-43.556 8.356-60.262 25.068-16.712 16.712-25.068 36.801-25.068 60.268v42.666h-170.668v85.334c0 23.466 8.355 43.555 25.066 60.266s36.8 25.066 60.266 25.066h42.665c0 16.356 4.444 30.756 13.338 43.2 8.888 12.445 19.732 22.578 32.532 30.4-14.223 3.556-28.626 6.4-43.203 8.534s-29.686 3.2-45.332 3.2c-95.289 0-176-33.066-242.133-99.2s-99.2-146.845-99.2-242.134h213.333c46.934 0 87.111-16.71 120.534-50.133 33.42-33.423 50.131-73.6 50.131-120.535v-42.665h-127.998v-117.335c14.222-3.553 28.266-6.221 42.133-7.997s28.266-2.668 43.2-2.668z" />
</font>
</defs>
</svg>
