<svg width="111" height="33" viewBox="0 0 111 33" fill="none" xmlns="http://www.w3.org/2000/svg">
<path d="M75.4149 4.78467H64.7552C65.2164 3.80006 65.5066 3.14192 65.6309 2.82063C65.738 2.55833 65.7993 2.27966 65.8123 1.99667C65.8112 1.83703 65.7744 1.67967 65.7044 1.53617C65.6345 1.39268 65.5332 1.26671 65.4081 1.16752C65.1481 0.933566 64.8096 0.805933 64.4598 0.809949C64.2377 0.799861 64.0166 0.84622 63.8172 0.94469C63.6187 1.08282 63.4597 1.27037 63.356 1.48881C63.2161 1.7531 63.0191 2.20396 62.7704 2.82581C62.3573 3.97001 61.8673 5.08497 61.3039 6.1631C60.8028 7.06806 60.2346 7.93418 59.6041 8.75418C59.2051 9.2724 58.9304 9.63515 58.7853 9.85798C58.6594 10.0275 58.5824 10.2282 58.5625 10.4384C58.575 10.7796 58.7222 11.102 58.9719 11.3349C59.0861 11.4651 59.2262 11.5701 59.3832 11.6433C59.5403 11.7164 59.7108 11.7561 59.8839 11.7598C60.3089 11.7598 60.7805 11.4385 61.2831 10.8167C62.0714 9.73662 62.7798 8.60044 63.4026 7.41719H75.4149C76.4513 7.41719 76.9695 6.9819 76.9695 6.12684C76.9695 5.27179 76.4461 4.78467 75.4149 4.78467Z" fill="white"/>
<path d="M76.1308 17.6518C76.4905 17.3118 76.7212 16.8576 76.7837 16.3666C76.7758 16.1956 76.7309 16.0283 76.6522 15.8762C76.5735 15.7241 76.4628 15.5909 76.3277 15.4857C76.0569 15.2301 75.6999 15.0858 75.3276 15.0815C75.0628 15.0896 74.8079 15.1843 74.602 15.3509C74.2537 15.6577 73.9439 16.0058 73.6796 16.3874L71.5446 18.7297L71.0626 19.2479C70.6393 17.2167 70.3639 15.1574 70.2387 13.0863L70.7569 12.8894C71.7519 12.4697 72.4981 12.1328 72.9645 11.8893C73.3272 11.7212 73.6558 11.4875 73.9336 11.2C74.1148 10.988 74.2125 10.7171 74.2082 10.4382C74.2174 10.0555 74.0781 9.68413 73.8195 9.40181C73.7108 9.26671 73.5736 9.15722 73.4178 9.08109C73.262 9.00496 73.0913 8.96408 72.9178 8.96134C72.7528 8.95551 72.588 8.97829 72.4307 9.0287C72.2177 9.11662 72.0101 9.21699 71.8089 9.32927C71.1456 9.70757 69.9381 10.2983 68.2228 11.086C66.5075 11.8737 65.0617 12.48 63.932 12.905C63.3493 13.0908 62.8387 13.4529 62.4706 13.9414C62.1654 14.4407 62.0173 15.0203 62.0457 15.6048V27.7104L61.1025 28.0161C60.6568 28.1262 60.2386 28.3273 59.8744 28.6069C59.755 28.7161 59.6611 28.8502 59.5993 28.9998C59.5375 29.1493 59.5093 29.3106 59.5168 29.4723C59.5157 29.6368 59.5482 29.7998 59.6124 29.9513C59.6765 30.1028 59.771 30.2396 59.8899 30.3533C59.9994 30.4691 60.1311 30.5618 60.277 30.6259C60.423 30.69 60.5804 30.7242 60.7398 30.7264C61.0155 30.7055 61.2864 30.6426 61.543 30.5398C61.9006 30.4154 62.3152 30.2652 62.7816 30.089C62.9163 30.0441 63.0718 29.9819 63.248 29.9024C63.4541 29.8138 63.6673 29.7427 63.8854 29.6899C64.9529 29.265 65.725 28.9489 66.1914 28.752C67.5854 28.1301 68.4197 27.7466 68.6633 27.6171C68.8834 27.5002 69.0773 27.3398 69.2333 27.1455C69.354 26.9631 69.4138 26.7473 69.4043 26.5288C69.4074 26.2261 69.2921 25.9342 69.0831 25.7152C68.9812 25.6062 68.8574 25.5198 68.7199 25.4618C68.5824 25.4037 68.4342 25.3753 68.285 25.3784C68.1554 25.3866 68.0287 25.42 67.9119 25.4769L67.176 25.8137C66.5179 26.1194 65.7147 26.4459 64.7974 26.7724V16.0972C64.7968 15.8588 64.8594 15.6246 64.9788 15.4183C65.0971 15.2174 65.2796 15.0622 65.497 14.9778L67.9792 13.9828C68.1268 16.5962 68.5525 19.1863 69.2489 21.7094C69.8412 23.8174 70.7293 25.8308 71.8866 27.6896C72.3471 28.5946 72.9647 29.4105 73.7107 30.0993C74.1486 30.4655 74.6951 30.6768 75.2654 30.7005C75.4618 30.7006 75.656 30.6585 75.8348 30.5772C76.0136 30.4958 76.1728 30.377 76.3018 30.2289C76.4452 30.0815 76.5581 29.9072 76.6337 29.7159C76.7093 29.5247 76.7462 29.3203 76.7423 29.1147C76.7505 28.8514 76.6801 28.5917 76.5402 28.3685C76.3086 28.0564 76.0502 27.7651 75.768 27.4979C73.9128 25.6634 72.5655 24.0414 71.7674 21.6783L73.1614 20.3828C74.6953 19.051 75.6799 18.1286 76.1308 17.6518Z" fill="white"/>
<path d="M56.2763 12.8998H52.7214L52.7525 8.79556H58.2455C59.2146 8.79556 59.7017 8.34988 59.7017 7.4741C59.718 7.29458 59.6944 7.11371 59.6326 6.94439C59.5707 6.77507 59.4722 6.6215 59.3442 6.49468C59.025 6.26732 58.6362 6.15912 58.2455 6.18894H48.0626C47.0521 6.18894 46.5391 6.61905 46.5391 7.4741C46.5391 8.32916 47.0573 8.79556 48.0626 8.79556H50.2184C50.2184 14.2575 50.0059 18.2737 49.5862 20.7145C49.3631 22.0126 49.016 23.2864 48.5497 24.5182C48.1035 25.7406 47.534 26.9143 46.85 28.0213C46.7467 28.1843 46.6615 28.3581 46.5961 28.5396C46.5594 28.6817 46.5419 28.8281 46.5442 28.9749C46.5431 29.1603 46.5786 29.3442 46.6489 29.5159C46.7191 29.6876 46.8227 29.8436 46.9536 29.975C47.0782 30.1103 47.2296 30.218 47.3983 30.2912C47.567 30.3644 47.7492 30.4015 47.9331 30.3999C48.4046 30.3999 48.8918 30.0579 49.3841 29.3894C49.9853 28.4886 50.458 27.5084 50.7884 26.4771C51.3196 24.9778 51.7167 23.4344 51.9752 21.8649C52.2999 19.7682 52.5179 17.6564 52.6281 15.5375H55.4783C55.6119 15.5252 55.7466 15.5405 55.8741 15.5824C56.0016 15.6243 56.1191 15.6919 56.2193 15.7811C56.2935 15.8752 56.3474 15.9836 56.3777 16.0995C56.408 16.2155 56.4141 16.3364 56.3955 16.4548L56.3282 18.1908C56.1986 21.0928 56.0742 23.2538 55.9654 24.6167C55.9252 25.4986 55.802 26.3748 55.5975 27.2336C55.3539 27.9332 54.7424 28.2701 53.7785 28.2701C53.3274 28.23 52.8774 28.3573 52.5141 28.6276C52.3795 28.7632 52.2749 28.9254 52.207 29.104C52.1392 29.2825 52.1096 29.4734 52.1203 29.6641C52.1003 29.8608 52.1202 30.0595 52.179 30.2483C52.2378 30.4371 52.3341 30.6121 52.4623 30.7627C52.8032 31.0115 53.2238 31.1259 53.6438 31.084C54.2956 31.0745 54.9428 30.9734 55.5664 30.7834C56.1256 30.6521 56.6537 30.4127 57.121 30.0787C57.5827 29.6739 57.8963 29.1269 58.0124 28.524C58.2688 27.3573 58.4317 26.172 58.4995 24.9794L58.7327 22.0411L58.9659 15.2629C59.0035 14.9542 58.9769 14.6411 58.8877 14.3433C58.7986 14.0454 58.6487 13.7692 58.4477 13.532C58.1469 13.2859 57.7996 13.1031 57.4265 12.9944C57.0534 12.8858 56.6622 12.8536 56.2763 12.8998Z" fill="white"/>
<path d="M88.613 8.36035H84.9855C83.4308 8.36035 82.6691 9.12731 82.6691 10.6457L82.638 19.5331C82.6536 21.3437 82.5114 23.1522 82.213 24.938C82.0057 26.2648 81.6475 27.5636 81.1455 28.8091C80.9621 29.2001 80.8531 29.6219 80.8242 30.0528C80.8242 30.8405 81.244 31.2395 82.0731 31.2395C82.638 31.2395 83.1095 30.6591 83.4827 29.5243C84.2429 27.2377 84.6994 24.8612 84.8404 22.4558H88.6907V27.8815C88.6907 28.5655 88.3694 28.9179 87.7061 28.9179H86.8303C86.669 28.8931 86.5041 28.9067 86.349 28.9576C86.194 29.0085 86.0531 29.0953 85.938 29.211C85.8228 29.3267 85.7366 29.4679 85.6863 29.6232C85.6361 29.7785 85.6232 29.9435 85.6488 30.1047C85.6488 30.9131 86.0893 31.3277 86.9599 31.3277H88.2554C89.0062 31.3909 89.7515 31.1542 90.3283 30.6695C90.8202 30.0603 91.0546 29.283 90.9812 28.5034V10.8841C90.9916 9.19468 90.1935 8.36035 88.613 8.36035ZM88.613 20.1808H84.7108L84.7419 16.4756H88.613V20.1808ZM88.613 14.2006H84.7419L84.7782 11.7495C84.7782 11.0654 85.0528 10.713 85.6281 10.713H87.732C87.852 10.7014 87.9732 10.7142 88.0881 10.7508C88.203 10.7873 88.3093 10.8467 88.4005 10.9255C88.5571 11.1114 88.6335 11.3518 88.613 11.594V14.2006Z" fill="white"/>
<path d="M108.31 28.016L105.201 26.1142C104.891 25.9115 104.534 25.7952 104.164 25.7773C103.997 25.7522 103.826 25.766 103.665 25.8178C103.504 25.8695 103.357 25.9577 103.236 26.0756C103.114 26.1935 103.022 26.3378 102.965 26.4973C102.909 26.6568 102.89 26.8272 102.91 26.9952C102.91 27.0942 102.932 27.192 102.974 27.2817C103.016 27.3713 103.077 27.4504 103.154 27.5134C103.378 27.7055 103.625 27.8691 103.89 28.0005L107.191 30.006C107.947 30.4517 107.984 30.6745 108.294 30.6745C109.082 30.6745 109.481 30.2184 109.481 29.3219C109.486 28.8193 109.093 28.3892 108.31 28.016Z" fill="white"/>
<path d="M104.454 24.9639C104.89 24.7804 105.238 24.4374 105.429 24.0052C105.481 23.8762 105.502 23.737 105.491 23.5983C105.481 23.4596 105.438 23.3253 105.367 23.2059C105.296 23.0865 105.198 22.9852 105.081 22.9099C104.964 22.8346 104.831 22.7873 104.693 22.7718C104.366 22.6837 103.864 22.8496 103.195 23.2901C102.836 23.4579 102.547 23.7481 102.382 24.1088C102.33 24.2382 102.308 24.3779 102.319 24.5169C102.33 24.6559 102.373 24.7904 102.445 24.91C102.517 25.0295 102.616 25.1307 102.733 25.2057C102.851 25.2807 102.984 25.3274 103.123 25.3422C103.598 25.3829 104.072 25.2483 104.454 24.9639Z" fill="white"/>
<path d="M82.6935 5.78963H89.3266V6.82607C89.3266 7.65521 89.7775 8.08015 90.6792 8.08015C90.8513 8.10642 91.0271 8.09239 91.1928 8.03914C91.3586 7.9859 91.5097 7.89492 91.6343 7.77335C91.7588 7.65178 91.8535 7.50293 91.9108 7.33856C91.9681 7.17418 91.9864 6.99874 91.9644 6.82607V5.78963H99.8101V6.82607C99.8101 7.65521 100.256 8.08015 101.132 8.08015C102.007 8.08015 102.484 7.65521 102.484 6.82607V5.78963H108.812C109.75 5.78963 110.231 5.38025 110.231 4.56665C110.231 3.75306 109.75 3.34885 108.812 3.34885H102.484V2.16213C102.484 1.35371 102.028 0.944336 101.132 0.944336C100.235 0.944336 99.8101 1.35371 99.8101 2.16213V3.34885H91.9644V2.16213C91.9644 1.35371 91.5343 0.944336 90.6792 0.944336C89.8241 0.944336 89.3266 1.35371 89.3266 2.16213V3.34885H82.6935C81.7711 3.34885 81.3047 3.75824 81.3047 4.56665C81.3047 5.37507 81.7711 5.78963 82.6935 5.78963Z" fill="white"/>
<path d="M100.759 19.5483C99.9502 19.5483 99.5408 19.9992 99.5408 20.9009V28.1559C99.5419 28.4125 99.454 28.6616 99.2921 28.8607C99.1062 29.0173 98.8657 29.0937 98.6236 29.0731H97.8203C96.9653 29.0731 96.5352 29.4825 96.5352 30.2961C96.5352 31.1097 97.0534 31.5139 98.0224 31.5139H99.2921C99.6625 31.5617 100.039 31.5226 100.392 31.3999C100.745 31.2771 101.064 31.0741 101.325 30.8067C101.586 30.5393 101.781 30.215 101.895 29.8593C102.009 29.5035 102.038 29.1262 101.982 28.757V20.9009C101.982 19.9992 101.567 19.5483 100.759 19.5483Z" fill="white"/>
<path d="M98.6206 26.9798C98.6146 26.6788 98.5006 26.39 98.2993 26.1662C98.1956 26.0771 98.0737 26.0119 97.942 25.9752C97.8104 25.9385 97.6723 25.9312 97.5375 25.9537L96.1746 26.617L93.967 27.5913C92.744 28.1095 92.1481 28.6277 92.1895 29.1148C92.1969 29.4323 92.3162 29.737 92.5264 29.9751C92.6125 30.0548 92.7138 30.1165 92.8241 30.1565C92.9345 30.1966 93.0517 30.2142 93.169 30.2083H93.3089C93.6016 30.1406 93.8878 30.047 94.1639 29.9284L95.4076 29.4102C97.6308 28.4515 98.6828 27.6586 98.6206 26.9798Z" fill="white"/>
<path d="M103.943 10.5472C103.456 11.3815 103.238 11.8945 103.264 12.1018C103.352 12.7962 103.818 13.0968 104.642 12.988C105.16 12.9258 105.596 12.5268 106.021 11.7961C106.446 11.0654 106.689 10.4332 106.648 10.1222C106.56 9.42782 106.098 9.12726 105.274 9.23609C104.87 9.31382 104.425 9.74394 103.943 10.5472Z" fill="white"/>
<path d="M96.4982 9.43836C95.6742 9.31917 95.2078 9.59901 95.1094 10.2675C95.1192 10.48 95.1777 10.6875 95.2804 10.8738C95.4099 11.1692 95.498 11.3661 95.5447 11.4853C95.9541 12.4026 96.4101 12.9 96.8972 12.9726C97.7212 13.0918 98.1928 12.7705 98.3016 12.0087C98.3094 11.4468 98.1267 10.8989 97.7834 10.4541C97.6566 10.201 97.4758 9.97885 97.2537 9.80334C97.0316 9.62783 96.7737 9.50323 96.4982 9.43836Z" fill="white"/>
<path d="M97.9615 25.4616C98.7129 25.4616 99.0912 25.1196 99.0912 24.4252C99.0912 24.0884 98.8425 23.736 98.3502 23.3888C97.9857 23.0903 97.5467 22.8968 97.0805 22.8291C96.3706 22.8291 96.0078 23.1504 96.0078 23.7878C96.0078 24.1298 96.3861 24.5755 97.1583 25.1507C97.3863 25.3369 97.6676 25.4457 97.9615 25.4616Z" fill="white"/>
<path d="M53.619 5.37551C53.9142 4.90264 54.0651 4.35395 54.0532 3.79663C54.0413 3.23931 53.8671 2.69757 53.5519 2.23776C53.2368 1.77796 52.7943 1.42003 52.2789 1.20787C51.7634 0.995696 51.1972 0.938492 50.6497 1.04323C50.3545 1.5161 50.2036 2.06479 50.2155 2.62211C50.2274 3.17943 50.4016 3.72117 50.7168 4.18098C51.0319 4.64078 51.4744 4.99869 51.9899 5.21086C52.5053 5.42303 53.0715 5.48025 53.619 5.37551Z" fill="white"/>
<path d="M109.446 22.4822C107.306 22.192 106.124 20.4456 105.056 18.9687H109.166C109.428 18.9687 109.679 18.8651 109.864 18.6806C110.049 18.4961 110.154 18.2457 110.156 17.9841V17.8131C110.154 17.5515 110.049 17.301 109.864 17.1165C109.679 16.932 109.428 16.8285 109.166 16.8285H100.123C100.5 15.9277 100.829 15.0074 101.108 14.0716H108.218C108.479 14.0716 108.729 13.9678 108.914 13.7832C109.098 13.5985 109.202 13.3481 109.202 13.0869V12.9159C109.202 12.6548 109.098 12.4044 108.914 12.2197C108.729 12.0351 108.479 11.9313 108.218 11.9313H101.673C101.838 11.2265 101.968 10.6202 102.082 10.0295C102.114 9.86395 102.112 9.69374 102.076 9.52902C102.04 9.36431 101.972 9.20845 101.875 9.07078C101.781 8.93173 101.659 8.81379 101.517 8.72455C101.376 8.6353 101.217 8.57673 101.051 8.55256C100.737 8.51019 100.419 8.59055 100.163 8.77689C99.9074 8.96324 99.7333 9.24117 99.6774 9.55271C99.522 10.3663 99.3458 11.1644 99.1592 11.9313H93.3604C93.0992 11.9313 92.8488 12.0351 92.6641 12.2197C92.4795 12.4044 92.3758 12.6548 92.3758 12.9159V13.0869C92.3758 13.3481 92.4795 13.5985 92.6641 13.7832C92.8488 13.9678 93.0992 14.0716 93.3604 14.0716H98.5425C98.237 15.0136 97.87 15.9345 97.4439 16.8285H92.5105C92.3637 16.8182 92.2164 16.8383 92.0777 16.8875C91.939 16.9366 91.8119 17.0138 91.7043 17.1142C91.5967 17.2145 91.5109 17.336 91.4522 17.4709C91.3936 17.6058 91.3633 17.7514 91.3633 17.8986C91.3633 18.0457 91.3936 18.1913 91.4522 18.3262C91.5109 18.4612 91.5967 18.5826 91.7043 18.683C91.8119 18.7834 91.939 18.8605 92.0777 18.9097C92.2164 18.9588 92.3637 18.9789 92.5105 18.9687H96.2209C95.2827 20.458 93.9174 21.63 92.3032 22.3319C92.0349 22.4446 91.8161 22.6501 91.6867 22.9108C91.5573 23.1714 91.526 23.4699 91.5984 23.7518V23.7777C91.6384 23.9504 91.715 24.1125 91.8232 24.2529C91.9314 24.3933 92.0686 24.5087 92.2255 24.5913C92.3798 24.6736 92.5503 24.7208 92.725 24.7298C92.8996 24.7387 93.0741 24.7092 93.236 24.6431C95.568 23.7052 97.5424 21.7981 99.1022 18.9687H102.165C102.186 19.0443 102.215 19.1174 102.253 19.1863C103.181 20.741 105.259 24.4877 109.197 24.98H109.295C109.546 24.9784 109.787 24.8863 109.974 24.7209C110.081 24.6235 110.166 24.505 110.224 24.3729C110.282 24.2409 110.312 24.0982 110.311 23.9539V23.4927C110.308 23.2495 110.22 23.015 110.062 22.8303C109.904 22.6455 109.686 22.5223 109.446 22.4822Z" fill="white"/>
<path d="M39.0496 3.84717C35.8698 4.21422 32.8186 5.31422 30.1361 7.06062C27.4535 8.80701 25.2129 11.1521 23.5905 13.9114C22.4661 15.8303 21.68 17.9283 21.2667 20.1136C19.5758 16.0763 16.6344 12.6879 12.8748 10.4463C9.11523 8.20465 4.73576 7.22812 0.38001 7.66014C-0.230031 10.7995 -0.104219 14.0376 0.747583 17.1201C1.59939 20.2027 3.154 23.0459 5.2894 25.4267C7.45126 27.8136 10.1333 29.671 13.1281 30.8553C16.1228 32.0396 19.3499 32.5189 22.5596 32.2562C25.7133 31.899 28.7398 30.8093 31.3975 29.0741C34.0551 27.339 36.2702 25.0065 37.8659 22.2628C39.4749 19.4942 40.4192 16.3899 40.6246 13.1943C40.83 9.99869 40.2909 6.79902 39.0496 3.84717Z" fill="white"/>
<path d="M21.4625 28.5089C22.8182 28.5089 23.9172 26.7993 23.9172 24.6905C23.9172 22.5816 22.8182 20.8721 21.4625 20.8721C20.1068 20.8721 19.0078 22.5816 19.0078 24.6905C19.0078 26.7993 20.1068 28.5089 21.4625 28.5089Z" fill="#81E6FD"/>
<path d="M22.5551 26.8721C23.3083 26.8721 23.9188 26.0173 23.9188 24.9629C23.9188 23.9085 23.3083 23.0537 22.5551 23.0537C21.802 23.0537 21.1914 23.9085 21.1914 24.9629C21.1914 26.0173 21.802 26.8721 22.5551 26.8721Z" fill="white"/>
<path d="M27.4625 27.4176C28.8182 27.4176 29.9172 25.708 29.9172 23.5992C29.9172 21.4903 28.8182 19.7808 27.4625 19.7808C26.1068 19.7808 25.0078 21.4903 25.0078 23.5992C25.0078 25.708 26.1068 27.4176 27.4625 27.4176Z" fill="#81E6FD"/>
<path d="M28.5551 25.7813C29.3083 25.7813 29.9188 24.9265 29.9188 23.8721C29.9188 22.8177 29.3083 21.9629 28.5551 21.9629C27.802 21.9629 27.1914 22.8177 27.1914 23.8721C27.1914 24.9265 27.802 25.7813 28.5551 25.7813Z" fill="white"/>
</svg>
