<svg width="120" height="48" viewBox="0 0 120 48" fill="none" xmlns="http://www.w3.org/2000/svg">
<path d="M79.4149 12.7847H68.7552C69.2164 11.8001 69.5066 11.1419 69.6309 10.8206C69.738 10.5583 69.7993 10.2797 69.8123 9.99667C69.8112 9.83703 69.7744 9.67967 69.7044 9.53617C69.6345 9.39268 69.5332 9.26671 69.4081 9.16752C69.1481 8.93357 68.8096 8.80593 68.4598 8.80995C68.2377 8.79986 68.0166 8.84622 67.8172 8.94469C67.6187 9.08282 67.4597 9.27037 67.356 9.48881C67.2161 9.7531 67.0191 10.204 66.7704 10.8258C66.3573 11.97 65.8673 13.085 65.3039 14.1631C64.8028 15.0681 64.2346 15.9342 63.6041 16.7542C63.2051 17.2724 62.9304 17.6351 62.7853 17.858C62.6594 18.0275 62.5824 18.2282 62.5625 18.4384C62.575 18.7796 62.7222 19.102 62.9719 19.3349C63.0861 19.4651 63.2262 19.5701 63.3832 19.6433C63.5403 19.7164 63.7108 19.7561 63.8839 19.7598C64.3089 19.7598 64.7805 19.4385 65.2831 18.8167C66.0714 17.7366 66.7798 16.6004 67.4026 15.4172H79.4149C80.4513 15.4172 80.9695 14.9819 80.9695 14.1268C80.9695 13.2718 80.4461 12.7847 79.4149 12.7847Z" fill="#333333"/>
<path d="M80.1308 25.6518C80.4905 25.3118 80.7212 24.8576 80.7837 24.3666C80.7758 24.1956 80.7309 24.0283 80.6522 23.8762C80.5735 23.7241 80.4628 23.5909 80.3277 23.4857C80.0569 23.2301 79.6999 23.0858 79.3276 23.0815C79.0628 23.0896 78.8079 23.1843 78.602 23.3509C78.2537 23.6577 77.9439 24.0058 77.6796 24.3874L75.5446 26.7297L75.0626 27.2479C74.6393 25.2167 74.3639 23.1574 74.2387 21.0863L74.7569 20.8894C75.7519 20.4697 76.4981 20.1328 76.9645 19.8893C77.3272 19.7212 77.6558 19.4875 77.9336 19.2C78.1148 18.988 78.2125 18.7171 78.2082 18.4382C78.2174 18.0555 78.0781 17.6841 77.8195 17.4018C77.7108 17.2667 77.5736 17.1572 77.4178 17.0811C77.262 17.005 77.0913 16.9641 76.9178 16.9613C76.7528 16.9555 76.588 16.9783 76.4307 17.0287C76.2177 17.1166 76.0101 17.217 75.8089 17.3293C75.1456 17.7076 73.9381 18.2983 72.2228 19.086C70.5075 19.8737 69.0617 20.48 67.932 20.905C67.3493 21.0908 66.8387 21.4529 66.4706 21.9414C66.1654 22.4407 66.0173 23.0203 66.0457 23.6048V35.7104L65.1025 36.0161C64.6568 36.1262 64.2386 36.3273 63.8744 36.6069C63.755 36.7161 63.6611 36.8502 63.5993 36.9998C63.5375 37.1493 63.5093 37.3106 63.5168 37.4723C63.5157 37.6368 63.5482 37.7998 63.6124 37.9513C63.6765 38.1028 63.771 38.2396 63.8899 38.3533C63.9994 38.4691 64.1311 38.5618 64.277 38.6259C64.423 38.69 64.5804 38.7242 64.7398 38.7264C65.0155 38.7055 65.2864 38.6426 65.543 38.5398C65.9006 38.4154 66.3152 38.2652 66.7816 38.089C66.9163 38.0441 67.0718 37.9819 67.248 37.9024C67.4541 37.8138 67.6673 37.7427 67.8854 37.6899C68.9529 37.265 69.725 36.9489 70.1914 36.752C71.5854 36.1301 72.4197 35.7466 72.6633 35.6171C72.8834 35.5002 73.0773 35.3398 73.2333 35.1455C73.354 34.9631 73.4138 34.7473 73.4043 34.5288C73.4074 34.2261 73.2921 33.9342 73.0831 33.7152C72.9812 33.6062 72.8574 33.5198 72.7199 33.4618C72.5824 33.4037 72.4342 33.3753 72.285 33.3784C72.1554 33.3866 72.0287 33.42 71.9119 33.4769L71.176 33.8137C70.5179 34.1194 69.7147 34.4459 68.7974 34.7724V24.0972C68.7968 23.8588 68.8594 23.6246 68.9788 23.4183C69.0971 23.2174 69.2796 23.0622 69.497 22.9778L71.9792 21.9828C72.1268 24.5962 72.5525 27.1863 73.2489 29.7094C73.8412 31.8174 74.7293 33.8308 75.8866 35.6896C76.3471 36.5946 76.9647 37.4105 77.7107 38.0993C78.1486 38.4655 78.6951 38.6768 79.2654 38.7005C79.4618 38.7006 79.656 38.6585 79.8348 38.5772C80.0136 38.4958 80.1728 38.377 80.3018 38.2289C80.4452 38.0815 80.5581 37.9072 80.6337 37.7159C80.7093 37.5247 80.7462 37.3203 80.7423 37.1147C80.7505 36.8514 80.6801 36.5917 80.5402 36.3685C80.3086 36.0564 80.0502 35.7651 79.768 35.4979C77.9128 33.6634 76.5655 32.0414 75.7674 29.6783L77.1614 28.3828C78.6953 27.051 79.6799 26.1286 80.1308 25.6518Z" fill="#333333"/>
<path d="M60.2763 20.8998H56.7214L56.7525 16.7956H62.2455C63.2146 16.7956 63.7017 16.3499 63.7017 15.4741C63.718 15.2946 63.6944 15.1137 63.6326 14.9444C63.5707 14.7751 63.4722 14.6215 63.3442 14.4947C63.025 14.2673 62.6362 14.1591 62.2455 14.1889H52.0626C51.0521 14.1889 50.5391 14.619 50.5391 15.4741C50.5391 16.3292 51.0573 16.7956 52.0626 16.7956H54.2184C54.2184 22.2575 54.0059 26.2737 53.5862 28.7145C53.3631 30.0126 53.016 31.2864 52.5497 32.5182C52.1035 33.7406 51.534 34.9143 50.85 36.0213C50.7467 36.1843 50.6615 36.3581 50.5961 36.5396C50.5594 36.6817 50.5419 36.8281 50.5442 36.9749C50.5431 37.1603 50.5786 37.3442 50.6489 37.5159C50.7191 37.6876 50.8227 37.8436 50.9536 37.975C51.0782 38.1103 51.2296 38.218 51.3983 38.2912C51.567 38.3644 51.7492 38.4015 51.9331 38.3999C52.4046 38.3999 52.8918 38.0579 53.3841 37.3894C53.9853 36.4886 54.458 35.5084 54.7884 34.4771C55.3196 32.9778 55.7167 31.4344 55.9752 29.8649C56.2999 27.7682 56.5179 25.6564 56.6281 23.5375H59.4783C59.6119 23.5252 59.7466 23.5405 59.8741 23.5824C60.0016 23.6243 60.1191 23.6919 60.2193 23.7811C60.2935 23.8752 60.3474 23.9836 60.3777 24.0995C60.408 24.2155 60.4141 24.3364 60.3955 24.4548L60.3282 26.1908C60.1986 29.0928 60.0742 31.2538 59.9654 32.6167C59.9252 33.4986 59.802 34.3748 59.5975 35.2336C59.3539 35.9332 58.7424 36.2701 57.7785 36.2701C57.3274 36.23 56.8774 36.3573 56.5141 36.6276C56.3795 36.7632 56.2749 36.9254 56.207 37.104C56.1392 37.2825 56.1096 37.4734 56.1203 37.6641C56.1003 37.8608 56.1202 38.0595 56.179 38.2483C56.2378 38.4371 56.3341 38.6121 56.4623 38.7627C56.8032 39.0115 57.2238 39.1259 57.6438 39.084C58.2956 39.0745 58.9428 38.9734 59.5664 38.7834C60.1256 38.6521 60.6537 38.4127 61.121 38.0787C61.5827 37.6739 61.8963 37.1269 62.0124 36.524C62.2688 35.3573 62.4317 34.172 62.4995 32.9794L62.7327 30.0411L62.9659 23.2629C63.0035 22.9542 62.9769 22.6411 62.8877 22.3433C62.7986 22.0454 62.6487 21.7692 62.4477 21.532C62.1469 21.2859 61.7996 21.1031 61.4265 20.9944C61.0534 20.8858 60.6622 20.8536 60.2763 20.8998Z" fill="#333333"/>
<path d="M92.613 16.3604H88.9855C87.4308 16.3604 86.6691 17.1273 86.6691 18.6457L86.638 27.5331C86.6536 29.3437 86.5114 31.1522 86.213 32.938C86.0057 34.2648 85.6475 35.5636 85.1455 36.8091C84.9621 37.2001 84.8531 37.6219 84.8242 38.0528C84.8242 38.8405 85.244 39.2395 86.0731 39.2395C86.638 39.2395 87.1095 38.6591 87.4827 37.5243C88.2429 35.2377 88.6994 32.8612 88.8404 30.4558H92.6907V35.8815C92.6907 36.5655 92.3694 36.9179 91.7061 36.9179H90.8303C90.669 36.8931 90.5041 36.9067 90.349 36.9576C90.194 37.0085 90.0531 37.0953 89.938 37.211C89.8228 37.3267 89.7366 37.4679 89.6863 37.6232C89.6361 37.7785 89.6232 37.9435 89.6488 38.1047C89.6488 38.9131 90.0893 39.3277 90.9599 39.3277H92.2554C93.0062 39.3909 93.7515 39.1542 94.3283 38.6695C94.8202 38.0603 95.0546 37.283 94.9812 36.5034V18.8841C94.9916 17.1947 94.1935 16.3604 92.613 16.3604ZM92.613 28.1808H88.7108L88.7419 24.4756H92.613V28.1808ZM92.613 22.2006H88.7419L88.7782 19.7495C88.7782 19.0654 89.0528 18.713 89.6281 18.713H91.732C91.852 18.7014 91.9732 18.7142 92.0881 18.7508C92.203 18.7873 92.3093 18.8467 92.4005 18.9255C92.5571 19.1114 92.6335 19.3518 92.613 19.594V22.2006Z" fill="#333333"/>
<path d="M112.31 36.016L109.201 34.1142C108.891 33.9115 108.534 33.7952 108.164 33.7773C107.997 33.7522 107.826 33.766 107.665 33.8178C107.504 33.8695 107.357 33.9577 107.236 34.0756C107.114 34.1935 107.022 34.3378 106.965 34.4973C106.909 34.6568 106.89 34.8272 106.91 34.9952C106.91 35.0942 106.932 35.192 106.974 35.2817C107.016 35.3713 107.077 35.4504 107.154 35.5134C107.378 35.7055 107.625 35.8691 107.89 36.0005L111.191 38.006C111.947 38.4517 111.984 38.6745 112.294 38.6745C113.082 38.6745 113.481 38.2184 113.481 37.3219C113.486 36.8193 113.093 36.3892 112.31 36.016Z" fill="#333333"/>
<path d="M108.454 32.9639C108.89 32.7804 109.238 32.4374 109.429 32.0052C109.481 31.8762 109.502 31.737 109.491 31.5983C109.481 31.4596 109.438 31.3253 109.367 31.2059C109.296 31.0865 109.198 30.9852 109.081 30.9099C108.964 30.8346 108.831 30.7873 108.693 30.7718C108.366 30.6837 107.864 30.8496 107.195 31.2901C106.836 31.4579 106.547 31.7481 106.382 32.1088C106.33 32.2382 106.308 32.3779 106.319 32.5169C106.33 32.6559 106.373 32.7904 106.445 32.91C106.517 33.0295 106.616 33.1307 106.733 33.2057C106.851 33.2807 106.984 33.3274 107.123 33.3422C107.598 33.3829 108.072 33.2483 108.454 32.9639Z" fill="#333333"/>
<path d="M86.6935 13.7896H93.3266V14.8261C93.3266 15.6552 93.7775 16.0802 94.6792 16.0802C94.8513 16.1064 95.0271 16.0924 95.1928 16.0391C95.3586 15.9859 95.5097 15.8949 95.6343 15.7733C95.7588 15.6518 95.8535 15.5029 95.9108 15.3386C95.9681 15.1742 95.9864 14.9987 95.9644 14.8261V13.7896H103.81V14.8261C103.81 15.6552 104.256 16.0802 105.132 16.0802C106.007 16.0802 106.484 15.6552 106.484 14.8261V13.7896H112.812C113.75 13.7896 114.231 13.3803 114.231 12.5667C114.231 11.7531 113.75 11.3488 112.812 11.3488H106.484V10.1621C106.484 9.35371 106.028 8.94434 105.132 8.94434C104.235 8.94434 103.81 9.35371 103.81 10.1621V11.3488H95.9644V10.1621C95.9644 9.35371 95.5343 8.94434 94.6792 8.94434C93.8241 8.94434 93.3266 9.35371 93.3266 10.1621V11.3488H86.6935C85.7711 11.3488 85.3047 11.7582 85.3047 12.5667C85.3047 13.3751 85.7711 13.7896 86.6935 13.7896Z" fill="#333333"/>
<path d="M104.759 27.5483C103.95 27.5483 103.541 27.9992 103.541 28.9009V36.1559C103.542 36.4125 103.454 36.6616 103.292 36.8607C103.106 37.0173 102.866 37.0937 102.624 37.0731H101.82C100.965 37.0731 100.535 37.4825 100.535 38.2961C100.535 39.1097 101.053 39.5139 102.022 39.5139H103.292C103.663 39.5617 104.039 39.5226 104.392 39.3999C104.745 39.2771 105.064 39.0741 105.325 38.8067C105.586 38.5393 105.781 38.215 105.895 37.8593C106.009 37.5035 106.038 37.1262 105.982 36.757V28.9009C105.982 27.9992 105.567 27.5483 104.759 27.5483Z" fill="#333333"/>
<path d="M102.621 34.9798C102.615 34.6788 102.501 34.39 102.299 34.1662C102.196 34.0771 102.074 34.0119 101.942 33.9752C101.81 33.9385 101.672 33.9312 101.538 33.9537L100.175 34.617L97.967 35.5913C96.744 36.1095 96.1481 36.6277 96.1895 37.1148C96.1969 37.4323 96.3162 37.737 96.5264 37.9751C96.6125 38.0548 96.7138 38.1165 96.8241 38.1565C96.9345 38.1966 97.0517 38.2142 97.169 38.2083H97.3089C97.6016 38.1406 97.8878 38.047 98.1639 37.9284L99.4076 37.4102C101.631 36.4515 102.683 35.6586 102.621 34.9798Z" fill="#333333"/>
<path d="M107.943 18.5472C107.456 19.3815 107.238 19.8945 107.264 20.1018C107.352 20.7962 107.818 21.0968 108.642 20.988C109.16 20.9258 109.596 20.5268 110.021 19.7961C110.446 19.0654 110.689 18.4332 110.648 18.1222C110.56 17.4278 110.098 17.1273 109.274 17.2361C108.87 17.3138 108.425 17.7439 107.943 18.5472Z" fill="#333333"/>
<path d="M100.498 17.4384C99.6742 17.3192 99.2078 17.599 99.1094 18.2675C99.1192 18.48 99.1777 18.6875 99.2804 18.8738C99.4099 19.1692 99.498 19.3661 99.5447 19.4853C99.9541 20.4026 100.41 20.9 100.897 20.9726C101.721 21.0918 102.193 20.7705 102.302 20.0087C102.309 19.4468 102.127 18.8989 101.783 18.4541C101.657 18.201 101.476 17.9789 101.254 17.8033C101.032 17.6278 100.774 17.5032 100.498 17.4384Z" fill="#333333"/>
<path d="M101.961 33.4616C102.713 33.4616 103.091 33.1196 103.091 32.4252C103.091 32.0884 102.842 31.736 102.35 31.3888C101.986 31.0903 101.547 30.8968 101.081 30.8291C100.371 30.8291 100.008 31.1504 100.008 31.7878C100.008 32.1298 100.386 32.5755 101.158 33.1507C101.386 33.3369 101.668 33.4457 101.961 33.4616Z" fill="#333333"/>
<path d="M57.619 13.3755C57.9142 12.9026 58.0651 12.354 58.0532 11.7966C58.0413 11.2393 57.8671 10.6976 57.5519 10.2378C57.2368 9.77796 56.7943 9.42003 56.2789 9.20787C55.7634 8.9957 55.1972 8.93849 54.6497 9.04323C54.3545 9.5161 54.2036 10.0648 54.2155 10.6221C54.2274 11.1794 54.4016 11.7212 54.7168 12.181C55.0319 12.6408 55.4744 12.9987 55.9899 13.2109C56.5053 13.423 57.0715 13.4802 57.619 13.3755Z" fill="#333333"/>
<path d="M113.446 30.4822C111.306 30.192 110.124 28.4456 109.056 26.9687H113.166C113.428 26.9687 113.679 26.8651 113.864 26.6806C114.049 26.4961 114.154 26.2457 114.156 25.9841V25.8131C114.154 25.5515 114.049 25.301 113.864 25.1165C113.679 24.932 113.428 24.8285 113.166 24.8285H104.123C104.5 23.9277 104.829 23.0074 105.108 22.0716H112.218C112.479 22.0716 112.729 21.9678 112.914 21.7832C113.098 21.5985 113.202 21.3481 113.202 21.0869V20.9159C113.202 20.6548 113.098 20.4044 112.914 20.2197C112.729 20.0351 112.479 19.9313 112.218 19.9313H105.673C105.838 19.2265 105.968 18.6202 106.082 18.0295C106.114 17.864 106.112 17.6937 106.076 17.529C106.04 17.3643 105.972 17.2085 105.875 17.0708C105.781 16.9317 105.659 16.8138 105.517 16.7245C105.376 16.6353 105.217 16.5767 105.051 16.5526C104.737 16.5102 104.419 16.5906 104.163 16.7769C103.907 16.9632 103.733 17.2412 103.677 17.5527C103.522 18.3663 103.346 19.1644 103.159 19.9313H97.3604C97.0992 19.9313 96.8488 20.0351 96.6641 20.2197C96.4795 20.4044 96.3758 20.6548 96.3758 20.9159V21.0869C96.3758 21.3481 96.4795 21.5985 96.6641 21.7832C96.8488 21.9678 97.0992 22.0716 97.3604 22.0716H102.543C102.237 23.0136 101.87 23.9345 101.444 24.8285H96.5105C96.3637 24.8182 96.2164 24.8383 96.0777 24.8875C95.939 24.9366 95.8119 25.0138 95.7043 25.1142C95.5967 25.2145 95.5109 25.336 95.4522 25.4709C95.3936 25.6058 95.3633 25.7514 95.3633 25.8986C95.3633 26.0457 95.3936 26.1913 95.4522 26.3262C95.5109 26.4612 95.5967 26.5826 95.7043 26.683C95.8119 26.7834 95.939 26.8605 96.0777 26.9097C96.2164 26.9588 96.3637 26.9789 96.5105 26.9687H100.221C99.2827 28.458 97.9174 29.63 96.3032 30.3319C96.0349 30.4446 95.8161 30.6501 95.6867 30.9108C95.5573 31.1714 95.526 31.4699 95.5984 31.7518V31.7777C95.6384 31.9504 95.715 32.1125 95.8232 32.2529C95.9314 32.3933 96.0686 32.5087 96.2255 32.5913C96.3798 32.6736 96.5503 32.7208 96.725 32.7298C96.8996 32.7387 97.0741 32.7092 97.236 32.6431C99.568 31.7052 101.542 29.7981 103.102 26.9687H106.165C106.186 27.0443 106.215 27.1174 106.253 27.1863C107.181 28.741 109.259 32.4877 113.197 32.98H113.295C113.546 32.9784 113.787 32.8863 113.974 32.7209C114.081 32.6235 114.166 32.505 114.224 32.3729C114.282 32.2409 114.312 32.0982 114.311 31.9539V31.4927C114.308 31.2495 114.22 31.015 114.062 30.8303C113.904 30.6455 113.686 30.5223 113.446 30.4822Z" fill="#333333"/>
<path d="M43.0496 11.8472C39.8698 12.2142 36.8186 13.3142 34.1361 15.0606C31.4535 16.807 29.2129 19.1521 27.5905 21.9114C26.4661 23.8303 25.68 25.9283 25.2667 28.1136C23.5758 24.0763 20.6344 20.6879 16.8748 18.4463C13.1152 16.2047 8.73576 15.2281 4.38001 15.6601C3.76997 18.7995 3.89578 22.0376 4.74758 25.1201C5.59939 28.2027 7.154 31.0459 9.2894 33.4267C11.4513 35.8136 14.1333 37.671 17.1281 38.8553C20.1228 40.0396 23.3499 40.5189 26.5596 40.2562C29.7133 39.899 32.7398 38.8093 35.3975 37.0741C38.0551 35.339 40.2702 33.0065 41.8659 30.2628C43.4749 27.4942 44.4192 24.3899 44.6246 21.1943C44.83 17.9987 44.2909 14.799 43.0496 11.8472Z" fill="#3D9D35"/>
<path d="M25.4625 36.5089C26.8182 36.5089 27.9172 34.7993 27.9172 32.6905C27.9172 30.5816 26.8182 28.8721 25.4625 28.8721C24.1068 28.8721 23.0078 30.5816 23.0078 32.6905C23.0078 34.7993 24.1068 36.5089 25.4625 36.5089Z" fill="white"/>
<path d="M26.5551 34.8721C27.3083 34.8721 27.9188 34.0173 27.9188 32.9629C27.9188 31.9085 27.3083 31.0537 26.5551 31.0537C25.802 31.0537 25.1914 31.9085 25.1914 32.9629C25.1914 34.0173 25.802 34.8721 26.5551 34.8721Z" fill="#333333"/>
<path d="M31.4625 35.4176C32.8182 35.4176 33.9172 33.708 33.9172 31.5992C33.9172 29.4903 32.8182 27.7808 31.4625 27.7808C30.1068 27.7808 29.0078 29.4903 29.0078 31.5992C29.0078 33.708 30.1068 35.4176 31.4625 35.4176Z" fill="white"/>
<path d="M32.5551 33.7813C33.3083 33.7813 33.9188 32.9265 33.9188 31.8721C33.9188 30.8177 33.3083 29.9629 32.5551 29.9629C31.802 29.9629 31.1914 30.8177 31.1914 31.8721C31.1914 32.9265 31.802 33.7813 32.5551 33.7813Z" fill="#333333"/>
</svg>
