<svg width="1327" height="698" viewBox="0 0 1327 698" fill="none" xmlns="http://www.w3.org/2000/svg">
<g clip-path="url(#clip0_12_19355)">
<rect x="1057" y="302" width="307" height="441" fill="white"/>
<rect x="1274" y="393" width="53" height="72" fill="white"/>
<rect x="897" y="462" width="531" height="340" fill="white"/>
<mask id="mask0_12_19355" style="mask-type:luminance" maskUnits="userSpaceOnUse" x="-2" y="0" width="1330" height="698">
<path d="M-1.48999 0H1327.5V377.505C1327.5 462.506 1294.82 544.025 1236.66 604.129C1178.5 664.234 1099.62 698 1017.37 698H-1.48999V0Z" fill="white"/>
</mask>
<g mask="url(#mask0_12_19355)">
<path d="M-1.48999 -1.02637H1428.81V364.49C1428.81 408.152 1420.49 451.387 1404.32 491.726C1388.15 532.064 1364.45 568.717 1334.58 599.591C1304.7 630.465 1269.24 654.956 1230.2 671.665C1191.17 688.374 1149.33 696.974 1107.08 696.974H-1.48999V-1.02637Z" stroke="black" stroke-miterlimit="10"/>
<path d="M-60.0926 1086.01C213.092 1086.01 434.553 898.273 434.553 666.693C434.553 435.112 213.092 247.379 -60.0926 247.379C-333.278 247.379 -554.738 435.112 -554.738 666.693C-554.738 898.273 -333.278 1086.01 -60.0926 1086.01Z" fill="#006D3B"/>
<path d="M605.394 1014.15C801.231 1014.15 959.989 887.312 959.989 730.847C959.989 574.381 801.231 447.541 605.394 447.541C409.556 447.541 250.799 574.381 250.799 730.847C250.799 887.312 409.556 1014.15 605.394 1014.15Z" fill="#3D9D35"/>
<path d="M730.347 409.736C724.308 410.54 718.532 412.78 713.472 416.279C708.412 419.779 704.206 424.444 701.185 429.906C698.995 433.904 697.489 438.262 696.735 442.789C692.87 439.781 688.488 437.555 683.823 436.23C677.948 434.573 671.782 434.347 665.809 435.568C659.835 436.79 654.217 439.427 649.396 443.271C651.619 449.132 655.125 454.38 659.64 458.605C664.155 462.829 669.557 465.915 675.42 467.619C683.872 470.036 692.869 469.417 700.937 465.864C706.822 464.871 712.41 462.498 717.269 458.926C722.129 455.354 726.132 450.679 728.971 445.259C731.81 439.84 733.409 433.82 733.646 427.662C733.883 421.504 732.751 415.372 730.337 409.736H730.347Z" fill="#006D3B"/>
<path d="M703.206 456.519C705.46 455.48 706.02 451.7 704.457 448.076C702.893 444.451 699.798 442.355 697.543 443.394C695.288 444.433 694.728 448.213 696.292 451.837C697.856 455.462 700.951 457.558 703.206 456.519Z" fill="white"/>
<path d="M703.806 452.873C705.058 452.296 705.44 450.359 704.658 448.547C703.876 446.735 702.227 445.733 700.974 446.31C699.722 446.888 699.34 448.825 700.122 450.637C700.904 452.449 702.553 453.45 703.806 452.873Z" fill="#333333"/>
<path d="M713.941 451.662C716.196 450.623 716.756 446.842 715.192 443.218C713.629 439.594 710.533 437.498 708.279 438.537C706.024 439.575 705.464 443.356 707.028 446.98C708.592 450.604 711.687 452.7 713.941 451.662Z" fill="white"/>
<path d="M714.537 448.016C715.79 447.438 716.172 445.502 715.39 443.689C714.608 441.877 712.959 440.876 711.706 441.453C710.454 442.03 710.072 443.967 710.854 445.779C711.636 447.592 713.285 448.593 714.537 448.016Z" fill="#333333"/>
<mask id="mask1_12_19355" style="mask-type:luminance" maskUnits="userSpaceOnUse" x="460" y="289" width="1458" height="1349">
<path d="M1188.94 1637.22C1591.31 1637.22 1917.49 1335.52 1917.49 963.343C1917.49 591.17 1591.31 289.465 1188.94 289.465C786.564 289.465 460.377 591.17 460.377 963.343C460.377 1335.52 786.564 1637.22 1188.94 1637.22Z" fill="white"/>
</mask>
<g mask="url(#mask1_12_19355)">
<path d="M1917.49 963.343C1917.49 1335.51 1591.31 1637.22 1188.94 1637.22C786.565 1637.22 460.377 1335.51 460.377 963.343C460.377 762.668 555.204 582.522 705.714 459.038C834.282 353.527 1003.52 289.465 1188.94 289.465C1591.31 289.465 1917.49 591.175 1917.49 963.343Z" fill="#8EB91F"/>
<path d="M677.902 460.886C677.902 460.886 957.009 416.747 1061.3 653.862C1165.59 890.977 1121.89 945.38 1121.89 945.38L1331.47 708.265L1345.38 521.447C1345.38 521.447 998.726 344.894 722.599 446.515L677.902 460.886Z" fill="white"/>
</g>
</g>
<path d="M605.991 410.588C601.835 411.762 597.998 413.915 594.782 416.878C591.566 419.842 589.059 423.535 587.457 427.669C586.191 430.973 585.537 434.493 585.53 438.046C583.777 435.114 581.518 432.54 578.865 430.451C575.431 427.76 571.439 425.931 567.203 425.108C562.968 424.285 558.606 424.491 554.46 425.708C554.406 430.164 555.36 434.572 557.248 438.579C559.136 442.585 561.905 446.08 565.334 448.783C568.762 451.486 572.755 453.323 576.993 454.147C581.231 454.97 585.597 454.757 589.741 453.526C589.741 453.423 589.741 453.31 589.741 453.207C593.895 452.039 597.727 449.886 600.933 446.917C604.139 443.949 606.63 440.248 608.208 436.109C609.786 431.97 610.408 427.508 610.023 423.078C609.638 418.647 608.257 414.37 605.991 410.588Z" fill="#333333"/>
<path d="M589.285 447.818L591.47 460.423C591.546 460.854 591.458 461.299 591.222 461.663C590.987 462.027 590.623 462.282 590.208 462.373L579.749 464.755C579.408 464.818 579.056 464.769 578.744 464.613C578.432 464.457 578.176 464.202 578.013 463.886C577.849 463.57 577.787 463.209 577.835 462.854C577.883 462.499 578.039 462.169 578.279 461.912L581.855 458.483C582.041 458.3 582.184 458.076 582.272 457.826C582.36 457.577 582.391 457.31 582.362 457.046L581.468 448.762C581.443 448.538 581.462 448.311 581.524 448.094C581.587 447.878 581.69 447.676 581.829 447.502C581.968 447.327 582.14 447.184 582.334 447.079C582.528 446.975 582.74 446.912 582.958 446.894L587.527 446.484C587.927 446.444 588.328 446.559 588.652 446.805C588.976 447.051 589.201 447.411 589.285 447.818Z" fill="#333333"/>
<path d="M590.843 448.168L592.83 460.804C592.896 461.236 593.123 461.625 593.463 461.888C593.802 462.15 594.227 462.266 594.648 462.21L605.275 460.814C605.632 460.767 605.963 460.601 606.219 460.341C606.475 460.08 606.641 459.74 606.691 459.373C606.742 459.006 606.675 458.632 606.5 458.308C606.325 457.984 606.052 457.728 605.722 457.58L601.243 455.589C600.999 455.49 600.781 455.333 600.608 455.129C600.436 454.925 600.313 454.682 600.25 454.419L598.402 446.31C598.352 446.092 598.261 445.887 598.134 445.706C598.006 445.526 597.846 445.372 597.661 445.256C597.477 445.14 597.271 445.062 597.058 445.028C596.844 444.994 596.626 445.004 596.416 445.057L591.966 446.258C591.585 446.38 591.261 446.641 591.054 446.993C590.847 447.345 590.772 447.763 590.843 448.168Z" fill="#333333"/>
<path d="M1078.77 445.283V509.756C1078.78 511.961 1079.61 514.08 1081.09 515.668C1082.57 517.256 1084.59 518.19 1086.72 518.275L1140.6 520.41C1142.41 520.481 1144.19 519.936 1145.66 518.86C1147.14 517.785 1148.23 516.237 1148.78 514.456C1149.32 512.675 1149.28 510.76 1148.67 509.003C1148.06 507.247 1146.9 505.748 1145.38 504.736L1124.74 491.022C1123.66 490.303 1122.75 489.331 1122.1 488.185C1121.45 487.039 1121.06 485.75 1120.98 484.422L1118.28 442.553C1118.2 441.422 1117.91 440.319 1117.42 439.306C1116.93 438.294 1116.25 437.393 1115.41 436.656C1114.58 435.919 1113.62 435.361 1112.57 435.015C1111.53 434.668 1110.43 434.54 1109.34 434.638L1086.32 436.804C1084.27 436.984 1082.35 437.955 1080.95 439.525C1079.55 441.095 1078.78 443.15 1078.77 445.283Z" fill="#333333"/>
<path d="M1145.59 442.522L1194.82 482.144C1196.5 483.498 1198.62 484.126 1200.74 483.897C1202.86 483.667 1204.82 482.597 1206.19 480.912L1240.95 438.293C1242.12 436.864 1242.81 435.077 1242.9 433.207C1242.99 431.337 1242.48 429.489 1241.45 427.948C1240.42 426.407 1238.93 425.259 1237.2 424.682C1235.48 424.104 1233.62 424.13 1231.91 424.754L1208.8 433.171C1207.58 433.607 1206.28 433.741 1205 433.563C1203.72 433.384 1202.5 432.899 1201.44 432.144L1167.83 408.628C1166.92 407.99 1165.89 407.547 1164.82 407.324C1163.74 407.102 1162.63 407.104 1161.55 407.332C1160.47 407.56 1159.45 408.008 1158.54 408.65C1157.64 409.292 1156.86 410.115 1156.27 411.071L1143.77 431.169C1142.65 432.954 1142.21 435.109 1142.55 437.211C1142.88 439.312 1143.97 441.207 1145.59 442.522Z" fill="#333333"/>
<path d="M1215.37 248.816C1175.74 258.003 1140.23 284.435 1121.74 325.74C1115.68 339.27 1111.9 353.77 1110.56 368.616C1103.48 354.972 1094.22 342.665 1083.16 332.217C1050.62 301.556 1007.96 291.425 968.003 298.836C964.556 340.634 978.263 383.592 1010.8 414.253C1026.24 428.802 1044.71 439.487 1064.78 445.482C1084.85 451.477 1105.98 452.62 1126.55 448.824C1166.17 439.637 1200.72 413.657 1219.22 372.362C1237.71 331.068 1234.23 285.975 1215.37 248.816Z" fill="#3D9D35"/>
<path d="M1117.06 424.568C1125.81 423.701 1131.85 411.59 1130.55 397.516C1129.24 383.441 1121.09 372.734 1112.33 373.6C1103.58 374.467 1097.54 386.578 1098.85 400.653C1100.15 414.727 1108.3 425.434 1117.06 424.568Z" fill="white"/>
<path d="M1123.09 412.958C1127.96 412.476 1131.37 406.381 1130.72 399.344C1130.07 392.307 1125.59 386.993 1120.73 387.474C1115.86 387.956 1112.45 394.051 1113.1 401.088C1113.75 408.125 1118.23 413.439 1123.09 412.958Z" fill="#333333"/>
<path d="M1155.12 413.467C1163.88 412.6 1169.92 400.489 1168.61 386.414C1167.31 372.34 1159.15 361.633 1150.4 362.499C1141.65 363.366 1135.61 375.477 1136.91 389.551C1138.22 403.626 1146.37 414.333 1155.12 413.467Z" fill="white"/>
<path d="M1161.16 401.837C1166.02 401.355 1169.44 395.26 1168.79 388.223C1168.13 381.186 1163.66 375.872 1158.8 376.353C1153.93 376.835 1150.51 382.93 1151.17 389.967C1151.82 397.004 1156.29 402.318 1161.16 401.837Z" fill="#333333"/>
<path d="M914.396 352.079L904.732 359.018C902.428 360.671 898.832 358.844 899.766 356.514L901.961 351.381C901.961 351.381 892.147 351.381 886.257 343.683C882.006 338.119 884.34 327.619 887.429 325.402C888.562 324.591 892.892 330.329 894.054 331.109L904.106 337.863C902.308 339.557 901.126 341.158 900.908 342.615C900.818 343.09 900.838 343.58 900.966 344.046C901.093 344.511 901.325 344.939 901.643 345.295C905.003 349.017 909.512 351.416 914.396 352.079Z" fill="#333333"/>
<path d="M933.6 349.175L921.68 358.834C919.475 360.63 915.78 359.019 916.635 356.637L918.532 351.351C917.553 351.384 916.573 351.336 915.602 351.207C912.215 350.817 906.573 349.421 902.431 344.607C901.08 343.036 902.431 340.829 905.013 338.448C911.201 332.751 924.63 326.028 926.716 324.334C927.789 323.462 920.349 334.999 924.481 337.842L933.312 345.644C933.624 345.798 933.893 346.034 934.09 346.329C934.287 346.624 934.406 346.967 934.435 347.324C934.464 347.681 934.402 348.04 934.256 348.364C934.109 348.689 933.883 348.968 933.6 349.175Z" fill="#333333"/>
<path d="M934.063 319.417C926.425 333.305 913.87 341.117 900.66 342.585C900.59 342.4 899.547 342.071 899.498 341.876C889.207 336.138 882.314 326.151 880.119 313.238C879.092 307.037 879.469 300.674 881.222 294.649C882.975 288.624 886.055 283.1 890.221 278.512C897.047 282.147 902.721 287.729 906.57 294.597C910.076 289.225 914.671 284.704 920.036 281.349C925.4 277.994 931.407 275.884 937.639 275.166C940.093 282.386 941.042 290.061 940.426 297.686C939.81 305.312 937.642 312.718 934.063 319.417Z" fill="#8EB91F"/>
<mask id="mask2_12_19355" style="mask-type:luminance" maskUnits="userSpaceOnUse" x="905" y="308" width="11" height="14">
<path d="M905.429 316.266C904.753 320.731 906.7 320.7 909.481 321.152C912.262 321.603 914.815 322.353 915.49 317.887C916.166 313.422 914.497 309.44 911.686 308.998C908.875 308.557 906.104 311.8 905.429 316.266Z" fill="white"/>
</mask>
<g mask="url(#mask2_12_19355)">
<path d="M905.429 316.266C904.753 320.731 906.7 320.7 909.481 321.152C912.262 321.603 914.815 322.353 915.49 317.887C916.166 313.422 914.497 309.44 911.686 308.998C908.875 308.557 906.104 311.8 905.429 316.266Z" fill="white"/>
<path d="M910.88 317.716C911.218 315.481 910.24 313.467 908.696 313.217C907.151 312.968 905.624 314.577 905.286 316.812C904.948 319.047 905.925 321.061 907.47 321.31C909.015 321.56 910.541 319.95 910.88 317.716Z" fill="#333333"/>
</g>
<mask id="mask3_12_19355" style="mask-type:luminance" maskUnits="userSpaceOnUse" x="891" y="306" width="12" height="14">
<path d="M891.86 313.925C891.185 318.391 893.132 318.37 895.903 318.811C898.674 319.253 901.237 320.012 901.922 315.558C902.607 311.103 900.929 307.11 898.118 306.658C895.307 306.206 892.536 309.46 891.86 313.925Z" fill="white"/>
</mask>
<g mask="url(#mask3_12_19355)">
<path d="M891.86 313.925C891.185 318.391 893.132 318.37 895.903 318.811C898.674 319.253 901.237 320.012 901.922 315.558C902.607 311.103 900.929 307.11 898.118 306.658C895.307 306.206 892.536 309.46 891.86 313.925Z" fill="white"/>
<path d="M897.303 315.379C897.642 313.144 896.664 311.131 895.12 310.881C893.575 310.632 892.048 312.241 891.71 314.476C891.371 316.71 892.349 318.724 893.894 318.974C895.438 319.223 896.965 317.614 897.303 315.379Z" fill="#333333"/>
</g>
<path fill-rule="evenodd" clip-rule="evenodd" d="M1099.1 238.706C1103.71 244.608 1104.38 251.218 1102.52 256.761L1098.44 274.17L1096.6 281.202C1096.35 282.158 1095.85 283.022 1095.15 283.696C1094.45 284.371 1093.58 284.827 1092.64 285.013C1091.7 285.2 1090.73 285.109 1089.83 284.75C1088.94 284.392 1088.16 283.781 1087.59 282.988L1083.36 277.147L1072.93 262.623C1070.98 260.278 1069.64 257.448 1069.06 254.411C1066.62 241.919 1077.43 229.868 1091.45 233.635C1094.46 234.434 1097.14 236.212 1099.1 238.706ZM1093.46 250.51C1093.46 255.045 1089.9 258.722 1085.51 258.722C1081.12 258.722 1077.56 255.045 1077.56 250.51C1077.56 245.975 1081.12 242.298 1085.51 242.298C1089.9 242.298 1093.46 245.975 1093.46 250.51Z" fill="white"/>
</g>
<defs>
<clipPath id="clip0_12_19355">
<rect width="1327" height="698" fill="white"/>
</clipPath>
</defs>
</svg>
