<svg width="25" height="684" viewBox="0 0 25 684" fill="none" xmlns="http://www.w3.org/2000/svg">
<path d="M1 0.818181L24.2727 0.818182L24.2727 8.68182C24.2727 10.5 23.9621 11.9924 23.3409 13.1591C22.7273 14.3258 21.8826 15.1894 20.8068 15.75C19.7311 16.3106 18.5076 16.5909 17.1364 16.5909C15.7652 16.5909 14.5492 16.3106 13.4886 15.75C12.428 15.1894 11.5947 14.3295 10.9886 13.1705C10.3902 12.0114 10.0909 10.5303 10.0909 8.72727L10.0909 2.36364L12.6364 2.36364L12.6364 8.63636C12.6364 9.87879 12.8182 10.8788 13.1818 11.6364C13.5455 12.4015 14.0606 12.9545 14.7273 13.2955C15.4015 13.6439 16.2045 13.8182 17.1364 13.8182C18.0682 13.8182 18.8826 13.6439 19.5795 13.2955C20.2765 12.947 20.8144 12.3902 21.1932 11.625C21.5795 10.8598 21.7727 9.84848 21.7727 8.59091L21.7727 3.63636L1 3.63636L1 0.818181ZM11.4545 11.7727L0.999999 17.5L0.999999 14.2273L11.4545 8.59091L11.4545 11.7727ZM0.999999 21.2869L24.2727 21.2869L24.2727 35.3324L21.7727 35.3324L21.7727 24.1051L13.9091 24.1051L13.9091 34.6051L11.4091 34.6051L11.4091 24.1051L3.5 24.1051L3.5 35.5142L0.999998 35.5142L0.999999 21.2869ZM21.7727 39.1392L24.2727 39.1392L24.2727 56.5937L21.7727 56.5937L21.7727 49.2756L0.999998 49.2756L0.999998 46.4574L21.7727 46.4574L21.7727 39.1392ZM12.6364 79.6108C10.1818 79.6108 8.0606 79.1676 6.27272 78.2812C4.48485 77.3949 3.10606 76.179 2.13636 74.6335C1.16666 73.0881 0.681815 71.3229 0.681815 69.3381C0.681815 67.3532 1.16666 65.5881 2.13636 64.0426C3.10606 62.4972 4.48485 61.2812 6.27272 60.3949C8.0606 59.5085 10.1818 59.0653 12.6364 59.0653C15.0909 59.0653 17.2121 59.5085 19 60.3949C20.7879 61.2812 22.1667 62.4972 23.1364 64.0426C24.1061 65.5881 24.5909 67.3532 24.5909 69.3381C24.5909 71.3229 24.1061 73.0881 23.1364 74.6335C22.1667 76.179 20.7879 77.3949 19 78.2812C17.2121 79.1676 15.0909 79.6108 12.6364 79.6108ZM12.6364 76.8835C14.6515 76.8835 16.3523 76.5464 17.7386 75.8722C19.125 75.2055 20.1742 74.3002 20.8864 73.1562C21.5985 72.0199 21.9545 70.7472 21.9545 69.3381C21.9545 67.929 21.5985 66.6525 20.8864 65.5085C20.1742 64.3722 19.125 63.4669 17.7386 62.7926C16.3523 62.1259 14.6515 61.7926 12.6364 61.7926C10.6212 61.7926 8.92045 62.1259 7.53409 62.7926C6.14772 63.4669 5.09848 64.3722 4.38636 65.5085C3.67424 66.6525 3.31818 67.929 3.31818 69.3381C3.31818 70.7472 3.67424 72.0199 4.38636 73.1562C5.09848 74.3002 6.14772 75.2055 7.53409 75.8722C8.92045 76.5464 10.6212 76.8835 12.6364 76.8835ZM0.999996 93.3494L24.2727 93.3494L24.2727 101.213C24.2727 103.031 23.9621 104.524 23.3409 105.69C22.7273 106.857 21.8826 107.721 20.8068 108.281C19.7311 108.842 18.5076 109.122 17.1364 109.122C15.7651 109.122 14.5492 108.842 13.4886 108.281C12.428 107.721 11.5947 106.861 10.9886 105.702C10.3901 104.543 10.0909 103.062 10.0909 101.259L10.0909 94.8949L12.6364 94.8949L12.6364 101.168C12.6364 102.41 12.8182 103.41 13.1818 104.168C13.5455 104.933 14.0606 105.486 14.7273 105.827C15.4015 106.175 16.2045 106.349 17.1364 106.349C18.0682 106.349 18.8826 106.175 19.5795 105.827C20.2765 105.478 20.8144 104.921 21.1932 104.156C21.5795 103.391 21.7727 102.38 21.7727 101.122L21.7727 96.1676L0.999996 96.1676L0.999996 93.3494ZM11.4545 104.304L0.999995 110.031L0.999995 106.759L11.4545 101.122L11.4545 104.304ZM0.999995 113.818L24.2727 113.818L24.2727 127.864L21.7727 127.864L21.7727 116.636L13.9091 116.636L13.9091 127.136L11.4091 127.136L11.4091 116.636L3.49999 116.636L3.49999 128.045L0.999994 128.045L0.999995 113.818ZM21.7727 131.67L24.2727 131.67L24.2727 149.125L21.7727 149.125L21.7727 141.807L0.999994 141.807L0.999994 138.989L21.7727 138.989L21.7727 131.67ZM12.6364 172.142C10.1818 172.142 8.0606 171.699 6.27272 170.812C4.48484 169.926 3.10605 168.71 2.13636 167.165C1.16666 165.619 0.681811 163.854 0.681811 161.869C0.681811 159.884 1.16666 158.119 2.13636 156.574C3.10605 155.028 4.48484 153.812 6.27272 152.926C8.0606 152.04 10.1818 151.597 12.6364 151.597C15.0909 151.597 17.2121 152.04 19 152.926C20.7879 153.812 22.1667 155.028 23.1364 156.574C24.1061 158.119 24.5909 159.884 24.5909 161.869C24.5909 163.854 24.1061 165.619 23.1364 167.165C22.1667 168.71 20.7879 169.926 19 170.812C17.2121 171.699 15.0909 172.142 12.6364 172.142ZM12.6364 169.415C14.6515 169.415 16.3523 169.078 17.7386 168.403C19.125 167.737 20.1742 166.831 20.8864 165.687C21.5985 164.551 21.9545 163.278 21.9545 161.869C21.9545 160.46 21.5985 159.184 20.8864 158.04C20.1742 156.903 19.125 155.998 17.7386 155.324C16.3523 154.657 14.6515 154.324 12.6364 154.324C10.6212 154.324 8.92045 154.657 7.53408 155.324C6.14772 155.998 5.09848 156.903 4.38636 158.04C3.67424 159.184 3.31817 160.46 3.31817 161.869C3.31817 163.278 3.67424 164.551 4.38636 165.687C5.09848 166.831 6.14772 167.737 7.53408 168.403C8.92045 169.078 10.6212 169.415 12.6364 169.415ZM0.999992 185.881L24.2727 185.881L24.2727 193.744C24.2727 195.562 23.9621 197.055 23.3409 198.222C22.7273 199.388 21.8826 200.252 20.8068 200.812C19.7311 201.373 18.5076 201.653 17.1364 201.653C15.7651 201.653 14.5492 201.373 13.4886 200.812C12.428 200.252 11.5947 199.392 10.9886 198.233C10.3901 197.074 10.0909 195.593 10.0909 193.79L10.0909 187.426L12.6364 187.426L12.6364 193.699C12.6364 194.941 12.8182 195.941 13.1818 196.699C13.5454 197.464 14.0606 198.017 14.7273 198.358C15.4015 198.706 16.2045 198.881 17.1364 198.881C18.0682 198.881 18.8826 198.706 19.5795 198.358C20.2765 198.009 20.8144 197.453 21.1932 196.687C21.5795 195.922 21.7727 194.911 21.7727 193.653L21.7727 188.699L0.999992 188.699L0.999992 185.881ZM11.4545 196.835L0.999991 202.562L0.999991 199.29L11.4545 193.653L11.4545 196.835ZM0.999991 206.349L24.2727 206.349L24.2727 220.395L21.7727 220.395L21.7727 209.168L13.9091 209.168L13.9091 219.668L11.4091 219.668L11.4091 209.168L3.49999 209.168L3.49999 220.577L0.99999 220.577L0.999991 206.349ZM21.7727 224.202L24.2727 224.202L24.2727 241.656L21.7727 241.656L21.7727 234.338L0.99999 234.338L0.99999 231.52L21.7727 231.52L21.7727 224.202ZM12.6364 264.673C10.1818 264.673 8.06059 264.23 6.27272 263.344C4.48484 262.457 3.10605 261.241 2.13635 259.696C1.16666 258.151 0.681807 256.385 0.681807 254.401C0.681807 252.416 1.16666 250.651 2.13635 249.105C3.10605 247.56 4.48484 246.344 6.27272 245.457C8.0606 244.571 10.1818 244.128 12.6364 244.128C15.0909 244.128 17.2121 244.571 19 245.457C20.7879 246.344 22.1667 247.56 23.1364 249.105C24.1061 250.651 24.5909 252.416 24.5909 254.401C24.5909 256.385 24.106 258.151 23.1364 259.696C22.1667 261.241 20.7879 262.457 19 263.344C17.2121 264.23 15.0909 264.673 12.6364 264.673ZM12.6364 261.946C14.6515 261.946 16.3523 261.609 17.7386 260.935C19.125 260.268 20.1742 259.363 20.8864 258.219C21.5985 257.082 21.9545 255.81 21.9545 254.401C21.9545 252.991 21.5985 251.715 20.8864 250.571C20.1742 249.435 19.125 248.529 17.7386 247.855C16.3523 247.188 14.6515 246.855 12.6364 246.855C10.6212 246.855 8.92044 247.188 7.53408 247.855C6.14772 248.529 5.09847 249.435 4.38635 250.571C3.67423 251.715 3.31817 252.991 3.31817 254.401C3.31817 255.81 3.67423 257.082 4.38635 258.219C5.09847 259.363 6.14772 260.268 7.53408 260.935C8.92044 261.609 10.6212 261.946 12.6364 261.946ZM0.999988 278.412L24.2727 278.412L24.2727 286.276C24.2727 288.094 23.9621 289.586 23.3409 290.753C22.7273 291.92 21.8826 292.783 20.8068 293.344C19.731 293.904 18.5076 294.185 17.1364 294.185C15.7651 294.185 14.5492 293.904 13.4886 293.344C12.428 292.783 11.5947 291.923 10.9886 290.764C10.3901 289.605 10.0909 288.124 10.0909 286.321L10.0909 279.957L12.6364 279.957L12.6364 286.23C12.6364 287.473 12.8182 288.473 13.1818 289.23C13.5454 289.995 14.0606 290.548 14.7273 290.889C15.4015 291.238 16.2045 291.412 17.1364 291.412C18.0682 291.412 18.8826 291.238 19.5795 290.889C20.2765 290.541 20.8144 289.984 21.1932 289.219C21.5795 288.454 21.7727 287.442 21.7727 286.185L21.7727 281.23L0.999988 281.23L0.999988 278.412ZM11.4545 289.366L0.999987 295.094L0.999987 291.821L11.4545 286.185L11.4545 289.366ZM0.999987 298.881L24.2727 298.881L24.2727 312.926L21.7727 312.926L21.7727 301.699L13.9091 301.699L13.9091 312.199L11.4091 312.199L11.4091 301.699L3.49999 301.699L3.49999 313.108L0.999986 313.108L0.999987 298.881ZM21.7727 316.733L24.2727 316.733L24.2727 334.187L21.7727 334.187L21.7727 326.869L0.999986 326.869L0.999986 324.051L21.7727 324.051L21.7727 316.733ZM12.6363 357.205C10.1818 357.205 8.06059 356.761 6.27271 355.875C4.48483 354.989 3.10605 353.773 2.13635 352.227C1.16665 350.682 0.681803 348.917 0.681803 346.932C0.681803 344.947 1.16665 343.182 2.13635 341.636C3.10605 340.091 4.48483 338.875 6.27271 337.989C8.06059 337.102 10.1818 336.659 12.6363 336.659C15.0909 336.659 17.2121 337.102 19 337.989C20.7879 338.875 22.1667 340.091 23.1363 341.636C24.106 343.182 24.5909 344.947 24.5909 346.932C24.5909 348.917 24.106 350.682 23.1363 352.227C22.1667 353.773 20.7879 354.989 19 355.875C17.2121 356.761 15.0909 357.205 12.6363 357.205ZM12.6363 354.477C14.6515 354.477 16.3523 354.14 17.7386 353.466C19.125 352.799 20.1742 351.894 20.8863 350.75C21.5985 349.614 21.9545 348.341 21.9545 346.932C21.9545 345.523 21.5985 344.246 20.8863 343.102C20.1742 341.966 19.125 341.061 17.7386 340.386C16.3523 339.72 14.6515 339.386 12.6363 339.386C10.6212 339.386 8.92044 339.72 7.53408 340.386C6.14771 341.061 5.09847 341.966 4.38635 343.102C3.67423 344.246 3.31817 345.523 3.31817 346.932C3.31817 348.341 3.67423 349.614 4.38635 350.75C5.09847 351.894 6.14771 352.799 7.53408 353.466C8.92044 354.14 10.6212 354.477 12.6363 354.477ZM0.999984 370.943L24.2727 370.943L24.2727 378.807C24.2727 380.625 23.9621 382.117 23.3409 383.284C22.7273 384.451 21.8826 385.314 20.8068 385.875C19.731 386.436 18.5076 386.716 17.1363 386.716C15.7651 386.716 14.5492 386.436 13.4886 385.875C12.428 385.314 11.5947 384.455 10.9886 383.295C10.3901 382.136 10.0909 380.655 10.0909 378.852L10.0909 372.489L12.6363 372.489L12.6363 378.761C12.6363 380.004 12.8182 381.004 13.1818 381.761C13.5454 382.527 14.0606 383.08 14.7273 383.42C15.4015 383.769 16.2045 383.943 17.1363 383.943C18.0682 383.943 18.8826 383.769 19.5795 383.42C20.2765 383.072 20.8144 382.515 21.1932 381.75C21.5795 380.985 21.7727 379.973 21.7727 378.716L21.7727 373.761L0.999984 373.761L0.999984 370.943ZM11.4545 381.898L0.999983 387.625L0.999983 384.352L11.4545 378.716L11.4545 381.898ZM0.999983 391.412L24.2727 391.412L24.2727 405.457L21.7727 405.457L21.7727 394.23L13.9091 394.23L13.9091 404.73L11.4091 404.73L11.4091 394.23L3.49998 394.23L3.49998 405.639L0.999982 405.639L0.999983 391.412ZM21.7727 409.264L24.2727 409.264L24.2727 426.719L21.7727 426.719L21.7727 419.401L0.999982 419.401L0.999982 416.582L21.7727 416.582L21.7727 409.264ZM12.6363 449.736C10.1818 449.736 8.06059 449.293 6.27271 448.406C4.48483 447.52 3.10604 446.304 2.13634 444.759C1.16665 443.213 0.681799 441.448 0.681799 439.463C0.681799 437.478 1.16665 435.713 2.13634 434.168C3.10604 432.622 4.48483 431.406 6.27271 430.52C8.06059 429.634 10.1818 429.19 12.6363 429.19C15.0909 429.19 17.2121 429.634 19 430.52C20.7879 431.406 22.1666 432.622 23.1363 434.168C24.106 435.713 24.5909 437.478 24.5909 439.463C24.5909 441.448 24.106 443.213 23.1363 444.759C22.1666 446.304 20.7879 447.52 19 448.406C17.2121 449.293 15.0909 449.736 12.6363 449.736ZM12.6363 447.009C14.6515 447.009 16.3523 446.671 17.7386 445.997C19.125 445.33 20.1742 444.425 20.8863 443.281C21.5985 442.145 21.9545 440.872 21.9545 439.463C21.9545 438.054 21.5985 436.777 20.8863 435.634C20.1742 434.497 19.125 433.592 17.7386 432.918C16.3523 432.251 14.6515 431.918 12.6363 431.918C10.6212 431.918 8.92044 432.251 7.53407 432.918C6.14771 433.592 5.09847 434.497 4.38634 435.634C3.67422 436.777 3.31816 438.054 3.31816 439.463C3.31816 440.872 3.67422 442.145 4.38634 443.281C5.09847 444.425 6.14771 445.33 7.53407 445.997C8.92044 446.671 10.6212 447.009 12.6363 447.009ZM0.99998 463.474L24.2727 463.474L24.2727 471.338C24.2727 473.156 23.9621 474.649 23.3409 475.815C22.7273 476.982 21.8826 477.846 20.8068 478.406C19.731 478.967 18.5076 479.247 17.1363 479.247C15.7651 479.247 14.5492 478.967 13.4886 478.406C12.428 477.846 11.5947 476.986 10.9886 475.827C10.3901 474.668 10.0909 473.187 10.0909 471.384L10.0909 465.02L12.6363 465.02L12.6363 471.293C12.6363 472.535 12.8182 473.535 13.1818 474.293C13.5454 475.058 14.0606 475.611 14.7273 475.952C15.4015 476.3 16.2045 476.474 17.1363 476.474C18.0682 476.474 18.8826 476.3 19.5795 475.952C20.2765 475.603 20.8144 475.046 21.1932 474.281C21.5795 473.516 21.7727 472.505 21.7727 471.247L21.7727 466.293L0.99998 466.293L0.99998 463.474ZM11.4545 474.429L0.999979 480.156L0.999979 476.884L11.4545 471.247L11.4545 474.429ZM0.999979 483.943L24.2727 483.943L24.2727 497.989L21.7727 497.989L21.7727 486.761L13.9091 486.761L13.9091 497.261L11.4091 497.261L11.4091 486.761L3.49998 486.761L3.49998 498.17L0.999978 498.17L0.999979 483.943ZM21.7727 501.795L24.2727 501.795L24.2727 519.25L21.7727 519.25L21.7727 511.932L0.999978 511.932L0.999978 509.114L21.7727 509.114L21.7727 501.795ZM12.6363 542.267C10.1818 542.267 8.06058 541.824 6.2727 540.937C4.48482 540.051 3.10604 538.835 2.13634 537.29C1.16664 535.744 0.681795 533.979 0.681795 531.994C0.681795 530.009 1.16664 528.244 2.13634 526.699C3.10604 525.153 4.48483 523.937 6.2727 523.051C8.06058 522.165 10.1818 521.722 12.6363 521.722C15.0909 521.722 17.2121 522.165 19 523.051C20.7879 523.937 22.1666 525.153 23.1363 526.699C24.106 528.244 24.5909 530.009 24.5909 531.994C24.5909 533.979 24.106 535.744 23.1363 537.29C22.1666 538.835 20.7879 540.051 19 540.937C17.2121 541.824 15.0909 542.267 12.6363 542.267ZM12.6363 539.54C14.6515 539.54 16.3522 539.203 17.7386 538.528C19.125 537.862 20.1742 536.956 20.8863 535.812C21.5985 534.676 21.9545 533.403 21.9545 531.994C21.9545 530.585 21.5985 529.309 20.8863 528.165C20.1742 527.028 19.125 526.123 17.7386 525.449C16.3522 524.782 14.6515 524.449 12.6363 524.449C10.6212 524.449 8.92043 524.782 7.53407 525.449C6.1477 526.123 5.09846 527.028 4.38634 528.165C3.67422 529.309 3.31816 530.585 3.31816 531.994C3.31816 533.403 3.67422 534.676 4.38634 535.812C5.09846 536.956 6.1477 537.862 7.53407 538.528C8.92043 539.203 10.6212 539.54 12.6363 539.54ZM0.999976 556.006L24.2727 556.006L24.2727 563.869C24.2727 565.687 23.9621 567.18 23.3409 568.347C22.7272 569.513 21.8826 570.377 20.8068 570.937C19.731 571.498 18.5076 571.778 17.1363 571.778C15.7651 571.778 14.5492 571.498 13.4886 570.937C12.428 570.377 11.5947 569.517 10.9886 568.358C10.3901 567.199 10.0909 565.718 10.0909 563.915L10.0909 557.551L12.6363 557.551L12.6363 563.824C12.6363 565.066 12.8182 566.066 13.1818 566.824C13.5454 567.589 14.0606 568.142 14.7272 568.483C15.4015 568.831 16.2045 569.006 17.1363 569.006C18.0682 569.006 18.8826 568.831 19.5795 568.483C20.2765 568.134 20.8144 567.578 21.1932 566.812C21.5795 566.047 21.7727 565.036 21.7727 563.778L21.7727 558.824L0.999975 558.824L0.999976 556.006ZM11.4545 566.96L0.999975 572.687L0.999975 569.415L11.4545 563.778L11.4545 566.96ZM0.999975 576.474L24.2727 576.474L24.2727 590.52L21.7727 590.52L21.7727 579.293L13.9091 579.293L13.9091 589.793L11.4091 589.793L11.4091 579.293L3.49997 579.293L3.49997 590.702L0.999974 590.702L0.999975 576.474ZM21.7727 594.327L24.2727 594.327L24.2727 611.781L21.7727 611.781L21.7727 604.463L0.999973 604.463L0.999974 601.645L21.7727 601.645L21.7727 594.327ZM12.6363 634.798C10.1818 634.798 8.06058 634.355 6.2727 633.469C4.48482 632.582 3.10603 631.366 2.13634 629.821C1.16664 628.276 0.681791 626.51 0.681791 624.526C0.681791 622.541 1.16664 620.776 2.13634 619.23C3.10603 617.685 4.48482 616.469 6.2727 615.582C8.06058 614.696 10.1818 614.253 12.6363 614.253C15.0909 614.253 17.2121 614.696 19 615.582C20.7879 616.469 22.1666 617.685 23.1363 619.23C24.106 620.776 24.5909 622.541 24.5909 624.526C24.5909 626.51 24.106 628.276 23.1363 629.821C22.1666 631.366 20.7879 632.582 19 633.469C17.2121 634.355 15.0909 634.798 12.6363 634.798ZM12.6363 632.071C14.6515 632.071 16.3522 631.734 17.7386 631.06C19.125 630.393 20.1742 629.488 20.8863 628.344C21.5985 627.207 21.9545 625.935 21.9545 624.526C21.9545 623.116 21.5985 621.84 20.8863 620.696C20.1742 619.56 19.125 618.654 17.7386 617.98C16.3522 617.313 14.6515 616.98 12.6363 616.98C10.6212 616.98 8.92043 617.313 7.53406 617.98C6.1477 618.654 5.09846 619.56 4.38634 620.696C3.67422 621.84 3.31815 623.116 3.31815 624.526C3.31815 625.935 3.67422 627.207 4.38634 628.344C5.09846 629.488 6.1477 630.393 7.53406 631.06C8.92043 631.734 10.6212 632.071 12.6363 632.071ZM0.999972 648.537L24.2727 648.537L24.2727 656.401C24.2727 658.219 23.9621 659.711 23.3409 660.878C22.7272 662.045 21.8825 662.908 20.8068 663.469C19.731 664.029 18.5075 664.31 17.1363 664.31C15.7651 664.31 14.5492 664.029 13.4886 663.469C12.428 662.908 11.5947 662.048 10.9886 660.889C10.3901 659.73 10.0909 658.249 10.0909 656.446L10.0909 650.082L12.6363 650.082L12.6363 656.355C12.6363 657.598 12.8182 658.598 13.1818 659.355C13.5454 660.12 14.0606 660.673 14.7272 661.014C15.4015 661.363 16.2045 661.537 17.1363 661.537C18.0682 661.537 18.8825 661.363 19.5795 661.014C20.2765 660.666 20.8144 660.109 21.1932 659.344C21.5795 658.579 21.7727 657.567 21.7727 656.31L21.7727 651.355L0.999971 651.355L0.999972 648.537ZM11.4545 659.491L0.999971 665.219L0.999971 661.946L11.4545 656.31L11.4545 659.491ZM0.999971 669.006L24.2727 669.006L24.2727 683.051L21.7727 683.051L21.7727 671.824L13.9091 671.824L13.9091 682.324L11.4091 682.324L11.4091 671.824L3.49997 671.824L3.49997 683.233L0.99997 683.233L0.999971 669.006Z" fill="#333333"/>
</svg>
