<svg width="40" height="40" viewBox="0 0 40 40" fill="none" xmlns="http://www.w3.org/2000/svg">
<circle cx="20" cy="20" r="20" fill="#2F80ED"/>
<mask id="mask0_1_16593" style="mask-type:alpha" maskUnits="userSpaceOnUse" x="0" y="0" width="40" height="40">
<circle cx="20" cy="20" r="20" fill="url(#paint0_linear_1_16593)"/>
</mask>
<g mask="url(#mask0_1_16593)">
<path d="M21.4854 38.4121L22.5547 44.0258" stroke="white" stroke-width="0.625" stroke-linecap="round"/>
<path fill-rule="evenodd" clip-rule="evenodd" d="M22.4278 33.2448C23.5593 32.9707 25.9354 32.8062 26.3879 34.3414C26.8405 35.8767 26.1994 36.626 25.8222 36.8088C27.9909 38.3623 32.0453 42.6756 30.9138 47.5007H19.882V34.3414L22.4278 33.2448ZM17.3339 33.245C16.2024 32.9709 13.8264 32.8064 13.3738 34.3416C12.9212 35.8769 13.5623 36.6262 13.9395 36.809C11.7709 38.3625 7.71641 42.6758 8.84788 47.5009H19.8798V34.3416L17.3339 33.245Z" fill="#333333"/>
<path d="M21.4856 39.4806L26.2974 36.54L26.832 37.6093L21.4856 39.4806Z" fill="#1D1D1D"/>
<mask id="mask1_1_16593" style="mask-type:alpha" maskUnits="userSpaceOnUse" x="8" y="33" width="24" height="15">
<path fill-rule="evenodd" clip-rule="evenodd" d="M22.4278 33.2443C23.5593 32.9702 25.9354 32.8057 26.3879 34.3409C26.8405 35.8762 26.1994 36.6255 25.8222 36.8083C27.9909 38.3618 32.0453 42.6751 30.9138 47.5002H19.882V34.3409L22.4278 33.2443ZM17.3339 33.2448C16.2024 32.9707 13.8264 32.8062 13.3738 34.3415C12.9212 35.8767 13.5623 36.626 13.9395 36.8088C11.7709 38.3623 7.71641 42.6756 8.84788 47.5007H19.8798V34.3415L17.3339 33.2448Z" fill="#333333"/>
</mask>
<g mask="url(#mask1_1_16593)">
<path d="M18.2761 39.4806L13.4643 36.54L12.9297 37.6093L18.2761 39.4806Z" fill="#1D1D1D"/>
</g>
<path d="M18.2763 38.6787L17.207 44.2924" stroke="white" stroke-width="0.625" stroke-linecap="round"/>
<path d="M18.7678 28.6253C20.2568 29.4742 21.7073 29.1653 22.6802 28.1042" stroke="#EB5757" stroke-width="0.625" stroke-linecap="round"/>
<rect x="16.1406" y="26.1143" width="7.48494" height="11.2274" rx="3.74247" fill="#F5B1B1"/>
<path d="M27.3673 19.699C27.3673 22.0612 27.8539 24.2434 29.7732 24.2434C31.6924 24.2434 33.5156 21.5265 33.5156 19.1643C33.5156 16.8022 32.7617 15.4219 30.8424 15.4219C28.9232 15.4219 27.3673 17.3368 27.3673 19.699Z" fill="#F5B1B1"/>
<path d="M12.3983 19.6995C12.3983 22.0617 11.9117 24.2439 9.99247 24.2439C8.0732 24.2439 6.25 21.527 6.25 19.1648C6.25 16.8027 7.00392 15.4224 8.92319 15.4224C10.8425 15.4224 12.3983 17.3373 12.3983 19.6995Z" fill="#F5B1B1"/>
<rect x="9.1875" y="6.33301" width="21.3855" height="26.1973" rx="10.6928" fill="#FFD9CB"/>
<rect x="19.3516" y="23.4414" width="2.13855" height="3.74247" rx="1.06928" fill="#F5B1B1"/>
<circle cx="15.1602" cy="20.2339" r="1.25" fill="#092C4C"/>
<circle cx="24.5352" cy="20.2339" r="1.25" fill="#092C4C"/>
<path d="M21.25 16.875C22.0938 16.875 24.4 16.875 26.875 16.875" stroke="#092C4C" stroke-width="0.625" stroke-linecap="round"/>
<path d="M12.5 15C13.3438 15 15.65 15 18.125 15" stroke="#092C4C" stroke-width="0.625" stroke-linecap="round"/>
<path fill-rule="evenodd" clip-rule="evenodd" d="M25.2723 4.56011C25.3853 4.5495 25.4998 4.54407 25.6155 4.54407C27.2756 4.54407 28.6749 5.66048 29.1036 7.18346C29.1481 7.18047 29.1929 7.17896 29.2381 7.17896C30.3296 7.17896 31.2144 8.0638 31.2144 9.15531C31.2144 9.46417 31.1436 9.75648 31.0172 10.0169C31.5267 10.2969 31.872 10.8387 31.872 11.4612C31.872 12.3708 31.1347 13.1081 30.2251 13.1081C29.806 13.1081 29.4234 12.9516 29.1328 12.6938C28.7982 12.9536 28.378 13.1082 27.9217 13.1082C27.0516 13.1082 26.3129 12.546 26.0489 11.765C25.9068 11.782 25.7622 11.7907 25.6155 11.7907C25.2392 11.7907 24.8764 11.7333 24.5352 11.6269C24.1619 13.2307 22.7235 14.4256 21.0061 14.4256C19.2545 14.4256 17.7932 13.1826 17.456 11.5306C17.1376 11.6966 16.7756 11.7904 16.3917 11.7904C16.2122 11.7904 16.0376 11.7699 15.8699 11.7311C15.5126 12.542 14.7018 13.1081 13.7589 13.1081C13.0161 13.1081 12.3554 12.7569 11.9337 12.2115C11.6608 12.7439 11.1066 13.1081 10.4673 13.1081C9.55768 13.1081 8.82031 12.3708 8.82031 11.4612C8.82031 11.1775 8.89203 10.9106 9.01833 10.6775C8.89147 10.4167 8.82031 10.1238 8.82031 9.81424C8.82031 9.7415 8.82424 9.66968 8.8319 9.59898C8.04519 9.23189 7.5 8.4338 7.5 7.50838C7.5 6.23495 8.53232 5.20264 9.80574 5.20264C10.4517 5.20264 11.0356 5.46825 11.4542 5.89621C11.7121 5.63254 12.0327 5.4305 12.392 5.31423C12.2142 4.98735 12.1133 4.61268 12.1133 4.21443C12.1133 2.94101 13.1456 1.90869 14.419 1.90869C15.408 1.90869 16.2516 2.53136 16.5791 3.40605C16.9347 3.28941 17.3146 3.22632 17.7092 3.22632C17.9459 3.22632 18.1773 3.24901 18.4013 3.29233C18.9884 2.08338 20.2281 1.25 21.6624 1.25C23.558 1.25 25.1136 2.70565 25.2723 4.56011Z" fill="#092C4C"/>
</g>
<defs>
<linearGradient id="paint0_linear_1_16593" x1="20" y1="0" x2="20" y2="40" gradientUnits="userSpaceOnUse">
<stop stop-color="#FFC1C2"/>
<stop offset="1" stop-color="#E97C7C"/>
</linearGradient>
</defs>
</svg>
